<?xml version="1.0" encoding="utf-8"?>
<!-- Generator: Adobe Illustrator 22.1.0, SVG Export Plug-In . SVG Version: 6.00 Build 0)  -->
<svg version="1.1" id="Capa_1" xmlns="http://www.w3.org/2000/svg" xmlns:xlink="http://www.w3.org/1999/xlink" x="0px" y="0px"
	 viewBox="0 0 900 900" style="enable-background:new 0 0 900 900;" xml:space="preserve">
<style type="text/css">
	.st0{fill:#FFFFFF;stroke:#FBFFF2;stroke-miterlimit:10;}
	.st1{fill:#FCB65B;}
	.st2{opacity:0.8;fill:#CE2828;}
	.st3{opacity:0.8;fill:#383838;enable-background:new    ;}
	.st4{opacity:0.6;fill:#58C3A7;}
	.st5{fill:#FFFFFF;}
	.st6{fill:#FFFFFF;stroke:#000000;stroke-width:2;stroke-miterlimit:10;}
	.st7{fill:none;stroke:#000000;stroke-width:6;stroke-linecap:round;stroke-linejoin:round;}
	.st8{fill:#FFFFFF;stroke:#000000;stroke-width:6;stroke-linecap:round;stroke-linejoin:round;}
</style>
<title>mictlantecuhtli-04</title>
<g id="Capa_3">
	<polygon class="st0" points="346.4,488 337.8,490.7 331.2,494.2 327,499.2 322.3,508.7 320.1,516.3 318.9,524.2 318.9,535.8 
		318.9,544.3 320.4,556.3 322.3,561.5 328.9,572.8 336,577.9 346.4,582.2 355.2,584.7 368,586 391,588.7 415.5,591.5 429.9,593.1 
		439.9,591.8 444,586.9 445,581.1 445.1,572.6 443.3,565 436.1,559.9 428.2,557.4 415.5,555.6 404.2,553.2 391.7,550.9 385.4,549.7 
		379.1,545.4 374.8,540.6 374.6,532.8 374.9,529.9 379.1,531.9 385.7,531.3 391,527.1 397.1,525.9 408.4,525 409,528.5 408.8,533.9 
		406.6,536.6 411.6,537.7 416.9,535.2 421.7,528.5 423,523.6 436.1,524 470.4,525 470.1,517 465.4,507.3 471.1,501.9 472.3,494.2 
		472.4,487.4 462.2,487.4 438.1,487.4 429.4,486.5 421.4,484.4 416,477 412.9,466.8 412.1,453.3 408.8,459.8 403.2,469 	"/>
	<circle class="st1" cx="214.4" cy="725.5" r="25.9"/>
	<circle class="st1" cx="308.4" cy="697.9" r="25.9"/>
	<circle class="st1" cx="385.8" cy="642.6" r="25.9"/>
	<polygon class="st2" points="158.2,543.4 171,546.8 184.1,547.5 187.1,553.4 191.4,558.9 189.7,565.1 187.1,569 183,579.8 
		181.5,588.7 182.3,592.6 172,593.1 153.6,595.7 152.9,566.5 	"/>
	<polygon class="st2" points="428.6,524.2 446.7,524.7 458.2,529.8 467,537.7 474.6,550.5 478.1,561.8 482.5,571 490,577.9 
		499.8,579.8 499,583.9 493.8,590 487.4,592.2 480.1,592.6 472.4,591.8 463.4,587.9 457,583.9 449.2,577.9 444.3,569.5 443.3,565 
		439.8,561.8 436.1,559.9 424.2,556.9 404.2,553.2 391.7,550.9 385.4,549.7 379.1,545.4 374.5,537.7 374.9,529.9 379.1,531.9 
		385.7,531.3 391,527.1 397.1,525.9 408.4,525 409,528.5 408.8,533.9 406.6,536.6 411.6,537.7 416.9,535.2 421.7,528.5 423,523.6 	
		"/>
	<polygon class="st3" points="415.5,430.6 418.8,436.1 422.8,438.4 430.3,439.4 439,439.4 445.8,439.3 452.3,439.4 455.7,440.4 
		461.4,442.9 466.1,447.6 468.7,454.7 468.6,459.4 467.4,465.6 464.1,470.6 459.3,473.9 464.7,473.9 470.5,475.1 471.7,479.9 
		472.4,487.4 462.2,487.4 452.3,487.5 438.1,487.4 429.4,486.5 421.4,484.4 417.9,479.9 416,477 412.9,466.8 412.3,459.1 
		412.1,453.3 414.4,445.4 415.4,438.4 	"/>
	<polygon class="st4" points="255.3,546.8 261.1,553.8 269.9,561.8 279,570.5 289.6,577.9 306.9,588.5 346.8,608.7 370.2,618.7 
		365.2,624.8 355.2,635.5 344.5,645.5 328.9,657.7 312.8,668.4 301.8,673.1 285.6,681.8 278,685 264.8,689.9 255.3,692.9 244.8,696 
		225.5,700.3 208.5,703.6 182.3,706.3 153.8,707.7 155.9,699.2 156.3,677 156.1,652.1 156.7,627.2 156.6,595.7 164.9,594.1 
		182.3,592.6 184.8,601 191.4,610.2 201.6,618 212.3,621.8 223.9,621.2 233.2,618.1 242,611.9 247.7,605.9 251.8,594.7 252.7,583.3 
		251.8,574 246.3,566.5 242.4,561.8 247.8,557.1 	"/>
	<polygon class="st4" points="176.6,707.7 124.9,793.6 221.8,793.6 285.6,681.8 271,687.6 255.3,692.9 240.2,697 225.5,700.3 
		229.6,705.2 235.1,710.2 239.3,722 240.2,725.5 237.2,737.7 231.9,743.9 223.9,749.3 214.4,751.4 208.5,750.9 202.6,748.9 
		196.2,744.5 191.4,740.4 188.5,731.2 188.1,722 191.4,712.5 198.5,704.6 	"/>
	<polygon class="st1" points="252.7,739.9 358.5,734.8 359.9,742.5 363.4,753 366.3,763.5 366.3,768.8 366.3,775.6 360.6,781 
		355.2,782.6 347,782.6 340.5,781 336.1,776.1 335.5,780.4 330.9,784.8 321.4,786.5 316,786.5 310.1,784.8 304.2,779.5 300.4,784.8 
		291,787.4 282.5,787.4 272.3,783.9 269.5,777.2 267.3,782.7 262,786.3 252.7,786.6 241.6,786.5 236.1,782.7 232.8,774.3 	"/>
	<polygon class="st0" points="421.4,653.1 449.2,666.2 445.8,674.9 452.3,678.2 463.4,683.8 474.2,689.3 478.2,684.5 483.4,681 
		489.5,679.2 498.8,679.8 506.1,683.6 511.1,689.3 513.8,696 513.8,705 512,710.2 507.6,716.1 502.1,719.9 492.7,722.1 497.3,725.5 
		499.8,731.9 499.4,739.9 497.9,744.5 493,751.4 483.4,756.7 475.3,757.3 473.7,763.5 471.1,771.6 466.6,777.2 460.5,781 
		452.3,782.6 444,781 437.9,777.2 433.1,771.1 430.9,764.2 431.4,755.4 432.9,751.3 405.8,734.8 396.2,742.7 379.9,730 372,721.8 
		382.7,708.7 395.9,691.6 	"/>
	<polygon class="st0" points="514.3,708.7 522.2,708.7 528.3,711.7 535.6,715.4 544.1,721.3 549.9,727 554,732.9 557,739.8 
		558.9,748.2 561.4,757.3 563.7,764.2 544.5,783.9 540.4,782.6 535.3,777.8 533.5,774.1 532,765.7 531.4,757.3 529.6,751 
		525.1,744.5 518.7,740.5 513.8,738.9 508.8,738.1 503,736.5 499.8,731.9 497.3,725.5 492.7,722.1 504,718.6 	"/>
	<polygon class="st0" points="596.5,645.5 587.8,650 583.6,651.8 577.3,654.3 572,659 569.5,664.2 569,672 572.9,679 576.2,681.8 
		582.7,684.5 588.6,684.5 596.5,680.4 603.9,674.3 612.9,663.8 627.3,679.3 621.2,681.8 614,685.8 608.2,690.1 603.2,696 
		601.2,703.7 602.6,710.2 605.9,715.1 611.4,718.7 618.8,719.8 627.3,716.1 633.5,707.7 641.1,696 655.9,679.5 677,659 670.5,649.1 
		662.2,638.4 648.9,623.8 638.9,614 632.7,619.5 615.8,633 	"/>
	<polygon class="st5" points="205,499.2 205.7,502.7 206.5,510.1 206.4,520.8 206.5,527.1 208.5,530.5 211.9,532.5 219.6,532.8 
		225.6,531.9 229.7,530.5 231.4,521.9 231.7,508.2 239.1,508.5 246.2,508.2 249.1,512.4 253.5,520 254.8,525 255.9,533.9 
		255.9,540.1 254.4,544.3 249.7,554.5 242.4,561.8 246.3,566.5 249.7,571.1 252.3,581.1 252.7,591.8 250.7,597.5 247.7,605.9 
		242,611.9 235.9,616.7 227.3,620.4 216.1,622 212.3,621.8 201.6,618 193.8,612.7 187.8,605.2 182.3,592.6 181.5,583.3 187.1,569 
		193.8,560.6 191.4,558.9 184.1,547.5 181.5,536 181.5,527.1 184.1,520 188.4,512.4 193.8,506.3 	"/>
	<polygon class="st5" points="654.6,382.7 738.8,381.1 736.3,384.8 735,387.7 735.9,390.6 739.4,394.1 739.4,398 737.8,402 
		739.4,405.5 741.2,408.1 741.2,411.5 738.8,416.5 738,420.9 741.2,424.9 743.1,428 742,432.5 739.6,434.9 738.8,439.5 741,442.1 
		741.5,447.2 739.4,451.1 737.2,454.1 738.8,457 739.9,461.2 738.1,465.2 736.4,469 738.7,474.9 714.1,474.9 700.4,475.9 685.7,477 
		665.3,479.7 664.4,475.9 666.9,471.6 666.7,468 663.9,464.9 662.2,460.2 664.3,453.9 661.4,451.4 658.5,447.5 660,442.1 659,438.4 
		656.5,435.1 657.5,429.1 657.9,424.2 654.6,418.3 654.2,413.4 657.5,408.1 655.5,405.1 652.5,402 652.5,397 656.8,393 657.1,390.7 
		653.4,386.5 	"/>
	<polygon class="st5" points="702.8,519.5 742.7,518.8 742.1,545.8 716.7,548.7 720.2,551.1 720,555.1 715.2,558.1 707.5,559.8 
		696.7,562.7 689.3,565.3 685.5,562.8 685,558.8 686.8,554 688.8,551 688.3,547.5 691.9,542 696.7,537.7 701.4,531.9 702.4,524.2 	
		"/>
	<polygon class="st5" points="667.8,518.7 675.7,508.2 680.9,502.1 686.8,495.2 691.9,492.1 694.6,493.4 696.2,495.3 697,500 
		695.3,505.4 690.8,510.8 683.5,520.9 679.3,525 674.9,527 670.9,527 667.9,524.2 	"/>
	<polygon class="st5" points="685.5,579.8 686.8,575.9 691.9,572.2 709.6,568.2 718.4,567.1 721.4,570 721.1,575.5 718.7,578.2 
		712.7,579.1 708,579.3 702.3,580.8 695.3,583.9 689,583.8 	"/>
	<polygon class="st5" points="684.3,603.4 685.5,599.4 691.2,596.7 698.2,593.6 707.6,592 720,590.6 722.8,590 722.4,593.6 
		721.6,598.3 718.8,601.2 713.9,603.4 709.6,603.4 702.7,604.2 695.3,606.5 691.9,608.7 687.8,608.7 685,607 	"/>
	<polygon class="st5" points="686.8,624.3 687.8,619.5 691.9,617.8 698.2,615.4 706.7,613 714,611.5 720.9,610.6 723.8,614 
		723.8,616.3 722.8,619.7 717.7,621.4 711.8,621.6 707.1,623.2 702.4,624.3 696.4,626.8 693.1,629.1 689.3,628.9 	"/>
	<polygon class="st5" points="697,635.2 705.3,633.4 717.6,630.8 727.4,629.9 732.5,630 737.2,631.5 743.2,635.5 745.9,639.4 
		748.7,645.5 751.1,652.9 754.3,661 758.7,668.4 765.3,679.2 771,687.7 782.2,703 778.9,706.5 771.8,712.2 762.8,717.5 747.8,724.7 
		737.2,728.7 726.5,732 722.5,723.8 715.7,708.7 709.8,694.1 704.2,677.3 699.7,659.4 	"/>
	<path class="st3" d="M452.3,304.1c0,0-53.5,12-59.5,78c0,0,12,11.4,17.3,22.4c0,0-20.4-29.3-56.4-26.7c0,0-39.7,3.6-49.5,46
		c0,0-9.2,44.4,40.4,63.8c0,0-24.2,1.1-26.1,43c0,0-3,43.3,21.9,50.5L290.3,571c0,0-30.2-7.5-34.4-30.9c1.6-11.5-1.9-23.2-9.7-31.8
		h-14.5l-0.3,15.9c0,0,0.1,11.2-9.6,9.8c0,0-15.2,1.6-15.2-9.8l-1.6-24.9l-7.8,4.4l-7.5,6.5l-5.1,9l-3.1,11.4l2.6,17l-13.1-0.7
		l-19.8-5.7c0,0,1.2-82.3,3.9-131c0,0-0.7-80.6,122.8-120C278,290.1,355.2,273.2,452.3,304.1z"/>
	<polygon class="st3" points="350.7,706.3 358.5,734.8 252.7,739.5 283.5,684.6 282.7,694.6 283.5,705.1 287.9,715.1 294.9,719.9 
		304,723.7 311.7,723.5 319.1,721.3 326.7,716.1 332.4,705.2 334.2,693 328.9,681.8 321.3,674.9 308.4,672 318.9,664.5 333.7,654 
		344.5,645.5 365.2,624.8 361.6,636 360,644.3 362.6,654 370.2,663.2 377.9,667.2 385.8,668.4 395.3,666.6 403,661.9 407.8,656.2 
		410,648 421.4,653.1 416.9,660.5 410,673.1 402.7,682.1 398.9,687.6 391.7,697.3 385.7,705 377,715.1 370.3,722 	"/>
	<polygon class="st3" points="499.8,731.9 503.5,736.5 510.8,737.3 519.8,741 526.5,746.2 529.6,751.3 531.8,758.7 531.8,768.8 
		533.5,774.3 523.9,780.8 516.7,785.5 510.8,785.5 503,784.5 496.9,782.6 487.4,778.3 472.4,768.8 473.8,762.5 473.8,756.9 
		480.1,756.9 487.4,754.5 493.2,751.3 497.5,744.5 498.8,737.7 	"/>
	<polygon class="st3" points="514.3,708.7 569,674.3 573.8,679.9 578.8,684.5 585.1,684.5 593.3,682.3 603.9,674.3 610.3,667.1 
		612.1,662 627.3,679.3 619.4,682.7 611.4,687.6 606.7,691.6 603.2,696 601.2,703.7 602.6,710.2 608.2,718.6 563.7,764.2 
		561.8,758.7 558,747.7 556,737.1 551.4,729.3 545.1,722.1 537.3,716.6 529.4,711.3 	"/>
	<polygon class="st6" points="140.8,271.1 130.2,233 123.8,203.8 120.9,180.5 121.8,173 126.4,164 130.9,159 139.3,154.3 
		150.3,151.6 155.4,151.6 155,139.9 154,130.2 150.8,122.4 145.9,114.1 140.9,109 134.5,105.6 129.6,103.5 124.8,99.4 123.9,95 
		126.5,90.5 130.9,87.8 138.2,86.8 144.2,87.7 150.2,89.3 158.3,92.2 167.4,97.9 174.2,105 177.4,110 180.9,117.6 182.9,124.6 
		184,131.6 185.8,123.8 189.2,112.8 193.6,103.7 197.5,98.2 205.1,90.8 214.1,85.9 222.8,83.7 231.2,83.7 237.4,85.6 239.1,89.1 
		239.1,93.4 237.5,96.2 234.4,99.3 229.2,101.9 223.1,105.3 218.7,109.5 215.6,114.8 214.2,119.7 212.7,127.6 212.2,135.6 
		212.8,146.3 213.2,150.2 219.1,149.6 227.5,148.8 233.3,150.3 240.4,152.7 245.7,157.3 248.8,163.6 251.3,169.2 251.3,175.1 
		250.5,184.1 248.9,192.9 233.3,272.1 234,277.5 234.8,284.8 234.6,290.5 233.9,296.6 232.2,301.9 227.9,311 224.7,315.5 
		217.7,322.8 210.8,327.6 205.8,330.1 200.6,332 194.1,333.3 186.1,333.9 175.4,332.5 169.2,330.5 162.3,327 156.5,322.9 151,317.5 
		146.2,311 142.4,302.8 139.7,292.2 139.7,282.5 	"/>
	<polygon class="st2" points="654.6,382.7 658.3,379.5 659.1,377.4 659.1,373 656.9,370.7 656.9,367.3 659.1,364 661.3,359.7 
		659.2,354.4 659,351.9 660.7,349.3 663.5,347.1 663.5,344.5 662.7,341.7 662.6,338.7 664.9,335.2 668.1,332.9 669.3,330.3 
		668.6,324.9 669.3,321.5 672.4,320.5 675.2,319.2 677.6,316.7 677.8,313.2 678.1,309.6 680.8,306.6 684.4,304.9 685.2,300.6 
		686.1,295.9 689.1,293.5 692.5,292.4 694.5,290.1 696.7,293.5 700.2,296 703.1,297.7 704,301.5 706.2,304.7 710.3,306.7 
		712.3,308.7 713.5,314.1 716.3,317.5 719,318.5 720.3,321.7 720,325 721.3,327.7 725,329.8 726.7,333.4 725.8,337.5 726.1,342.2 
		729.2,344.7 732.9,348.7 732.8,352.4 731.6,357.5 734.7,359.9 735.8,363.4 735.1,366.1 735.8,370.8 738.8,376.5 738.8,379.5 
		737.7,381.9 	"/>
	<polygon class="st2" points="655.5,482.6 669.8,478.9 687.8,475.9 717.4,475.9 747.3,476.6 745.7,488.9 743.2,508.2 742.7,518.8 
		702.8,519.5 702.8,513.9 701.2,508.2 696.7,502.1 697,497.7 694.6,493.4 690.8,492.8 686.2,495.8 668.4,517.8 668.3,523.2 
		665.6,524.2 662.8,505.4 658.7,493.7 	"/>
	<path class="st2" d="M726.5,732c0,0,38.2-9.8,55.7-28.9l14.3,18.2l10.1,12.3l9,10.5l20.2,22.6l-8.1,7.3l-16.1,11l-17,9.3l-21.4,9.8
		l-19.3,7.5l1.1-6.5l-1.9-9.1l-2.1-10.6l-5.8-14.5l-8.1-17.7L726.5,732z"/>
	<path class="st3" d="M638.9,614l8-8l5.6-9.6l3-8.2l2.3-12.7v-13.3l-0.7-15.5l0.7-9l3.6-9.3l6.8-5.2l3.1,3.3l7.8-1.6l5-4.9l5.7-8.1
		l6.7-9.9l4.5,6.1l1.7,5.7v5.6l-1.4,9.7l-1.4,3.6l-3.3,7.3l-6.7,4.1l-2.2,5.3l-2.8,9.4l1.9,6.5l2.9,4.3l5.6,1.3l-8.5,5l-1.4,3.8
		l2,4.1l-0.6,4.9l4.5,3.8l5.7,1.1l-5.1,2.8l-6.5,3l-1.2,4l2.5,5.3l5.1,5.2l8.9,0.5l-8.9,3.3l-4.1,2.8l-0.7,4.9l3.8,3.5l2.1,3.3
		l4,2.9v10.4H692l-15,13.8C677,659.4,669,641.9,638.9,614z"/>
	<polygon class="st3" points="716.7,548.7 738.1,546.8 748.7,546.8 755.5,548.7 759.3,552.5 762.3,560 762.7,564.6 761.2,570.8 
		765.1,574.1 767.3,580.8 767.3,586.4 765.2,591.8 762.8,594.3 765.5,597.3 768,603.4 767,610.7 763.2,615.1 759.1,618.2 
		760.7,623.1 760.3,628.1 758.5,632.3 754,635.9 746.4,638.2 743.2,635.5 738.4,631.7 729.6,629.9 722.8,630 710.5,631.8 
		699.3,635.2 694.8,634.2 690.9,629 696.2,626.6 702.7,624.1 706.7,622.4 714.5,621.6 721.8,620.8 723.9,618.5 724,614.5 
		722.8,611.7 719.5,609.9 714,611.5 703.5,614 697,614.5 691.9,614 686.8,608.7 693.1,607.3 699.3,605.1 705.5,603.4 713.8,603 
		718,601.3 721.6,598.3 722.8,590 713.8,590 706.5,592.3 697,593.6 693.1,592.9 686.8,588.8 687.5,583.9 690.9,583.7 696.1,582.5 
		702.3,580.8 708.5,579.5 716.3,578.4 720.2,576.8 721.6,572.4 721.2,567.6 712.6,568.2 702.7,570 695.3,571 689.7,569.7 
		687.2,568.2 686.8,565.3 693.1,563.9 702.7,561 710.4,559.6 714.5,558.4 719.1,556.6 720.9,554.1 720.2,551.1 	"/>
</g>
<g id="Capa_2_1_">
	<g>
		<circle class="st5" cx="359.6" cy="434.2" r="55.7"/>
		<path d="M412.3,434.2c-0.1,21.9-14,42.2-34.8,49.6c-20.9,7.4-44.2,1-58.5-15.9c-14.3-17-16-42.1-4.5-61
			c15.1-24.9,47.5-32.8,72.4-17.7C402.7,398.7,412.3,415.8,412.3,434.2c0,3.9,6,3.9,6,0c0-32.4-26.2-58.7-58.7-58.8
			c-17.5,0-34.2,7.8-45.3,21.4c-15.6,19.1-17.9,46.6-5,67.8c13,21.1,37.7,31.9,62,27.1c23.5-4.7,42.5-24.4,46.2-48.1
			c0.5-3.1,0.7-6.3,0.8-9.4C418.3,430.3,412.3,430.3,412.3,434.2z"/>
	</g>
	<path d="M325.6,426.8c0,18.8,15.3,34.1,34.1,34c18.8,0,34-15.2,34-34c0-1.7-1.3-3-3-3h-62.1c-3.9,0-3.9,6,0,6h62.1l-3-3
		c-0.1,11.5-7.2,22.3-18.2,26.3c-14.5,5.5-30.7-1.8-36.2-16.3c-1.2-3.2-1.8-6.6-1.8-10C331.5,423,325.5,423,325.6,426.8z"/>
	<circle class="st7" cx="361.3" cy="433.2" r="6.4"/>
	<path class="st7" d="M312.5,465.8c0,0-29.4,12.3-27,42.7s32.5,39.2,32.5,39.2"/>
	<path d="M346.1,485.3c-9.9,0.5-18.8,7.8-23.7,16c-6,9.9-7.6,22-7.5,33.4c0.1,6.9,0.7,13.7,1.8,20.5c0.3,2.1,0.8,4.1,1.5,6.1
		c3,9.1,9.4,16.8,17.7,21.5c8.1,4.4,16.9,4.8,25.9,5.9l57.7,6.7l8.7,1l1.3,0.2c-1.6-0.2-0.5,0-0.1,0c0.8,0.1,1.7,0.2,2.6,0.2
		c4.5,0.2,9.4-1.2,12.4-4.8c4.3-5.2,3.4-12.9,3.4-19.2c0-1.3,0.1-2.8-0.9-3.8c-1-1-2.5-1.2-3.6-0.5c-1,0.7-1.6,1.8-1.6,3
		c-0.3,3.3,5.4,4.2,5.9,0.8c1.5-10-9-15-17.2-16.5c-12.9-2.3-25.6-4.9-38.4-7.5c-1.7-0.3-3.5-0.7-5.2-1l-1-0.2c-0.5-0.1,0.7,0.4,0,0
		c-3.8-1.9-7.6-4.7-8.5-9.1c-0.6-2.9,0.1-6.2,0.5-9.1c0.2-2.4,0.8-4.7,1.9-6.9c2.6-4.9,8.4-5.8,13.4-6.3c20.5-2.1,41.3-2.9,61.9-3.9
		c0.6,0,1.3,0,1.9-0.1c-1.3,0.1-0.4,0,0.4,0c0.5,0,1,0.1,1.5,0.1c4.2,0.1,8.6-1.1,11.7-4c4.9-4.5,4.4-11.6,4.5-17.7
		c0.1-5.1,0.3-11.4-3.4-15.5s-8.8-3.3-13.7-3.3c-2.4,0-4.8-0.1-7.2-0.1c-0.8,0-1.6-0.1-2.4,0s0.8,0.2,0,0c-3-0.6-6.9-1.6-8.3-4.7
		c-0.9-2.6-0.5-5.4,1.1-7.6c1.2-1.5,3.1-1.7,4.9-1.5c0.9,0.2,1.8,0.4,2.6,0.7c3.6,1.5,5.1-4.3,1.6-5.8c-3.4-1.4-7.3-1.3-10.6,0.3
		c-5.3,2.8-7.4,10.5-5.2,15.9c3.3,8.3,12.8,8.6,20.3,8.8c2.1,0,4.1,0,6.1-0.1s4.7-0.1,6.2,1.5c1.3,1.4,1.6,3.7,1.8,5.6
		c0.2,3.1,0.2,6.3,0,9.4c-0.1,5.1-0.5,10.2-6.2,11.8c-1.5,0.4-3,0.5-4.5,0.4c-0.2,0-1.6-0.1-0.8,0s-0.4,0-0.7-0.1
		c-2.6-0.1-5.2,0.2-7.7,0.4l-15.8,0.9c-11.9,0.7-23.9,1.4-35.8,2.4c-5.6,0.5-11.5,0.7-16.5,3.3c-5.1,2.6-7.7,7.6-8.7,13.1
		c-1.1,6.1-2.3,13,1.2,18.6c2.4,3.8,5.9,6.7,10.1,8.3c2.4,0.9,5.2,1.2,7.7,1.7c6.5,1.3,13,2.6,19.6,3.9c6.6,1.3,13.2,2.4,19.8,3.7
		c4.8,1,9.9,3.1,11,7.8c0.2,0.7,0,0,0,0.3s0,0.5,0,0.7s-0.2,1.4,0.1-0.1l5.9,0.8c0,0,0-0.1,0-0.2c0,1-0.6,1.8-1.4,2.3l-3.6-0.5
		c-0.8-0.7-0.8-2.8-0.8-1.3c0,0.8,0,1.7,0,2.5c0,3.5,0.4,7.3-0.5,10.7c-1,4.1-4.5,5.6-8.2,5.7c-0.7,0-1.3,0-2-0.1
		c-1.1-0.1,0.3,0.1-0.5-0.1l-1.5-0.2l-7-0.8l-55.6-6.4c-6.5-0.8-13.5-0.8-19.7-2.5c-9.2-2.4-17-8.8-21.1-17.4
		c-1.2-2.5-2.1-5.1-2.6-7.8c-0.1-0.4-0.1-0.7-0.2-1.1c0-0.2-0.2-1.2-0.1-0.5s-0.1-0.5-0.1-0.6c-0.3-2.4-0.7-4.7-0.9-7.1
		c-1.2-12.1-1.3-25.2,3.4-36.7c2.4-6.1,6.7-11.3,12.2-14.8c1-0.6,2.1-1.2,3.2-1.7c0.5-0.2-0.5,0.2,0.1,0l0.7-0.3
		c0.5-0.2,0.9-0.3,1.4-0.5c0.8-0.2,1.5-0.4,2.3-0.6s1.8-0.3,0.8-0.1c0.2,0,0.4,0,0.5,0C349.9,491.1,349.9,485.1,346.1,485.3
		L346.1,485.3z"/>
	<path d="M266.9,449.9c-2.2-7-3.3-14.3-3.1-21.7c0-14.9,4.6-29.7,15.2-40.5c8.6-8.8,19.9-14.1,31.6-17.4c3.7-1,2.1-6.8-1.6-5.8
		c-20.2,5.7-38.4,17.7-46.5,37.7c-5.2,12.8-5.7,27.2-3.4,40.8c0.5,2.9,1.1,5.8,2,8.5C262.3,455.1,268.1,453.5,266.9,449.9
		L266.9,449.9z"/>
	<path d="M318.7,368.2c0.8-0.1-0.7,0.1-0.2,0l1.6-0.2c1.9-0.2,3.9-0.4,5.8-0.5c6.4-0.4,12.8-0.3,19.1,0.3c16.8,1.5,34.3,6.5,47,18.1
		c8.7,7.9,14.2,18.3,16.9,29.7c0.9,3.8,6.7,2.2,5.8-1.6c-2.5-10.9-7.8-21-15.3-29.2c-6.8-7-15-12.5-24.1-16.1
		c-14.8-6.1-31.4-7.9-47.3-7.3c-3.7,0.1-7.3,0.4-10.9,0.9C313.3,363,315,368.8,318.7,368.2L318.7,368.2z"/>
	<path class="st7" d="M415.2,430.8c0,0,1.5,8.7,13.1,8.7c9.7,0,17.1-0.1,17.1-0.1s22.9-1.8,22.9,18.4c0,16.2-12.3,16.2-12.3,16.2"/>
	<path d="M252.6,540.3c0.1,4.7,3,9.3,5.8,12.8c8.6,10.9,22.5,17,35.3,21.1c14.1,4.6,28.9,7,43.6,8.7c3.8,0.4,3.8-5.6,0-6
		c-20.7-2.3-42.9-6.2-61.2-16.9c-4.6-2.6-8.8-5.9-12.3-9.8c-0.3-0.4-0.6-0.7-0.9-1.1c-0.5-0.6,0.4,0.5-0.1-0.1l-0.4-0.5
		c-0.5-0.7-0.9-1.3-1.4-2.1s-0.7-1.2-1-1.9c-0.1-0.3-0.3-0.6-0.4-0.9c-0.3-0.6,0.2,0.6-0.1-0.3s-0.6-1.8-0.8-2.8s0,0.8,0-0.3
		C258.6,536.4,252.6,536.4,252.6,540.3L252.6,540.3z"/>
	<path d="M232,462.8c-6.7-0.5-12,3.1-12.8,9.9c-0.5,3.6,0.2,7.2,2,10.3c1.4,2.3,3,4.4,5.4,5.8c3.6,2,8.3,2.2,12.4,1.8
		s8.1-1.6,10.9-4.6c3.1-3.2,4.2-7.5,4.8-11.8c1.1-6.8,0.8-13.8-0.8-20.5c-3.1-12.5-12.6-21.3-25.4-23.2c-13.4-2-27.4,1-35.6,12.5
		c-4,5.8-6.3,12.7-6.6,19.7c-0.3,10.6,2.9,21,9.3,29.5c1.6,2.2,3.4,4.3,5.5,6.1c0.5,0.4-0.1-0.6,0.1,0.3c0.2,0.6,0.4,1.3,0.6,1.9
		c1.6,6.6,1.9,14.1,1.8,20.8c-0.1,4.2-0.3,8.4,2.9,11.8c4,4.2,10.8,2.9,16,3c3.7,0.2,7.3-1.5,9.3-4.6c3.2-4.7,2.2-11.5,2.4-16.9
		l0.1-6l-3,3c5,0,10.1,0.3,15.1,0c8.1-0.5,13.5-6.6,14.3-14.5c0.6-6.6-1.7-13.5-7.9-16.6c-3.4-1.7-6.5,3.4-3,5.2
		c5.3,2.7,6.3,9.9,4,15c-1.3,3.1-4.1,4.5-7.1,5c0.7-0.1-0.6,0-1,0c-1.4,0-2.9,0-4.3,0h-10.1c-1.6,0-3,1.4-3,3c-0.1,4-0.3,8-0.3,12.1
		c0,2.4,0.3,5-0.9,7.2c-0.4,0.6-0.8,1.2-1.4,1.6c-1,0.7-0.6,0.3-1.5,0.7c-0.8,0.3-0.2,0,0,0c-0.9,0-1.7,0-2.6,0c-2,0-4.1-0.1-6.1,0
		c-2.2,0.1-4.3,0-5.4-2.1c-0.6-1.4-0.9-2.9-0.8-4.3c0-0.5,0.1-0.9,0.1-1.4c-0.1,1.6,0-0.2,0-0.7c0.1-1.4,0-2.8,0-4.1
		c-0.1-3.9-0.3-7.7-0.7-11.6c-0.4-3.4-0.7-7.2-2.3-10.3c-0.7-1.1-1.5-2-2.5-2.8c-2.9-3-5.4-6.5-7.2-10.3c-2.5-5.1-3.9-10.6-4.3-16.2
		c-0.1-1.4-0.1-2.8,0-4.2c0-0.4,0.1-0.8,0.1-1.2c0-0.1,0.1-1,0-0.5s0.1-0.5,0.1-0.7c0.2-1.5,0.6-3,1-4.5c2.3-7.9,7.6-15,15.9-17.8
		c10.8-3.7,25.8-2.2,33.5,7c5.3,6.4,6.6,15.3,6.3,23.3c0,1.3-0.1,2.6-0.3,3.9c0,0.2-0.1,0.4-0.1,0.6c-0.1,0.5,0.1-0.8,0-0.2
		c0,0.1-0.1,0.3-0.1,0.5c-0.5,3.4-1.1,7.2-3.8,9.6c-2.9,2.6-7.3,2.7-11,2.5c-2.5-0.1-4.9-0.7-6.5-2.7c-0.5-0.6-0.9-1.5-1.4-2.1
		c-0.1-0.2-0.8-1.3-0.4-0.4c0-0.1-0.1-0.2-0.1-0.4c-0.8-2.4-1.3-6.4,0.4-8.6c1.3-1.6,3.8-1.7,5.8-1.6c3.9,0.3,3.8-5.7,0-6L232,462.8
		z"/>
	<path class="st7" d="M245.9,508.5l2.8,4.1c11.9,16.8,7.9,40-8.9,51.8c-16.8,11.9-40,7.9-51.8-8.9c-11.9-16.8-7.9-40,8.9-51.8
		c1.4-1,3-1.9,4.5-2.8l3.2-1.6"/>
	<path class="st7" d="M242.1,562c13.7,13.7,13.7,36,0,49.8s-36,13.7-49.8,0c-13.7-13.7-13.7-36,0-49.8c0,0,0,0,0,0"/>
	<path class="st7" d="M210.2,571.3v17.1c0,0-0.4,7.3,4.3,7.4c2.8,0,7.2,1.3,7-6.1c-0.2-9.2,0-18.5,0-18.5"/>
	<path class="st7" d="M303.9,424c0,0-42.3,8.9-52.4,57.7"/>
	<path class="st7" d="M412.8,450.6c0,0-6.8,36.7,21.1,37s38.2,0,38.2,0"/>
	<path class="st7" d="M374.5,531.1c5.4,1.9,11.5,1.1,16.2-2.1c4.7-3.3,10.6-4.5,16.2-3.4"/>
	<path d="M395.3,514.7c3.4,1.7,6.3,4.3,8.3,7.5c1.5,2.4,1.9,4.8,2.3,7.6c0.2,1.1,0.6,3.4-1.3,3.9c-1.6,0.4-2.5,2.1-2.1,3.7
		c0.2,0.8,0.7,1.4,1.4,1.8c7.7,5,16.2-1.3,19.7-8.3c3.9-7.6,1.9-16.9-4.7-22.4c-3-2.4-7.3,1.8-4.2,4.2c4.4,3.3,6.1,9.2,4.1,14.4
		c-1.4,3.3-4.2,7.4-8.2,7.8c-1,0.1-2-0.1-2.9-0.5c-0.4-0.1,0.3,0-0.4-0.2c-0.1-0.1-0.3-0.1-0.4-0.2l-0.7,5.5
		c7.7-2.2,6.3-12,3.9-17.6c-2.4-5.4-6.6-9.7-11.8-12.4C394.9,507.8,391.8,513,395.3,514.7L395.3,514.7z"/>
	<circle class="st8" cx="483.1" cy="437.7" r="20"/>
	<circle class="st8" cx="487.1" cy="470.9" r="18.7"/>
	
		<ellipse transform="matrix(0.1602 -0.9871 0.9871 0.1602 -33.6532 924.2054)" class="st8" cx="526.3" cy="481.9" rx="20.5" ry="20.5"/>
	
		<ellipse transform="matrix(0.1602 -0.9871 0.9871 0.1602 14.4701 878.6675)" class="st8" cx="523.6" cy="430.8" rx="20.5" ry="20.5"/>
	<g>
		<path class="st5" d="M620.9,393.2c0,0,5.2,14.6,6.1,49.2l-65.6-2.8c0,0-18.5,1.3-17.3-12.7s7.5-13.7,23.2-17.9
			S620.9,393.2,620.9,393.2z"/>
		<path d="M618,394c1.2,3.7,2.1,7.5,2.7,11.4c2,12.2,3.1,24.6,3.3,37l3-3l-62.6-2.7c-6.1-0.3-16.5,0.5-17.4-7.6
			c-0.4-3.2,0.3-7.6,2.3-10.2c1.6-2.2,4.4-3.2,7-4c7.7-2.3,15.6-4,23.3-6.3c14.1-4,28.1-8.3,42-12.5c3.7-1.1,2.1-6.9-1.6-5.8
			c-12.9,3.9-25.7,7.8-38.7,11.6c-8.2,2.4-16.4,4.4-24.6,6.7c-7.4,2-13.3,5.3-15,13.3c-0.9,4.2-1.3,8.9,0.9,12.8
			c1.8,2.9,4.5,5.1,7.8,6.3c3.6,1.4,7.4,1.6,11.2,1.6c10.5,0.1,20.9,0.9,31.4,1.4l34,1.5c1.7,0,3-1.3,3-3
			c-0.2-12.8-1.4-25.5-3.5-38.1c-0.6-4-1.5-8-2.8-11.9C622.5,388.8,616.7,390.4,618,394z"/>
	</g>
	<g>
		<path class="st5" d="M627,502.4c0,0-3.6,15.1-21.5,44.6l-53.6-37.9c0,0-15.6-6.7-7.7-20.1c7.2-12.1,13.8-7.4,29.2-2.4
			S627,502.4,627,502.4z"/>
		<path d="M624.1,501.6c-1,3.8-2.3,7.4-3.9,11c-4.9,11.4-10.7,22.4-17.3,32.9l4.1-1.1l-50.2-35.6c-5.7-4-14.6-7.9-10.9-16.5
			c1.3-3,3.7-6.8,7.1-7.8c3.1-0.9,6.6,0.4,9.5,1.4c7.6,2.5,15.1,5.1,22.8,7.4c13.6,4.1,27.3,8.1,41,11.9c3.7,1.1,5.3-4.7,1.6-5.8
			c-12.5-3.6-25.1-7.2-37.6-10.9c-8.2-2.4-16.3-5-24.4-7.8c-7.2-2.5-15-4.3-20.8,2c-6,6.5-8.4,15.8-2.3,23c2.3,2.8,5.3,4.3,8.2,6.2
			c9,5.8,17.6,12.4,26.3,18.6l26.8,19c1.4,0.8,3.3,0.3,4.1-1.1c6.7-10.8,12.6-22.2,17.7-33.9c1.7-3.7,3.1-7.5,4.1-11.5
			C630.8,499.4,625,497.8,624.1,501.6z"/>
	</g>
	<path d="M422.7,526.9l41.5,1.1l5.9,0.2c1.6,0,3-1.4,3-3c0.5-6.3-0.2-13.9-4.6-18.9c-2.5-2.9-6.8,1.4-4.2,4.2
		c3.1,3.6,3.1,10.1,2.8,14.6l3-3l-41.5-1.2l-5.9-0.2C418.8,520.7,418.8,526.7,422.7,526.9L422.7,526.9z"/>
	<path d="M418,510.3v3.9c0,1.7,1.3,3,3,3s3-1.3,3-3v-3.9c0-1.7-1.3-3-3-3S418,508.6,418,510.3z"/>
	<line class="st7" x1="435.8" y1="510.3" x2="435.8" y2="524.2"/>
	<line class="st7" x1="452" y1="508.7" x2="452" y2="524.3"/>
	<path d="M444,527.5c0.7,0.1-0.5-0.1-0.2,0c0.5,0.1,1,0.2,1.4,0.3c1.6,0.4,3.2,0.9,4.8,1.5c4.9,2,9.2,5.1,12.9,8.9
		c5.8,6.5,9.9,14.3,11.7,22.8c0.7,3.5,2,6.8,3.8,9.9c4.7,7.6,12.4,11.6,21.2,12.2l-3-3c0,0.1,0,0.4,0,0.4s0,0.4,0,0.5s0.2-0.6,0,0.1
		c-0.2,1.2-0.6,2.3-1.2,3.4c-0.8,1.4-2,2.5-3.3,3.3c-2.3,1.3-4.9,2-7.6,2c-14.2,0.6-27.7-6.4-35.3-18.5c-1.2-1.9-2.3-3.9-3.2-5.9
		c-0.4-0.8,0-0.1-0.2-0.5l-0.3-0.8c-0.1-0.2-0.2-0.5-0.2-0.7c-1.2-3.7-7-2.1-5.8,1.6c3,9.4,10.1,17.9,18.1,23.3
		c7.7,5.1,16.8,7.7,26,7.5c6.2-0.1,12.5-2,16.2-7.2c1.8-2.5,2.8-5.5,2.9-8.6c0-1.6-1.4-3-3-3c-7.1-0.5-13.2-4-16.6-10.3
		c-1.8-3.2-2.3-6.8-3.4-10.5c-4.2-14-13.1-26.8-27-32.5c-2.7-1.2-5.5-1.9-8.4-2.2C440.2,521.1,440.2,527.1,444,527.5L444,527.5z"/>
	<path d="M454.6,300.2c-7.2,1.5-14.3,4.9-20.7,8.5c-14.7,8.3-26.6,20.8-34.3,35.8c-5.9,11.8-9,24.7-10.1,37.8c-0.3,3.8,5.7,3.8,6,0
		c1.7-20.1,8.9-39.6,23.1-54.3c5-5.1,10.6-9.5,16.7-13.2c2.5-1.5,5.2-2.9,7.8-4.2c2-1,4-1.8,6.1-2.5c2.3-0.9,4.6-1.6,7-2.1
		C460,305.2,458.4,299.4,454.6,300.2L454.6,300.2z"/>
	<path d="M434.9,293.3c-4.4,1.4-8.5,3.4-12.4,5.9c-9.5,5.9-17.8,13.5-24.5,22.4c-5.1,6.9-9.4,14.4-12.6,22.4
		c-1.5,3.6,4.3,5.1,5.8,1.6c8-19.4,22.5-36.6,41.9-45.3l0.6-0.3l0.5-0.2c0.4-0.2,0.8-0.3,1.2-0.5s0.7-0.3,1.1-0.4
		C440.2,297.9,438.6,292.1,434.9,293.3L434.9,293.3z"/>
	<path d="M411.7,288.1c-3.9,2.3-7.6,4.9-10.9,7.9c-7.9,6.6-14.7,14.5-20.1,23.4c-3.9,6.6-6.9,13.6-9,20.9c-1.1,3.7,4.7,5.3,5.8,1.6
		c5.5-18.9,17.4-35.3,33.7-46.3c1.2-0.8,2.4-1.6,3.6-2.2C418.2,291.5,415.1,286.4,411.7,288.1L411.7,288.1z"/>
	<path d="M394.2,284.9c-5.5,4.6-10.6,9.8-15.1,15.5c-9.4,11.4-17.1,24.3-20.7,38.7c-0.9,3.8,4.9,5.4,5.8,1.6
		c3.4-13.7,10.8-26.2,19.9-36.9c4.3-5.3,9.1-10.2,14.3-14.5C401.4,286.7,397.1,282.5,394.2,284.9L394.2,284.9z"/>
	<path d="M375,281.4c-4.4,4.7-8.3,9.9-11.7,15.4c-7.9,12.4-13.5,26.1-16.5,40.5c-0.8,3.8,5,5.4,5.8,1.6c2.9-13.9,8.3-27.1,15.9-39.1
		c3.1-5.1,6.7-9.8,10.7-14.2C381.9,282.9,377.7,278.6,375,281.4z"/>
	<path d="M354,280.5c-3.7,5.3-6.8,10.9-9.4,16.8c-6,13-9.5,27.1-10.2,41.4c-0.2,3.9,5.8,3.9,6,0c0.7-13.7,4.1-27.1,9.9-39.5
		c2.4-5.5,5.4-10.8,8.9-15.7C361.5,280.4,356.3,277.4,354,280.5L354,280.5z"/>
	<path d="M337.3,280.5c-3,5.6-5.6,11.4-7.7,17.4c-4.8,12.7-7.7,26-8.4,39.5c-0.2,3.9,5.8,3.9,6,0c0.8-13,3.5-25.8,8.2-37.9
		c2-5.5,4.3-10.8,7.1-15.9C344.4,280.1,339.2,277.1,337.3,280.5L337.3,280.5z"/>
	<path d="M318.4,283.5c-2.4,4.8-4.2,9.8-5.5,15c-3.5,13.1-4.9,26.7-4.4,40.2c0.1,3.9,6.1,3.9,6,0c-0.6-13,0.8-26,4.2-38.6
		c1-3.6,2.1-7.1,3.5-10.5c0.3-0.9,0.1-0.4,0.4-1c0.2-0.4,0.4-0.8,0.5-1.2s0.3-0.6,0.5-0.9C325.4,283.1,320.2,280,318.4,283.5
		L318.4,283.5z"/>
	<path d="M298.9,286.3c-1,4.3-1.7,8.6-2.1,13c-1.6,13.9-2.4,27.9-2.4,41.8c0,3.9,6,3.9,6,0c0.1-13.8,0.9-27.6,2.4-41.4
		c0.4-4,1-8,2-11.9C305.6,284.1,299.8,282.5,298.9,286.3L298.9,286.3z"/>
	<path d="M282.5,288.1c-3.5,19.4-3,40-0.1,59.4c0.6,3.8,6.4,2.2,5.8-1.6c-1.9-13.2-2.5-26.5-1.6-39.8c0.3-5.5,0.8-11,1.7-16.5
		C289,285.9,283.2,284.3,282.5,288.1z"/>
	<path d="M264.9,292.5c-0.7,7.3-0.8,14.6-0.8,21.9c0.1,12.6,0.8,25.9,5.1,37.8c1.3,3.6,7.1,2,5.8-1.6c-4.2-11.6-4.8-24.5-4.9-36.8
		c0-7.1,0.1-14.2,0.8-21.2C271.2,288.6,265.2,288.7,264.9,292.5z"/>
	<path d="M247.4,300c-0.1,7.2,0.3,14.3,1,21.4c1.2,12.8,3.3,25.8,8.6,37.5c1.6,3.5,6.8,0.5,5.2-3c-5-11.1-6.8-23.7-7.9-35.7
		c-0.7-6.7-1-13.4-0.9-20.2C253.4,296.2,247.4,296.2,247.4,300L247.4,300z"/>
	<path d="M230,308.2c0,6.7,0.7,13.3,2.1,19.8c2.6,13.2,7.8,25.9,16.2,36.5c2.4,3,6.6-1.2,4.2-4.2c-7.9-9.9-12.3-22.1-14.7-34.4
		c-1.2-5.8-1.8-11.7-1.8-17.6C236.1,304.3,230.1,304.3,230,308.2z"/>
	<path d="M214,321.9c0.5,7,1.9,13.9,4.1,20.6c4.5,14.2,12.2,27.4,23.1,37.6c2.8,2.6,7.1-1.6,4.2-4.2c-10.2-9.7-17.7-22-21.8-35.5
		c-1.4-4.4-2.4-8.9-3.2-13.4c-0.3-1.7-0.5-3.3-0.6-5C219.8,318.1,213.8,318,214,321.9L214,321.9z"/>
	<path d="M199.4,336c4.8,15,11.9,29.2,21.1,42c4,5.6,8.5,10.8,13.6,15.4c2.9,2.6,7.1-1.7,4.2-4.2c-10.8-9.5-18.6-22-24.9-34.8
		c-3.2-6.4-6-13.1-8.2-19.9C204,330.8,198.2,332.4,199.4,336L199.4,336z"/>
	<path d="M183.2,347.5c1.5,4.6,3.5,9.1,5.8,13.3c5.4,10.4,12.2,20.1,20.1,28.8c6,6.5,12.5,12.4,19.6,17.6c3.1,2.3,6.1-2.9,3-5.2
		c-11.1-8.3-20.9-18.4-28.8-29.8c-4.9-6.9-9-14.3-12.3-22.1c-0.6-1.4-1.1-2.8-1.6-4.3C187.8,342.2,182,343.8,183.2,347.5
		L183.2,347.5z"/>
	<path d="M170.6,363.8c2.2,4.9,4.8,9.6,7.9,14c6.8,10.6,15.2,20,24.8,28.1c6.8,5.7,14.3,10.5,22.3,14.3c3.5,1.6,6.5-3.5,3-5.2
		c-21.7-10.3-39.1-28.5-50.4-49.5c-0.8-1.6-1.7-3.2-2.4-4.8C174.2,357.2,169,360.3,170.6,363.8L170.6,363.8z"/>
	<path d="M160.3,380c2.6,4.8,5.7,9.4,9.1,13.7c7.5,10,16.4,18.9,26.5,26.4c7,5.1,14.6,9.3,22.6,12.4c3.6,1.4,5.2-4.4,1.6-5.8
		c-21.6-8.5-39.6-25.7-51.9-45.2c-0.9-1.5-1.9-3-2.7-4.6C163.7,373.5,158.5,376.6,160.3,380L160.3,380z"/>
	<path d="M155.8,402.3c13.5,13.8,28,27.1,44,38c3.2,2.2,6.2-3,3-5.2c-15.5-10.6-29.6-23.6-42.8-37
		C157.3,395.4,153,399.6,155.8,402.3L155.8,402.3z"/>
	<path d="M152.9,421.5c13.1,9.5,26.2,19,39.1,28.7c3.1,2.3,6.1-2.9,3-5.2c-12.9-9.8-26-19.2-39.1-28.7
		C152.8,414.1,149.8,419.3,152.9,421.5L152.9,421.5z"/>
	<path d="M151.9,440.3c12,6.7,24,13.4,35.9,20.2c3.4,1.9,6.4-3.3,3-5.2c-11.9-6.8-24-13.5-36-20.2
		C151.5,433.2,148.5,438.4,151.9,440.3L151.9,440.3z"/>
	<path d="M151.9,456.7c11.4,7.1,24.1,14,37.3,17.1c3.8,0.9,5.4-4.9,1.6-5.8c-12.7-2.9-24.9-9.6-35.9-16.5
		C151.7,449.4,148.7,454.6,151.9,456.7L151.9,456.7z"/>
	<path d="M150.5,471.8c13.2,8.4,28,13.9,43.5,16.2c1.6,0.4,3.2-0.5,3.7-2.1c0.4-1.4-0.5-3.5-2.1-3.7c-15-2.2-29.3-7.5-42.1-15.6
		C150.2,464.5,147.2,469.7,150.5,471.8L150.5,471.8z"/>
	<path d="M150.5,485.5c3.9,2.8,8.1,5.1,12.5,7c12,5.4,24.7,9.3,37.7,11.5c3.8,0.7,5.4-5.1,1.6-5.8c-12.6-2.3-25.1-5.7-36.7-11.1
		c-4.2-1.8-8.2-4.1-12-6.8C150.4,478,147.4,483.2,150.5,485.5L150.5,485.5z"/>
	<path d="M150.5,502c12,6.6,25.3,10.4,38.9,11.2c3.9,0.2,3.9-5.8,0-6c-12.6-0.8-24.8-4.4-35.9-10.4C150.1,495,147.1,500.1,150.5,502
		L150.5,502z"/>
	<path d="M150.5,529.9c9.2,5,20.4,7.3,30.8,7.2c3.9,0,3.9-6,0-6c-9.3,0.1-19.4-1.9-27.7-6.4C150.1,522.9,147.1,528.1,150.5,529.9
		L150.5,529.9z"/>
	<path d="M183.8,544.7c-10.8,0.2-22-2.5-32-6.3c-3.6-1.4-5.2,4.4-1.6,5.8c10.6,4,22.3,6.7,33.6,6.5
		C187.7,550.6,187.7,544.6,183.8,544.7L183.8,544.7z"/>
	<line class="st7" x1="152.6" y1="595.9" x2="182" y2="592.8"/>
	<circle class="st7" cx="213.4" cy="725.8" r="25.9"/>
	<circle class="st7" cx="308" cy="698" r="25.9"/>
	<circle class="st7" cx="385.4" cy="642.8" r="25.9"/>
	<polyline class="st7" points="176.7,707.3 124.6,793.8 221.5,793.8 285.3,682.1 	"/>
	<path d="M331.7,695.3L387,740l7.7,6.2c1.2,0.9,3.1,1.3,4.2,0c5.9-7,11.5-14.3,17.1-21.5c9.8-12.8,19.5-25.8,27.6-39.8
		c3.3-5.7,7-11.9,8.2-18.4c0.3-1.3-0.2-2.7-1.4-3.4l-34.3-15.4l-4.9-2.2c-3.5-1.6-6.5,3.6-3,5.2l34.3,15.4l4.9,2.2L446,665
		c-1,5.3-3.8,10.2-6.4,14.9c-3.8,6.8-8.1,13.2-12.5,19.6c-8.4,12-17.3,23.7-26.4,35.1c-2,2.5-4,4.9-6,7.4h4.2l-55.3-44.8L336,691
		C333,688.6,328.8,692.9,331.7,695.3L331.7,695.3z"/>
	<path class="st7" d="M421,653.3c0,0-27.7,47.1-51.2,69"/>
	<path d="M347.5,707.4l13.4,49.3c1.1,4.2,2.7,8.4,3.4,12.7c0.1,0.5,0-0.3,0.1,0.5c0,0.4,0,0.8,0,1.2c0,0.8-0.1,1.6-0.3,2.3
		c-0.5,1.7-1.6,3.2-3.1,4.2c-2.9,1.9-6.6,2.3-10,2.4c-3.1,0.1-6.5,0-9.4-1.3c-0.9-0.4-1.7-1-2.4-1.8c-0.3-0.4-0.6-0.9-0.8-1.5
		c-0.1-0.4-0.2-0.8-0.3-1.2c0.1,0.8,0-0.1,0-0.4s0.1-1.8,0-0.6c0.5-3.7,0.1-7.5,0-11.2s-6-3.9-6,0l0.1,6.5c-0.1,1-0.1,2.1,0,3.2
		c0.2,1.1,0.2-1,0.1,0c-0.6,3.4,0.4,6.9,2.6,9.5c4.6,5.2,12.9,5.3,19.2,4.6s13-3.3,15.4-9.8c1.9-5,0.1-9.9-1.3-14.8l-8.3-30.4
		l-6.8-25C352.2,702,346.4,703.6,347.5,707.4L347.5,707.4z"/>
	<path d="M298.7,762.2l1.5,13.4c0.3,2.5,0.4,4.9,1.7,7.1c3.1,5.1,9.6,6.7,15.1,7c4.1,0.3,8.2-0.1,12.2-1.1
		c6.9-2.1,10.6-7.5,8.9-14.7c-0.9-3.8-6.7-2.2-5.8,1.6c2,8.4-9.5,8.4-15,8.2c-2.7,0-5.4-0.6-7.9-1.8c-1.1-0.6-2.1-1.5-2.7-2.6
		c-0.5-0.8,0.3,0.2-0.3-0.6c-0.1-0.2-0.2-1.5,0,0.2c-0.2-1.2-0.3-2.5-0.4-3.7l-1.5-13C304.3,758.4,298.3,758.4,298.7,762.2
		L298.7,762.2z"/>
	<path d="M266.3,763.8v12.8c0,2.7,0.1,5,1.6,7.4c5.1,8,18.5,7.7,26.9,6.1c5.9-1.1,11.7-4.5,11.8-11.1c0.1-3.9-5.9-3.9-6,0
		c-0.1,6.7-13.3,6.1-17.9,5.7c-3.7-0.3-7.9-1.1-9.9-4.2c-0.5-0.7-0.2-0.3-0.5-1.1s-0.1,0.2-0.1-0.3c0-0.9,0-1.8,0-2.7v-12.6
		C272.3,759.9,266.3,759.9,266.3,763.8L266.3,763.8z"/>
	<path d="M229.5,774.5c0,7.1,5.1,13.2,11.7,15.3c3.4,1.1,7.2,1.1,10.8,1.2c4.1,0.2,8.1-0.6,11.9-2.1c5.2-2.3,8.5-7.4,8.4-13.1
		c0.1-3.9-5.9-3.9-6,0c-0.2,9-10.2,9.4-17,9c-4.4-0.2-9.1-0.7-11.9-4.6c-0.9-1.3-1.5-2.7-1.7-4.2c-0.1-0.3-0.1-0.6-0.2-0.9
		c0.1,0.9,0,0.2,0,0s0-0.4,0-0.6C235.5,770.7,229.5,770.7,229.5,774.5L229.5,774.5z"/>
	<line class="st7" x1="252.4" y1="739.7" x2="358.1" y2="735"/>
	<path d="M466.2,712.9l13.3,8.5c7.1,4.5,16,5,23.5,1.4c12.2-5.9,17.4-20.6,11.5-32.8c-2.6-5.5-7.2-9.8-12.8-12.1
		c-11.2-4.7-24-0.1-30.4,10l4.1-1.1L447,672.5c-3.4-1.7-6.5,3.4-3,5.2l28.4,14.4c1.4,0.8,3.2,0.3,4.1-1.1
		c5.4-8.8,16.8-11.5,25.6-6.2c8.8,5.4,11.5,16.8,6.2,25.6c-4.6,7.5-13.9,10.8-22.2,7.8c-1.5-0.6-3-1.5-4.3-2.5l-12.5-8
		C466,705.7,463,710.9,466.2,712.9L466.2,712.9z"/>
	<path d="M445.6,737.9l11.4,5.5c1.7,0.8,3.5,1.5,5.2,2.5c3,1.9,5.4,4.7,6.8,8.1c4.1,9.4-0.2,20.4-9.6,24.5
		c-9.4,4.1-20.4-0.2-24.5-9.6c-2.2-5-2.1-10.8,0.4-15.7c0.8-1.4,0.3-3.2-1-4.1L407,732.4c-3.3-2-6.3,3.2-3,5.2l27.2,16.6l-1.1-4.1
		c-4.8,9.9-3,22,5.3,29.5c10.1,9.1,25.6,8.4,34.8-1.7c4.1-4.5,6.3-10.3,6.4-16.4c0-8.3-4.5-17.5-12.2-21.2l-15.7-7.5
		C445.2,731,442.1,736.2,445.6,737.9L445.6,737.9z"/>
	<path class="st7" d="M494.6,722.2c7.5,9.3,6.1,22.9-3.2,30.5c-5,4.1-11.6,5.7-18,4.4"/>
	<path d="M470,771.2c6.6,5.1,13.8,9.4,21.4,12.8c10,4.4,22,7.5,31.7,0.9l11.6-7.8c3.2-2.1,0.2-7.3-3-5.2l-9.8,6.6
		c-3.2,2.2-6.2,4-10.2,4.2c-10.8,0.5-21.7-5.5-30.6-11.1c-1.8-1.1-3.6-2.3-5.4-3.6l-1.5-1.1c-0.3-0.2-1.3-1-0.1,0
		c-1.2-1.1-3-1.1-4.2,0C468.9,768,468.7,770.2,470,771.2L470,771.2z"/>
	<path d="M605.8,716.7l-21.6,22.1L550,773.9l-7.9,8.1l2.9-0.8c-12.6-2.2-9-16.6-11.1-25.4c-2.5-10.7-10.2-18.2-21.3-20
		c-1.6-0.1-3.2-0.3-4.8-0.7c-3.2-0.8-5.7-3.4-6.5-6.6c-1-3.7-6.8-2.2-5.8,1.6c1.8,6.8,8.7,12.2,16,11.6c0.8-0.1-1-0.3-0.4-0.1
		c0.4,0.1,0.7,0.2,1.1,0.2c1.7,0.4,3.5,1,5.1,1.7c2.8,1.2,5.3,3.1,7.1,5.6c-0.4-0.6,0.6,0.8,0.7,1.1c0.4,0.6,0.7,1.2,1,1.9
		c1,2.1,1.8,4.3,2.1,6.6c0.5,2.9,0.2,5.8,0.4,8.6c0.5,6.9,3.1,14.5,9.7,18c2.4,1.2,5.9,2.7,8.1,0.6c0.8-0.7,1.5-1.6,2.3-2.3
		l10.3-10.5l30.7-31.4l20.3-20.7C612.8,718.2,608.5,714,605.8,716.7L605.8,716.7z"/>
	<path class="st7" d="M510.5,712.5c0,0,4.8-6.2,13.7-2.2s27.7,12,32.8,31.1c0,0,2.8,13.6,6.4,23.2"/>
	<path class="st7" d="M570.6,673.3c0,0-48.4,31.7-57.6,37.1"/>
	<path class="st7" d="M612.6,664c-10.2,14.3-19.6,18.5-19.6,18.5c-7.7,4.5-17.6,2-22.1-5.7c-4.5-7.7-2-17.6,5.7-22.1
		c1-0.6,2-1.1,3.1-1.4c0,0,24.5-6.4,64.5-44.2c0,0,15-15,13.5-43.4l-0.9-18.6c0,0-1.6-13.3,6.3-20.4l4.4-4.1"/>
	<path class="st7" d="M640.8,696.2c-14-17.5-28.9-34.4-44.6-50.4"/>
	<path class="st7" d="M627,679.5c-14.1,5.1-20.6,12.3-20.6,12.3c-6.7,5.9-7.3,16.1-1.5,22.8c3.1,3.5,7.5,5.5,12.1,5.5
		c4.1,0,8.3-1.3,13.3-7.9c0,0,13.1-20.5,25.2-32.5s36.1-33.9,36.1-33.9h6.2"/>
	<path class="st7" d="M638.6,614.2c0,0,25.1,22.8,38.1,45.1"/>
	<path d="M716,552.1c3,0.5-0.1,2.5-1.4,3c-2.5,0.9-5,1.5-7.6,1.9c-6,1.2-11.9,2.9-17.6,5.1c-1.4,0.5-1.5,0.3-1.8-1.3
		c-0.3-1.7,0.1-3.5,1.3-4.8c1.5-1.4,3.4-2.3,5.5-2.6c0.7-0.2,1.5-0.1,0.2-0.1h0.7c16.7-0.8,33.3-2.7,50-3.3c3.4-0.2,6.8,0.7,9.5,2.7
		c3.4,2.6,4.5,7.5,4.6,11.6c0.1,1.8-0.3,3.6-1.1,5.2c-0.8,1.4-0.4,3.3,1.1,4.1c0,0,0,0,0,0c2.6,1.2,4.3,3.8,4.5,6.6
		c0.5,4.5,0,9.2-3.5,12.2c-1.6,1.4-0.8,3.6,0.6,4.7c-1.2-0.9,0,0,0.3,0.3c2.2,2.1,3.4,5.1,3.4,8.2c0,5.2-3.4,7.6-7.8,9.5
		c-2,0.9-1.7,3.4-0.6,4.7c-0.9-1.1,0,0,0.2,0.4c0.3,0.7,0.6,1.4,0.8,2.1c0.6,2.7,0.2,5.5-1.1,7.9c-2.2,3.5-7,4.7-10.8,5.3
		s-2.2,6.4,1.6,5.8c5.8-1,12.3-3.5,15-9.1c2.4-5.1,2.3-12-1.3-16.5l-0.6,4.7c6.4-2.8,10.7-7.4,10.8-14.7c0-5.4-2.5-10.4-6.7-13.7
		l0.6,4.7c4.9-4.2,5.9-11,5.2-17.2c-0.5-4.4-3.1-9.3-7.4-11.1l1.1,4.1c3.7-5.5,2-15.1-1.2-20.3c-3.4-5.5-10-8.2-16.2-8.2
		c-8.2,0-16.5,1-24.7,1.6l-18.5,1.2c-3,0.2-6.1,0.2-9,0.6c-5.2,0.8-11,4.1-12,9.7c-1,5.4,1.8,13.1,8.6,11c4-1.2,7.9-2.7,11.9-3.8
		c3.1-0.9,6.3-1.4,9.5-2.1c3.4-0.8,8.2-1.9,10.2-5.1c2.6-4.1,0.5-9.9-4.5-10.7C713.8,545.7,712.2,551.5,716,552.1L716,552.1z"/>
	<path d="M741.8,607.3c-5.9-0.4-11.8-0.3-17.7,0.2c-11.7,0.9-23.6,3.1-34.3,8.1c-1.8,0.8-3.4,1.6-4.5,3.2c-1.5,2.2-2,4.8-1.5,7.4
		c0.9,5.2,5.3,7,10.1,5.2c2-0.7,3.7-1.9,5.6-2.8c5-2.2,10.3-3.6,15.8-4c4.7-0.4,10.4-1.4,11.5-6.8c0.4-2.6-0.1-5.3-1.6-7.6
		c-2-3.3-7.2-0.3-5.2,3c0.7,0.9,1,2,0.9,3.1c0,0.4-0.1,0.8-1,1.3c-1.9,1.1-4.4,0.8-6.5,1.1c-6.7,0.6-13.2,2.6-19.1,5.7
		c-0.9,0.6-1.9,1-2.9,1.4c-1.8,0.5-2,0.2-1.8-1.9c0-0.9,0.4-1.8,1.1-2.4c1.5-1.1,4.7-2,6.6-2.7c9.1-3.2,18.7-5.1,28.3-5.6
		c5.4-0.4,10.8-0.5,16.2-0.1C745.7,613.5,745.7,607.5,741.8,607.3L741.8,607.3z"/>
	<path d="M743.4,587.5c-14.5-1-29.7-0.1-43.8,3.4c-4.7,1.1-9.2,2.8-13.5,5c-3.3,1.7-5.2,5.2-5,8.9c0.3,5,3.5,7.8,8.4,6.9
		s9.3-3.4,14.1-4.5c5.4-1.3,11.6,0.1,16.5-3.1c3.8-2.6,4.7-6.9,5.1-11.2c0.3-3.8-5.7-3.8-6,0c-0.2,2.3-0.4,4.9-2.5,6.2
		c-3.5,2.3-8.6,1.2-12.5,1.9c-4.7,0.8-8.9,2.7-13.4,4.2c-0.9,0.3-2.8,1.2-3.8,0.8c0.5,0.2,0.3,0.2,0.3-0.2c-0.1-1.1-0.5-1.8,0-2.9
		c0.2-0.4,0.5-0.8,0.8-1.1c0.2-0.4,0.8-0.6,0-0.1c1.8-1,3.6-1.9,5.5-2.6c3.9-1.4,8-2.6,12.1-3.4c8-1.5,16.2-2.3,24.3-2.4
		c4.5-0.1,8.9-0.1,13.4,0.2C747.2,593.7,747.2,587.7,743.4,587.5L743.4,587.5z"/>
	<path class="st7" d="M686.5,608.9c0,0,3,7.9,15.9,5.2"/>
	<path d="M741.8,564.7c-5.6-0.5-11.3-0.6-16.9-0.3c-11.2,0.4-22.8,1.9-33.3,6c-3.7,1.4-7.9,2.7-9.1,7c-1.4,5,1.7,9.5,6.8,9.8
		c2.6,0,5.1-0.5,7.6-1.4c3.9-1.3,7.8-2.4,11.8-3.2c4.8-0.9,11.1,0.7,14.1-4.1c1.6-2.6,1.8-6,1.2-8.9c-0.7-3.8-6.5-2.2-5.8,1.6
		c0.1,0.6-0.1-0.8,0-0.1c0,0.5,0.1,0.9,0.1,1.3c0.1,1-0.1,2-0.6,2.9c-0.7,0.9-1.8,0.7-2.9,0.7c-2.4,0-4.8,0.2-7.1,0.7
		c-5.3,0.9-10.3,3-15.5,4.2c-1,0.2-2.9,0.7-3.8,0.1c0,0,0-0.1,0-0.1c0.5,0.4-0.1-0.7-0.1-1c0-0.5,0.1-1.1,0.5-1.5
		c0.4-0.5,0-0.1,0.5-0.4c0.7-0.4,1.4-0.7,2.1-1c2.5-1.1,5-1.9,7.6-2.7c8.9-2.5,18.1-3.8,27.4-3.9c5.2-0.2,10.5-0.1,15.7,0.4
		C745.7,571.1,745.7,565.1,741.8,564.7L741.8,564.7z"/>
	<path class="st7" d="M686.5,565.6c0,0,0.3,7.2,12.5,5.5"/>
	<path class="st7" d="M687.2,584.1c0,0-3.7,11.5,13.9,9.5"/>
	<path class="st7" d="M685.9,496l-17.3,20.6c0,0-3.4,7.4,2.5,10.2s12.9-6.5,12.9-6.5l10-14.1c0,0,4.6-6.6,1.9-10.7
		C692.1,489.7,685.9,496,685.9,496z"/>
	<path class="st7" d="M695.8,502.8c0,0,9.7,3.1,5.9,24.5c-1.6,6.9-5.6,13-11.3,17.2c0,0-4.7,3.8-2,8.2"/>
	<path d="M693.7,635.4c-0.4,5.3,0.4,10.8,1.2,16.1c2.3,15.7,6.9,31,12.5,45.8c4.3,11.3,9.1,22.3,14.5,33.1c5.7,11.6,11.8,23,17,34.8
		s10.7,24.5,12.5,37.5c-0.1-0.8,0.1,0.6,0.1,0.8c0,0.4,0.1,0.8,0.1,1.2c0,0.7,0.1,1.4,0.1,2.1s0,1.2-0.1,1.7c0,0.8,0.2-0.8,0,0
		c0,0.2-0.1,0.4-0.1,0.6s-0.2,0.6-0.2,0.9c-0.2,0.8,0.4-0.7,0-0.1s0.3-0.3,0.2-0.2c-2.1,2,0,6,2.9,5c21.9-7.6,43.8-17.5,63.4-30.1
		c7.2-4.4,13.8-9.7,19.8-15.6c1.1-1.2,1.1-3.1,0-4.2c-16.4-17.5-32-35.9-46.8-54.8c-10.8-13.8-21.3-28-30-43.2
		c-3.2-5.7-6.6-11.8-8.4-18.1c-1.5-5.2-3.4-10.2-6.9-14.4c-3-3.8-7.4-6.2-12.1-6.8c-6.8-0.7-13.6-0.3-20.3,1c-2.7,0.5-5.3,1.2-7.9,2
		c-2.2,0.7-4.9,2.2-7.2,2.1s-3.1-2.1-3.4-4c-0.2-1.6-2.3-2.5-3.7-2.1c-1.7,0.5-2.3,2.1-2.1,3.7c0.4,2.4,1.6,4.7,3.4,6.3
		c3.7,3.3,8.2,1.9,12.4,0.5c4.6-1.6,9.3-2.7,14.2-3.3c2.9-0.3,5.9-0.5,8.9-0.4c2.7,0,5.6-0.1,8.2,0.9c5.9,2.4,9.1,9.3,10.6,15
		c1.6,5.4,3.7,10.6,6.4,15.5c8,15.4,18.3,29.6,28.9,43.3s21.7,27.2,33.1,40.4c6.1,7,12.2,13.9,18.6,20.7v-4.2
		c-10.5,11-24.2,18.8-37.5,25.7c-11.6,5.9-23.5,11.2-35.6,15.9c-2.5,0.9-4.9,1.9-7.4,2.7l2.9,5c2.1-2.1,2.1-6,2-8.7
		c-0.5-11-4.8-21.9-8.8-32c-9.2-22.8-21.8-44.1-31.3-66.8c-6.9-16.5-12.8-33.8-16-51.5c-1.1-6.3-2.3-12.9-1.8-19.6
		C700,631.6,694,631.6,693.7,635.4L693.7,635.4z"/>
	<path class="st7" d="M726.2,732.2c0,0,40.7-10.7,55.7-28.9"/>
	<path d="M735.7,670.1c6,11.5,12.2,22.9,18.5,34.2c11.4,20.6,23.1,41.2,36.3,60.8c5.3,7.9,10.8,16.3,17.8,22.8
		c2.8,2.6,7.1-1.6,4.2-4.2c-5.8-5.4-10.5-12.2-15-18.8c-6.5-9.5-12.5-19.3-18.4-29.2c-11-18.5-21.5-37.4-31.7-56.3
		c-2.2-4.1-4.4-8.2-6.5-12.2C739.1,663.7,733.9,666.7,735.7,670.1L735.7,670.1z"/>
	<path d="M720.3,674.8c6.3,12.9,12.5,25.9,18.6,38.9c10.4,22.1,20.7,44.2,29.8,66.8c1.8,4.5,3.5,9,5,13.5c0.5,1.7,1,3.3,1.5,5
		c0.1,0.6,0.3,1.2,0.4,1.8c0.2,0.8-0.1-0.6,0,0.1c0,0.3,0,0.5,0,0.8c0.1,3.8,6.1,3.9,6,0c-0.2-2.6-0.7-5.2-1.6-7.7
		c-1.2-3.9-2.6-7.7-4.1-11.5c-4.1-10.7-8.7-21.2-13.3-31.7c-9.7-21.8-19.8-43.4-30.1-64.9c-2.3-4.8-4.6-9.6-7-14.4
		c-1.7-3.5-6.9-0.4-5.2,3L720.3,674.8z"/>
	<path d="M744.8,546c-0.6-14.8,0.6-29.7,2.1-44.4c0.8-8.1,1.8-16.1,3-24c0.4-1.6-0.6-3.3-2.2-3.7c-0.2-0.1-0.4-0.1-0.7-0.1
		c-21.3-1-42.8-1.4-64.1,0.5c-8.6,0.8-17.5,1.7-25.7,4.5c-1.2,0.4-2.4,0.8-3.5,1.4c-1.2,0.7-1.7,2.1-1.4,3.4
		c1.7,5.3,3.3,10.6,4.8,15.9c2.2,8.1,4.8,16.5,5.2,24.9c0.2,3.8,6.2,3.9,6,0c-0.4-8.8-3-17.5-5.3-25.9c-1.5-5.5-3.2-11-5-16.5
		l-1.4,3.4c0.2-0.1,0.3-0.2,0.5-0.2c0-0.1,0.9-0.3-0.3,0.1c0.1,0,0.3-0.1,0.4-0.2l1-0.4c2.6-0.9,5.3-1.6,7.9-2.1
		c12.9-2.6,26.3-3.2,39.6-3.5c13.7-0.3,27.5,0,41.2,0.7l-2.9-3.8c-2.5,16.7-4.2,33.5-5.1,50.3c-0.3,6.6-0.5,13.1-0.2,19.7
		C739,549.9,745,549.9,744.8,546L744.8,546z"/>
	<path class="st7" d="M702.5,519.8c0,0,26.5-1.1,39.9-0.8"/>
	<path d="M741,473.6c-1.3-2.1-2.5-3.8-1-6.1c1.2-1.8,2.3-3.2,2.6-5.4c0.3-2,0-4-1-5.8c-0.5-0.8-1.3-1.5-1.7-2.3
		c0.3,0.7-0.6,0.6,0.3,0.3c0.4-0.1,1-0.8,1.2-1.1c3-3,3.3-7.5,2.2-11.4c-0.3-1.1-0.7-2.1-1.1-3.1c-0.1-0.3-0.7-2.4-0.9-1.6
		c0.2-0.6,1.6-1.4,2-1.8c0.8-0.9,1.3-1.8,1.7-2.9c1.4-3.8,0-7.1-2.7-9.7c-0.6-0.6-2-1.5-2.1-2.5c-0.2-1.7,2-4.1,2.6-5.6
		c1.6-3.8,1.3-7.6-1.7-10.7c-0.5-0.5-0.9-0.6-0.9-1.3s0.7-1.6,0.9-2.2c0.8-1.6,1.2-3.4,1-5.2c-0.3-1.6-1.1-3.1-2.3-4.2
		c-0.9-0.9-2.7-1.7-2.3-3.1c0.5-1.8,2.5-3.2,3.3-4.9c0.9-2,0.9-4.3,0.1-6.3c-0.5-1.8-1.2-3.5-2-5.1c-0.5-0.8-1-1.6-1.5-2.5
		c-0.4-1.2,0-2,0.4-3.3c0.6-2,0.4-4.1-0.5-6c-0.4-0.8-0.9-1.5-1.5-2.1c-0.4-0.3-0.8-0.6-1.2-0.9c-0.3-0.2-0.6-0.4-0.9-0.5
		c-0.4-0.3-0.5-0.2-0.1,0.5c1.9-3.6,2.8-7.6,0.2-11.1c-1.1-1.3-2.3-2.4-3.8-3.2c-1.8-1.2-2.7-1.6-2.1-3.8c1-3.6,2-7.5-1.2-10.4
		c-1.1-0.8-2.3-1.5-3.5-2c-1.4-0.8-1-1.4-0.8-2.9c0.3-2.2,0.2-4.4-1.3-6.1c-0.8-0.8-1.8-1.4-2.8-1.7c-0.6-0.2-1.6-0.2-2-0.7
		c-1.1-1-0.8-3.7-1.2-5.1c-0.4-1.9-1.5-3.5-3-4.7c-1.4-1.1-3.1-1.5-4.7-2.4c-1.8-1-0.9-3-1.6-4.8c-0.9-2.2-2.9-3.5-5.1-4.3
		s-4-1.5-3.9-4.3h-6c0.1,1.1-4.2,2-5.2,2.6c-1.7,1.1-3,2.8-3.7,4.7c-0.6,1.8-0.4,3.4-0.4,5.3c0,1.1,0,1.2-1,1.6
		c-1.2,0.4-2.3,1-3.3,1.7c-1.4,1.1-2.5,2.7-3,4.4c-0.3,1.1-0.4,2.1-0.3,3.2c0,0.9,0.4,2.4,0,3.2c-0.8,1.7-4.4,2.3-5.9,3.4
		c-1.3,0.9-2.3,2.1-2.9,3.6c-0.8,2.4,0.4,4.3,0.3,6.7c-0.1,2.2-2.4,2.7-3.8,3.9c-1.5,1.3-2.5,3.1-2.8,5c-0.3,1.8-0.2,3.6,0.3,5.3
		c0.2,0.8,0.8,1.8,0.5,2.4s-1.9,1.1-2.4,1.6c-3.2,2.9-2.2,7.3-0.6,10.8c0.2,0.5,1,1.4,0.9,2c-0.1,0.8-1.1,1.3-1.7,1.8
		c-1.6,1.3-2.7,3.1-3.2,5.1c-0.4,2.1,0.1,4.2,1.2,6c0.7,1.2,1.7,2.4,1.3,3.9c-0.3,1.2-1.5,1.2-2.5,1.9c-1.7,1.1-2.8,2.8-3.3,4.8
		c-0.5,2,0,4,1.3,5.6c0.6,0.7,1.4,1.2,2,1.9c0,0,0.6,0.7,0.6,0.4c0,0.3-1.1,1-1.3,1.2c-2.9,2.9-4.5,7.2-2.6,11.1
		c0.8,1.8,2.3,2.2,3.4,3.6c0.7,0.8,0.7,0.2-0.2,1.4c-0.7,0.9-1.4,1.9-1.9,2.9c-1.8,4-0.1,7.2,2.2,10.5c1.2,1.6,1.5,3.8,0.8,5.7
		c-0.6,2.3-1.4,4.5-1.1,6.9c0.1,1.1,0.5,2.1,1.2,3c0.6,0.9,1.8,1.6,2.2,2.6c0.9,2.3-0.6,5.5-0.2,8c0.2,2.2,1.4,4.1,3.3,5.3
		c0.4,0.2,0.8,0.4,1.2,0.5l0.5,0.1c0.6,0.2,0.6,0.2,0-0.2l-0.4-0.3c-0.2,0.3-0.4,0.7-0.5,1c-0.3,0.5-0.6,1.1-0.8,1.7
		c-1.6,4.5,0.3,8.7,3.5,11.8c1,1,1.3,1,0.8,2.2c-0.4,1-1.4,1.8-2,2.8c-1.3,2.1-1.4,4.6-0.2,6.8c1.9,3.4,7.1,0.4,5.2-3
		c-0.4-0.7,2.5-4,2.8-4.8c0.8-1.8,0.7-3.9-0.2-5.6c-0.9-1.6-2.5-2.5-3.6-4c-1.1-1.5-1.2-3.6-0.2-5.2c0.9-1.8,1.8-3.6,1.1-5.6
		s-2.1-2.3-3.7-3.3s-0.8-3.3-0.6-4.9c0.4-2.3,0.1-4.7-1-6.8c-0.9-1.6-2.7-2.2-2.4-4.2c0.3-2.4,1.5-4.6,1.6-7.1
		c0.1-1.9-0.4-3.8-1.4-5.5c-0.8-1.4-2.6-3-2.9-4.7c-0.3-2,1.9-3.6,2.7-5.2c1.1-1.8,1-4.1-0.2-5.9c-0.9-1.3-2.6-1.8-3.5-3.1
		c-1.2-1.7,0.3-3.7,1.5-4.9s2.5-2.5,2.8-4.4c0.1-2.1-0.7-4.1-2.3-5.5c-1.3-1.3-2.5-2.1-0.3-3.3c1.6-0.9,2.8-1.5,3.7-3.2
		c1.3-2.7,1.3-5.9-0.2-8.5c-1-1.9-2.6-3.3-0.6-5.2c1.5-1.4,3-2.3,3.7-4.5c0.5-1.8,0.2-3.8-0.7-5.5c-0.5-1.1-2-3.4-1.5-4.7
		c0.2-0.5,1.3-0.9,1.8-1.2c0.8-0.5,1.5-1.1,2-1.8c1.3-1.9,1-4,0.4-6c-0.5-1.5-1.2-3.5-0.1-5c0.6-0.8,1.9-1.2,2.7-1.7
		c2.4-1.7,3.7-4.4,3.6-7.3c-0.1-1.6-1.4-3.8-0.1-5c1-0.9,2.7-1.3,3.9-2c1.5-0.7,2.7-1.7,3.7-3.1c1-1.7,1.3-3.7,1.1-5.7
		c-0.2-3,0.5-3.7,3.1-4.8c2.1-0.7,3.6-2.4,4.2-4.5c0.5-2-0.5-4.3,0.3-6.1c1-2.2,4-2.1,5.9-3.2c2.1-1.1,3.4-3.4,3.2-5.8
		c-0.3-3.8-5.8-3.9-6,0c-0.2,4.1,2.3,7.9,6.2,9.3c0.9,0.2,1.7,0.5,2.5,0.9c1.1,0.7,0.8,1.5,0.9,2.6c0.1,1.9,1.1,3.6,2.5,4.8
		c1.2,0.8,2.6,1.5,4,2c1.4,0.5,2.4,1.8,2.5,3.3c0.6,3.5,1.2,6.7,4.8,8.2c0.5,0.2,2.1,0.4,2.4,0.8c-0.1-0.1-0.1,1.1-0.2,1.5
		c-0.2,2-0.4,3.9,0.6,5.7c0.8,1.2,1.8,2.2,3.1,2.9c0.8,0.4,2.2,0.7,2.8,1.5c0.8,1.2-0.9,4.4-1.2,5.7c-0.4,2,0,4.1,1.3,5.8
		c1.7,2.2,7.1,3.8,6.2,7.1c-0.5,1.9-1.8,3.3-1.7,5.4c0.1,2.4,1.6,3.5,3.3,4.7c2,1.4,0.8,2.9,0.4,4.9c-0.3,2.1,0.1,4.3,1.2,6.1
		c0.9,1.7,1.7,3.4,2.4,5.2c0.8,2.3,0,3.3-1.5,5.1c-2.5,3.2-3.1,7.1-0.2,10.3c0.7,0.8,2.7,1.9,2.9,3c0.2,1.3-1.4,3.3-1.8,4.5
		c-0.5,1.6-0.4,3.3,0.3,4.9c0.8,1.5,2.8,2.6,3,4.3c0.2,2-1.3,3.8-2.2,5.5c-1.1,1.8-1.6,3.9-1.3,6c0.3,1.4,1,2.7,2,3.8
		c0.9,1,2.4,1.9,3,3.1c1,2.1-1.1,3.3-2.3,4.6c-1.6,1.7-2,4.2-1.1,6.3c0.8,2.3,2.1,4.5,2,7s-2,3.2-3.3,5c-1.3,1.7-1.4,4.1-0.3,5.9
		c1.2,2.1,2.9,3.3,1.2,5.9c-1.3,2-2.7,3.8-2.8,6.3s1.3,5.1,2.7,7.4c2.1,3.2,7.2,0.2,5.2-3L741,473.6z"/>
	<line class="st7" x1="654.3" y1="382.9" x2="738.5" y2="381.4"/>
	<path class="st7" d="M653.4,415.8l14-1c0,0,12.1-0.8,13.6,9.2s-4.9,13.1-8.9,13.7c-4.4,0.6-8.9,0.9-13.3,1"/>
	<path d="M195.7,336.3c27.6-5,46-31.4,41-59s-31.4-46-59-41c-27.6,5-46,31.4-41,59c4.1,22.9,23.3,40.1,46.5,41.7
		c7.2,0.5,14.2-0.4,20.1-5.1c13.3-10.8,9.9-32.5-5.8-39c-10.6-4.4-22.3,0.5-23.4,12.8c-0.4,4.2,1.4,9,5,11.4
		c5.1,3.3,14.5,1.6,15.8-5.1c0.3-1.6,0.2-3.2-0.4-4.7c-1.4-3.6-7.2-2-5.8,1.6c0.1,0.3,0.2,0.5,0.2,0.8c0.1,0.4,0.1,0.9,0,1.3
		c-0.6,1.6-3.5,1.9-5.2,1.6c-1.6-0.4-2.8-1.6-3.3-3.2c-0.2-0.7-0.4-1.3-0.5-2c0,0.2,0,0.2,0-0.3c0.1-4.5,2.4-8.3,6.6-9.5
		c0.6-0.2,1.3-0.3,1.9-0.4c-0.8,0.1,0,0,0.3,0c2.9,0,5.7,0.7,8.2,2.1c12.1,6.8,11.3,25.2-1.7,30.5c-5.1,2.1-11.8,1.5-17,0.5
		c-6.4-1.3-12.5-3.9-17.8-7.7c-20-14.5-24.4-42.5-9.9-62.5s42.5-24.4,62.5-9.9c20,14.5,24.4,42.5,9.9,62.5
		c-4.9,6.7-11.5,12-19.2,15.1c-3.1,1.2-6.3,2.2-9.6,2.7C190.4,331.2,192,337,195.7,336.3L195.7,336.3z"/>
	<path d="M138.9,299.4l14.5,7.5c3.4,1.8,6.5-3.4,3-5.2l-14.5-7.5C138.5,292.5,135.4,297.7,138.9,299.4z"/>
	<path d="M154.4,289.9l-13-9c-3.2-2.2-6.2,3-3,5.2l13,9C154.6,297.2,157.6,292,154.4,289.9L154.4,289.9z"/>
	<path d="M140.6,270.1l14.6,17c2.5,2.9,6.8-1.3,4.2-4.2l-14.6-17C142.3,262.9,138.1,267.2,140.6,270.1L140.6,270.1z"/>
	<path d="M149.9,255.1l12.6,22.1c1.9,3.4,7.1,0.3,5.2-3l-12.6-22.1C153.2,248.7,148,251.8,149.9,255.1L149.9,255.1z"/>
	<path d="M165.3,243.2l6.9,27.8c0.9,3.7,6.7,2.2,5.8-1.6l-6.9-27.8C170.2,237.8,164.4,239.4,165.3,243.2L165.3,243.2z"/>
	<path d="M197.3,241.6l-3.4,28.6c-0.5,3.8,5.5,3.8,6,0l3.4-28.6C203.8,237.8,197.8,237.8,197.3,241.6z"/>
	<path d="M211.8,246.9l-8.3,25.3c-1.2,3.7,4.6,5.2,5.8,1.6l8.3-25.3C218.8,244.8,213,243.2,211.8,246.9z"/>
	<path d="M224.6,259.5l-12.5,17.6c-2.2,3.1,3,6.1,5.2,3l12.5-17.6C232,259.3,226.8,256.3,224.6,259.5L224.6,259.5z"/>
	<path d="M230.9,272.3l-13.1,12.6c-2.8,2.7,1.5,6.9,4.2,4.2l13.1-12.6C237.9,273.9,233.6,269.6,230.9,272.3z"/>
	<path d="M222.4,300.4l12.7-7.3c3.3-1.9,0.3-7.1-3-5.2l-12.7,7.3C216.1,297.1,219.1,302.3,222.4,300.4z"/>
	<path d="M189.1,268c0.3-14.4,0.6-28.8,0.2-43.2l-2-73.4c-0.4-13.3,0-26-5.5-38.4c-2.6-6-6.4-11.4-11.2-15.8
		c-6.3-5.7-13.5-8.6-21.5-10.9c-4.9-1.4-9.8-2.7-15-2.1c-6.9,0.8-15.6,6.6-13.2,14.6c1.6,5.4,7.7,8.3,12.6,9.8l1.3,0.4
		c0.6,0.2-0.8-0.3-0.2-0.1c0.2,0.1,0.4,0.2,0.5,0.2c0.6,0.3,1.1,0.6,1.6,0.9c1.3,0.7,2.5,1.6,3.6,2.7c1.6,1.5,3,3.2,4.2,5
		c3.9,5.8,5.9,12.6,6.9,19.4c0.7,5.1,0.9,10.2,0.7,15.4l3-3c-8.9-1.1-19.1,1.4-26.1,7c-5.3,4.3-9.1,10.3-10.7,16.9
		c-1.4,6.1-0.2,12.4,0.6,18.5c2.6,21.6,8.2,42.8,13.6,63.9c1.7,6.5,3.4,12.9,5.1,19.3c1,3.7,6.8,2.1,5.8-1.6
		c-4.1-15-8-30.1-11.6-45.2c-2.4-9.9-4.7-19.9-6.2-29.9c-0.8-5.2-1.5-10.8-1.9-16.1c-0.5-5.6,1-11.3,4.4-15.9
		c6.1-8.6,16.7-12.1,27-10.9c1.6,0.2,3-1.5,3-3c0.4-14.6-1.7-30.9-11.9-42.2c-3.7-4.1-7.8-6.2-12.7-8c-4.1-1.5-9.7-4.9-5.2-9.5
		c4.2-4.3,11.9-2.9,17.1-1.4c6,1.7,11.8,3.4,17,6.9c5.3,3.6,9.5,8.5,12.5,14.2c6.3,11.7,5.9,22.3,6.2,35.3l2,71.5
		c0.2,6.6,0.5,13.2,0.5,19.8c0.1,8.4-0.4,16.8-0.5,25.2l-0.1,3.6C183,271.9,189,271.9,189.1,268z"/>
	<path d="M154.6,174.7c-6.3-7.8-16.1-14.1-26.1-15.5c-1.6-0.4-3.2,0.5-3.7,2.1c-0.4,1.4,0.5,3.5,2.1,3.7c9.1,1.3,17.7,6.8,23.5,13.9
		C152.8,182,157,177.7,154.6,174.7L154.6,174.7z"/>
	<path d="M149.8,183.1c-6.6-8.3-17.8-12.8-28.1-13.8c-3.8-0.4-3.8,5.6,0,6c8.7,0.9,18.2,5.1,23.8,12.1
		C147.9,190.4,152.2,186.1,149.8,183.1z"/>
	<path d="M237.2,151.2c-9.5,5.4-19.2,12.1-26.4,20.4c-2.5,2.9,1.7,7.2,4.2,4.2c6.9-8,16-14.2,25.1-19.4
		C243.5,154.5,240.5,149.3,237.2,151.2L237.2,151.2z"/>
	<path d="M247,161.2c-10.1,5.3-20.4,11.4-28.8,19.2c-2.8,2.6,1.4,6.9,4.2,4.2c8-7.5,17.9-13.3,27.6-18.3
		C253.4,164.6,250.4,159.4,247,161.2L247,161.2z"/>
	<path d="M124.4,215.3l32.2,10c3.7,1.2,5.3-4.6,1.6-5.8l-32.2-10C122.3,208.4,120.7,214.2,124.4,215.3L124.4,215.3z"/>
	<path d="M126.9,228.4l29.6,7.8c3.7,1,5.3-4.8,1.6-5.8l-29.6-7.8C124.8,221.6,123.2,227.4,126.9,228.4z"/>
	<path d="M244.5,206.4l-31.4,15c-3.5,1.7-0.4,6.8,3,5.2l31.4-15C251,209.9,248,204.8,244.5,206.4L244.5,206.4z"/>
	<path d="M242.6,221.1l-26.4,9.2c-3.6,1.3-2.1,7.1,1.6,5.8l26.4-9.2C247.9,225.7,246.3,219.9,242.6,221.1L242.6,221.1z"/>
	<path d="M186.8,133.6c1.7-12.9,5.8-26.4,15.1-36c2.6-2.8,5.7-5.2,9.1-7c2-1.1,4.1-2,6.3-2.5c0.6-0.1,1.1-0.2,1.7-0.4
		s-0.6,0.1-0.5,0.1l1.6-0.2c3.7-0.6,8.5-1.2,12.6-0.4c2.3,0.5,3.1,0.8,3.2,2.7c0.1,3-1.5,5.5-3.8,7.3c-2.2,1.5-4.7,2.8-7.2,3.6
		c-3.4,1.4-6.4,3.8-8.5,6.9c-8.6,11.9-8.1,28.9-6.3,42.7c0.1,1.7,1.5,3,3.2,3c0.2,0,0.4,0,0.6-0.1c0.2,0,1-0.1,0.6-0.1l0.7-0.1
		l1.5-0.2c2.7-0.3,5.3-0.4,8-0.3c5.6,0.1,12.6,0.6,16.8,4.8c6.3,6.3,7.1,14.7,6.3,23.1c-0.1,0.7-0.1,1.4-0.2,2.1
		c0,0.4,0.1-0.9,0-0.1l-0.2,1.5c-0.2,1.5-0.5,2.9-0.7,4.4c-3.7,21-7.9,42-12,63c-1.2,6.4-2.5,12.7-3.7,19c-0.7,3.8,5,5.4,5.8,1.6
		c3.4-17.1,6.7-34.3,10-51.4c2-10.3,4-20.6,5.8-30.9c2-11.6,3.3-24-4.4-33.9c-8.1-10.4-23.7-10.2-35.7-8.3l3.8,2.9
		c-1.7-12.8-2.5-28.8,5.6-39.8c1.1-1.3,2.3-2.5,3.8-3.4c1.6-0.8,3.2-1.5,4.9-2.1c3-1.2,5.7-3.1,7.9-5.4c4-4.5,6.1-13.4-0.1-17
		c-4.6-2.7-10.9-2.1-15.9-1.5c-1.1,0.1-2.1,0.3-3.2,0.4c-0.4,0.1-2.2,0.4-0.4,0.1c-0.6,0.1-1.1,0.2-1.7,0.3c-6.4,1.3-12.3,5-17,9.2
		c-11.9,10.8-16.9,26.8-18.9,42.2c-0.2,1.6,1.5,3,3,3c1.8,0,2.8-1.4,3-3L186.8,133.6z"/>
	<path class="st7" d="M158.8,545.6c0,0-9.9,21.7-5.5,50.3l2.2-0.3"/>
	<path d="M152.5,595.6c0.4,10.2,0.7,20.4,0.9,30.6c0.4,19.1,0.5,38.2-0.4,57.3c-0.4,7.9-0.7,15.9-2.4,23.5c-0.4,1.6,0.5,3.2,2.1,3.7
		c0.3,0.1,0.5,0.1,0.8,0.1c4.9,0.2,9.9,0,14.8-0.2c12.9-0.5,25.8-1.8,38.6-3.7c17.6-2.6,34.9-6.5,51.8-11.8
		c19.7-6.1,38.6-14.4,56.3-24.8c19.3-11.3,36.7-25.7,51.5-42.6c1.9-2.2,3.8-4.4,5.5-6.7c1.1-1.2,1.1-3.2-0.2-4.3
		c-0.3-0.3-0.7-0.5-1.1-0.7c-10.9-4.2-21.4-9-32.1-14.1c-20.6-9.8-41-20.7-59.2-34.5c-8.6-6.5-17.2-14.1-22.9-23.4
		c-2-3.3-7.2-0.3-5.2,3c5.2,8.6,12.7,15.7,20.5,21.9c9.2,7.3,19,14,29.2,19.9c18,10.4,36.5,19.7,55.7,27.8c4.1,1.8,8.3,3.5,12.5,5.2
		l-1.3-5c-26.7,33.8-64.1,56.8-104.6,70.6c-29.6,9.9-60.4,15.7-91.6,17.2c-6,0.3-12.1,0.5-18.1,0.3l2.9,3.8c1.3-6.9,2.2-14,2.4-21.1
		c0.5-9.4,0.7-18.8,0.8-28.2c0.1-17.6-0.2-35.1-0.7-52.7c-0.1-3.7-0.2-7.4-0.4-11.1C158.4,591.8,152.4,591.7,152.5,595.6
		L152.5,595.6z"/>
</g>
</svg>
