<svg xmlns="http://www.w3.org/2000/svg" width="900" height="900" viewBox="0 0 900 900">
  <defs>
    <style>
      .cls-1, .cls-6 {
        fill: #fff;
      }

      .cls-1 {
        stroke: #fbfff2;
        stroke-miterlimit: 10;
      }

      .cls-2 {
        fill: #ce2828;
      }

      .cls-3, .cls-5 {
        opacity: 0.8;
      }

      .cls-4 {
        fill: #ccccca;
      }

      .cls-5, .cls-8 {
        fill: #fff2d7;
      }

      .cls-7 {
        fill: #366962;
        opacity: 0.68;
      }

      .cls-9 {
        fill: #fbfff2;
      }

      .cls-10 {
        fill: none;
        stroke: #000;
        stroke-linecap: round;
        stroke-linejoin: round;
        stroke-width: 3px;
      }
    </style>
  </defs>
  <title>mictlantecihuatl</title>
  <g id="Capa_4" data-name="Capa 4">
    <polygon class="cls-1" points="563.33 495.5 554.82 495.04 549.81 490.73 538.04 494.32 503.97 499.59 486.5 499.84 470.18 499.84 470.18 450.13 489.26 449.65 510.48 451.02 527.26 453.39 549.81 458.69 558.21 451.58 568.33 448.63 578.4 449.81 578.67 441.6 582.68 426.88 589.79 412.94 596.79 404.01 609.19 393.71 623.77 387.06 637.03 384.37 652.28 385.23 667.43 389.72 678.61 395.57 688 404.01 695.88 413.97 701.26 424.34 705.06 438.08 705.84 448.55 705.44 455.34 713.16 456.01 722.6 459.96 730 469.57 731.74 477.54 731.59 483.7 722.81 482.03 712.94 485.51 707.2 490.28 703.6 497.22 699.87 490.28 691.31 484.29 680.51 481.86 672.59 482.48 665.3 485.51 660.47 491.23 665.42 500.09 672.59 496.82 681.64 498.71 686.99 505.87 688.37 512.71 688.27 522.04 689.65 526.25 688.51 541.7 683.93 545.33 678.27 545.96 672.54 545.96 667.43 544.08 664.75 545.96 663.55 551.13 657.42 554.35 648.49 554.29 641.45 553.47 636.88 547.7 632.39 553.07 625.75 556.35 618 556.28 606.8 552.23 601.35 555.83 594.4 557.72 588.86 557.66 579.5 555.59 576.46 550.73 566.61 559.26 558.78 559.5 551.78 558.48 547.83 555.14 546.66 534.51 547.39 525.68 546.66 517.05 547.39 506.53 548.56 501.49 551.75 497.58 563.33 495.5"/>
    <polygon class="cls-1" points="726.71 523.08 733.96 522 741.03 520.55 732.51 552.26 726.71 523.08"/>
    <path class="cls-2" d="M613.24,296.54l6.07-94.31,100.32,15.41-9.88,74.68S645.39,286.68,613.24,296.54Z"/>
    <polygon class="cls-2" points="753.11 222.79 741.11 298.34 747.64 296.54 755.5 297.53 762.08 301.51 765.27 304.69 768 309.35 772.14 298.85 795.09 236.73 782.18 230.97 772.64 227.59 753.11 222.79"/>
    <polygon class="cls-2" points="589.79 191.34 588.88 214.94 588.89 230.12 590.4 249.39 574.13 251.01 569.98 251.01 568.49 238.32 568.33 218.14 569.98 188.19 589.79 191.34"/>
    <polygon class="cls-2" points="515.48 180.7 552.31 185.64 551.38 202.24 550.63 231.51 552.31 252.56 539.98 253.64 519.09 255.47 515.96 245.57 514.49 205.32 515.48 180.7"/>
    <polygon class="cls-2" points="432.05 178.74 464.46 182.68 464.45 192.44 464.22 202.24 463.33 211.1 461.76 220.3 436.21 219.29 429.56 219.22 430.44 208.28 432.05 190.67 432.05 178.74"/>
    <polygon class="cls-2" points="328.79 160.95 364.85 169 400.3 174.49 400.3 185.64 399.06 198.44 397.26 219.1 348.76 217.64 322.7 218.14 322.62 202.81 323.92 180.7 328.79 160.95"/>
    <polygon class="cls-2" points="322.57 241.85 350.65 238.7 368.8 236.66 394.23 233.81 395.83 241.85 398.74 259.85 400.3 276.35 380.41 279.95 357.6 284.78 329.66 290.74 325.47 282.53 322.57 272.06 321.89 257.26 322.57 241.85"/>
    <polygon class="cls-2" points="426.45 230.19 459.53 226.47 461.76 233.81 463.11 240.54 463.86 248.23 463.86 254.79 463.72 262.66 431.23 269.32 431.6 255.47 430.8 244.57 426.45 230.19"/>
    <polygon class="cls-2" points="387.02 472.67 401.9 466.81 423.55 458.73 447.2 452.92 463.99 450.13 470.18 450.13 470.18 466.78 470.18 499.84 459.53 499.35 447.69 497.73 433.75 495.49 419.52 489.63 407.09 484.02 387.02 472.67"/>
    <polyline class="cls-2" points="547.5 512.71 575.33 512.71 575.33 512.71 665.69 511.49 665.42 500.09 661.51 493.1 655.2 490.34 650.79 490.28 643.47 491.09 638.35 495.49 636.69 501.32 636.76 505.15 633.89 498.01 628.33 493.08 622.74 492.28 614.92 492.5 610.7 494.36 606.72 499.84 604.02 498.17 601.29 495.49 593.59 493.65 587.99 493.65 581.55 495.73 578.67 499.59 577.01 504.69 574.16 501.49 568.94 496.39 563.33 495.5 557.94 495.49 551.75 497.58 548.56 501.49 547.39 506.53 547.5 512.71"/>
    <polyline class="cls-2" points="546.66 542.95 666.95 536.62 665.56 542.49 663.55 551.13 657.42 554.35 648.49 554.29 641.45 553.47 636.88 547.7 633.89 549.29 632.39 553.07 625.75 556.35 618 556.28 612.25 555.88 606.8 552.23 604.5 552.35 601.35 555.83 594.4 557.72 588.86 557.66 583.77 557.72 579.5 555.59 576.46 550.73 574.09 554.35 572.01 557.72 566.61 559.26 558.78 559.5 551.78 558.48 547.83 555.14 546.66 550.5 546.66 542.95"/>
    <polyline class="cls-2" points="667.02 502.59 669.33 497.22 677.29 496.82 681.64 498.71 686.99 505.87 688.37 512.71 688.37 519.86 688.27 522.04 689.65 526.25 690.21 535.3 688.51 541.7 683.93 545.33 678.27 545.96 672.54 545.96 667.43 544.08 666.26 538.1 666.95 524.31 667.02 502.59"/>
    <polyline class="cls-2" points="726.43 587.45 730.45 567.04 695.88 571.68"/>
    <g class="cls-3">
      <path class="cls-4" d="M860.9,516.36l-4.34,1.77-16.68,1.08L835,517.05l-4.37,4.34-11,.55-8.29-.55-.09,7.67-2.43,6.69-8.48,4.9-8.49,1.05-5.28-1.05,1,21.49,2.33,18.22,1.95,15.93,5,16.6,1.56,9.53H719.63l2.76-13.83,9.35-46.45,1.22-5.79,5.17-25.24,5.71-14.06,3.08-7,2.63-4.27-2.63-10.41-5.75-7.73-9.43-3.39v-3.76l-2.38-11.36-5.43-7.48c-4.19-7.89-18.77-6.35-18.77-6.35s.46-11.95-1.07-20.78-8.7-31.69-27.54-39.95-25.36-12.61-47.31-8.94-34.59,20.76-34.59,20.76L601,392.69l9.26-11L601,363.6l-17.19-22.13L564.1,328.88l-12.63-6.39-16.91-3.1s63.49-34,161.32-28.28q7.14.42,13.87,1.21l9.88-74.68,33.48,5.15-12,75.55c12.1,3.32,18.47,5.41,28.15,10.22l25.83-71.83,12.74,7.32,13,9.81,12.48,13,10.77,15.51,4.11,11.29,5.24,19.57L856,336.76l4.92,106Z"/>
    </g>
    <polygon class="cls-5" points="661.22 489.45 666.95 484.83 672.59 482.48 680.71 481.86 691.35 483.25 697.9 488.2 702.72 494.79 703.6 501 705 493.65 709.06 488.74 715.68 484.29 719.63 483.15 726.71 481.86 735.03 484.29 743.1 490.28 746.92 495.41 748.33 501 746.92 510.09 743.84 517.05 737.07 522.32 730.45 522.52 726.89 522.63 731.74 551.33 733.02 559.57 731.74 562.14 728.76 566.49 721.87 568.19 573.82 587.45 563.35 587.45 556.92 585.4 551.24 581.11 549.81 574.58 549.81 556.81 555.66 559.5 561 559.57 568.41 558.81 574.09 554.35 575.33 548.06 579.5 555.59 583.77 557.72 594.4 557.72 601.35 555.83 605.39 550.32 609.19 554.35 616.33 556.35 622.8 556.35 628.66 555.37 633.89 551.22 635.23 545.96 637.56 550.52 641.45 553.47 648.49 554.29 655.2 554.27 663.55 551.13 665.56 542.49 670.12 545.26 678.27 545.96 683.93 545.33 688.51 541.7 690.21 535.3 689.65 526.25 688.37 519.86 687.96 510.67 685.69 502.59 679.83 496.82 674.37 496.82 669.33 497.22 665.42 500.09 663.55 494.74 661.22 489.45"/>
    <polygon class="cls-6" points="745.99 623.27 745.07 690.49 746.63 705.77 752.44 713.29 761.5 715.73 774.39 715.16 781.63 707.78 786.76 710.29 791.89 716.68 802.43 719.34 809.77 717.95 816.6 714.95 826.34 704.13 830.24 711.68 836.15 716.68 844.09 717.95 855.33 715.16 862.35 708.28 864.67 697.97 863.79 677.7 860.9 590.28 857.77 529.06 856.57 518.13 835 518.89 826.12 521.39 819.67 521.94 811.38 521.39 811.29 529.06 808.86 535.75 800.38 540.65 791.89 541.7 786.62 540.65 786.76 554.35 788.46 568.75 791.89 596.29 798.44 622.42 745.99 623.27"/>
    <polygon class="cls-4" points="589.79 191.34 600.96 193.63 606.8 195.5 614.89 200.86 618.75 210.92 619.31 222.79 617.22 233.6 611.58 242.76 601.6 248.23 590.4 249.39 588.88 236.73 588.88 209.38 589.79 191.34"/>
    <polygon class="cls-4" points="552.31 185.64 569.98 188.19 569.98 199.52 568.33 218.14 568.42 230.12 569.98 251.01 552.31 252.56 550.63 239.03 550.63 212.78 552.31 185.64"/>
    <path class="cls-4" d="M464,182.63l50.5,5.56V220.3s-.51,29.45,2.65,32.26-53.42,10.1-53.42,10.1,3.31-22.35-4.19-36.19l47.21-6.11-45-1.26S466.55,207.76,464,182.63Z"/>
    <polygon class="cls-4" points="400.3 174.49 432.05 178.74 429.56 219.22 397.26 218.88 400.3 174.49"/>
    <path class="cls-4" d="M394.23,233.8l32.84-3.68s7.19,21.16,4.95,39l-31.72,6.62S398.43,252,394.23,233.8Z"/>
    <path class="cls-7" d="M589.79,622.42l106.09-50.74,30.55,15.77-6.8,35,26.36.85-.74,73.3S653.6,694.52,589.79,622.42Z"/>
    <circle class="cls-5" cx="573.82" cy="643.13" r="25.86"/>
    <circle class="cls-5" cx="651.24" cy="699.53" r="25.86"/>
    <path class="cls-5" d="M705.9,743.13s-85.19-1.79-101.39-5.48L601,756.9l-1.88,11.91,1.88,10.5,10.34,3.57,9,.37,8.94-3.94,4.39,3.94,8.91,2.59h9.94l8.27-2.59,2.63-5.15,2.24,5.29,9.7,3.66,11.86-1.21,6.27-2.59v-3.94l4.27,6.07,10.41,1.67,12-3,6.57-4.71Z"/>
    <polygon class="cls-1" points="610.9 705.77 604.51 737.65 657.86 741.64 705.9 743.13 677.1 695.22 677.1 705.77 675.04 711.9 671.23 716.68 663.55 723.02 651.24 725.38 645.08 725.38 639.18 723.24 630.81 717.95 627.83 710.49 625.39 699.53 625.65 695.83 610.9 705.77"/>
    <polygon class="cls-7" points="665.64 677.57 736.58 794.16 830.64 794.16 781.63 707.78 777.62 711.9 771.85 714.45 764.17 715.61 755.14 714.56 748.33 709.11 745.25 696.57 727.82 695.83 718.36 693.92 694.66 688.4 665.64 677.57"/>
    <polygon class="cls-6" points="726.58 318.11 729.72 308.56 736.22 300.42 742.93 297.23 752.44 296.54 759.93 299.94 765.27 304.69 768.44 310.6 769.26 317.18 767.93 324.12 764.65 331.15 762.12 334.58 759.93 336.62 753.11 331.36 745.35 326.57 737.31 322.49 726.58 318.11"/>
    <polygon class="cls-6" points="806.8 378.33 812.08 375.6 820.84 373.58 829.54 374 840.28 378.33 844.93 384.37 848.29 391.59 848.29 399.38 847.71 405.05 845.34 411.62 842.44 416.44 837.71 420.43 832.43 422 826.62 422.36 819.76 422.36 814.19 420.43 815.2 409.37 815.2 399.38 812.55 388.97 806.8 378.33"/>
    <polygon class="cls-6" points="611.58 326.1 608.13 319.06 606.27 310.6 608.92 298.85 616.65 290.74 627.29 288.53 637.72 290.74 644.34 296.54 649.11 306.42 650.29 318.11 637.03 318.11 623.77 320.94 611.58 326.1"/>
    <path class="cls-2" d="M612.47,327.36s6.61,8.32,11.31,10.93S642,345,642,345l4.28-8.81,2.37-10.08,1.47-8.92-13.11.93-14.73,4-9.83,4Z"/>
    <polygon class="cls-2" points="726.58 318.11 726.01 326.57 727.93 336.76 731.74 345.28 736.31 351.69 742.38 348.66 750.67 343.79 759.93 336.62 748.8 327.36 726.58 318.11"/>
    <polygon class="cls-2" points="806.8 378.33 802.31 381.56 795.09 387.53 790.99 394.25 784.91 405.2 795.09 411.62 804.68 416.3 814.19 420.43 815.2 409.37 814.02 394.61 811 384.98 806.8 378.33"/>
    <circle class="cls-5" cx="745.99" cy="726.13" r="25.86"/>
    <polygon class="cls-1" points="549.81 652.72 488.85 692.11 483.56 686.19 473.78 683.27 465.86 684.48 458.63 688.5 453.88 694 451.23 700.23 450.54 705.77 428.6 690.49 359.02 643.13 363.09 637.6 364.68 630.99 363.16 622.85 357.78 615.84 350.77 611.86 343.62 611.86 339.41 613.34 332.44 618.71 326.49 612.89 320.02 603.84 315.76 594.21 314.4 581.2 317.03 565.54 319.57 550.93 319.24 537.89 316.31 526.84 311.74 516.2 306.4 506.71 300.41 497.98 288.28 483.52 284.05 486.75 280.84 493.06 282.01 495.92 279.24 496.42 274.3 500.05 271.59 509 272.46 521.19 275.06 528.77 282.01 543.92 275.12 540.09 266.1 537.89 249.62 535.73 229.8 533.07 218.33 534.01 210.94 537.89 207.39 544.79 206.85 551.75 208.3 556.44 204.13 557.63 200.02 561.09 197.61 565.43 196.2 570.83 196.05 575.54 196.61 579.7 200.94 582.18 198.06 584.87 195.32 589.12 194.19 594.65 195.16 599.35 199.24 605.82 204.28 608.13 202.79 612.89 202.67 618.71 204.93 622.85 210.55 625.3 217.75 625.67 224.85 625.26 227.15 622.61 235.53 624.41 248.15 626.51 253.51 626.65 260.45 630.42 268.19 632.65 273.48 632.01 275.56 636.99 283.29 647.09 295.38 662.64 291.41 667.61 288.09 673.67 287.09 682.78 290.31 690.49 296.78 696.57 303.42 698.94 310.16 698.83 318.81 694.72 322.26 690.49 333.78 699.53 405.12 755.76 403.07 760.53 401.35 766.46 401.62 773.47 404.47 780.33 409.13 785.38 416.67 789.68 424.33 789.68 431.71 787.05 436.6 783.22 441.05 775.88 442.27 768.46 448.02 768.81 456.22 766.41 460.48 762.35 462.91 756.9 462.95 749.29 460.66 744.99 465.7 743.13 471.39 742.71 473.67 751.41 477.11 756.9 486.81 761.54 493.6 761.72 500.17 761.1 502.24 764.87 503.75 771.23 508.21 778.22 516.87 783.98 524.61 785.38 534.14 783.25 542.33 776.71 545.87 770.19 546.66 762.79 546.66 758.08 544.44 753.28 538.65 750.21 561 737.65 584.91 721.98 625.65 695.83 628.11 687.98 635.23 679.98 640.54 675.99 646.71 674.08 658.78 674.42 646.71 668.16 625.65 654.92 610.22 643.13 596.27 629.15 598.85 636.6 599.68 647.09 597.83 652.72 592.46 661.04 585.54 665.93 578.67 668.52 573.82 668.98 564.1 667.09 555.18 661.04 549.81 652.72"/>
    <polygon class="cls-5" points="442.27 768.46 449.36 779.31 458.04 785.38 471.16 788.32 479.68 787.13 490.09 781.85 497.59 773.47 502.24 764.87 500.17 761.1 493.6 761.72 486.81 761.54 477.11 756.9 472.25 747.41 471.39 742.71 460.66 744.99 462.95 749.29 462.91 756.9 460.48 762.35 456.22 766.41 448.02 768.81 442.27 768.46"/>
    <polygon class="cls-2" points="50.99 366.71 53.47 361.86 59 355.84 68.28 351.22 79.37 350.41 88.65 354.63 93.79 360.09 96.35 366.71 95.16 374.61 93.79 377.69 100.39 378.81 109.41 378.81 119.01 377.69 134.08 376.2 144.5 375.73 153.12 376.79 161.37 378.05 169.89 380.22 178.4 383.45 188.1 388.58 184.58 392.73 182 399.6 182.33 408.31 173.31 404.18 162.89 402.34 150.93 399.27 140.25 398.83 129.17 398.36 115.32 399.34 89.03 400.66 77.39 400.94 69.2 400.46 63.27 398.35 57.82 395.9 53.46 389.58 50.28 382.6 49.33 376.2 50.99 366.71"/>
    <polygon class="cls-2" points="49.33 434.35 56.6 427.24 66.75 419.21 76.52 412.96 90.32 406.19 100.56 402.58 106.39 401.05 113.2 408.31 118.06 417.7 121.63 433.3 121.49 443.77 119.6 456.65 115.32 465.39 110.18 474.1 103.58 479.04 98.73 480.96 90.32 476.92 77.42 468.57 65 457.26 53.47 442.49 49.33 434.35"/>
    <polygon class="cls-2" points="80.75 472.07 63.27 472.07 51.44 472.95 42.8 477.19 35.75 485.42 32.85 495.04 33.64 504.07 37.74 512.5 44.54 518.8 49.33 521.94 58.06 522.72 67.57 521.94 72.71 518.04 77.81 512 79.37 506.71 79.37 502.73 82.49 500.32 102.37 504.79 118.72 511.01 128.57 512.86 140.25 513.34 149.1 512.77 159.55 511.33 169.89 509.24 168.31 504.33 167.43 497.39 169.7 489.18 171.36 486.59 161.66 487.68 150.32 489.18 140.25 489.11 130.7 488.46 121.36 487.68 110.18 485.05 98.73 480.96 80.75 472.07"/>
    <polygon class="cls-5" points="118.06 417.7 121.63 433.3 121.49 443.77 120.56 450.13 115.32 465.39 110.18 474.1 98.73 480.96 144.75 489.14 161.66 487.68 175.33 483.7 169.7 489.18 167.95 501.49 169.89 509.24 179.15 516.2 186.71 518.95 194.19 519.43 202.01 517.67 210.16 512.71 215.25 506.71 218.4 499.59 219.22 489.18 216.94 480.96 211.06 472.67 198.54 465.79 212.87 468.35 224.85 473.48 233.1 479.81 239.55 489.18 241.88 496.82 242.87 508.89 242.94 524.31 242.03 534.71 255.25 535.73 270.66 538.99 270.66 497.39 269.63 482.47 266.98 474.55 263.68 468.61 258.71 462.36 250.34 455.04 242.19 449.91 235.81 446.72 225.72 442.75 215.81 439.81 209.99 437.98 217.72 435.08 223.73 431.05 228.53 425.53 231.76 418.79 233.07 415.16 233.07 409.01 231.9 402.24 228.58 395.14 220.91 387.35 213.86 383.92 206.61 381.98 197.42 382.6 191.83 386.03 183.17 393.71 181.31 401.03 182.33 408.31 179.18 406.58 171.36 404.18 162.89 402.34 152.8 399.75 141.94 399.07 131.55 398.46 123.25 398.46 115.32 399.34 106.39 401.05 113.2 408.31 118.06 417.7"/>
    <polygon class="cls-8" points="227.15 622.61 248.15 626.51 253.51 626.65 260.45 630.42 270.66 633.37 268.64 642.62 267.24 661.04 262.81 719.34 268.62 717.77 274.3 718.11 283.29 722.04 287.28 728.26 288.51 735.87 287.55 744.99 285.49 750.27 282.01 754.97 276.8 760.53 269.4 762.2 260.83 762.59 251.59 759.75 245.51 755.62 237.47 746.69 237.11 737.65 239.2 719.17 243.16 685.15 239.84 699.53 233.1 705.77 224.85 712.28 216.43 715.73 204.28 718.79 194.19 719.17 181.31 718.07 172.56 719.34 164.55 723.13 161.12 728.26 161.12 735.87 164 744.06 169.89 747.39 178.44 747.6 191.82 747.6 204.28 747.6 215.36 747.6 227.19 748.53 235.1 750.38 250.74 756.9 264 767.96 269.4 777.34 272.82 785.84 275.56 797.53 275.56 804.75 271.59 807.87 266.1 807.87 261.66 804.37 258.28 795.06 254.07 788.32 245.55 780.08 237.11 775.64 226 772.46 216.91 771.23 210.01 770.89 198.51 771.31 184.69 773 176.29 773.27 165.65 772.38 155.43 768.81 146.7 764.14 141.89 757.91 138.05 747.63 136.72 734.65 138.46 721.43 141.89 710.91 147.14 701.34 155.76 697.97 167.43 694.72 173.89 695.33 189.41 695.22 198.13 695.22 206.14 692.21 212.61 686.86 217.5 678.74 220.58 658.81 227.15 622.61"/>
  </g>
  <g id="Capa_5" data-name="Capa 5">
    <g>
      <circle class="cls-4" cx="636.88" cy="446" r="26.67"/>
      <path d="M662.05,446a25.17,25.17,0,1,1-20.11-24.66A25.45,25.45,0,0,1,662.05,446a1.5,1.5,0,0,0,3,0,28.17,28.17,0,1,0-23,27.68c13.29-2.41,22.8-14.34,23-27.68A1.5,1.5,0,0,0,662.05,446Z"/>
    </g>
    <g>
      <circle cx="636.88" cy="446" r="9.33"/>
      <path d="M644.71,446a7.83,7.83,0,1,1-7.83-7.83,7.93,7.93,0,0,1,7.83,7.83c.07,1.93,3.07,1.94,3,0a10.83,10.83,0,1,0-10.83,10.84A11,11,0,0,0,647.71,446C647.78,444.07,644.78,444.07,644.71,446Z"/>
    </g>
    <g>
      <circle class="cls-9" cx="636.88" cy="446" r="2.99"/>
      <path d="M638.37,446a1.49,1.49,0,0,1-3,0,1.49,1.49,0,0,1,3,0c.1,1.92,3.1,1.94,3,0a4.49,4.49,0,1,0-4.65,4.48,4.56,4.56,0,0,0,4.65-4.48C641.47,444.07,638.47,444.08,638.37,446Z"/>
    </g>
    <path d="M733.09,483.7c.63-8.64-1.06-17.91-8-23.73a28.13,28.13,0,0,0-15.7-6,23.58,23.58,0,0,0-3.94-.1l1.5,1.5a65.92,65.92,0,0,0-44-69,63.35,63.35,0,0,0-73.75,24.73,74.78,74.78,0,0,0-10.11,21.82,46.13,46.13,0,0,0-1.93,8.74c-.19,2.41,0,4.92,0,7.33a1.5,1.5,0,0,0,3,0c0-4.43,0-7.92,1-12.21a73.54,73.54,0,0,1,7.45-19.09,63,63,0,0,1,28-26.32c25.26-11.78,56.07-3.83,73.66,17.4a62.53,62.53,0,0,1,13.68,46.57,1.5,1.5,0,0,0,1.5,1.5,27.29,27.29,0,0,1,12.91,2.4c9.72,4.46,12.47,14.46,11.74,24.46-.14,1.92,2.86,1.91,3,0Z"/>
    <path d="M594.7,408.52a51.74,51.74,0,0,1,7.1-14.41,71.2,71.2,0,0,1,29.55-25c35.2-16.28,77.14-6.47,104.8,19.56,12.65,11.89,23.32,27.6,25.69,45.12.25,1.91,3.15,1.1,2.89-.79-2.14-15.83-11.05-30.3-21.8-41.79a106,106,0,0,0-47.43-29.29c-32.77-9.52-72.22-1.1-93.54,26.84-4.26,5.57-8.28,12.13-10.15,19a1.5,1.5,0,0,0,2.89.8Z"/>
    <path d="M569,480c.28-6.38,8.72-9.11,12.19-3.41a7.91,7.91,0,0,1,1,3.8c0,.14,0-.53,0-.18s.07.93.08,1.39a13.17,13.17,0,0,1-4.66,10.57c-2.84,2.25-6.57,3.17-10.12,3.45-5.26.41-10.48-.1-14.57-3.76-7.47-6.69-8.84-19-4.67-27.75A24.76,24.76,0,0,1,578,451.25c1.86.57,2.65-2.33.8-2.89a27.8,27.8,0,0,0-32.06,12.19c-5.94,10-5,24.67,3.6,33,4.46,4.31,10.12,5.43,16.16,5.13,4.56-.23,9.26-1.27,12.92-4.15a16.16,16.16,0,0,0,5.82-13.76c-.28-4.13-1.88-7.89-6-9.59-6.4-2.67-13,2.16-13.27,8.82-.08,1.93,2.92,1.92,3,0Z"/>
    <path d="M550.21,457.25a142.19,142.19,0,0,0-15.36-3.91,243.84,243.84,0,0,0-39.47-5,220.44,220.44,0,0,0-49.47,3.25A203.91,203.91,0,0,0,408,462.79l-21.94,8.65a1.52,1.52,0,0,0-.36,2.74L401,483c6.93,4,14.88,7,22.41,9.67A143.7,143.7,0,0,0,461.8,501c7.3.52,14.66.32,22,.21s14.49-.34,21.73-.83c15.1-1,30.44-2.95,44.71-8.24,1.79-.67,1-3.57-.8-2.89-12.63,4.68-26.09,6.7-39.46,7.8a400.81,400.81,0,0,1-42.59,1.21,135.88,135.88,0,0,1-39.18-7.12c-4.74-1.57-9.38-3.39-14-5.37a116.11,116.11,0,0,1-11-5c-5.35-3-10.64-6.16-16-9.23l-.35,2.74c17.16-6.76,34.16-14.17,52.21-18.25,29.9-6.74,61.41-6.38,91.43-.56a154.85,154.85,0,0,1,18.89,4.62c1.84.61,2.63-2.29.8-2.89Z"/>
    <path d="M468.68,450.13v49.46a1.5,1.5,0,0,0,3,0V450.13a1.5,1.5,0,0,0-3,0Z"/>
    <path d="M575.26,549.2a1.5,1.5,0,0,0,0-3,1.5,1.5,0,0,0,0,3Z"/>
    <path d="M575.2,526c-7.58-.42-15.19.5-22.78.23-1.84-.06-3-.35-3.23-2.75-.08-.9,0-1.84-.05-2.75l-.2-11.48c-.07-3.7.13-7.25,3.09-10,3.2-2.94,8-2.41,12-2.32,5.48.13,9.49,3.76,9.57,9.05.19,13,.08,25.92.12,38.88,0,1.73.2,3.6,0,5.31-.36,3.91-3.08,6.41-6.74,7.39a18.25,18.25,0,0,1-5.11.42c-3.88,0-8.66.75-11.71-2.2a7.41,7.41,0,0,1-2.07-5.34c-.06-2.91,0-5.83,0-8.74v-6.24a32.33,32.33,0,0,1,0-4.72c.25-1.56,1.12-1.29,2.62-1.34l5.07-.17c1.93-.06,1.94-3.06,0-3l-5.07.17c-1.72,0-3.59-.11-4.81,1.38-1.6,2-.81,6.29-.81,8.58V548.8a18.28,18.28,0,0,0,.34,4.55c2.15,8.38,11.75,8,18.69,7.72a15.63,15.63,0,0,0,7.51-2.18c4.06-2.53,5.18-6.65,5.06-11.19-.36-13.54-.09-27.13-.13-40.68,0-5-2-9.88-7-11.95-3.55-1.48-7.9-1.19-11.69-1.08A12.34,12.34,0,0,0,546,504.92c-.42,3.38,0,6.95,0,10.35.05,3.11-.5,7,.42,10.05,1.31,4.35,5.4,4,9,4,5,0,9.91-.2,14.87-.28,1.61,0,3.23-.08,4.84,0,1.92.11,1.92-2.89,0-3Z"/>
    <path d="M668.52,502.59c.23-3.63,3.86-4.36,6.88-4.26a10.7,10.7,0,0,1,8.41,4.46c2.59,3.69,3.15,8.66,3.24,13.05,0,2.17-.67,4.89-.07,7a34.26,34.26,0,0,1,1.79,10.67c-.06,3.62-.67,8.89-4.74,10.27a19.2,19.2,0,0,1-4.77.61c-2.89.19-7.66.68-10-1.41-.93-.83-.79-1.89-.79-3v-5.69q0-15.81.07-31.63a1.5,1.5,0,0,0-3,0q0,16.81-.07,33.65c0,3.27-.75,7.27,2.38,9.38,3.33,2.24,8.22,2,12,1.69,2-.15,4.17-.2,6-1.09,4.43-2.16,5.72-7.31,5.89-11.85a34.34,34.34,0,0,0-2.17-13.08c.33.93.15.69.28,0A19.73,19.73,0,0,0,690,519a45.38,45.38,0,0,0-.22-7.09c-.69-6.08-2.83-12.34-8.71-15.18-5.63-2.72-15.08-1.76-15.56,5.9C665.4,504.51,668.4,504.51,668.52,502.59Z"/>
    <path d="M606,524.19c-7.75-.42-15.54.43-23.29.24-1.61,0-3,.15-3.66-1.75a11.34,11.34,0,0,1-.22-3.39l-.21-11.47c-.08-3.87,0-7.55,3.22-10.35s7.74-2.34,11.8-2.32c4.33,0,8.5,1.38,10.18,5.71a8.39,8.39,0,0,1,.6,3.2c.27,13,.09,26,.13,39a37,37,0,0,1,0,6c-.62,3.73-3.6,5.9-7.08,6.76a21.21,21.21,0,0,1-5.51.4c-3.92-.05-8.65.7-11.83-2.1-3.6-3.17-2.29-10.06-2.29-14.18v-6.69a23.73,23.73,0,0,1,0-4.46c.32-1.5,1.72-1.12,3.08-1.17l5-.15c1.92-.06,1.93-3.06,0-3l-5.22.16c-1.67,0-3.52-.14-4.81,1.17-1.87,1.9-1,6.42-1,8.8v12.51a16.43,16.43,0,0,0,.4,4.59c2.4,8.37,12.29,7.76,19.29,7.54a16.7,16.7,0,0,0,7.48-2c4.2-2.32,5.75-6.44,5.62-11.06-.41-13.72-.12-27.49-.16-41.22,0-5.05-2.31-9.72-7.23-11.74-3.76-1.55-8.52-1.24-12.54-1.07a12.57,12.57,0,0,0-12,10.91c-.45,3.46,0,7.13,0,10.61.06,3.1-.62,7.52.7,10.45,1.78,3.93,5.92,3.34,9.49,3.32,5.09,0,10.17-.2,15.26-.28,1.6,0,3.21-.07,4.82,0,1.92.1,1.92-2.9,0-3Z"/>
    <path d="M635.09,522.81c-7.74-.42-15.54.43-23.29.24-1.6,0-3,.16-3.65-1.75a11.34,11.34,0,0,1-.22-3.39l-.22-11.46c-.07-3.88,0-7.55,3.23-10.36s7.74-2.33,11.8-2.31c4.33,0,8.5,1.37,10.17,5.7a8.22,8.22,0,0,1,.61,3.2c.27,13,.08,26,.13,39a38.21,38.21,0,0,1,0,6c-.62,3.74-3.6,5.9-7.09,6.76a21.1,21.1,0,0,1-5.5.4c-3.93-.05-8.65.7-11.84-2.1-3.6-3.17-2.28-10.06-2.28-14.18v-6.68a23,23,0,0,1,0-4.47c.32-1.5,1.71-1.12,3.08-1.16l5-.16c1.93-.06,1.94-3.06,0-3l-5.21.16c-1.68.06-3.53-.13-4.81,1.17-1.88,1.9-1,6.42-1,8.8v12.52a16.4,16.4,0,0,0,.4,4.58c2.4,8.37,12.29,7.77,19.28,7.55a16.85,16.85,0,0,0,7.48-2c4.21-2.32,5.76-6.44,5.62-11.06-.4-13.72-.11-27.49-.16-41.22,0-5-2.31-9.72-7.22-11.74-3.77-1.54-8.53-1.24-12.55-1.07a12.59,12.59,0,0,0-12,10.92c-.44,3.46,0,7.13,0,10.6.06,3.1-.62,7.52.71,10.45,1.77,3.93,5.91,3.34,9.49,3.32,5.09,0,10.17-.2,15.26-.28,1.6,0,3.21-.07,4.81,0,1.93.1,1.92-2.9,0-3Z"/>
    <path d="M665.49,520.82c-7.7-.42-15.46.43-23.18.24-1.6,0-2.94.15-3.63-1.75a11.33,11.33,0,0,1-.21-3.39l-.22-11.47c-.07-3.86,0-7.54,3.21-10.35s7.7-2.34,11.74-2.32c4.32,0,8.46,1.39,10.12,5.71a8.39,8.39,0,0,1,.6,3.2c.27,13,.09,26,.13,39a37,37,0,0,1,0,6c-.61,3.72-3.57,5.89-7,6.76a20.88,20.88,0,0,1-5.47.4c-3.91-.05-8.61.7-11.78-2.1-3.58-3.17-2.27-10.07-2.27-14.18v-6.69a23.73,23.73,0,0,1,0-4.46c.32-1.5,1.69-1.12,3.06-1.17l5-.15c1.93-.06,1.94-3.06,0-3l-5.19.16c-1.67,0-3.51-.13-4.79,1.17-1.87,1.9-1,6.42-1,8.8v12.51a16.43,16.43,0,0,0,.4,4.59c2.38,8.35,12.22,7.76,19.2,7.54a16.58,16.58,0,0,0,7.45-2c4.19-2.33,5.73-6.45,5.59-11.06-.4-13.72-.11-27.49-.15-41.22,0-5-2.29-9.72-7.2-11.74-3.74-1.54-8.49-1.24-12.49-1.07a12.54,12.54,0,0,0-11.92,10.91c-.44,3.46,0,7.13,0,10.61.06,3.1-.62,7.52.7,10.45,1.77,3.92,5.89,3.34,9.46,3.32,5.06,0,10.12-.2,15.18-.28,1.6,0,3.2-.07,4.79,0,1.93.1,1.93-2.9,0-3Z"/>
    <path d="M661.05,492.26c3.47-4.79,7.46-7.71,13.48-8.63,7.14-1.08,15.43.15,21.22,4.7a19,19,0,0,1,6.14,8.42,5.31,5.31,0,0,1,.25.8c-.09-.39,0-.21,0,.32-.09,1.94,0,3.9,0,5.84V517a1.5,1.5,0,0,0,3,0v-9.4c0-3.39-.29-6.93,0-10.32-.07.79.16-.41.27-.73a16.42,16.42,0,0,1,1.28-2.8,17.84,17.84,0,0,1,7.54-7.21c5.4-2.7,11.93-2.52,17.69-1.25,5.18,1.14,10,3.71,12.67,8.49s2.68,10.86,1.33,16.06a15.3,15.3,0,0,1-4.24,7.36c-4.08,3.82-9.54,3.59-14.75,3.93a1.53,1.53,0,0,0-1.44,1.9l4.37,25.9c.87,5.15,4.2,12.45-1.41,16.06-3,1.93-6.83,1.48-10.26,2l-11.35,1.54L673.43,573l-11.31,1.54-1.82.25-.85.11-24.7,3.16-33.23,4.25c-4.69.6-9.46,1-14.11,1.88-9,1.68-19.17,3-28.08.44-3.73-1.09-7.71-3.47-8-7.73-.36-4.91,0-10,0-14.9v-4.15a1.5,1.5,0,0,0-3,0v13.47c0,4.07-.49,7.92,2.22,11.33,3.12,3.94,8.44,5.3,13.2,5.89a69,69,0,0,0,16.62-.25c3-.35,5.88-.86,8.81-1.4-1,.17.83-.11,1.07-.14l4-.52,31.19-4c14.18-1.81,28.38-3.57,42.55-5.5l33.32-4.53,14.61-2c2.71-.37,5.4-.49,8.09-.8,5.16-.59,9.5-3.47,10.35-8.84.54-3.34-.31-6.35-1.15-9.53-.79-3-1.08-6.18-1.59-9.22l-2.79-16.51-.52-3.11-1.45,1.9c5-.32,10.12-.14,14.47-2.93a17.7,17.7,0,0,0,7.17-9.65,27,27,0,0,0,.08-15.85c-3.87-11.9-18.12-15.76-29.4-13.87-7.64,1.29-14.46,6.62-16.81,14.13-.75,2.41-.3,5.27-.3,7.75V517a1.5,1.5,0,0,0,3,0V503.71c0-2.57.48-5.53-.4-8-4.23-11.92-17.75-16.49-29.44-15.17A23.21,23.21,0,0,0,664,484.63a26.2,26.2,0,0,0-5.49,6.11c-1.13,1.57,1.47,3.07,2.59,1.52Z"/>
    <path d="M783.94,462c3.55,8.59-1.36,17.17-10.48,18.78-11.66,2-21.73-7.36-21.9-18.94-.14-9.6,2.93-18.55,10.22-25.06a35,35,0,0,1,28.92-7.91c10.18,1.81,19.5,8.13,24.32,17.36,4.35,8.33,4.79,20-.87,27.86-2.15,3-4.57,5.56-6,9a34.63,34.63,0,0,0-2.24,15.71c.43,6.72,2.53,13,3.6,19.6,1.37,8.48.67,19.05-9.29,21.33a25.18,25.18,0,0,1-12.88-.79c-1.84-.59-2.63,2.31-.79,2.9a29.23,29.23,0,0,0,13,1.06c8.16-1.24,12.79-7.45,13.51-15.44.74-8.24-2.37-16-3.61-24-1-6.39-1.09-13.39,1.55-19.41,1.62-3.7,4.59-6.4,6.69-9.79,5.64-9.11,4.47-22-.82-31a37.35,37.35,0,0,0-26.88-17.56,38,38,0,0,0-30.74,9.36c-7.59,7-10.79,16.7-10.63,26.86.17,11.4,9.27,22.06,21,22.13,9.59.05,18.71-6.09,18.6-16.39a17.37,17.37,0,0,0-1.36-6.48c-.73-1.76-3.63-1-2.89.79Z"/>
    <path d="M530.77,320.58c6.41.05,13,1.76,19,3.75A88.06,88.06,0,0,1,588.1,350a112.29,112.29,0,0,1,19.65,33.1c.7,1.78,3.6,1,2.89-.8-7.77-19.74-20.06-37.68-37.71-49.79a86.6,86.6,0,0,0-34.84-14.16,48.59,48.59,0,0,0-7.32-.77,1.5,1.5,0,0,0,0,3Z"/>
    <path d="M549.41,308.08A57.55,57.55,0,0,1,562,312.53a102.21,102.21,0,0,1,28.49,19.79,121.12,121.12,0,0,1,17.38,21.51c1,1.62,3.63.12,2.59-1.51-13.07-20.41-32.26-38.11-55.6-45.82a41.62,41.62,0,0,0-4.68-1.32c-1.89-.37-2.69,2.52-.8,2.9Z"/>
    <path d="M569.23,299.51a172.36,172.36,0,0,1,37.18,30.39A82.59,82.59,0,0,1,618,345.74c.93,1.7,3.52.19,2.59-1.51-5.66-10.33-14-19.1-22.71-26.9A209.42,209.42,0,0,0,575.53,300c-1.58-1.06-3.16-2.12-4.79-3.11s-3.16,1.59-1.51,2.59Z"/>
    <path d="M612.34,327.4a101.87,101.87,0,0,1,37.7-9c1.93-.06,1.94-3.06,0-3a105.62,105.62,0,0,0-39.22,9.37c-1.76.78-.23,3.37,1.52,2.59Z"/>
    <g>
      <circle cx="629.24" cy="311.29" r="7.79"/>
      <path d="M635.53,311.29a6.29,6.29,0,0,1-12.58,0c.07-8.14,12.24-8.08,12.58,0,.09,1.93,3.09,1.94,3,0a9.29,9.29,0,1,0-9.29,9.29,9.43,9.43,0,0,0,9.29-9.29C638.62,309.36,635.62,309.37,635.53,311.29Z"/>
    </g>
    <path d="M589,295c6.18,4,11.46,9.83,16.16,15.44,1.24,1.48,3.36-.66,2.12-2.13-4.87-5.8-10.36-11.72-16.77-15.91-1.62-1.05-3.12,1.54-1.51,2.6Z"/>
    <path d="M604.39,292A30.17,30.17,0,0,1,612,299.6c1,1.61,3.65.11,2.59-1.51a34.11,34.11,0,0,0-8.64-8.64c-1.56-1.14-3.06,1.46-1.51,2.59Z"/>
    <path d="M615.59,289.59a31.08,31.08,0,0,1,6.89,8.67c.87,1.72,3.46.2,2.59-1.52a33.52,33.52,0,0,0-7.36-9.27c-1.42-1.3-3.55.81-2.12,2.12Z"/>
    <path d="M638,287.18c3.65,3,6.47,7.33,8.77,11.41,6.48,11.47,9,24.71,9,37.77a1.5,1.5,0,0,0,3,0c0-13.44-2.65-27-9.21-38.88-2.45-4.42-5.53-9.15-9.47-12.42-1.48-1.22-3.61.89-2.12,2.12Z"/>
    <path d="M618.56,288.84c-7.93,3.54-13.73,11.87-13.82,20.56-.16,15.65,12.85,29.07,26.67,34.38a40.08,40.08,0,0,0,11.1,2.71,1.47,1.47,0,0,0,1.3-.75,116.68,116.68,0,0,0,4.53-12.6c2-6.52,3.88-13.75,3.4-20.63-.62-8.71-5-18.3-12.74-22.79-6.19-3.57-13.48-3.12-20.09-1-1.83.58-1,3.48.8,2.9,5.59-1.77,11.79-2.45,17.15.38a21.19,21.19,0,0,1,8.88,9.76c4.59,9.38,3,19.23.2,29a122.51,122.51,0,0,1-4.72,13.54l1.29-.74c-8-.61-16.92-4.82-23-10.33-9.81-8.89-16.91-25.38-6.55-36.47a22.77,22.77,0,0,1,7.11-5.26C621.83,290.65,620.31,288.06,618.56,288.84Z"/>
    <path d="M655,287.43a56.48,56.48,0,0,1,5.66,12.06,115.92,115.92,0,0,1,6.46,35.58c.06,1.93,3.06,1.94,3,0a118.62,118.62,0,0,0-6.57-36.38,59.63,59.63,0,0,0-6-12.77c-1.07-1.6-3.66-.1-2.59,1.51Z"/>
    <path d="M671.29,286.88a58.1,58.1,0,0,1,4.43,12.28,128.55,128.55,0,0,1,4.06,35.91,1.5,1.5,0,0,0,3,0,131.65,131.65,0,0,0-4.16-36.71,62.57,62.57,0,0,0-4.74-13c-.9-1.71-3.5-.19-2.59,1.51Z"/>
    <path d="M686.86,285.73A119,119,0,0,1,689.21,298a372.68,372.68,0,0,1,3.6,38.76c.09,1.92,3.09,1.93,3,0a382.13,382.13,0,0,0-3.64-39.09,117,117,0,0,0-2.42-12.73,1.5,1.5,0,0,0-2.89.79Z"/>
    <path d="M702.15,287.83a267.66,267.66,0,0,1,2.9,51.3c-.07,1.93,2.93,1.93,3,0a272,272,0,0,0-3-52.1c-.3-1.9-3.19-1.09-2.89.8Z"/>
    <path d="M726.18,319.55a98.29,98.29,0,0,1,32.69,18.13c1.46,1.26,3.59-.86,2.12-2.12a101.77,101.77,0,0,0-34-18.9c-1.83-.61-2.62,2.28-.79,2.89Z"/>
    <g>
      <circle cx="748.8" cy="319.06" r="7.52"/>
      <path d="M753.28,323.07a6,6,0,1,1-.47-8.5,6.12,6.12,0,0,1,.47,8.5c-1.23,1.47.88,3.6,2.13,2.12a9,9,0,1,0-12.75.48,9.17,9.17,0,0,0,12.75-.48A1.5,1.5,0,0,0,753.28,323.07Z"/>
    </g>
    <g>
      <circle class="cls-6" cx="748.8" cy="319.06" r="1.88"/>
      <path d="M749.12,319.27c-.06.06-.2.16-.07.11l-.21.06c-.11,0-.1,0,0,0-.18,0-.19,0,0,0a1.29,1.29,0,0,1-.28-.08c.24.1-.2-.12,0,0-.08,0-.17-.21-.11-.07,0-.08-.21-.4-.06-.17,0-.18,0-.19,0,0a1.6,1.6,0,0,1,.05-.21c0-.1,0-.1,0,0,.09-.15.1-.17,0-.07.13-.12.15-.14,0-.06l.13-.08c-.32.14.4-.23.07,0,.16,0,.19,0,.09,0l.09,0c.17.05.18.06.05,0,.14.1.17.11.06,0,.12.13.14.15.09.08s0-.05,0,.09c-.13-.32.24.4,0,.07v.15c0-.16,0-.15,0,0s0,.18,0,.05c-.09.15-.1.17,0,.07a1.55,1.55,0,0,0,0,2.12,1.52,1.52,0,0,0,2.12,0,3.38,3.38,0,1,0-4.77.12,3.43,3.43,0,0,0,4.77-.12C752.6,320,750.48,317.89,749.12,319.27Z"/>
    </g>
    <path d="M716.17,289.27c.78,16.3,1.57,33,0,49.23-.19,1.92,2.82,1.91,3,0,1.57-16.27.78-32.93,0-49.23-.09-1.92-3.09-1.93-3,0Z"/>
    <path d="M729.38,291.11v15.31a1.5,1.5,0,0,0,3,0V291.11a1.5,1.5,0,0,0-3,0Z"/>
    <path d="M755.9,296.08a23.18,23.18,0,0,0-21.23,3.66c-5.91,4.8-8.83,12.62-9.8,20a41.13,41.13,0,0,0,3.51,22.35,39.67,39.67,0,0,0,6.87,10.7,1.54,1.54,0,0,0,1.81.24,110.14,110.14,0,0,0,10.54-5.54c5.7-3.35,11.72-7.21,16-12.32,5.44-6.45,8.72-16.18,6.39-24.49-1.93-6.86-7.52-11.5-13.77-14.41-1.74-.8-3.26,1.78-1.51,2.59C760,301.28,765,305,766.91,310.73a21,21,0,0,1-.45,13.06c-3.2,9.75-11.29,15.66-19.82,20.74a107.63,107.63,0,0,1-11.09,5.86l1.82.24c-6.36-6.76-9.92-16.9-9.85-26.05.08-12.27,6.5-26.09,20.22-26.53a21.35,21.35,0,0,1,7.36.93C756.93,299.59,757.72,296.69,755.9,296.08Z"/>
    <path d="M777.77,306.42c0,4.19-1.66,8.72-3.23,12.62-5,12.39-13.71,23.08-23.16,32.35-1.38,1.36.74,3.48,2.12,2.13C763.24,344,772,333,777.25,320.27c1.75-4.27,3.49-9.16,3.52-13.85a1.5,1.5,0,0,0-3,0Z"/>
    <path d="M790.45,314.26c-1.16,4.49-3.48,8.79-5.73,12.79-6.83,12.16-16,22.91-25.85,32.66-1.38,1.36.75,3.48,2.12,2.12,10.07-9.92,19.37-20.9,26.32-33.26,2.37-4.22,4.81-8.79,6-13.51.48-1.87-2.41-2.67-2.89-.8Z"/>
    <path d="M803.39,323.36A106.49,106.49,0,0,1,794,339.53c-7.78,11.34-17.36,21.61-28.88,29.2-1.61,1.06-.1,3.66,1.51,2.59C778.26,363.65,788,353.4,795.9,342A107.46,107.46,0,0,0,806,324.87c.78-1.74-1.8-3.27-2.59-1.51Z"/>
    <path d="M814.73,335.7c-4.26,5.45-8.79,10.71-13.42,15.85-8.42,9.35-17.34,18.67-27.68,25.93-1.56,1.11-.07,3.71,1.52,2.59,10.38-7.29,19.37-16.54,27.85-25.92,4.78-5.29,9.46-10.71,13.85-16.33,1.17-1.5-.94-3.64-2.12-2.12Z"/>
    <path d="M824.66,347.6l-27.28,24.56c-1.44,1.3.69,3.41,2.12,2.12l27.28-24.56c1.43-1.3-.69-3.41-2.12-2.12Z"/>
    <path d="M790.83,377.72c-3.36,3-6.71,6-10.26,8.75-1.53,1.18.61,3.29,2.12,2.12,3.55-2.75,6.9-5.77,10.26-8.75,1.45-1.28-.68-3.4-2.12-2.12Z"/>
    <path d="M786.36,405.6c-.21.5.1-.25.2-.46.33-.7.65-1.39,1-2.08a71.6,71.6,0,0,1,3.77-6.6c4-6.22,9-12,15.14-16.14,7.18-4.8,15.87-6.94,24.29-4.44a26.4,26.4,0,0,1,6.69,3,20.87,20.87,0,0,1,1.79,1.26,18.08,18.08,0,0,1,6.14,8.82c2.4,7.2,2.25,16.67-2.1,23.12-5.77,8.56-18,10.47-27.17,7.41-10.72-3.58-20.93-9.56-30.44-15.62-1.64-1-3.14,1.56-1.52,2.59,9.34,5.95,19.27,11.61,29.69,15.4a28.86,28.86,0,0,0,14.87,1.7c5.78-.89,11.56-3.3,15.47-7.77,5.42-6.19,6.39-15.1,5.19-23-.8-5.26-3-10.67-7.19-14.2-.42-.36-.86-.68-1.31-1a3.8,3.8,0,0,1-.42-.3,27.62,27.62,0,0,0-5-2.9,30.09,30.09,0,0,0-24-.23c-12.81,5.32-22.82,18-28,30.58C782.73,406.58,785.63,407.36,786.36,405.6Z"/>
    <path d="M805.74,379.39c2.3,2.23,3.87,5.79,5,8.87,3.64,10.11,3.51,21.27,2,31.77-.27,1.89,2.62,2.71,2.89.8,1.55-11,1.8-22.74-2-33.36-1.28-3.54-3-7.53-5.76-10.2-1.39-1.35-3.51.77-2.12,2.12Z"/>
    <g>
      <circle cx="822.72" cy="396.49" r="7.52"/>
      <path d="M827.2,400.5a6,6,0,1,1-.47-8.5,6.11,6.11,0,0,1,.47,8.5c-1.23,1.47.88,3.6,2.13,2.12a9,9,0,1,0-12.75.48,9.16,9.16,0,0,0,12.75-.48A1.5,1.5,0,0,0,827.2,400.5Z"/>
    </g>
    <g>
      <circle class="cls-6" cx="822.72" cy="396.49" r="1.88"/>
      <path d="M823,396.7c-.06.06-.2.16-.07.11l-.21.06c-.11,0-.09,0,0,0-.18,0-.19,0,0,0l-.28-.07c.24.1-.2-.13,0,0-.08-.05-.17-.22-.11-.08,0-.07-.2-.39-.06-.17,0-.18,0-.19,0,0a1.6,1.6,0,0,1,0-.21c0-.1,0-.09,0,0,.1-.15.11-.17,0-.07.13-.12.15-.14,0-.06l.13-.08c-.32.14.4-.23.07,0,.17,0,.19,0,.09,0l.09,0c.17.06.18.06.05,0q.23.15.06,0c.12.13.15.15.09.08s0,0,0,.09c-.13-.31.24.4,0,.08v.14c0-.16,0-.15,0,0s-.06.19,0,.05c-.09.15-.1.17,0,.07a1.55,1.55,0,0,0,0,2.12,1.52,1.52,0,0,0,2.12,0,3.38,3.38,0,1,0-4.77.12,3.44,3.44,0,0,0,4.77-.12A1.5,1.5,0,0,0,823,396.7Z"/>
    </g>
    <path d="M831.37,359.88a53.23,53.23,0,0,1-16.93,13.31c-1.72.88-.2,3.47,1.52,2.59A55.43,55.43,0,0,0,833.49,362c1.21-1.48-.9-3.62-2.12-2.12Z"/>
    <path d="M783.83,398c3.29.22,7.26-.11,10-2.08,1.56-1.12.06-3.72-1.51-2.59-2.35,1.68-5.68,1.85-8.49,1.67-1.92-.13-1.91,2.87,0,3Z"/>
    <path d="M791,419.93c6.19,0,13.31.12,19.18-2.05,1.8-.66,1-3.56-.8-2.89-5.64,2.08-12.43,1.94-18.38,1.94a1.5,1.5,0,0,0,0,3Z"/>
    <path d="M852.68,410.32a74.81,74.81,0,0,1-12,6.67,120.76,120.76,0,0,1-33.21,9.78c-1.9.28-1.09,3.17.8,2.89a123.44,123.44,0,0,0,33.42-9.84,77.4,77.4,0,0,0,12.55-6.91c1.56-1.11.06-3.71-1.52-2.59Z"/>
    <path d="M838.82,369.91a14.43,14.43,0,0,1-6.79,4.83c-1.83.59-1,3.49.8,2.9a17.18,17.18,0,0,0,8.11-5.61c1.17-1.5-.93-3.64-2.12-2.12Z"/>
    <path d="M855.22,423a86.39,86.39,0,0,1-12,5.45A140.93,140.93,0,0,1,811,436.58c-1.89.24-1.91,3.25,0,3,15.53-2,32-6.08,45.74-13.95a1.5,1.5,0,0,0-1.52-2.59Z"/>
    <path d="M858.41,436.63a204.83,204.83,0,0,1-42.21,10.91c-1.9.26-1.09,3.15.8,2.9a206.28,206.28,0,0,0,42.21-10.91c1.8-.66,1-3.56-.8-2.9Z"/>
    <path d="M860.14,449.72c-12.16,6.54-26.84,9.62-40.47,10.47-1.92.12-1.93,3.12,0,3,14.19-.89,29.34-4.08,42-10.88,1.71-.91.19-3.5-1.51-2.59Z"/>
    <path d="M858.05,464.86l-.53.22c-.76.3-1.53.59-2.3.86-2.88,1-5.8,1.93-8.75,2.74a153.3,153.3,0,0,1-31.27,5c-1.92.11-1.93,3.11,0,3,14.85-.87,30.61-3.25,44.37-9.24,1.76-.76.24-3.35-1.52-2.59Z"/>
    <path d="M858.41,479.08c-15.85,6.14-33.68,8.71-50.58,8.71v3c6.58-.85,13.85-.8,20.2,1.22,4.87,1.55,7.7,4.33,8.86,9.32,1.36,5.9.88,12.31-4.58,15.93s-14.1,4.56-20.53,2.68c-1.86-.54-2.65,2.36-.8,2.9a30.76,30.76,0,0,0,19.66-1.35,15.4,15.4,0,0,0,9.93-15.25c-.17-5.57-1.64-11.39-6.45-14.67-4.42-3-10.15-3.82-15.36-4.11a59.62,59.62,0,0,0-10.93.33c-1.85.24-2,3,0,3,17.14,0,35.3-2.59,51.38-8.81,1.78-.69,1-3.59-.8-2.9Z"/>
    <path d="M837.7,498.32c7.52-.5,15.49-1.41,22.55-4.12,1.79-.68,1-3.59-.79-2.89-6.84,2.61-14.49,3.52-21.76,4-1.91.13-1.93,3.13,0,3Z"/>
    <path d="M839,510.33c7,0,14.66-.52,21.28-3,1.79-.68,1-3.58-.79-2.9-6.41,2.41-13.69,2.91-20.49,2.91a1.5,1.5,0,0,0,0,3Z"/>
    <path d="M835.41,520.19c8.11,1.08,17.05.94,24.84-1.69,1.82-.62,1-3.52-.79-2.9-7.56,2.56-16.19,2.63-24.05,1.59-1.91-.25-1.89,2.75,0,3Z"/>
    <path d="M838.78,519.21q.48,27.84,1,55.67c.57,31.28,1.15,62.56,1.9,93.83.24,9.75.32,19.53.92,29.26.11,1.92,3.11,1.93,3,0-1.39-22.77-1.31-45.71-1.78-68.51q-.91-45.11-1.68-90.22-.18-10-.35-20c0-1.93-3-1.93-3,0Z"/>
    <path d="M818.26,522.32l.53,21.39L820,592.56l1.35,54.18.91,36.6c.23,9.26.32,19,5.31,27.14,2.15,3.54,5.38,6.46,9.56,7.21a47.47,47.47,0,0,0,14.08.19,15.41,15.41,0,0,0,10.59-5.72c2.85-3.79,3.89-8.7,4.3-13.32,1.06-11.63.2-23.6-.17-35.24-.59-18.77-1.45-37.53-2.38-56.29q-1.37-27.63-2.94-55.26-.9-15.66-1.83-31.32l-.09-1.52c-.12-1.91-3.12-1.93-3,0q.64,10.66,1.26,21.33,1.44,24.93,2.74,49.87c1,19.07,1.92,38.15,2.67,57.23.57,14.42,1.18,28.87,1,43.31-.06,5.68,0,11.82-2.57,17-2.1,4.32-5.88,6.49-10.56,7a45.26,45.26,0,0,1-6.79.12c-2.25-.08-4.72,0-6.9-.63-8.05-2.49-10.25-13.89-11-21.1-.25-2.44-.21-4.88-.27-7.33l-.77-31-1.28-51.52L822,552.67l-.71-28.94,0-1.41c0-1.93-3-1.94-3,0Z"/>
    <path d="M800.93,540.65q.52,25.08,1,50.16c.53,27.8,1.05,55.6,1.36,83.4.09,7.88.5,15.88,0,23.76-.11,1.93,2.89,1.92,3,0,.39-6.52.08-13.13,0-19.65-.12-12.71-.32-25.41-.52-38.11q-.66-40.65-1.49-81.28-.18-9.13-.37-18.28c0-1.93-3-1.93-3,0Z"/>
    <path d="M781.76,622.42v60.49c0,5.81-.43,11.79,0,17.59a21.72,21.72,0,0,0,4.59,11.8c4.85,6,12.79,7.64,20.17,7,7.16-.59,14.19-3.59,17.63-10.22a19.5,19.5,0,0,0,2.29-10c-.13-1.92-3.13-1.93-3,0,.62,9.2-6.66,15.81-15.31,17-7.13,1-15.39-.16-19.92-6.33a18.65,18.65,0,0,1-3.49-9.93c-.27-5.64,0-11.35,0-17V622.42a1.5,1.5,0,0,0-3,0Z"/>
    <path d="M763.33,622.55v77a1.5,1.5,0,0,0,3,0v-77a1.5,1.5,0,0,0-3,0Z"/>
    <path d="M744.49,622.42l-.68,56c-.08,6.49-.35,13-.24,19.51.17,9.54,6,18.27,16,19.18,7.18.65,16.42-.79,21.61-6.31a12.49,12.49,0,0,0,3.6-8,1.5,1.5,0,0,0-3,0,4.67,4.67,0,0,1-.29,1.6,10.38,10.38,0,0,1-2.2,4c-4.38,5-12.23,5.95-18.44,5.76-9-.28-14.15-7.9-14.26-16.37-.21-18,.44-36,.66-53.9l.26-21.54c0-1.93-3-1.93-3,0Z"/>
    <path d="M719.63,624.77l69.89-1.12,10-.15a1.52,1.52,0,0,0,1.44-1.9,284.17,284.17,0,0,1-11.19-53.5,219.54,219.54,0,0,1-1-40.85,34,34,0,0,0-3-17.23c-4.51-9.13-14-11.12-23.43-10.41-8.66.65-15.39,4.78-19.41,12.54-4.66,9-6.52,19.46-8.67,29.28-2.24,10.25-4.3,20.54-6.34,30.84-3.27,16.55-6.54,33.11-9.53,49.72-.06.29-.11.59-.17.89-.35,1.88,2.54,2.69,2.9.79q3.7-20,7.6-39.94c2-10.47,4.11-20.94,6.28-31.38,2-9.62,3.93-19.33,6.73-28.75,2.34-7.86,5.72-16.74,14.14-19.7,4.5-1.58,9.51-1.64,14.22-1.21a15.49,15.49,0,0,1,11.42,6c3.67,5,4.61,11.84,4.29,17.89a242.82,242.82,0,0,0,.37,35.78,298.27,298.27,0,0,0,11.61,59l.3,1,1.45-1.89-69.9,1.12-10,.15C717.7,621.81,717.69,624.81,719.63,624.77Z"/>
    <path d="M767.27,534.64c.17,24.25.43,48.61,2.18,72.8.36,5,.45,10.53,2,15.38.58,1.84,3.48,1,2.9-.8-1.29-4.09-1.41-8.67-1.75-12.9-.56-7.21-.88-14.43-1.16-21.65-.55-14.38-.85-28.76-1-43.15,0-3.23-.08-6.46-.1-9.68a1.5,1.5,0,0,0-3,0Z"/>
    <path d="M751.61,534.64l-2.41,29.71-3.82,47.13-.89,10.94c-.15,1.93,2.85,1.92,3,0l2.41-29.71,3.82-47.13.89-10.94c.15-1.93-2.85-1.92-3,0Z"/>
    <path d="M726.77,588.32,697.92,572c-1-.57-2.68-1.88-3.81-1.79a5.84,5.84,0,0,0-1.65.71l-8.71,4.23L610.6,610.66,589,621.13a1.5,1.5,0,0,0-.54,2c6.67,8.73,15.15,16.33,23.59,23.27a234.76,234.76,0,0,0,71.2,39.75,259.16,259.16,0,0,0,61.79,13.27c1.93.18,1.91-2.82,0-3-34.16-3.19-67.66-12.94-97.69-29.65a211,211,0,0,1-49.2-37.2c-1.86-1.93-3.68-3.89-5.42-5.93-.47-.56-.94-1.12-1.41-1.7-.15-.18-.72-.92-.27-.33l-.54,2.06,35.25-17.11,56.26-27.31,13-6.32h-1.52l31.71,17.93a1.5,1.5,0,0,0,1.51-2.59Z"/>
    <circle class="cls-10" cx="573.82" cy="643.13" r="25.86"/>
    <circle class="cls-10" cx="651.24" cy="700.27" r="25.86"/>
    <circle class="cls-10" cx="745.25" cy="726.08" r="25.86"/>
    <path d="M667.34,681.9l18,29.87,33.06,55,12.39,20.61,3.46,5.77c.63,1,1.08,2.28,2.37,2.53a19.93,19.93,0,0,0,3.54,0h39.26c16.77,0,33.56.26,50.33,0h.93a1.51,1.51,0,0,0,1.29-2.26c-5.31-9-10.47-18.15-15.62-27.28l-26.66-47.18L782.92,707a1.5,1.5,0,0,0-2.59,1.52L798.11,740,822,782.24c2.4,4.25,4.9,8.46,7.37,12.68l1.3-2.26H736.58l1.3.74L714.8,755l-36.47-60.65-8.4-14a1.5,1.5,0,0,0-2.59,1.51Z"/>
    <path d="M623.69,653.27l-34,20.64-54.19,32.93-12.5,7.6c-1.65,1-.14,3.6,1.51,2.59l34-20.64,54.19-32.93,12.5-7.6c1.65-1,.15-3.6-1.51-2.59Z"/>
    <path d="M549.05,651.43l-53.39,34.5-7.57,4.89,2.05.54c-8.7-15.16-31-10.88-38.36,3.27a24.2,24.2,0,0,0,2.75,26.4,24.64,24.64,0,0,0,19.64,8.73c9.74-.15,19.2-5.28,26.76-11,1.52-1.15,0-3.75-1.51-2.59-10.32,7.78-25.74,15.18-38,7a21,21,0,0,1,10.21-38.39c6.65-.43,12.5,2,15.94,8a1.51,1.51,0,0,0,2.05.54l53.4-34.5,7.57-4.89c1.61-1,.11-3.64-1.52-2.59Z"/>
    <path d="M515.53,734.9c-7.6,5.33-13.09,13.11-14.53,22.38-1,6.32-.12,13,3.38,18.47a24,24,0,0,0,44-9.67c.91-6.89-.67-15.46-8.6-17.14l.36,2.74,29.2-18.21,46.35-28.9,10.74-6.7c1.64-1,.13-3.62-1.51-2.59l-29.2,18.21-46.35,28.9-10.74,6.7a1.52,1.52,0,0,0,.36,2.74c5.61,1.19,6.82,6.81,6.6,11.78A21,21,0,0,1,507,774.24a23.48,23.48,0,0,1-3.2-15.28c1-8.81,6.09-16.42,13.27-21.47,1.57-1.1.08-3.7-1.51-2.59Z"/>
    <path d="M473.45,727.51c-4.86,7.48-4.41,17.8-.66,25.57,4.28,8.85,13.34,11.14,22.44,9.67a34.06,34.06,0,0,0,7.41-2c1.76-.72,1-3.62-.8-2.9-6.27,2.55-14.77,3.79-20.85.21-9.11-5.36-10.39-20.68-4.95-29.07,1.06-1.62-1.54-3.13-2.59-1.51Z"/>
    <path d="M500.45,760.53a29.46,29.46,0,0,1-56.82,7.33c-.69-1.78-3.59-1-2.89.8a32.45,32.45,0,0,0,62.71-8.13c.22-1.91-2.78-1.9-3,0Z"/>
    <path d="M459.36,745.75a13.77,13.77,0,0,1-16.45,20.59c-1.83-.65-2.61,2.25-.8,2.89a16.76,16.76,0,0,0,19.84-25c-1-1.62-3.64-.11-2.59,1.52Z"/>
    <path d="M439.76,732.94c6.77,10.7,20.21,14.69,32,11.21a1.5,1.5,0,0,0-.8-2.89c-10.5,3.09-22.58-.26-28.64-9.83-1-1.63-3.63-.13-2.59,1.51Z"/>
    <path d="M348.29,675.71,372.59,694l38.52,28.92,8.92,6.69c1.54,1.16,3-1.45,1.51-2.59l-24.3-18.24-38.52-28.92-8.92-6.69c-1.54-1.16-3,1.45-1.51,2.59Z"/>
    <path d="M427.64,747.94c7.09,4.57,13.17,11.54,13.12,20.37,0,.23,0,.46-.05.7,0-.79,0,1.24-.07,1.53a18.83,18.83,0,0,1-2.44,8,19,19,0,0,1-33.46-18.08c.78-1.52,2.77-3.58,1.67-5.49a5.57,5.57,0,0,0-1.48-1.29l-60-47.27-21.58-17a1.54,1.54,0,0,0-2.36.31,17.32,17.32,0,0,1-18.87,7.42,17.89,17.89,0,0,1-3.36-33.52A23.41,23.41,0,0,1,311,661.8c7.87.56,14.58,5,19.38,11.05,1.19,1.51,3.3-.62,2.12-2.12-5.05-6.42-12.09-10.88-20.28-11.82-5-.57-10.7,0-15.19,2.28a20.9,20.9,0,0,0,3.09,38.5,20.45,20.45,0,0,0,23.55-8.44l-2.36.3,57.29,45.16,16,12.6c2.91,2.29,5.74,5,8.85,7,.07.05.55.53.63.5l.05,0c-2.24-1.56.37-.9-.43-.41.26-.17-.91,1.49-.68,1.19a13.5,13.5,0,0,0-1.47,2.82,22,22,0,0,0,39,20.23c2.32-3.79,3.07-7.91,3.29-12.26.51-9.82-6.88-18.07-14.59-23-1.63-1.05-3.14,1.55-1.52,2.59Z"/>
    <path d="M451.29,704.48l-31.21-21.06L370.57,650l-11.43-7.7v2.59c12.81-9.7,6.76-30.63-8.25-34-16.61-3.78-29.56,14.67-21.88,29.37a58.38,58.38,0,0,0,13,16.15c1.43,1.28,3.56-.83,2.12-2.13-7.83-7-17.51-17.72-13.59-29.18A17.32,17.32,0,0,1,345,613.41a16.91,16.91,0,0,1,16,8.45c3.66,6.43,2.74,15.83-3.37,20.46a1.53,1.53,0,0,0,0,2.59L388.84,666l49.51,33.4,11.43,7.71c1.6,1.08,3.11-1.52,1.51-2.59Z"/>
    <path d="M306.91,658.87a15.28,15.28,0,0,1,20.44-21c1.72.86,3.24-1.72,1.51-2.59a18.28,18.28,0,0,0-24.54,25.16c.91,1.7,3.51.19,2.59-1.52Z"/>
    <path d="M194.4,498.11c1.82-5.94,1.13-12.31-4.61-15.7a14.46,14.46,0,0,0-7.12-2.09,16.89,16.89,0,0,0-12.27,5.32c-5,5.61-5.73,14.64-2.66,21.35,2,4.3,5.45,7.36,9.4,9.79a29,29,0,0,0,27,1.62c15.72-7.13,21.6-27.42,12.1-41.85a29,29,0,0,0-23-13c-4.94-.19-9.9,0-14.84,0a1.5,1.5,0,0,0,0,3c9.86,0,20.3-1.26,28.8,4.82,12.84,9.19,14.23,28.35,3,39.35-9.77,9.54-26.23,9.68-36.07.07-8.44-8.24-6.31-25,6.39-27.23A9.21,9.21,0,0,1,186,484c6.12,2.08,7.26,7.58,5.5,13.34-.57,1.85,2.32,2.64,2.89.8Z"/>
    <path d="M205.84,405.05c.49,5.36-1,10.46-6.65,11.93a16.16,16.16,0,0,1-4,.4,5.34,5.34,0,0,1-.69-.05c.88.1-.2-.05-.41-.11-3.85-1.08-7.33-3.2-9.28-6.81-3.19-5.91-1.63-14.23,2.74-19.14,8.56-9.63,25.34-9,34.77-1,12.43,10.58,12.22,30.47-.66,40.62a26.82,26.82,0,0,1-22.05,5l-13-2.52c-1.89-.36-2.7,2.53-.8,2.89,4.46.86,8.92,1.73,13.39,2.58a29.81,29.81,0,0,0,22.73-4.38c14.71-10.1,17-31.61,4.51-44.45-10.11-10.43-28.88-12.24-39.82-2a21.29,21.29,0,0,0-5.75,20.41,16.6,16.6,0,0,0,10.83,11.23,14,14,0,0,0,8.06.34c7.13-1.66,9.79-8.07,9.17-14.9-.17-1.91-3.17-1.92-3,0Z"/>
    <path d="M196.61,466.89A60.22,60.22,0,0,1,224.53,475c6.74,4,12.24,10,14.73,17.54,1.79,5.42,1.72,11,1.85,16.66l.36,16c.06,3.08.48,6.38.19,9.47l2.26-1.3h0l.74,1.3v-.13c-.06-1.93-3.06-1.94-3,0a1.72,1.72,0,0,0,.75,1.42c1,.75,2.16-.29,2.25-1.29a67.7,67.7,0,0,0-.16-7.8q-.17-7.59-.34-15.2c-.13-6,.11-12.07-1.41-17.9-4.11-15.83-18.92-24.58-33.92-28.1a63.83,63.83,0,0,0-12.22-1.82c-1.93-.07-1.93,2.93,0,3Z"/>
    <path d="M204.28,439c-.77-.1.58.09.84.13,1.07.17,2.15.36,3.21.57,3.55.68,7.08,1.53,10.56,2.52,10.26,2.9,20.33,7,29.15,13.06,9.92,6.8,17.86,16.4,20.31,28.39,1.67,8.14.81,17,.81,25.28v29a1.5,1.5,0,0,0,3,0v-42a73,73,0,0,0-.41-10c-3.35-24.67-26.64-38.62-48.41-45.47A110.48,110.48,0,0,0,204.28,436c-1.91-.25-1.89,2.75,0,3Z"/>
    <path d="M181.71,406.23c-11.93-5-25-7.31-37.82-8.58a121.44,121.44,0,0,0-27.55.05C94.83,400.5,74.63,410.19,58.05,424a83.21,83.21,0,0,0-9.78,9.27,1.49,1.49,0,0,0-.38,1.46c4.31,10.43,12,19.94,20.07,27.67,15.6,15,36.47,25.14,58.06,27.3,15.12,1.51,30.87,1.74,45.74-1.68,1.88-.44,1.09-3.33-.79-2.9-13.42,3.09-27.54,3-41.2,1.91a95.09,95.09,0,0,1-27.85-6.39A97.21,97.21,0,0,1,56.38,443.9,81.13,81.13,0,0,1,52,436.54c-.35-.68-.7-1.38-1-2.08-.12-.23-.51-1.16-.24-.51l-.39,1.46c7.76-9,18.07-16.27,28.35-22a108,108,0,0,1,33-12,110,110,0,0,1,28.54-1.11c13.77,1.09,27.86,3.4,40.64,8.79,1.78.75,2.56-2.15.8-2.89Z"/>
    <path d="M105.6,402.33a25.84,25.84,0,0,1,5,4.89,43.73,43.73,0,0,1,8,17.27,68,68,0,0,1-.32,31.46c-1.85,7.32-5.43,14.33-11.39,19.13a21,21,0,0,1-8.52,4.44c-1.89.39-1.09,3.28.79,2.89,10.27-2.1,17.66-12.5,20.84-21.72,3.55-10.27,4-22.07,2.32-32.75A49,49,0,0,0,114.13,407a27.9,27.9,0,0,0-7-7.28c-1.62-1.06-3.13,1.53-1.52,2.59Z"/>
    <path d="M73.63,370.33c-1.07,4.54.72,9.53,5,11.7,5.23,2.67,11.81.7,15.63-3.48C99,373.33,98.9,365.91,95.49,360a21.71,21.71,0,0,0-13.15-10A26.83,26.83,0,1,0,67.52,401.6c5.2,1.42,10.53.79,15.84.67,8.67-.21,17.38-.3,26.05.26,1.92.13,1.92-2.87,0-3a324.15,324.15,0,0,0-33.43,0,23.81,23.81,0,0,1-8.61-46.45c10.79-3.44,25.51,1.41,27.5,13.82,1,6.54-3.8,13.05-10.56,13.37a7.34,7.34,0,0,1-7.79-9.12c.45-1.87-2.44-2.67-2.89-.79Z"/>
    <path d="M92.73,378.75a5.31,5.31,0,0,0,2.85,1.11,50.34,50.34,0,0,0,12,.32c16.57-.89,32.78-3.9,49.39-1.39a81,81,0,0,1,29,10.27,1.5,1.5,0,0,0,1.51-2.59c-14.75-8.65-31.31-12-48.3-11.75-8.3.14-16.5,1.17-24.75,1.95a92.37,92.37,0,0,1-16.29.52,17.54,17.54,0,0,1-3.05-.53c-.25-.07-.45-.28-.22,0-1.33-1.4-3.45.72-2.12,2.12Z"/>
    <path d="M91.08,354.54a27.49,27.49,0,0,0-16.43-5.63c-1.93,0-1.93,3,0,3a24.8,24.8,0,0,1,14.91,5.22c1.54,1.17,3-1.43,1.52-2.59Z"/>
    <path d="M92.73,378.75a5.31,5.31,0,0,0,2.85,1.11,50.34,50.34,0,0,0,12,.32c16.57-.89,32.78-3.9,49.39-1.39a81,81,0,0,1,29,10.27,1.5,1.5,0,0,0,1.51-2.59c-14.75-8.65-31.31-12-48.3-11.75-8.3.14-16.5,1.17-24.75,1.95a92.37,92.37,0,0,1-16.29.52,17.54,17.54,0,0,1-3.05-.53c-.25-.07-.45-.28-.22,0-1.33-1.4-3.45.72-2.12,2.12Z"/>
    <path d="M59.93,502a7.22,7.22,0,0,1,4.74-8.76c4.63-1.43,9.81,1.26,12.2,5.26,2.95,4.94,1.32,10.88-2,15.23-2.93,3.89-7.59,6.13-12.32,7.06a23.83,23.83,0,0,1-15.42-44.6c4.32-2.24,8.86-2.68,13.61-2.51,7.37.26,14.74.38,22.11.28a1.5,1.5,0,0,0,0-3c-7.72.11-15.45,0-23.16-.32a27.59,27.59,0,0,0-15.21,3.59A26.83,26.83,0,0,0,66.9,522.72a21.49,21.49,0,0,0,11.85-9.33c3.24-5.45,3.8-12.36-.12-17.62-3.54-4.77-10.28-7.42-15.94-5a10.27,10.27,0,0,0-5.65,12c.45,1.88,3.34,1.08,2.89-.8Z"/>
    <path d="M79.37,501.55a76.36,76.36,0,0,1,14.24,2.25,86.9,86.9,0,0,1,14,4.61,76.45,76.45,0,0,0,11.74,4.32c16.67,4.19,34.39,1.7,50.91-2,1.88-.43,1.08-3.32-.8-2.9-16.72,3.79-34.92,6.37-51.68,1.4-4.34-1.29-8.34-3.36-12.56-5a91.09,91.09,0,0,0-12.73-3.76,78.83,78.83,0,0,0-13.15-1.92c-1.93-.09-1.93,2.91,0,3Z"/>
    <path d="M287.88,482.08a11.76,11.76,0,0,0-5.3,4.12c-3,4.2-2.15,9.29-.43,13.82a89.08,89.08,0,0,0,8.53,16.34c1.27,2,2.34,4.08,4.39,5.3,5.55,3.32,17.77,1.75,16.46-6.68-1.08-6.91-6.5-13.45-10.63-18.81-3.64-4.74-7.48-9.34-11.56-13.71-1.32-1.41-3.44.71-2.12,2.12,7.08,7.59,14.23,15.87,19.12,25.06,1.06,2,2.48,4.59,2.32,7-.23,3.35-6,4.14-8.55,3.76a9.55,9.55,0,0,1-4.25-1.75c-.42-.31.16.25,0,.08a7.48,7.48,0,0,1-.73-1,110.54,110.54,0,0,1-6.55-10.78c-2.49-4.69-6.52-11.44-4.61-16.93a8.43,8.43,0,0,1,3-4,10.62,10.62,0,0,1,1.32-.81c.26-.15.64-.29.38-.19C290.47,484.3,289.69,481.39,287.88,482.08Z"/>
    <path d="M333.5,617.65a49.27,49.27,0,0,1-12.72-15.55c-5.25-10.09-4.12-22-2.75-32.89.72-5.77,2.27-11.44,2.93-17.2a51.6,51.6,0,0,0-4.62-28.64,58.64,58.64,0,0,0-3.69-6.74c-.48-.71-1.06-1.66-1.95-1.87-1.71-.4-2.25,1.29-2,2.6.34,1.9,3.23,1.09,2.89-.8,0-.18.18.27,0,.16s.32-.05-.16.32c0,0-2,.66-1.93.41,0,0,.22.21.23.25,0,.44.88,1.35,1.11,1.74a51.6,51.6,0,0,1,6.29,15.13,54.68,54.68,0,0,1,1.07,14c-.05,1.18-.11,2.38-.27,3.55-.07.53.05-.17-.14.7a179.87,179.87,0,0,0-3.39,22.14c-.89,10.11-.85,20.13,4.08,29.27a51.81,51.81,0,0,0,12.88,15.56c1.5,1.19,3.63-.92,2.12-2.12Z"/>
    <path d="M281.62,493.6c-4.67,1.36-8.24,5.77-9.93,10.12-2.09,5.38-1.86,11.38-.85,17,.79,4.39,2.29,7.57,4.25,11.47l5.63,11.16c.87,1.73,3.46.21,2.59-1.51l-4.1-8.13a89.73,89.73,0,0,1-4.3-8.54,32.81,32.81,0,0,1-1.19-17.86,16,16,0,0,1,5-8.59,11.53,11.53,0,0,1,3.69-2.19c1.85-.54,1.06-3.44-.79-2.89Z"/>
    <path d="M279,564.6c6.12-1.89,8.54-7.74,7.8-13.64a13.81,13.81,0,0,0-5.54-9.62c-4.18-3-9.88-3.8-14.83-4.75-10.2-2-20.53-3.3-30.85-4.44-7.53-.83-16.22-1.55-23,2.52a14.65,14.65,0,0,0-6.41,8.64c-1.28,4.23-1.77,10,.77,13.89l1.29-2.26c-6.79.07-11.4,6.67-12.94,12.58-1.31,5-1.84,14.81,5.19,16.11l-.36-2.74c-5.08,3.56-8.37,9.86-7.24,16.08,1,5.31,5.1,12.57,11.33,12.66l-1.3-2.25c-2.51,5.49-3.64,13.71,2.17,17.55,2.37,1.56,5.26,1.93,8,2.2a26.12,26.12,0,0,0,9-.49c2-.52,4.5-1.54,5.57-3.45l-1.69.69c4,1,8.14,1.84,12.24,2.6,3.25.6,6.51,1.14,9.78,1.53,1.32.16,2.65.29,4,.36.13,0,2.08.1,1.26-.13a3.44,3.44,0,0,1,.65.42c4.73,2.83,10.33,5.93,16,5.45,6.34-.54,10.64-3.81,12.11-10.12.76-3.3,1.19-7.18-.33-10.34-1.38-2.87-4.12-4.36-7.1-5.12l-.4,2.94c10.31.34,13.44-15.86,8.44-22.62-2.74-3.71-7.59-5-11.89-6-5.66-1.23-11.36-2.24-17.09-3.08a174.75,174.75,0,0,0-29.52-2.18c-1.93,0-1.94,3,0,3,14-.35,28.06,1.62,41.76,4.32a55.58,55.58,0,0,1,9.47,2.36c2.34.91,4.57,2.29,5.64,4.65,1.25,2.77,1,6.34.37,9.23-.76,3.46-3.29,7.42-7.18,7.29a1.51,1.51,0,0,0-.4,2.95c2.59.66,4.82,1.86,5.58,4.58.81,2.88.18,6.45-.82,9.2-2,5.58-8.3,6.86-13.54,5.38a35.4,35.4,0,0,1-7.39-3.21,16.06,16.06,0,0,0-3.46-1.91,20.83,20.83,0,0,0-3.27-.16c-1.44-.11-2.88-.28-4.32-.47-2.84-.39-5.66-.88-8.47-1.42-3.79-.72-7.57-1.51-11.32-2.42a1.55,1.55,0,0,0-1.7.69,1.8,1.8,0,0,1-.64.65,9.21,9.21,0,0,1-3.14,1.42,22.18,22.18,0,0,1-7,.47c-2.55-.16-5.54-.35-7.71-1.88-4.25-3-2.7-9.92-1.09-13.45a1.52,1.52,0,0,0-1.29-2.26c-4.56-.06-7.84-6.55-8.46-10.59-.72-4.81,2-9.87,5.88-12.56,1-.67,1-2.49-.36-2.74-5.3-1-3.93-9.64-2.88-13.17,1.3-4.39,4.91-9.58,9.84-9.63a1.52,1.52,0,0,0,1.3-2.26c-3.32-5.12-1.09-14.47,3.85-18,5.6-4,13.68-3.47,20.19-2.78,8.34.89,16.68,1.94,25,3.29,4.71.77,9.42,1.62,14.06,2.77,4.12,1,8.19,2.58,10.17,6.64,2.44,5,1.36,12.23-4.59,14.07-1.83.56-1.05,3.46.8,2.89Z"/>
    <path d="M224.85,557.94a211,211,0,0,1,28.88,1.34c6.83.79,13.8,1.9,20.25,4.35,5.25,2,10.7,5.65,10.14,12.1-.43,5-6.08,7.43-10.42,8.07-1.9.29-1.09,3.18.8,2.9,4.27-.64,9.11-2.85,11.35-6.69,3.32-5.71,0-13-5.07-16.33-5.78-3.87-13.23-5.32-20-6.42a185.48,185.48,0,0,0-22.69-2.14c-4.42-.18-8.85-.28-13.27-.18-1.93,0-1.93,3,0,3Z"/>
    <path d="M222,603.3c17.13-1.09,35.74,1.24,51.55,8,1.76.75,3.29-1.84,1.52-2.59-16.31-6.94-35.38-9.5-53.07-8.38-1.92.12-1.93,3.12,0,3Z"/>
    <path d="M250.66,535.33a13.13,13.13,0,0,0,.44,7.35c1.72,4.45,5.74,5.16,10,5.86,8,1.35,16,3,24,4.66,1.89.4,2.69-2.49.8-2.89-6.81-1.44-13.64-2.81-20.5-4-3.43-.62-9-.41-11-3.78a9.28,9.28,0,0,1-.75-6.35c.41-1.88-2.48-2.69-2.89-.8Z"/>
    <path class="cls-10" d="M252.4,557.64s-4.25,11.36,6.78,13.19c0,0,20.15,4.43,26.46,6.73"/>
    <path class="cls-10" d="M248.15,581.2s-3.94,9.08,5.49,11.45c0,0,20.43,3.46,29.65,6.7"/>
    <path class="cls-10" d="M247.33,602.94s-1.86,11,7.07,12.6c0,0,17.29,2.79,26.44,7.31"/>
    <path class="cls-10" d="M273.48,632.67s1.28,6.6,22.61,30.78"/>
    <path d="M268.31,735.49c-1.47,3.09-7.05,2.36-8.73-.27-1.16-1.81-1.24-4.22-1.19-6.3a9.63,9.63,0,0,1,1.2-4.24c2.1-4,6.27-5.49,10.58-5.46,5.6,0,11.58,1.81,14.52,6.92,3.28,5.7,2.94,14,1,20.14-1.85,5.86-7,10.79-12.59,13.16a24.74,24.74,0,0,1-21.16-1.2c-7.93-4.18-14.16-12.54-13.14-21.8l1.72-15.64,6.1-55.29,2.76-25.1c.48-4.35,1.17-8.74,1.45-13.12,0-.21,0-.43.07-.64.21-1.92-2.79-1.9-3,0l-4.2,38.14L237.06,725c-.48,4.3-1.2,8.66-1.44,13-.74,13.75,13,24.77,25.57,26.12,11.81,1.26,25-6.37,27.74-18.42,1.84-8.09,2.09-18.67-4.55-24.73-7.18-6.56-22.62-7.29-27.51,2.44a13.46,13.46,0,0,0-1.48,5.62,15,15,0,0,0,1.16,6.83c1.34,2.87,3.92,4,6.95,4.45s6-.4,7.4-3.32c.82-1.74-1.77-3.26-2.59-1.52Z"/>
    <path d="M241.58,684c-.2,4.6-2.25,10.12-4.76,14.38-6.44,10.91-18.08,16.68-30.28,18.59-9.14,1.44-18.75.88-28,.76a27.1,27.1,0,0,0-10.81,1.76c-6,2.48-8.91,7.71-8.77,14.1.18,8,4.76,15.45,13.36,15.51,9.86.07,19.72,0,29.58,0,6.27,0,12.66-.34,18.93.12a70.11,70.11,0,0,1,21,5.07c7.1,2.87,14.83,6.5,19.46,12.45a67.34,67.34,0,0,1,11,22.29c1.18,4,4.32,14-1,16.83a3.44,3.44,0,0,1-1.86.46,8.58,8.58,0,0,1-4.78-1c-1.79-1.17-2.26-3-2.77-5a35.37,35.37,0,0,0-2.56-6.66,41.79,41.79,0,0,0-4.27-6.65c-8.38-11-21.72-15.5-35-17.06a96.6,96.6,0,0,0-26.09.31,99.79,99.79,0,0,1-21.28,1.31c-6.36-.37-12.91-1.5-18.66-4.36-7-3.48-11.15-9.24-13.54-16.62-2.88-8.88-2.79-18.49-.84-27.56a98.61,98.61,0,0,1,3.85-12.25c4.06-11.46,17.94-13.65,28.61-14a93,93,0,0,1,12.82.42c.51,0,1,.1,1.53.17a2.73,2.73,0,0,0,.42.05,39.9,39.9,0,0,0,12.18-.92c9.22-2.16,17-8.72,19.72-17.92,1.52-5.16,1.89-10.83,2.75-16.12l5.36-33.07,1.07-6.6c.31-1.89-2.58-2.7-2.89-.8l-8.58,52.89a22.46,22.46,0,0,1-7.56,13.54c-5.64,4.83-13.09,6.12-20.3,6.08-2.74,0-5.51-.5-8.26-.65-10.63-.55-23.35-.09-32.39,6.24-4,2.79-5.95,6.3-7.64,10.69a73,73,0,0,0-4.5,16.76c-2.11,15.56,1.36,34.68,16.67,42.29,10.65,5.29,23.48,5.58,35.09,4.36,5.37-.56,9.43-1.42,14.73-1.7,12.54-.68,26.06.3,37.48,5.91a36.47,36.47,0,0,1,19.47,23.93,9,9,0,0,0,5.8,6.48,10.64,10.64,0,0,0,3.27.51c.32,0,2.38-.21,1.49-.1a8.21,8.21,0,0,0,2.54-.61c4.39-2,5-7.53,4.59-11.79-.88-9-4.66-18.22-9.27-26-3-5.12-6.24-9.06-11.22-12.3C245,751.11,231,746.07,217.18,746.1H176.35a53.65,53.65,0,0,1-5.41,0c-4.95-.63-7.93-4.8-8.69-9.48-.61-3.73-.48-8.05,2-11.09a13.09,13.09,0,0,1,6.84-4,30.2,30.2,0,0,1,8.26-.77c5.2,0,10.4,0,15.6,0,12.62,0,25.65-2.54,35.67-10.67a38.72,38.72,0,0,0,13.29-21.71,26.81,26.81,0,0,0,.64-4.36c.08-1.93-2.92-1.93-3,0Z"/>
    <path d="M661.11,762.71V773c0,2.91,1,7.72-1.89,9.54-2.64,1.67-6.32,1.75-9.34,1.81-3.89.08-8.26.16-12-.74-5.36-1.26-5.52-5.71-5.52-10.21V761.1a1.5,1.5,0,0,0-3,0v12.69c0,4.73.43,9.45,5.25,11.8,3.52,1.72,7.93,1.59,11.76,1.71s7.93.13,11.64-1c2.45-.75,4.91-2.18,5.78-4.74a14.29,14.29,0,0,0,.37-4.66V762.71a1.5,1.5,0,0,0-3,0Z"/>
    <path d="M609.46,705.37l-9.17,45.7c-2,10.13-7,26.66,5.54,32.06,3.63,1.57,8.71,1.75,12.68,1.6,5.63-.22,11.47-2,13.75-7.62.72-1.79-2.18-2.56-2.9-.79-1.91,4.7-7.91,5.47-12.35,5.43-3.29,0-7.17,0-10.27-1.48-6.37-3-6.82-11.47-5.74-17.54,2.32-12.92,5.17-25.76,7.75-38.63l3.6-17.93c.38-1.89-2.51-2.69-2.89-.8Z"/>
    <path d="M691.53,764.15v11.34a19.68,19.68,0,0,0,1,7.34c2.2,5.61,7.3,7,12.88,6.54a46.26,46.26,0,0,0,23.13-8.49c1.55-1.11.06-3.72-1.51-2.59a43.39,43.39,0,0,1-21.2,8c-2.93.27-6.27.5-8.6-1.65a9,9,0,0,1-2.46-4.82,27.42,27.42,0,0,1-.28-5.66V764.15a1.5,1.5,0,0,0-3,0Z"/>
    <path class="cls-10" d="M662.61,779.31s2.81,7.93,14.49,7.78c0,0,13.42.9,16.36-6.42"/>
    <line class="cls-10" x1="269.4" y1="632.65" x2="262.81" y2="719.33"/>
    <path d="M862.4,442.75c0-7-.24-13.95-.49-20.91-.74-20.57-2-41.13-3.49-61.67-1.1-14.89-2-29.86-3.75-44.69A100.67,100.67,0,0,0,847,286.56c-7-15.86-18.41-29.23-32.23-39.52a140.52,140.52,0,0,0-37.7-19.55,137.07,137.07,0,0,0-22.7-6c-4.77-.78-9.56-1.47-14.33-2.2L697.9,212.8,650,205.45,621.11,201l-1.4-.21a1.53,1.53,0,0,0-1.9,1.44l-2,30.67-3.27,48.89L611.74,293c-.13,1.93,2.87,1.92,3,0l2-30.66,3.27-48.89.75-11.23-1.9,1.45,65.18,10c22.83,3.51,45.67,7,68.5,10.53a142.08,142.08,0,0,1,49.63,18.11c14.17,8.36,26.79,19.52,35.65,33.47a91.49,91.49,0,0,1,11.22,25.9c3.32,12.74,3.75,26.11,4.82,39.18,2.75,33.45,5.24,67.09,5.48,100.68,0,.39,0,.79,0,1.19a1.5,1.5,0,0,0,3,0Z"/>
    <path d="M718.13,217.64l-8.65,65.24-1.23,9.34c-.26,1.9,2.75,1.88,3,0L719.89,227l1.24-9.34c.25-1.9-2.75-1.89-3,0Z"/>
    <path d="M751.66,222.39,741.3,287l-1.47,9.14c-.3,1.89,2.59,2.7,2.89.8l10.37-64.62,1.46-9.13c.31-1.89-2.58-2.71-2.89-.8Z"/>
    <path d="M793.64,236.33,771,297.66l-3.17,8.57c-.67,1.82,2.23,2.6,2.89.8l22.66-61.33,3.17-8.57c.67-1.82-2.23-2.6-2.9-.8Z"/>
    <path d="M514,180.7c-1.18,19.34-1.73,39-.19,58.3a81.67,81.67,0,0,0,2.69,17,1.52,1.52,0,0,0,1.45,1.1l37.85-3.32c15-1.31,29.91-2.56,44.85-3.93,3.9-.36,7.63-2.84,10.56-5.27a26.32,26.32,0,0,0,8-11.59c2-5.76,1.79-12.07,1.43-18.08-.26-4.2-.78-8.56-2.78-12.32a18,18,0,0,0-8.47-7.58c-5.21-2.46-11-3.61-16.62-4.63-5.23-.95-10.48-1.79-15.73-2.6-20.07-3.1-40.2-5.8-60.33-8.39l-1.22-.16c-1.91-.24-1.89,2.76,0,3q25,3.2,49.95,6.82c11,1.62,22.18,3,33,5.54,4.55,1.06,9.5,2.36,13.25,5.29a15.1,15.1,0,0,1,5.24,9.28,62.78,62.78,0,0,1,.81,15.49A24.56,24.56,0,0,1,611.64,240a25.24,25.24,0,0,1-8.5,6.09,16.93,16.93,0,0,1-1.84.69c.25-.08.37,0-.21,0-13.6,1.27-27.22,2.38-40.83,3.58l-26.35,2.31-9.65.85a41.9,41.9,0,0,0-5.59.49,6.15,6.15,0,0,1-.74.06l1.44,1.1c-3.21-10.65-3.16-22.51-3.33-33.54-.18-11.29.08-22.59.58-33.88.1-2.35.21-4.7.36-7.05C517.1,178.78,514.1,178.78,514,180.7Z"/>
    <path class="cls-10" d="M552.31,185.64s-3.78,55.58,0,66.92"/>
    <path class="cls-10" d="M570,188.19s-3.72,50.42,0,62.82"/>
    <path class="cls-10" d="M589.79,191.34s-2,45.26,0,57.93"/>
    <path d="M514.49,186.69c-17.84-1.8-35.65-3.81-53.46-5.91-31.93-3.76-63.88-7.73-95.57-13.19-12.11-2.09-24.62-4-36.27-8.08a1.54,1.54,0,0,0-1.7.68c-1.3,1.72-1.92,4.22-2.49,6.24-2.28,8.09-3,16.68-3.49,25-.5,8.88-.52,17.78-.31,26.67a1.53,1.53,0,0,0,1.5,1.5q28,.26,56,.55,49.51.5,99,1.08c12.27.15,24.53.28,36.8.53v-3l-19,2.14-45.93,5.16-55.34,6.21-48.05,5.39c-7.71.87-15.59,1.35-23.24,2.61l-.33,0a1.56,1.56,0,0,0-1.5,1.5,125,125,0,0,0-.57,19.54c.43,10.12,1.67,21.7,7.85,30.11a1.6,1.6,0,0,0,1.7.69q28.11-6,56.25-11.95c32.59-6.87,65.18-13.71,97.85-20.15,11.08-2.18,22.19-4.57,33.38-6.09,1.91-.26,1.1-3.15-.8-2.89-9.5,1.29-18.94,3.27-28.35,5.11-15.42,3-30.81,6.14-46.2,9.31q-46.4,9.54-92.72,19.45l-20.21,4.31,1.7.69c-6.11-8.29-7.16-19.77-7.49-29.73a124.21,124.21,0,0,1,.61-18.4l-1.5,1.5,19-2.14,45.93-5.15,55.34-6.21,48.05-5.4c7.71-.86,15.59-1.35,23.25-2.61l.33,0c1.87-.21,2-3,0-3-26.43-.53-52.86-.73-79.29-1q-46.24-.51-92.49-.95l-20-.19,1.5,1.5c-.31-13.2-.26-26.54,1.49-39.65.66-4.94,1.64-10.93,3.53-15.15a8.22,8.22,0,0,1,.87-1.63l-1.7.69c10.18,3.54,21,5.37,31.61,7.26,15.29,2.75,30.68,5,46.07,7.14,29.66,4.1,59.4,7.61,89.16,10.85q9.63,1,19.26,2c1.91.19,1.9-2.81,0-3Z"/>
    <path class="cls-10" d="M394.23,233.8s5.09,23.4,6.07,42"/>
    <path class="cls-10" d="M427.07,230.12a130.41,130.41,0,0,1,4.95,39"/>
    <path class="cls-10" d="M459.53,226.47s5.75,9.73,4.19,36.19"/>
    <path class="cls-10" d="M400.3,174.49s-.84,25.39-3,44.39"/>
    <line class="cls-10" x1="432.05" y1="178.74" x2="429.56" y2="218.14"/>
    <path class="cls-10" d="M464,182.63s2,20.1-2.23,36.47"/>
    <path class="cls-10" d="M604.51,737.65s77.33,6.84,101.39,5.48"/>
    <path class="cls-10" d="M754.05,503.28a16.18,16.18,0,0,1,1.23-27.58"/>
  </g>
</svg>
