<?xml version="1.0" encoding="utf-8"?>
<!-- Generator: Adobe Illustrator 22.1.0, SVG Export Plug-In . SVG Version: 6.00 Build 0)  -->
<svg version="1.1" xmlns="http://www.w3.org/2000/svg" xmlns:xlink="http://www.w3.org/1999/xlink" x="0px" y="0px"
	 viewBox="0 0 600 600" style="enable-background:new 0 0 600 600;" xml:space="preserve">
<style type="text/css">
	.st0{fill:#FFFFFF;stroke:#FBFFF2;stroke-miterlimit:10;}
	.st1{fill:#CE2828;}
	.st2{opacity:0.8;}
	.st3{fill:#CCCCCA;}
	.st4{opacity:0.8;fill:#FFF2D7;}
	.st5{fill:#FFFFFF;}
	.st6{opacity:0.68;fill:#366962;}
	.st7{fill:#FFF2D7;}
	.st8{fill:#FBFFF2;}
	.st9{fill:none;stroke:#000000;stroke-width:3;stroke-linecap:round;stroke-linejoin:round;stroke-miterlimit:10;}
</style>
<g id="Capa_4">
	<polygon class="st0" points="372.5,328.5 367,328.2 363.8,325.4 356.2,327.7 334.3,331.1 323.1,331.3 312.6,331.3 312.6,299.3 
		324.8,299 338.5,299.9 349.3,301.4 363.8,304.8 369.2,300.2 375.7,298.3 382.2,299.1 382.4,293.8 385,284.3 389.5,275.4 394,269.6 
		402,263 411.4,258.7 419.9,257 429.7,257.5 439.5,260.4 446.7,264.2 452.7,269.6 457.8,276 461.3,282.7 463.7,291.5 464.2,298.3 
		464,302.6 468.9,303.1 475,305.6 479.8,311.8 480.9,316.9 480.8,320.9 475.1,319.8 468.8,322.1 465.1,325.1 462.8,329.6 
		460.4,325.1 454.9,321.3 447.9,319.7 442.8,320.1 438.1,322.1 435,325.7 438.2,331.4 442.8,329.3 448.6,330.6 452.1,335.2 
		453,339.6 452.9,345.6 453.8,348.3 453.1,358.2 450.1,360.6 446.5,361 442.8,361 439.5,359.8 437.8,361 437,364.3 433.1,366.4 
		427.3,366.3 422.8,365.8 419.8,362.1 416.9,365.5 412.7,367.6 407.7,367.6 400.5,365 397,367.3 392.5,368.5 388.9,368.5 
		382.9,367.2 381,364 374.6,369.5 369.6,369.7 365.1,369 362.5,366.9 361.8,353.6 362.3,347.9 361.8,342.4 362.3,335.6 363,332.3 
		365.1,329.8 	"/>
	<polygon class="st0" points="477.6,346.2 482.3,345.5 486.9,344.6 481.4,365 	"/>
	<path class="st1" d="M404.6,200.5l3.9-60.7l64.6,9.9l-6.4,48.1C466.7,197.7,425.3,194.1,404.6,200.5z"/>
	<polygon class="st1" points="494.6,153 486.9,201.6 491.1,200.5 496.2,201.1 500.4,203.7 502.5,205.7 504.2,208.7 506.9,201.9 
		521.6,162 513.3,158.3 507.2,156.1 	"/>
	<polygon class="st1" points="389.5,132.8 389,148 389,157.7 389.9,170.1 379.5,171.2 376.8,171.2 375.8,163 375.7,150 376.8,130.7 
			"/>
	<polygon class="st1" points="341.7,125.9 365.4,129.1 364.8,139.8 364.3,158.6 365.4,172.2 357.5,172.9 344,174 342,167.7 
		341.1,141.8 	"/>
	<polygon class="st1" points="288,124.7 308.9,127.2 308.9,133.5 308.7,139.8 308.2,145.5 307.1,151.4 290.7,150.8 286.4,150.7 
		287,143.7 288,132.3 	"/>
	<polygon class="st1" points="221.6,113.2 244.8,118.4 267.6,121.9 267.6,129.1 266.8,137.3 265.6,150.6 234.4,149.7 217.7,150 
		217.6,140.1 218.4,125.9 	"/>
	<polygon class="st1" points="217.6,165.3 235.6,163.2 247.3,161.9 263.7,160.1 264.7,165.3 266.6,176.9 267.6,187.5 254.8,189.8 
		240.1,192.9 222.1,196.7 219.4,191.4 217.6,184.7 217.1,175.2 	"/>
	<polygon class="st1" points="284.4,157.8 305.7,155.4 307.1,160.1 308,164.4 308.5,169.4 308.5,173.6 308.4,178.7 287.5,182.9 
		287.7,174 287.2,167 	"/>
	<polygon class="st1" points="259.1,313.8 268.6,310 282.6,304.8 297.8,301.1 308.6,299.3 312.6,299.3 312.6,310 312.6,331.3 
		305.7,331 298.1,329.9 289.1,328.5 280,324.7 272,321.1 	"/>
	<polyline class="st1" points="362.3,339.6 380.2,339.6 380.2,339.6 438.4,338.8 438.2,331.4 435.7,326.9 431.6,325.2 428.8,325.1 
		424.1,325.7 420.8,328.5 419.7,332.2 419.8,334.7 417.9,330.1 414.3,326.9 410.7,326.4 405.7,326.6 403,327.8 400.4,331.3 
		398.7,330.2 396.9,328.5 392,327.3 388.4,327.3 384.2,328.6 382.4,331.1 381.3,334.4 379.5,332.3 376.1,329.1 372.5,328.5 
		369,328.5 365.1,329.8 363,332.3 362.3,335.6 362.3,339.6 	"/>
	<polyline class="st1" points="361.8,359 439.2,355 438.3,358.7 437,364.3 433.1,366.4 427.3,366.3 422.8,365.8 419.8,362.1 
		417.9,363.1 416.9,365.5 412.7,367.6 407.7,367.6 404,367.3 400.5,365 399,365.1 397,367.3 392.5,368.5 388.9,368.5 385.7,368.5 
		382.9,367.2 381,364 379.4,366.4 378.1,368.5 374.6,369.5 369.6,369.7 365.1,369 362.5,366.9 361.8,363.9 361.8,359 	"/>
	<polyline class="st1" points="439.2,333.1 440.7,329.6 445.8,329.3 448.6,330.6 452.1,335.2 453,339.6 453,344.2 452.9,345.6 
		453.8,348.3 454.2,354.1 453.1,358.2 450.1,360.6 446.5,361 442.8,361 439.5,359.8 438.7,355.9 439.2,347 439.2,333.1 	"/>
	<polyline class="st1" points="477.5,387.7 480,374.5 457.8,377.5 	"/>
	<g class="st2">
		<path class="st3" d="M564,341.9l-2.8,1.1l-10.7,0.7l-3.1-1.4l-2.8,2.8l-7.1,0.4l-5.3-0.4l-0.1,4.9l-1.6,4.3l-5.5,3.2l-5.5,0.7
			l-3.4-0.7l0.6,13.8l1.5,11.7l1.3,10.2l3.2,10.7l1,6.1h-29.6h-21.1l1.8-8.9l6-29.9l0.8-3.7l3.3-16.2l3.7-9l2-4.5l1.7-2.7l-1.7-6.7
			l-3.7-5l-6.1-2.2v-2.4l-1.5-7.3l-3.5-4.8c-2.7-5.1-12.1-4.1-12.1-4.1s0.3-7.7-0.7-13.4c-1-5.7-5.6-20.4-17.7-25.7
			c-12.1-5.3-16.3-8.1-30.4-5.8c-14.1,2.4-22.3,13.4-22.3,13.4l4.1-8.8l6-7.1l-6-11.7l-11.1-14.2l-12.7-8.1l-8.1-4.1l-10.9-2
			c0,0,40.9-21.9,103.8-18.2c3.1,0.2,6,0.4,8.9,0.8l6.4-48.1l21.5,3.3l-7.7,48.6c7.8,2.1,11.9,3.5,18.1,6.6l16.6-46.2l8.2,4.7
			l8.4,6.3l8,8.4l6.9,10l2.6,7.3l3.4,12.6l1.6,15.1l3.2,68.2V341.9z"/>
	</g>
	<polygon class="st4" points="435.5,324.6 439.2,321.6 442.8,320.1 448,319.7 454.9,320.6 459.1,323.8 462.2,328 462.8,332 
		463.7,327.3 466.3,324.1 470.5,321.3 473.1,320.5 477.6,319.7 483,321.3 488.2,325.1 490.6,328.4 491.6,332 490.6,337.9 
		488.7,342.4 484.3,345.7 480,345.9 477.8,346 480.9,364.4 481.7,369.7 480.9,371.4 479,374.2 474.5,375.3 379.3,387.7 372.5,387.7 
		368.4,386.3 364.7,383.6 363.8,379.4 363.8,367.9 367.6,369.7 371,369.7 375.8,369.2 379.4,366.4 380.2,362.3 382.9,367.2 
		385.7,368.5 392.5,368.5 397,367.3 399.6,363.8 402,366.4 406.6,367.6 410.8,367.6 414.6,367 417.9,364.3 418.8,361 420.3,363.9 
		422.8,365.8 427.3,366.3 431.6,366.3 437,364.3 438.3,358.7 441.2,360.5 446.5,361 450.1,360.6 453.1,358.2 454.2,354.1 
		453.8,348.3 453,344.2 452.7,338.3 451.2,333.1 447.5,329.3 444,329.3 440.7,329.6 438.2,331.4 437,328 	"/>
	<polygon class="st5" points="490.1,410.7 489.5,454 490.5,463.8 494.2,468.6 500,470.2 508.3,469.8 513,465.1 516.3,466.7 
		519.6,470.8 526.4,472.5 531.1,471.6 535.5,469.7 541.8,462.7 544.3,467.6 548.1,470.8 553.2,471.6 560.4,469.8 564.9,465.4 
		566.4,458.8 565.9,445.7 564,389.5 562,350.1 561.2,343.1 547.3,343.5 541.6,345.2 537.5,345.5 532.1,345.2 532.1,350.1 
		530.5,354.4 525.1,357.5 519.6,358.2 516.2,357.5 516.3,366.4 517.4,375.6 519.6,393.3 523.8,410.2 	"/>
	<polygon class="st3" points="389.5,132.8 396.7,134.2 400.5,135.4 405.7,138.9 408.2,145.4 408.5,153 407.2,160 403.6,165.9 
		397.1,169.4 389.9,170.1 389,162 389,144.4 	"/>
	<polygon class="st3" points="365.4,129.1 376.8,130.7 376.8,138 375.7,150 375.8,157.7 376.8,171.2 365.4,172.2 364.3,163.5 
		364.3,146.6 	"/>
	<path class="st3" d="M308.6,127.2l32.5,3.6v20.7c0,0-0.3,18.9,1.7,20.8c2,1.8-34.4,6.5-34.4,6.5s2.1-14.4-2.7-23.3l30.4-3.9
		l-28.9-0.8C307.1,150.6,310.2,143.3,308.6,127.2z"/>
	<polygon class="st3" points="267.6,121.9 288,124.7 286.4,150.7 265.6,150.5 	"/>
	<path class="st3" d="M263.7,160.1l21.1-2.4c0,0,4.6,13.6,3.2,25.1l-20.4,4.3C267.6,187.1,266.4,171.8,263.7,160.1z"/>
	<path class="st6" d="M389.5,410.2l68.3-32.6l19.7,10.1l-4.4,22.5l17,0.5l-0.5,47.2C489.6,457.9,430.6,456.6,389.5,410.2z"/>
	<circle class="st4" cx="379.3" cy="423.5" r="16.6"/>
	<circle class="st4" cx="429.1" cy="459.8" r="16.6"/>
	<path class="st4" d="M464.3,487.8c0,0-54.8-1.2-65.2-3.5l-2.3,12.4l-1.2,7.7l1.2,6.8l6.7,2.3l5.8,0.2l5.8-2.5l2.8,2.5l5.7,1.7h6.4
		l5.3-1.7l1.7-3.3l1.4,3.4l6.2,2.4l7.6-0.8l4-1.7v-2.5l2.7,3.9l6.7,1.1l7.7-1.9l4.2-3L464.3,487.8z"/>
	<polygon class="st0" points="403.1,463.8 399,484.3 433.3,486.9 464.3,487.8 445.7,457 445.7,463.8 444.4,467.7 441.9,470.8 
		437,474.9 429.1,476.4 425.1,476.4 421.3,475 415.9,471.6 414,466.8 412.4,459.8 412.6,457.4 	"/>
	<polygon class="st6" points="438.3,445.7 484,520.7 544.5,520.7 513,465.1 510.4,467.7 506.7,469.4 501.7,470.1 495.9,469.5 
		491.6,466 489.6,457.9 478.4,457.4 472.3,456.2 457,452.6 	"/>
	<polygon class="st5" points="477.6,214.3 479.6,208.2 483.8,203 488.1,200.9 494.2,200.5 499,202.7 502.5,205.7 504.5,209.5 
		505,213.7 504.2,218.2 502.1,222.7 500.4,224.9 499,226.3 494.6,222.9 489.6,219.8 484.5,217.2 	"/>
	<polygon class="st5" points="529.2,253.1 532.6,251.3 538.2,250 543.8,250.3 550.7,253.1 553.7,257 555.9,261.6 555.9,266.6 
		555.5,270.3 554,274.5 552.1,277.6 549.1,280.2 545.7,281.2 541.9,281.4 537.5,281.4 533.9,280.2 534.6,273.1 534.6,266.6 
		532.9,259.9 	"/>
	<polygon class="st5" points="403.6,219.5 401.3,215 400.1,209.5 401.8,201.9 406.8,196.7 413.7,195.3 420.4,196.7 424.6,200.5 
		427.7,206.8 428.5,214.3 419.9,214.3 411.4,216.2 	"/>
	<path class="st1" d="M404.1,220.3c0,0,4.3,5.4,7.3,7c3,1.7,11.7,4.3,11.7,4.3l2.8-5.7l1.5-6.5l0.9-5.7l-8.4,0.6l-9.5,2.6l-6.3,2.6
		V220.3z"/>
	<polygon class="st1" points="477.6,214.3 477.2,219.8 478.4,226.3 480.9,231.8 483.8,236 487.7,234 493.1,230.9 499,226.3 
		491.9,220.3 	"/>
	<polygon class="st1" points="529.2,253.1 526.3,255.2 521.6,259 519,263.3 515.1,270.4 521.6,274.5 527.8,277.5 533.9,280.2 
		534.6,273.1 533.8,263.6 531.9,257.4 	"/>
	<circle class="st4" cx="490.1" cy="476.9" r="16.6"/>
	<polygon class="st0" points="363.8,429.7 324.6,455 321.2,451.2 314.9,449.3 309.8,450.1 305.1,452.7 302.1,456.2 300.4,460.2 
		299.9,463.8 285.8,454 241,423.5 243.7,419.9 244.7,415.7 243.7,410.4 240.2,405.9 235.7,403.4 231.1,403.4 228.4,404.3 
		223.9,407.8 220.1,404 215.9,398.2 213.2,392 212.3,383.6 214,373.6 215.6,364.2 215.4,355.8 213.5,348.7 210.6,341.8 207.2,335.7 
		203.3,330.1 195.5,320.8 192.8,322.9 190.7,326.9 191.5,328.8 189.7,329.1 186.5,331.4 184.8,337.2 185.3,345 187,349.9 
		191.5,359.7 187,357.2 181.2,355.8 170.6,354.4 157.9,352.7 150.5,353.3 145.7,355.8 143.5,360.2 143.1,364.7 144,367.7 
		141.4,368.5 138.7,370.7 137.2,373.5 136.3,377 136.2,380 136.5,382.7 139.3,384.3 137.5,386 135.7,388.7 135,392.3 135.6,395.3 
		138.2,399.5 141.5,401 140.5,404 140.4,407.8 141.9,410.4 145.5,412 150.1,412.3 154.7,412 156.2,410.3 161.6,411.4 169.7,412.8 
		173.1,412.9 177.6,415.3 182.6,416.8 186,416.3 187.3,419.5 192.3,426 200.1,436 197.5,439.2 195.4,443.1 194.7,449 196.8,454 
		201,457.9 205.3,459.4 209.6,459.3 215.2,456.7 217.4,454 224.8,459.8 270.7,496 269.4,499 268.3,502.9 268.4,507.4 270.3,511.8 
		273.3,515 278.1,517.8 283.1,517.8 287.8,516.1 291,513.6 293.8,508.9 294.6,504.1 298.3,504.4 303.6,502.8 306.3,500.2 
		307.9,496.7 307.9,491.8 306.4,489 309.7,487.8 313.3,487.6 314.8,493.2 317,496.7 323.3,499.7 327.6,499.8 331.9,499.4 
		333.2,501.8 334.2,505.9 337,510.4 342.6,514.1 347.6,515 353.7,513.7 359,509.5 361.3,505.3 361.8,500.5 361.8,497.5 360.4,494.4 
		356.6,492.4 371,484.3 386.4,474.2 412.6,457.4 414.2,452.4 418.8,447.2 422.2,444.6 426.2,443.4 433.9,443.6 426.2,439.6 
		412.6,431.1 402.7,423.5 393.7,414.5 395.4,419.3 395.9,426 394.7,429.7 391.3,435 386.8,438.2 382.4,439.8 379.3,440.1 373,438.9 
		367.3,435 	"/>
	<polygon class="st4" points="294.6,504.1 299.2,511.1 304.8,515 313.2,516.9 318.7,516.2 325.4,512.8 330.2,507.4 333.2,501.8 
		331.9,499.4 327.6,499.8 323.3,499.7 317,496.7 313.9,490.6 313.3,487.6 306.4,489 307.9,491.8 307.9,496.7 306.3,500.2 
		303.6,502.8 298.3,504.4 	"/>
	<polygon class="st1" points="42.8,245.6 44.4,242.5 48,238.6 53.9,235.6 61.1,235.1 67.1,237.8 70.4,241.4 72,245.6 71.2,250.7 
		70.4,252.7 74.6,253.4 80.4,253.4 86.6,252.7 96.3,251.7 103,251.4 108.5,252.1 113.8,252.9 119.3,254.3 124.8,256.4 131,259.7 
		128.8,262.4 127.1,266.8 127.3,272.4 121.5,269.7 114.8,268.5 107.1,266.6 100.3,266.3 93.1,266 84.2,266.6 67.3,267.5 59.8,267.6 
		54.5,267.3 50.7,266 47.2,264.4 44.4,260.3 42.4,255.8 41.8,251.7 	"/>
	<polygon class="st1" points="41.8,289.1 46.4,284.6 53,279.4 59.2,275.4 68.1,271 74.7,268.7 78.5,267.7 82.9,272.4 86,278.4 
		88.3,288.5 88.2,295.2 87,303.5 84.2,309.1 80.9,314.7 76.7,317.9 73.5,319.1 68.1,316.5 59.8,311.2 51.8,303.9 44.4,294.4 	"/>
	<polygon class="st1" points="62,313.4 50.7,313.4 43.1,314 37.5,316.7 33,322 31.1,328.2 31.7,334 34.3,339.4 38.7,343.5 
		41.8,345.5 47.4,346 53.5,345.5 56.8,343 60.1,339.1 61.1,335.7 61.1,333.1 63.1,331.6 75.9,334.5 86.4,338.5 92.7,339.7 
		100.3,340 106,339.6 112.7,338.7 119.3,337.3 118.3,334.2 117.7,329.7 119.2,324.4 120.3,322.8 114,323.5 106.7,324.4 100.3,324.4 
		94.1,324 88.1,323.5 80.9,321.8 73.5,319.1 	"/>
	<polygon class="st4" points="86,278.4 88.3,288.5 88.2,295.2 87.6,299.3 84.2,309.1 80.9,314.7 73.5,319.1 103.2,324.4 114,323.5 
		122.8,320.9 119.2,324.4 118.1,332.3 119.3,337.3 125.3,341.8 130.2,343.6 135,343.9 140,342.8 145.2,339.6 148.5,335.7 
		150.5,331.1 151.1,324.4 149.6,319.1 145.8,313.8 137.8,309.4 147,311 154.7,314.3 160,318.4 164.2,324.4 165.7,329.3 166.3,337.1 
		166.3,347 165.8,353.7 174.3,354.4 184.2,356.5 184.2,329.7 183.5,320.1 181.8,315 179.7,311.2 176.5,307.2 171.1,302.5 
		165.9,299.2 161.7,297.1 155.3,294.5 148.9,292.7 145.1,291.5 150.1,289.6 154,287 157.1,283.5 159.1,279.1 160,276.8 160,272.8 
		159.2,268.5 157.1,263.9 152.2,258.9 147.6,256.7 143,255.4 137,255.8 133.4,258 127.9,263 126.7,267.7 127.3,272.4 125.3,271.3 
		120.3,269.7 114.8,268.5 108.3,266.9 101.3,266.4 94.7,266 89.3,266 84.2,266.6 78.5,267.7 82.9,272.4 	"/>
	<polygon class="st7" points="156.2,410.3 169.7,412.8 173.1,412.9 177.6,415.3 184.2,417.2 182.9,423.2 182,435 179.1,472.5 
		182.9,471.5 186.5,471.7 192.3,474.3 194.9,478.3 195.7,483.2 195,489 193.7,492.4 191.5,495.5 188.1,499 183.4,500.1 177.9,500.4 
		171.9,498.5 168,495.9 162.8,490.1 162.6,484.3 163.9,472.4 166.5,450.5 164.3,459.8 160,463.8 154.7,468 149.3,470.2 141.5,472.2 
		135,472.4 126.7,471.7 121,472.5 115.9,475 113.7,478.3 113.7,483.2 115.5,488.4 119.3,490.6 124.8,490.7 133.4,490.7 141.5,490.7 
		148.6,490.7 156.2,491.3 161.3,492.5 171.4,496.7 179.9,503.8 183.4,509.9 185.6,515.3 187.3,522.8 187.3,527.5 184.8,529.5 
		181.2,529.5 178.4,527.2 176.2,521.3 173.5,516.9 168,511.6 162.6,508.8 155.4,506.7 149.6,505.9 145.1,505.7 137.7,506 
		128.9,507.1 123.4,507.2 116.6,506.7 110,504.4 104.4,501.4 101.3,497.4 98.8,490.7 98,482.4 99.1,473.9 101.3,467.1 104.7,461 
		110.2,458.8 117.7,456.7 121.9,457.1 131.9,457 137.5,457 142.7,455.1 146.8,451.6 150,446.4 152,433.6 	"/>
</g>
<g id="Capa_5">
	<g>
		<circle class="st3" cx="419.8" cy="296.6" r="17.2"/>
		<g>
			<path d="M435.5,296.6c-0.1,6.6-4.2,12.6-10.4,14.8c-6.1,2.1-13,0.3-17.2-4.6c-4.3-5.1-4.9-12.5-1.5-18.2c3.4-5.6,10-8.5,16.4-7.3
				C430.2,282.7,435.4,289.2,435.5,296.6c0,1.9,3,1.9,3,0c-0.2-7.8-4.9-14.8-12.3-17.6c-7.3-2.7-15.9-0.3-20.8,5.8
				c-4.9,6-5.5,14.7-1.5,21.4c4,6.7,11.8,10.1,19.4,8.7c8.8-1.6,15-9.5,15.2-18.3C438.5,294.7,435.5,294.7,435.5,296.6z"/>
		</g>
	</g>
	<g>
		<circle cx="419.8" cy="296.6" r="6"/>
		<g>
			<path d="M424.3,296.6c-0.3,5.8-9,5.8-9,0C415.3,290.8,424,290.9,424.3,296.6c0.1,1.9,3.1,1.9,3,0c-0.2-4.1-3.3-7.5-7.5-7.5
				c-4.1,0-7.5,3.4-7.5,7.5c0,4,3.2,7.3,7.2,7.5c4.4,0.2,7.6-3.3,7.8-7.5C427.4,294.7,424.4,294.7,424.3,296.6z"/>
		</g>
	</g>
	<g>
		<circle class="st8" cx="419.8" cy="296.6" r="1.9"/>
		<g>
			<path d="M420.3,296.6c0,0.5-0.8,0.5-0.8,0C419.4,296.1,420.2,296.1,420.3,296.6c0.1,1.9,3.1,1.9,3,0c-0.1-1.9-1.5-3.4-3.4-3.4
				c-1.9,0-3.4,1.6-3.4,3.4c0,1.8,1.5,3.4,3.3,3.4c2,0.1,3.4-1.5,3.5-3.4C423.4,294.7,420.4,294.7,420.3,296.6z"/>
		</g>
	</g>
	<g>
		<g>
			<path d="M482.3,320.9c0.5-7-1.6-14.2-8.2-17.6c-3-1.5-6.7-2.4-10.1-2.1c0.5,0.5,1,1,1.5,1.5c2-19.6-9.7-38.2-28.3-44.8
				c-17.9-6.3-37.7,0.4-48.4,15.9c-3,4.3-5.2,9.1-6.6,14.1c-1.1,3.8-1.3,6.8-1.3,10.7c0,1.9,3,1.9,3,0c0-2.8,0-5.1,0.7-7.8
				c1-4.2,2.6-8.3,4.7-12c4.1-7.3,10.3-13.3,17.9-16.8c16.1-7.4,35.7-2.3,46.8,11.3c6.8,8.3,9.6,18.9,8.5,29.4
				c-0.1,0.8,0.8,1.6,1.5,1.5c2.7-0.2,5.5,0.4,7.9,1.4c6.2,2.7,7.8,9,7.4,15.3C479.2,322.8,482.2,322.8,482.3,320.9L482.3,320.9z"/>
		</g>
	</g>
	<g>
		<g>
			<path d="M393.2,272.7c3-11.1,13.1-20.2,23.1-24.9c22.4-10.5,49.3-4.3,67,12.3c8.1,7.6,14.9,17.6,16.4,28.9
				c0.3,1.9,3.2,1.1,2.9-0.8c-1.4-10.3-7.2-19.7-14.2-27.1c-8.3-8.8-19-15.5-30.6-18.9c-21.3-6.2-47-0.8-60.9,17.4
				c-2.8,3.7-5.4,8-6.7,12.4C389.8,273.7,392.7,274.5,393.2,272.7L393.2,272.7z"/>
		</g>
	</g>
	<g>
		<g>
			<path d="M376.7,318.5c0.3-4.2,6.2-5,7.3-0.9c0.2,0.6,0.2,1.5,0.1,1.1c0,0.3,0,0.6,0,0.9c0,2.5-0.9,4.9-2.9,6.4
				c-4,3-11.4,3-15.1-0.3c-4.6-4.2-5.4-11.9-2.8-17.4c3.4-6.9,11.2-10,18.4-7.8c1.9,0.5,2.6-2.3,0.8-2.9c-8.2-2.4-17.1,0.8-21.4,8.3
				c-3.9,6.9-3.1,17,3.3,22.3c5,4.1,14.3,4,19.2-0.3c2.6-2.3,3.7-5.8,3.5-9.2c-0.2-3.1-1.9-5.9-5-6.7c-4.4-1.1-8.1,2.2-8.4,6.5
				C373.6,320.4,376.6,320.4,376.7,318.5L376.7,318.5z"/>
		</g>
	</g>
	<g>
		<g>
			<path d="M364.2,303.4c-11.1-3.6-23.2-5.1-34.8-5.7c-19.5-0.9-38.7,2.1-56.9,9.2c-4.7,1.9-9.5,3.7-14.2,5.6
				c-1.1,0.5-1.6,2-0.4,2.7c3.3,1.9,6.5,3.8,9.8,5.7c4.4,2.5,9.5,4.5,14.3,6.2c7.9,2.9,16.1,4.8,24.5,5.4c9.4,0.8,19.2,0.3,28.6-0.3
				c9.8-0.7,19.8-1.9,29.1-5.3c1.8-0.7,1-3.6-0.8-2.9c-8.1,3-16.6,4.3-25.2,5c-9.1,0.8-18.4,1-27.6,0.8c-8.6-0.2-17.1-1.9-25.2-4.6
				c-5.3-1.8-10.8-3.8-15.7-6.5c-3.5-1.9-6.9-4-10.3-5.9c-0.1,0.9-0.2,1.8-0.4,2.7c11-4.3,21.9-9.1,33.5-11.7
				c19.2-4.4,39.6-4.1,58.9-0.3c4,0.8,8,1.7,11.9,2.9C365.2,306.9,366,304,364.2,303.4L364.2,303.4z"/>
		</g>
	</g>
	<g>
		<g>
			<path d="M311.1,299.3c0,10.6,0,21.2,0,31.8c0,1.9,3,1.9,3,0c0-10.6,0-21.2,0-31.8C314.1,297.4,311.1,297.4,311.1,299.3
				L311.1,299.3z"/>
		</g>
	</g>
	<g>
		<g>
			<path d="M380.2,363.6c1.9,0,1.9-3,0-3C378.3,360.6,378.3,363.6,380.2,363.6L380.2,363.6z"/>
		</g>
	</g>
	<g>
		<g>
			<path d="M380.1,347.6c-4.7-0.2-9.5,0.3-14.2,0.2c-1.1,0-1.6,0.1-2-1.2c-0.1-0.5,0-1.2,0-1.8c0-2.4-0.1-4.8-0.1-7.1
				c0-2.3,0-4.7,1.9-6.4c1.9-1.6,4.8-1.3,7.2-1.2c3.4,0.1,5.7,2.2,5.7,5.5c0.2,8.3,0.1,16.5,0.1,24.8c0,1.1,0.1,2.4,0,3.5
				c-0.3,2.4-2.1,3.8-4.4,4.3c-1.1,0.2-2.2,0.2-3.3,0.1c-2.3,0-5.2,0.4-6.9-1.5c-1.8-2.1-0.9-6.5-0.9-8.9c0-2.1-0.4-4.7,0-6.7
				c0.1-0.5-0.1-0.2-0.1-0.2c0.2-0.2,1.2,0,1.5,0c1,0,2-0.1,3-0.1c1.9-0.1,1.9-3.1,0-3c-1.8,0.1-4.8-0.4-6.4,0.8
				c-1.6,1.3-1.1,4.1-1.1,5.9c0,2.8,0,5.6,0,8.4c0,1,0,2.1,0.2,3.1c1.5,5.6,7.7,5.5,12.5,5.3c4.9-0.2,8.7-3.4,8.7-8.5
				c0-9.1,0-18.2-0.1-27.2c-0.1-3.5-1.8-6.8-5.3-8c-2.4-0.8-5.6-0.8-8.2-0.5c-3.8,0.4-6.7,3.5-7.3,7.3c-0.4,2.6,0,5.3,0,7.9
				c0,2.4-0.5,5.8,1.6,7.5c1.9,1.7,5.7,1,8,0.9c3.2-0.1,6.5-0.3,9.7-0.1C382.1,350.7,382.1,347.7,380.1,347.6L380.1,347.6z"/>
		</g>
	</g>
	<g>
		<g>
			<path d="M440.7,333.1c0.2-2.3,3.3-2.5,5.1-2.1c2,0.4,3.6,1.8,4.5,3.6c1.2,2.5,1.4,5.4,1.3,8c0,1.3-0.3,2.5,0.1,3.7
				c0.7,2.3,1.1,4.4,1,6.8c-0.1,2.2-0.5,5.1-2.9,5.9c-1,0.3-2.3,0.3-3.4,0.3c-1.4,0.1-4.8,0.4-5.7-1.1c-0.3-0.5-0.1-1.5-0.1-2.1
				c0-1.3,0-2.5,0-3.8C440.7,346,440.7,339.5,440.7,333.1c0-1.9-3-1.9-3,0c0,7.4,0,14.8,0,22.2c0,2.4-0.3,4.8,2.1,6.2
				c2.3,1.3,5.5,1.2,8,0.9c1.4-0.1,2.8-0.2,4-0.9c3.1-1.7,3.8-5.5,3.8-8.7c0-1.9-0.1-3.9-0.7-5.8c-0.2-0.6-0.3-1.1-0.6-1.6
				c-0.4-0.8,0.1-0.5-0.1,0.2c0.4-2.5,0.2-5.2-0.1-7.7c-0.6-4.1-2.5-7.9-6.6-9.4c-4.1-1.5-9.4-0.3-9.9,4.6
				C437.5,335,440.5,335,440.7,333.1z"/>
		</g>
	</g>
	<g>
		<g>
			<path d="M399.9,346.4c-4.8-0.2-9.7,0.2-14.5,0.2c-1,0-1.5,0.2-2.1-0.7c-0.4-0.7-0.3-1.4-0.3-2.2c0-2.3-0.1-4.6-0.1-6.9
				c0-2.5-0.1-5,2-6.8c2-1.7,5-1.3,7.5-1.2c3.4,0.1,5.9,2.1,6,5.3c0.3,8.3,0.1,16.6,0.1,24.8c0,1.1,0.1,2.2,0,3.2
				c-0.2,2.6-2,4.1-4.4,4.7c-1.1,0.2-2.1,0.2-3.1,0.2c-2.5,0-5.7,0.5-7.6-1.4c-1.9-2-1.1-6.3-1.1-8.7c0-1.4,0-2.8,0-4.3
				c0-0.7-0.3-2,0-2.7c0.2-0.5-0.2-0.1-0.1-0.2c0.3-0.2,1.2,0,1.6,0c1,0,2.1-0.1,3.1-0.1c1.9-0.1,1.9-3.1,0-3
				c-1.9,0.1-5-0.5-6.5,0.8c-1.6,1.2-1.1,3.7-1.1,5.5c0,2.8,0,5.7,0,8.5c0,1.1,0,2.2,0.2,3.2c1.5,5.8,8.1,5.7,13,5.5
				c4.6-0.2,8.8-2.9,9-7.9c0.3-9.2,0-18.6-0.1-27.8c-0.1-3.5-1.9-6.7-5.3-7.9c-2.5-0.9-5.8-0.8-8.4-0.6c-4,0.4-7.1,3.4-7.7,7.3
				c-0.4,2.7,0,5.7,0,8.4c0,2.5-0.4,5.7,1.9,7.3c2,1.4,5.7,0.7,8,0.7c3.3-0.1,6.7-0.3,10.1-0.1C401.9,349.5,401.9,346.5,399.9,346.4
				L399.9,346.4z"/>
		</g>
	</g>
	<g>
		<g>
			<path d="M418.7,345.5c-4.8-0.2-9.7,0.2-14.5,0.2c-1,0-1.5,0.2-2.1-0.7c-0.4-0.7-0.3-1.4-0.3-2.2c0-2.3-0.1-4.6-0.1-6.9
				c0-2.5-0.1-5,2-6.8c2-1.7,5-1.3,7.5-1.2c3.4,0.1,5.9,2.1,6,5.3c0.3,8.3,0.1,16.6,0.1,24.8c0,1.1,0.1,2.2,0,3.2
				c-0.2,2.6-2,4.1-4.4,4.7c-1.1,0.2-2.1,0.2-3.1,0.2c-2.5,0-5.7,0.5-7.6-1.4c-1.9-2-1.1-6.3-1.1-8.7c0-1.4,0-2.8,0-4.3
				c0-0.7-0.3-2,0-2.7c0.2-0.5-0.2-0.1-0.1-0.2c0.3-0.2,1.2,0,1.6,0c1,0,2.1-0.1,3.1-0.1c1.9-0.1,1.9-3.1,0-3
				c-1.9,0.1-5-0.5-6.5,0.8c-1.6,1.2-1.1,3.7-1.1,5.5c0,2.8,0,5.7,0,8.5c0,1.1,0,2.2,0.2,3.2c1.5,5.8,8.1,5.7,13,5.5
				c4.6-0.2,8.8-2.9,9-7.9c0.3-9.2,0-18.6-0.1-27.8c-0.1-3.5-1.9-6.7-5.3-7.9c-2.5-0.9-5.8-0.8-8.4-0.6c-4,0.4-7.1,3.4-7.7,7.3
				c-0.4,2.7,0,5.7,0,8.4c0,2.5-0.4,5.7,1.9,7.3c2,1.4,5.7,0.7,8,0.7c3.3-0.1,6.7-0.3,10.1-0.1C420.6,348.6,420.6,345.6,418.7,345.5
				L418.7,345.5z"/>
		</g>
	</g>
	<g>
		<g>
			<path d="M438.3,344.2c-4.8-0.2-9.6,0.2-14.4,0.2c-1,0-1.5,0.2-2.1-0.7c-0.4-0.7-0.3-1.4-0.3-2.2c0-2.3-0.1-4.6-0.1-6.9
				c0-2.5-0.2-5,2-6.8c2-1.7,5-1.3,7.4-1.2c3.4,0.1,5.9,2.1,6,5.3c0.3,8.3,0.1,16.6,0.1,24.8c0,1.1,0.1,2.2,0,3.2
				c-0.2,2.6-2,4.1-4.4,4.7c-1.1,0.2-2,0.2-3.1,0.2c-2.4,0-5.6,0.5-7.5-1.4c-1.9-2-1.1-6.3-1.1-8.7c0-1.4,0-2.8,0-4.3
				c0-0.8-0.2-2,0-2.7c0.2-0.5-0.2-0.1-0.1-0.2c0.3-0.2,1.2,0,1.6,0c1,0,2.1-0.1,3.1-0.1c1.9-0.1,1.9-3.1,0-3
				c-1.9,0.1-4.9-0.5-6.5,0.8c-1.6,1.2-1.1,3.7-1.1,5.5c0,2.8,0,5.7,0,8.5c0,1.1,0,2.2,0.2,3.2c1.5,5.8,8.1,5.7,12.9,5.5
				c4.6-0.2,8.8-2.9,9-7.9c0.3-9.2,0-18.6-0.1-27.8c-0.1-3.5-1.9-6.7-5.3-7.9c-2.5-0.9-5.8-0.8-8.4-0.6c-3.9,0.4-7.1,3.4-7.7,7.3
				c-0.4,2.7,0,5.7,0,8.4c0,2.5-0.4,5.7,1.9,7.3c2,1.4,5.7,0.7,8,0.7c3.3-0.1,6.7-0.3,10-0.1C440.2,347.3,440.2,344.3,438.3,344.2
				L438.3,344.2z"/>
		</g>
	</g>
	<g>
		<g>
			<path d="M435.9,326.7c3.3-4.6,8.1-6,13.7-5.4c4.5,0.5,8.8,2.6,11,6.7c0.3,0.6,0.6,1.3,0.8,1.9c-0.2-0.8,0,0.2,0,0.4
				c0,0.8,0,1.5,0,2.3c0,3.2,0,6.4,0,9.6c0,1.9,3,1.9,3,0c0-4.1-0.4-8.5,0-12.6c0,0-0.1,0.4,0.1-0.2c0.2-0.6,0.4-1.1,0.7-1.6
				c1-1.9,2.4-3.4,4.3-4.5c5.7-3.2,15.9-2,19.3,4.1c1.6,3,1.7,6.8,0.8,10c-0.4,1.6-1.2,3.2-2.5,4.4c-2.5,2.4-6,2.3-9.2,2.5
				c-1,0.1-1.6,0.9-1.4,1.9c0.9,5.6,1.9,11.1,2.8,16.7c0.5,3.2,2.7,8-1.1,10c-1.9,0.9-4.2,0.7-6.3,1c-2.4,0.3-4.9,0.7-7.3,1
				c-7.2,1-14.3,1.9-21.5,2.9c-2.3,0.3-4.6,0.6-6.9,0.9c-0.4,0.1-0.8,0.1-1.3,0.2c0.9-0.1-0.2,0-0.4,0.1c-5.2,0.7-10.3,1.3-15.5,2
				c-10.2,1.3-20.6,2.2-30.8,4c-6.1,1.1-13.9,2.5-19.7-0.3c-3-1.4-3.1-3.5-3.1-6.5c0-3.2,0-6.4,0-9.6c0-1.9-3-1.9-3,0
				c0,2.9,0,5.8,0,8.7c0,2.6-0.3,5.1,1.4,7.4c4.1,5.5,13.4,4.7,19.3,4.1c2.1-0.2,4.1-0.6,6.2-1c-0.8,0.2,0.2,0,0.5-0.1
				c0.8-0.1,1.7-0.2,2.5-0.3c6.8-0.9,13.5-1.7,20.3-2.6c21.2-2.7,42.5-5.5,63.7-8.3c3.9-0.5,6.7-3,7-7c0.1-2-0.5-3.8-0.9-5.7
				c-1.5-6-2.1-12.3-3.1-18.3c-0.5,0.6-1,1.3-1.4,1.9c3.3-0.2,6.7-0.1,9.6-1.9c2.3-1.5,4-3.8,4.8-6.4c1.1-3.4,1.2-7.4,0.1-10.7
				c-4.3-12.7-26.5-12.8-30.7,0.1c-0.5,1.6-0.3,3.3-0.3,4.9c0,3,0,6,0,9c0,1.9,3,1.9,3,0c0-3.8,0-7.6,0-11.3c0-2.4-0.8-4.2-2.2-6.1
				c-3.4-4.6-8.9-6.5-14.4-6.6c-6.2-0.1-10.8,2.1-14.3,7C432.1,326.7,434.7,328.2,435.9,326.7L435.9,326.7z"/>
		</g>
	</g>
	<g>
		<g>
			<path d="M514,307.1c2.3,5.6-1.1,10.8-7,11.5c-7.2,0.8-12.7-5.2-12.8-12.2c0-6.1,2.1-11.7,6.8-15.7c5.1-4.3,12.3-5.9,18.8-4.4
				c6.4,1.5,12.1,5.8,14.7,11.8c2.4,5.6,2,12.4-1.8,17.2c-3.7,4.7-5.1,9.7-4.6,15.7c0.3,4,1.5,7.8,2.2,11.7
				c0.9,5.4,0.8,12.3-5.7,13.7c-2.5,0.5-5.4,0.2-7.8-0.5c-1.8-0.6-2.6,2.3-0.8,2.9c2.8,0.9,6,1.2,8.9,0.6c5.5-1,8.4-5.3,8.9-10.6
				c0.4-5.5-1.8-10.7-2.5-16.1c-0.5-4.1-0.5-8.7,1.6-12.4c1.3-2.4,3.4-4.2,4.5-6.6c6.9-14.6-6.2-30-20.9-30.9
				c-14.5-0.9-26.8,10.9-25.2,25.6c1,8.6,8.9,14.6,17.4,12.9c7-1.4,10.9-8.4,8.2-15.1C516.1,304.5,513.2,305.3,514,307.1L514,307.1z
				"/>
		</g>
	</g>
	<g>
		<g>
			<path d="M351.6,216.5c4,0,8.1,1.1,11.9,2.3c9.4,3.1,17.8,8.8,24.4,16.2c5.5,6.2,9.6,13.6,12.7,21.3c0.7,1.8,3.6,1,2.9-0.8
				c-8.1-20.5-24.6-37.9-47-41.5c-1.6-0.3-3.2-0.5-4.9-0.5C349.6,213.5,349.6,216.5,351.6,216.5L351.6,216.5z"/>
		</g>
	</g>
	<g>
		<g>
			<path d="M363.4,208.4c4.4,0.9,8.6,2.9,12.4,5.1c10.2,5.8,18.6,14.3,24.9,24.1c1,1.6,3.6,0.1,2.6-1.5c-6.5-10.1-15-18.9-25.5-24.9
				c-4.2-2.4-8.8-4.7-13.6-5.6C362.3,205.1,361.5,208,363.4,208.4L363.4,208.4z"/>
		</g>
	</g>
	<g>
		<g>
			<path d="M376,202.8c4.3,2.6,8.4,5.6,12.3,8.8c7.3,5.8,14.3,12.5,18.9,20.8c0.9,1.7,3.5,0.2,2.6-1.5c-4.7-8.5-11.9-15.4-19.4-21.4
				c-4.1-3.3-8.4-6.5-12.9-9.3C375.9,199.2,374.4,201.8,376,202.8L376,202.8z"/>
		</g>
	</g>
	<g>
		<g>
			<path d="M404.3,220.8c7.4-3.3,15.9-5.4,24-5.7c1.9-0.1,1.9-3.1,0-3c-8.7,0.3-17.6,2.6-25.5,6.1C401,219,402.6,221.6,404.3,220.8
				L404.3,220.8z"/>
		</g>
	</g>
	<g>
		<circle cx="414.9" cy="210" r="5"/>
		<g>
			<path d="M418.4,210c-0.2,4.5-7,4.5-7,0C411.4,205.4,418.2,205.5,418.4,210c0.1,1.9,3.1,1.9,3,0c-0.2-3.5-2.8-6.5-6.5-6.5
				c-3.5,0-6.5,3-6.5,6.5c0,3.4,2.8,6.4,6.2,6.5c3.8,0.2,6.6-2.9,6.8-6.5C421.5,208,418.5,208,418.4,210z"/>
		</g>
	</g>
	<g>
		<g>
			<path d="M388.8,199.9c3.9,2.6,7.3,6.3,10.3,9.9c1.2,1.5,3.4-0.7,2.1-2.1c-3.2-3.8-6.7-7.6-10.9-10.3
				C388.7,196.3,387.2,198.9,388.8,199.9L388.8,199.9z"/>
		</g>
	</g>
	<g>
		<g>
			<path d="M398.7,198c0.5,0.4,1.1,0.8,1.7,1.4c1.1,1,2.2,2.1,3,3.3c1.1,1.6,3.7,0.1,2.6-1.5c-1.5-2.3-3.6-4.2-5.7-5.8
				C398.6,194.3,397.1,196.9,398.7,198L398.7,198z"/>
		</g>
	</g>
	<g>
		<g>
			<path d="M405.8,196.4c1.7,1.6,3.3,3.4,4.3,5.5c0.9,1.7,3.5,0.2,2.6-1.5c-1.2-2.3-2.9-4.4-4.8-6.1
				C406.5,192.9,404.3,195.1,405.8,196.4L405.8,196.4z"/>
		</g>
	</g>
	<g>
		<g>
			<path d="M420.2,194.8c2.3,1.9,4.1,4.6,5.5,7.2c4.2,7.3,5.7,15.8,5.8,24.1c0,1.9,3,1.9,3,0c-0.1-8.7-1.7-17.5-6-25.2
				c-1.6-2.9-3.6-6-6.2-8.2C420.8,191.5,418.7,193.6,420.2,194.8L420.2,194.8z"/>
		</g>
	</g>
	<g>
		<g>
			<path d="M407.8,195c-5.3,2.4-9.1,8-9.2,13.8c0,10.2,8.4,19,17.5,22.5c2.3,0.9,4.9,1.6,7.4,1.8c0.5,0,1.1-0.3,1.3-0.7
				c3.4-7.8,6.8-17.5,4.4-26.1c-1.1-3.8-3.2-7.5-6.5-9.9c-4.3-3.1-9.6-3-14.5-1.5c-1.8,0.6-1.1,3.5,0.8,2.9
				c4.4-1.4,9.2-1.5,12.8,1.7c2.5,2.3,4,5.5,4.8,8.8c0.9,4,0.1,8.2-0.9,12.1c-0.6,2.5-1.4,5-2.3,7.4c-0.3,0.8-0.6,1.6-0.9,2.4
				c-0.1,0.2-0.4,1.1-0.3,0.7c0.4-0.2,0.9-0.5,1.3-0.7c-7.7-0.6-15.5-5.8-19.3-12.7c-2.7-4.8-3.7-10.8-0.2-15.5
				c1.4-1.8,3.3-3.4,5.4-4.3C411,196.8,409.5,194.3,407.8,195z"/>
		</g>
	</g>
	<g>
		<g>
			<path d="M431.1,194.9c5.7,8.6,7.4,20.4,7.7,30.4c0.1,1.9,3.1,1.9,3,0c-0.4-10.5-2.1-22.9-8.1-31.9
				C432.6,191.8,430,193.3,431.1,194.9L431.1,194.9z"/>
		</g>
	</g>
	<g>
		<g>
			<path d="M441.5,194.5c1.3,2.4,2.1,5.2,2.8,7.8c2,7.5,2.7,15.2,2.6,23c0,1.9,3,1.9,3,0c0.2-10.5-0.7-22.7-5.8-32.3
				C443.2,191.3,440.6,192.8,441.5,194.5L441.5,194.5z"/>
		</g>
	</g>
	<g>
		<g>
			<path d="M451.5,193.6c2.8,10.5,3.3,21.9,3.8,32.7c0.1,1.9,3.1,1.9,3,0c-0.5-11-1.1-22.7-3.9-33.5
				C453.9,191,451,191.8,451.5,193.6L451.5,193.6z"/>
		</g>
	</g>
	<g>
		<g>
			<path d="M461.3,195c1.7,10.8,2.2,21.9,1.8,32.9c-0.1,1.9,2.9,1.9,3,0c0.4-11.2-0.2-22.6-2-33.7C463.9,192.3,461,193.1,461.3,195
				L461.3,195z"/>
		</g>
	</g>
	<g>
		<g>
			<path d="M477.2,215.8c7.4,2.5,14.8,6.4,20.8,11.5c1.5,1.3,3.6-0.9,2.1-2.1c-6.4-5.5-14.2-9.6-22.1-12.3
				C476.1,212.3,475.3,215.2,477.2,215.8L477.2,215.8z"/>
		</g>
	</g>
	<g>
		<circle cx="491.9" cy="215" r="4.8"/>
		<g>
			<path d="M494.4,217.2c-3,3-7.9-1.2-5-4.4C492.2,209.5,497.1,213.9,494.4,217.2c-1.2,1.5,0.9,3.6,2.1,2.1c2.2-2.6,2.3-6.5-0.3-9
				c-2.5-2.3-6.6-2.2-9,0.3c-2.3,2.5-2.2,6.6,0.3,9c2.6,2.4,6.5,2.1,9-0.3C497.8,217.9,495.7,215.8,494.4,217.2z"/>
		</g>
	</g>
	<g>
		<circle class="st5" cx="491.9" cy="215" r="1.2"/>
		<g>
			<path d="M491.7,214.7C491.8,214.6,491.8,214.6,491.7,214.7c0,0,0.1-0.1,0.2,0c-0.2,0-0.2,0,0,0c0.1,0,0.1,0.1,0.2,0.1
				c0.1,0.1,0.1,0.1,0,0c0.1,0.1,0.1,0.2,0.1,0.2c0-0.2,0-0.2,0,0c0,0.1-0.1,0.1-0.1,0.2c-0.1,0.1-0.1,0.1,0,0
				c-0.1,0.1-0.2,0.1-0.2,0.1c0.2,0,0.2,0,0,0c-0.1,0-0.1-0.1-0.2-0.1c-0.1-0.1-0.1-0.1,0,0c-0.1-0.1-0.1-0.2-0.1-0.2
				c0,0.2,0,0.2,0,0C491.6,214.8,491.6,214.8,491.7,214.7c-0.5,0.6-0.6,1.5,0,2.1c0.5,0.5,1.6,0.6,2.1,0c0.9-1.1,1-2.7-0.1-3.8
				c-1.1-1-2.8-1-3.8,0.1c-1,1-1,2.8,0,3.8c1.1,1.1,2.8,1,3.9,0c0.6-0.6,0.6-1.6,0-2.1C493.2,214.1,492.3,214.1,491.7,214.7z"/>
		</g>
	</g>
	<g>
		<g>
			<path d="M470.3,195.8c0.5,10.5,1,21.2,0,31.7c-0.2,1.9,2.8,1.9,3,0c1-10.5,0.5-21.2,0-31.7C473.2,193.9,470.2,193.9,470.3,195.8
				L470.3,195.8z"/>
		</g>
	</g>
	<g>
		<g>
			<path d="M478.8,197c0,3.3,0,6.6,0,9.8c0,1.9,3,1.9,3,0c0-3.3,0-6.6,0-9.8C481.8,195,478.8,195,478.8,197L478.8,197z"/>
		</g>
	</g>
	<g>
		<g>
			<path d="M496.6,199.7c-7.4-2.4-15.2,1.2-18.5,8.2c-4.4,9.4-2.5,21.6,4.7,29.2c0.5,0.5,1.2,0.5,1.8,0.2
				c7.2-3.3,15.8-7.9,19.6-15.2c1.8-3.4,2.8-7.4,2.2-11.2c-0.9-5.2-4.8-8.8-9.4-11c-1.7-0.8-3.3,1.8-1.5,2.6c4.2,2,7.8,5.1,8.1,10
				c0.2,3.3-1,6.7-2.7,9.5c-3.7,6-11.5,9.9-17.8,12.8c0.6,0.1,1.2,0.2,1.8,0.2c-6.2-6.6-8-17.4-4.2-25.5c2.7-5.8,8.9-8.8,15.1-6.8
				C497.6,203.2,498.4,200.3,496.6,199.7z"/>
		</g>
	</g>
	<g>
		<g>
			<path d="M510,206.8c0,2.5-1,5.4-2,7.9c-3.2,7.9-8.8,14.7-14.8,20.7c-1.4,1.4,0.7,3.5,2.1,2.1c6.3-6.2,12-13.3,15.4-21.5
				c1.2-2.8,2.3-6,2.3-9.1C513,204.9,510,204.9,510,206.8L510,206.8z"/>
		</g>
	</g>
	<g>
		<g>
			<path d="M518.1,211.7c-0.7,2.8-2.2,5.6-3.6,8.1c-4.4,7.8-10.2,14.6-16.5,20.9c-1.4,1.4,0.7,3.5,2.1,2.1
				c6.5-6.4,12.5-13.5,17-21.5c1.5-2.8,3.1-5.7,3.9-8.8C521.5,210.7,518.6,209.9,518.1,211.7L518.1,211.7z"/>
		</g>
	</g>
	<g>
		<g>
			<path d="M526.5,217.4c-5.2,11.4-14,22.1-24.4,29c-1.6,1.1-0.1,3.7,1.5,2.6c10.8-7.2,20.2-18.2,25.5-30.1
				C529.9,217.2,527.3,215.7,526.5,217.4L526.5,217.4z"/>
		</g>
	</g>
	<g>
		<g>
			<path d="M533.9,225.3c-7.6,9.7-16.2,19.7-26.3,26.8c-1.6,1.1-0.1,3.7,1.5,2.6c10.4-7.3,19.2-17.3,26.9-27.3
				C537.2,225.9,535.1,223.8,533.9,225.3L533.9,225.3z"/>
		</g>
	</g>
	<g>
		<g>
			<path d="M540.3,232.9c-5.9,5.3-11.7,10.5-17.6,15.8c-1.4,1.3,0.7,3.4,2.1,2.1c5.9-5.3,11.7-10.5,17.6-15.8
				C543.9,233.8,541.7,231.6,540.3,232.9L540.3,232.9z"/>
		</g>
	</g>
	<g>
		<g>
			<path d="M518.5,252.3c-2.2,1.9-4.3,3.9-6.6,5.6c-1.5,1.2,0.6,3.3,2.1,2.1c2.3-1.8,4.4-3.7,6.6-5.6
				C522.1,253.2,520,251,518.5,252.3L518.5,252.3z"/>
		</g>
	</g>
	<g>
		<g>
			<path d="M516.5,270.8c-0.2,0.6,0.1-0.2,0.1-0.3c0.2-0.4,0.4-0.8,0.6-1.2c0.7-1.4,1.5-2.8,2.3-4.1c2.5-4,5.7-7.7,9.6-10.3
				c6.4-4.3,14.8-4.6,20.6-0.1c5.5,4.2,6.3,14.7,2.1,20.2c-4,5.2-11.5,5.9-17.2,3.9c-6.6-2.3-12.9-6-18.8-9.8
				c-1.6-1-3.1,1.6-1.5,2.6c6.1,3.9,12.7,7.6,19.5,10.1c6.7,2.4,15.2,1.3,19.9-4.4c5.4-6.4,5-18.7-1.4-24.4c-0.3-0.3-0.7-0.5-1-0.8
				c-0.4-0.3,0.5,0.3-0.2-0.1c-1.1-0.7-2.1-1.4-3.3-2c-5-2.3-10.6-2.3-15.7-0.3c-8.5,3.5-15.1,11.7-18.6,20.1
				C512.9,271.8,515.8,272.5,516.5,270.8z"/>
		</g>
	</g>
	<g>
		<g>
			<path d="M528.1,254.2c1.3,1.3,2.4,3.6,3.1,5.5c2.3,6.4,2.2,13.5,1.3,20.2c-0.3,1.9,2.6,2.7,2.9,0.8c1-7.2,1.2-14.8-1.3-21.8
				c-0.9-2.4-2-5-3.8-6.8C528.9,250.7,526.7,252.8,528.1,254.2L528.1,254.2z"/>
		</g>
	</g>
	<g>
		<circle cx="539.4" cy="264.8" r="4.8"/>
		<g>
			<path d="M541.9,267c-3,3-7.9-1.2-5-4.4C539.7,259.3,544.7,263.7,541.9,267c-1.2,1.5,0.9,3.6,2.1,2.1c2.2-2.6,2.3-6.5-0.3-9
				c-2.5-2.3-6.6-2.2-9,0.3c-2.3,2.5-2.2,6.6,0.3,9c2.6,2.4,6.5,2.1,9-0.3C545.4,267.7,543.3,265.6,541.9,267z"/>
		</g>
	</g>
	<g>
		<circle class="st5" cx="539.4" cy="264.8" r="1.2"/>
		<g>
			<path d="M539.3,264.5C539.4,264.5,539.4,264.5,539.3,264.5c0,0,0.1-0.1,0.2,0c-0.2,0-0.2,0,0,0c0.1,0,0.1,0.1,0.2,0.1
				c0.1,0.1,0.1,0.1,0,0c0.1,0.1,0.1,0.2,0.1,0.2c0-0.2,0-0.2,0,0c0,0.1-0.1,0.1-0.1,0.2c-0.1,0.1-0.1,0.1,0,0
				c-0.1,0.1-0.2,0.1-0.2,0.1c0.2,0,0.2,0,0,0c-0.1,0-0.1-0.1-0.2-0.1c-0.1-0.1-0.1-0.1,0,0c-0.1-0.1-0.1-0.2-0.1-0.2
				c0,0.2,0,0.2,0,0C539.2,264.6,539.2,264.6,539.3,264.5c-0.5,0.6-0.6,1.5,0,2.1c0.5,0.5,1.6,0.6,2.1,0c0.9-1.1,1-2.7-0.1-3.8
				c-1.1-1-2.8-1-3.8,0.1c-1,1-1,2.8,0,3.8c1.1,1.1,2.8,1,3.9,0c0.6-0.6,0.6-1.6,0-2.1C540.8,264,539.8,264,539.3,264.5z"/>
		</g>
	</g>
	<g>
		<g>
			<path d="M544.6,240.8c-2.9,3.5-6.7,6.4-10.8,8.5c-1.7,0.9-0.2,3.5,1.5,2.6c4.2-2.2,8.3-5.2,11.4-9
				C548,241.5,545.8,239.3,544.6,240.8L544.6,240.8z"/>
		</g>
	</g>
	<g>
		<g>
			<path d="M514.4,266.3c2.2,0.1,4.9-0.1,6.7-1.4c1.6-1.1,0.1-3.7-1.5-2.6c-1.4,1-3.5,1.1-5.2,1
				C512.5,263.2,512.5,266.2,514.4,266.3L514.4,266.3z"/>
		</g>
	</g>
	<g>
		<g>
			<path d="M519,280.4c4.1,0,8.6,0,12.5-1.3c1.8-0.6,1-3.5-0.8-2.9c-3.6,1.3-7.9,1.2-11.7,1.2C517.1,277.4,517.1,280.4,519,280.4
				L519,280.4z"/>
		</g>
	</g>
	<g>
		<g>
			<path d="M558.4,273.2c-8.3,5.9-19,9-29,10.5c-1.9,0.3-1.1,3.2,0.8,2.9c10.2-1.5,21.2-4.8,29.7-10.8
				C561.5,274.7,560,272.1,558.4,273.2L558.4,273.2z"/>
		</g>
	</g>
	<g>
		<g>
			<path d="M549.4,247.3c-1,1.3-2.5,2.5-4.1,3c-1.8,0.6-1,3.5,0.8,2.9c2.1-0.7,4.1-2,5.5-3.7c0.5-0.6,0.6-1.5,0-2.1
				C551,246.8,549.9,246.7,549.4,247.3L549.4,247.3z"/>
		</g>
	</g>
	<g>
		<g>
			<path d="M560.1,281.4c-8.5,4.8-18.6,7.4-28.2,8.6c-1.9,0.2-1.9,3.3,0,3c10.1-1.3,20.8-3.9,29.7-9
				C563.3,283,561.8,280.4,560.1,281.4L560.1,281.4z"/>
		</g>
	</g>
	<g>
		<g>
			<path d="M562.3,290.1c-8.8,3.2-17.9,5.8-27.2,7c-1.9,0.3-1.1,3.2,0.8,2.9c9.2-1.3,18.4-3.8,27.2-7
				C564.9,292.3,564.1,289.4,562.3,290.1L562.3,290.1z"/>
		</g>
	</g>
	<g>
		<g>
			<path d="M563.2,298.6c-7.8,4.2-17.1,6.1-25.8,6.7c-1.9,0.1-1.9,3.1,0,3c9.2-0.6,19-2.7,27.3-7.1
				C566.5,300.3,564.9,297.7,563.2,298.6L563.2,298.6z"/>
		</g>
	</g>
	<g>
		<g>
			<path d="M561.9,308.3c0.3-0.1,0,0-0.3,0.1c-0.5,0.2-1,0.4-1.6,0.6c-1.8,0.6-3.6,1.2-5.5,1.7c-6.5,1.8-13.2,2.8-20,3.2
				c-1.9,0.1-1.9,3.1,0,3c9.7-0.6,19.9-2.1,28.8-6C565.2,310.1,563.6,307.6,561.9,308.3L561.9,308.3z"/>
		</g>
	</g>
	<g>
		<g>
			<path d="M562.3,317.4c-10.2,3.9-21.6,5.6-32.4,5.6c0,1,0,2,0,3c4.9-0.6,12.5-1,16.4,2.7c2.9,2.8,3.1,9.4,0.4,12.3
				c-3.2,3.4-9.7,4-14.1,2.7c-1.9-0.5-2.7,2.4-0.8,2.9c5.2,1.5,12.4,0.7,16.5-3.1c3.9-3.5,4-10.1,1.8-14.7
				c-3.3-6.7-13.9-6.7-20.2-5.9c-1.9,0.2-2,3,0,3c11.1,0,22.8-1.7,33.2-5.7C564.8,319.6,564.1,316.7,562.3,317.4L562.3,317.4z"/>
		</g>
	</g>
	<g>
		<g>
			<path d="M549.1,330.8c4.9-0.3,10-0.9,14.7-2.7c1.8-0.7,1-3.6-0.8-2.9c-4.4,1.6-9.2,2.2-13.9,2.6C547.2,328,547.1,331,549.1,330.8
				L549.1,330.8z"/>
		</g>
	</g>
	<g>
		<g>
			<path d="M549.9,338.6c4.6,0,9.5-0.4,13.8-2c1.8-0.7,1-3.6-0.8-2.9c-4.1,1.5-8.7,1.8-13,1.9C548,335.6,547.9,338.6,549.9,338.6
				L549.9,338.6z"/>
		</g>
	</g>
	<g>
		<g>
			<path d="M547.6,344.9c5.3,0.7,11,0.6,16.1-1.1c1.8-0.6,1-3.5-0.8-2.9c-4.8,1.6-10.3,1.7-15.3,1
				C545.7,341.7,545.7,344.7,547.6,344.9L547.6,344.9z"/>
		</g>
	</g>
	<g>
		<g>
			<path d="M549.2,343.8c0.2,11.9,0.4,23.8,0.6,35.7c0.4,20.1,0.7,40.3,1.2,60.4c0.2,6.3,0.2,12.6,0.6,18.9c0.1,1.9,3.1,1.9,3,0
				c-0.9-14.6-0.8-29.3-1.1-44c-0.4-19.4-0.7-38.7-1.1-58.1c-0.1-4.3-0.2-8.6-0.2-13C552.2,341.8,549.2,341.8,549.2,343.8
				L549.2,343.8z"/>
		</g>
	</g>
	<g>
		<g>
			<path d="M536,345.7c0.4,15.2,0.8,30.4,1.1,45.7c0.5,19.4,1,38.9,1.4,58.3c0.2,6.1,0.3,12.5,3.7,17.8c3.4,5.2,9.8,5.4,15.5,4.7
				c6.7-0.9,9.5-6.3,10.1-12.5c0.7-7.3,0.2-15-0.1-22.3c-0.4-12.1-0.9-24.1-1.5-36.2c-0.9-18.8-2-37.6-3.1-56.3c0-0.3,0-0.7-0.1-1
				c-0.1-1.9-3.1-1.9-3,0c0.9,15.1,1.8,30.1,2.5,45.2c1.1,21.6,2.6,43.3,2.4,64.9c0,3.4,0,7-1.2,10.3c-1.2,3.1-3.5,4.7-6.7,5.1
				c-2.6,0.3-6.4,0.5-8.9-0.4c-4.9-1.9-6.1-9.2-6.4-13.7c-0.1-1.4-0.1-2.8-0.1-4.2c-0.4-17.7-0.9-35.5-1.3-53.2
				c-0.4-17-0.6-34-1.3-51c0-0.3,0-0.6,0-0.9C539,343.8,536,343.8,536,345.7L536,345.7z"/>
		</g>
	</g>
	<g>
		<g>
			<path d="M524.9,357.5c0.2,10.8,0.4,21.6,0.6,32.4c0.3,17.8,0.7,35.7,0.9,53.5c0.1,5.1,0.3,10.2,0,15.3c-0.1,1.9,2.9,1.9,3,0
				c0.2-4.2,0.1-8.5,0-12.7c-0.1-8.2-0.2-16.4-0.3-24.6c-0.3-17.4-0.6-34.8-1-52.2c-0.1-3.9-0.2-7.8-0.2-11.8
				C527.8,355.6,524.8,355.6,524.9,357.5L524.9,357.5z"/>
		</g>
	</g>
	<g>
		<g>
			<path d="M512.5,410.2c0,13.2,0,26.4,0,39.6c0,3.6-0.3,7.4,0.1,11.1c1,8.6,8.4,13,16.7,12.2c7.1-0.7,13.5-5.8,13.1-13.5
				c-0.1-1.9-3.1-1.9-3,0c0.4,6.3-4.9,10.2-10.7,10.6c-6.7,0.5-12.8-3.1-13.1-10.3c-0.5-11.4,0-23,0-34.4c0-5.1,0-10.2,0-15.3
				C515.5,408.2,512.5,408.2,512.5,410.2L512.5,410.2z"/>
		</g>
	</g>
	<g>
		<g>
			<path d="M500.7,410.2c0,14.4,0,28.9,0,43.3c0,2.1,0,4.1,0,6.2c0,1.9,3,1.9,3,0c0-14.4,0-28.9,0-43.3c0-2.1,0-4.1,0-6.2
				C503.7,408.3,500.7,408.3,500.7,410.2L500.7,410.2z"/>
		</g>
	</g>
	<g>
		<g>
			<path d="M488.6,410.2c-0.1,12.2-0.3,24.5-0.4,36.7c-0.1,9.2-2.1,24.1,11.3,24.8c6,0.3,16.1-2.1,16.2-9.8c0-1.9-3-1.9-3,0
				c-0.1,5.6-9.3,7.2-13.8,6.7c-5.2-0.6-7.7-5.3-7.8-10.1c-0.1-11.6,0.3-23.2,0.4-34.7c0.1-4.6,0.1-9.1,0.2-13.7
				C491.6,408.2,488.6,408.2,488.6,410.2L488.6,410.2z"/>
		</g>
	</g>
	<g>
		<g>
			<path d="M473.1,412.2c15-0.2,30-0.5,45.1-0.7c2.1,0,4.2-0.1,6.3-0.1c0.9,0,1.7-1,1.4-1.9c-3.6-11.4-6-23.3-7.3-35.2
				c-1-8.5-1-17-0.5-25.6c0.2-3.9-0.4-8.2-2.3-11.6c-3.1-5.7-9.3-7-15.4-6.5c-5.5,0.4-9.9,2.9-12.6,7.8c-3.2,5.7-4.4,12.6-5.8,18.9
				c-1.5,6.6-2.8,13.3-4.1,19.9c-2.2,11-4.3,22-6.3,33c-0.4,1.9,2.5,2.7,2.9,0.8c1.6-8.4,3.2-16.8,4.8-25.1
				c2.5-12.7,4.6-25.6,8.1-38.1c1.5-5.2,3.4-11.4,8.9-13.4c5.1-1.9,13-1.7,16.3,3.2c2.1,3.2,2.6,7.3,2.4,11
				c-0.4,7.9-0.5,15.7,0.3,23.6c1.3,12.8,3.7,25.8,7.6,38c0.5-0.6,1-1.3,1.4-1.9c-15,0.2-30,0.5-45.1,0.7c-2.1,0-4.2,0.1-6.3,0.1
				C471.2,409.2,471.2,412.2,473.1,412.2z"/>
		</g>
	</g>
	<g>
		<g>
			<path d="M503.2,353.7c0.1,15.6,0.3,31.4,1.4,47c0.2,3.3,0.3,6.8,1.3,9.9c0.6,1.8,3.5,1.1,2.9-0.8c-0.8-2.6-0.9-5.6-1.1-8.3
				c-0.4-4.6-0.6-9.1-0.7-13.7c-0.4-9.3-0.5-18.6-0.7-27.8c0-2.1-0.1-4.2-0.1-6.3C506.2,351.7,503.2,351.7,503.2,353.7L503.2,353.7z
				"/>
		</g>
	</g>
	<g>
		<g>
			<path d="M493.1,353.7c-1.3,16.5-2.7,32.9-4,49.4c-0.2,2.4-0.4,4.8-0.6,7.1c-0.2,1.9,2.8,1.9,3,0c1.3-16.5,2.7-32.9,4-49.4
				c0.2-2.4,0.4-4.8,0.6-7.1C496.3,351.8,493.3,351.8,493.1,353.7L493.1,353.7z"/>
		</g>
	</g>
	<g>
		<g>
			<path d="M478,387.8c-6.2-3.5-12.4-7-18.6-10.5c-1.4-0.8-2.4-1.4-4-0.7c-1.8,0.9-3.7,1.8-5.5,2.7c-15.7,7.6-31.4,15.3-47.1,22.9
				c-4.7,2.3-9.3,4.5-14,6.8c-0.7,0.3-1,1.4-0.5,2.1c4.3,5.7,9.8,10.6,15.3,15.1c13.6,11.2,29.3,19.8,45.9,25.6
				c12.9,4.6,26.4,7.3,40.1,8.6c1.9,0.2,1.9-2.8,0-3c-34.8-3.3-69.6-17.5-94.1-42.8c-1.2-1.3-2.4-2.5-3.5-3.9
				c-0.3-0.3-0.6-0.8-0.9-1.1c-0.1-0.1-0.6-0.7-0.1-0.1c-0.2,0.7-0.4,1.4-0.5,2.1c19.6-9.5,39.3-19.1,58.9-28.6
				c2.8-1.3,5.6-2.7,8.3-4c-0.5,0-1,0-1.5,0c6.8,3.8,13.6,7.7,20.4,11.5C478.1,391.3,479.6,388.7,478,387.8L478,387.8z"/>
		</g>
	</g>
	<circle class="st9" cx="379.3" cy="423.5" r="16.6"/>
	<circle class="st9" cx="429.1" cy="460.3" r="16.6"/>
	<circle class="st9" cx="489.6" cy="476.9" r="16.6"/>
	<g>
		<g>
			<path d="M439,448.7c10.9,18.2,21.9,36.4,32.8,54.6c2.7,4.4,5.3,8.9,8,13.3c0.8,1.4,2.1,4.9,3.8,5.5c0.7,0.3,1.9,0.1,2.6,0.1
				c2,0,4,0,6,0c6.4,0,12.7,0,19.1,0c11.1,0,22.2,0,33.2,0c1.1,0,1.9-1.3,1.3-2.3c-9.3-15.8-18.2-31.9-27.2-47.9
				c-1.4-2.5-2.9-5.1-4.3-7.6c-0.9-1.7-3.5-0.2-2.6,1.5c8.9,15.8,17.9,31.6,26.8,47.5c1.5,2.7,3.1,5.4,4.7,8.1
				c0.4-0.8,0.9-1.5,1.3-2.3c-17.7,0-35.4,0-53,0c-2.5,0-5,0-7.5,0c0.4,0.2,0.9,0.5,1.3,0.7c-12.8-21.2-25.5-42.5-38.3-63.7
				c-1.8-3-3.6-6-5.4-9C440.6,445.5,438,447.1,439,448.7L439,448.7z"/>
		</g>
	</g>
	<g>
		<g>
			<path d="M411.1,429.6c-18.9,11.5-37.9,23-56.8,34.5c-2.7,1.6-5.3,3.2-8,4.8c-1.6,1-0.1,3.6,1.5,2.6c18.9-11.5,37.9-23,56.8-34.5
				c2.7-1.6,5.3-3.2,8-4.8C414.2,431.1,412.7,428.6,411.1,429.6L411.1,429.6z"/>
		</g>
	</g>
	<g>
		<g>
			<path d="M363.1,428.4c-11.5,7.4-22.9,14.8-34.4,22.2c-1.6,1-3.2,2.1-4.9,3.1c0.7,0.2,1.4,0.4,2.1,0.5c-5.8-9.8-20.2-7.6-25.4,1.7
				c-6.1,10.9,2.3,24,14.5,23.8c6.4-0.1,12.6-3.4,17.6-7.1c1.5-1.1,0-3.7-1.5-2.6c-4.6,3.4-10.1,6.6-16,6.7c-5.7,0.1-11-3.2-13-8.7
				c-2.4-6.9,1.5-14.7,8.6-16.7c4.9-1.4,9.9-0.2,12.6,4.4c0.4,0.7,1.4,1,2.1,0.5c11.5-7.4,22.9-14.8,34.4-22.2
				c1.6-1,3.2-2.1,4.9-3.1C366.2,429.9,364.7,427.3,363.1,428.4L363.1,428.4z"/>
		</g>
	</g>
	<g>
		<g>
			<path d="M341.5,482.1c-8.3,5.9-13.3,17.9-7.3,27.2c3.6,5.5,10.4,8.3,16.8,6.9c6.4-1.4,11.4-6.8,12.3-13.3
				c0.7-4.8-0.5-10.5-5.9-11.8c0.1,0.9,0.2,1.8,0.4,2.7c16.2-10.1,32.4-20.2,48.6-30.3c2.3-1.4,4.6-2.9,6.9-4.3
				c1.6-1,0.1-3.6-1.5-2.6c-16.2,10.1-32.4,20.2-48.6,30.3c-2.3,1.4-4.6,2.9-6.9,4.3c-1,0.7-0.9,2.4,0.4,2.7
				c5.2,1.2,4.3,8.8,2.5,12.4c-3.3,6.5-11.6,9.1-18,5.5c-4.6-2.6-6.8-7.6-6.6-12.7c0.3-5.9,3.6-11.1,8.4-14.5
				C344.6,483.6,343.1,481,341.5,482.1L341.5,482.1z"/>
		</g>
	</g>
	<g>
		<g>
			<path d="M314.2,477.5c-4,6.2-3,16.8,3,21.4c4.5,3.4,11.3,2.9,16.4,0.8c1.8-0.7,1-3.6-0.8-2.9c-3.8,1.5-9,2.4-12.8,0.3
				c-5.8-3.2-6.6-12.9-3.2-18.1C317.9,477.4,315.3,475.9,314.2,477.5L314.2,477.5z"/>
		</g>
	</g>
	<g>
		<g>
			<path d="M331.5,499c-1,8.1-7.2,14.8-15.3,16.1c-8.6,1.5-17.1-3.5-20.2-11.6c-0.7-1.8-3.6-1-2.9,0.8c3.7,9.4,13.2,15.3,23.3,13.8
				c9.8-1.4,17-9.5,18.2-19.1C334.7,497.1,331.7,497.1,331.5,499L331.5,499z"/>
		</g>
	</g>
	<g>
		<g>
			<path d="M305.1,489.8c4.4,7.1-2.2,15.1-10,12.5c-1.8-0.6-2.6,2.3-0.8,2.9c10.2,3.4,19.1-7.6,13.4-16.9
				C306.7,486.6,304.1,488.2,305.1,489.8L305.1,489.8z"/>
		</g>
	</g>
	<g>
		<g>
			<path d="M292.5,481.6c4.5,7.1,13.3,9.7,21.2,7.5c1.9-0.5,1.1-3.4-0.8-2.9c-6.6,1.9-14-0.1-17.8-6.1
				C294.1,478.4,291.5,479.9,292.5,481.6L292.5,481.6z"/>
		</g>
	</g>
	<g>
		<g>
			<path d="M233.9,444.9c13.5,10.1,26.9,20.2,40.4,30.3c1.9,1.4,3.9,2.9,5.8,4.3c1.5,1.2,3-1.4,1.5-2.6
				c-13.5-10.1-26.9-20.2-40.4-30.3c-1.9-1.4-3.9-2.9-5.8-4.3C233.8,441.2,232.3,443.8,233.9,444.9L233.9,444.9z"/>
		</g>
	</g>
	<g>
		<g>
			<path d="M284.9,491.4c4.4,2.9,8.3,7.3,8.2,12.8c0,0.1,0,0.5,0,0.1c0-0.2-0.1,1.2-0.1,1.6c-0.2,1.8-0.9,3.6-1.9,5.2
				c-2.1,3.1-5.6,5-9.3,5.1c-8,0.2-14-7.8-11.4-15.5c0.6-1.8,3-4,1.5-5.9c-0.3-0.3-0.8-0.6-1.1-0.9c-12.9-10.2-25.8-20.3-38.6-30.5
				c-4.5-3.5-9-7.1-13.5-10.6c-0.8-0.6-1.8-0.6-2.4,0.3c-3.2,5-10.1,6.3-15,3c-5.2-3.5-6.5-11-2.5-16c1.7-2.2,4.3-3.6,7-4.1
				c1.8-0.3,2-0.2,3.6-0.2c5.3,0.1,9.8,2.9,13,7c1.2,1.5,3.3-0.6,2.1-2.1c-5.5-6.9-16.1-10.6-24.1-5.9c-10.3,6-8.4,22,3,25.4
				c5.9,1.8,12.3-0.6,15.5-5.7c-0.8,0.1-1.6,0.2-2.4,0.3c12.5,9.9,25,19.7,37.5,29.6c3.4,2.7,6.8,5.3,10.2,8
				c1.1,0.9,2.3,1.8,3.4,2.7c0.5,0.4,1.3,1.3,1.9,1.5c0.1,0,0.2,0.2,0.3,0.2c-0.1-0.3-0.3-0.6-0.4-0.8c0,0.1,0,0.3,0,0.4
				c-0.4,0.2-0.4,0.5-0.7,0.8c-0.6,1-1.1,2.3-1.4,3.4c-0.9,3.5-0.5,7.2,1.1,10.4c3.1,6.2,10.6,9.4,17.2,7.5
				c6.6-1.9,10.4-8,10.6-14.7c0.2-6.6-4.5-11.9-9.7-15.2C284.8,487.8,283.3,490.3,284.9,491.4L284.9,491.4z"/>
		</g>
	</g>
	<g>
		<g>
			<path d="M300.7,462.5c-17.3-11.7-34.7-23.4-52-35.1c-2.4-1.6-4.8-3.3-7.3-4.9c0,0.9,0,1.7,0,2.6c5.2-3.9,6.2-11.6,2.8-17
				c-3.4-5.3-10.3-7.7-16.2-5.2c-5.9,2.5-9.3,9.2-8,15.5c1.2,5.5,5.8,10.4,9.8,14c1.4,1.3,3.6-0.8,2.1-2.1
				c-6.2-5.6-14.1-15.8-5.2-23.1c4.1-3.4,10.2-2.9,13.8,0.9c3.6,3.8,3.9,11-0.5,14.4c-0.9,0.7-1,1.9,0,2.6
				c17.3,11.7,34.7,23.4,52,35.1c2.4,1.6,4.8,3.3,7.3,4.9C300.8,466.2,302.3,463.6,300.7,462.5L300.7,462.5z"/>
		</g>
	</g>
	<g>
		<g>
			<path d="M208,433.4c-4.2-8.1,4.2-16.9,12.4-12.8c1.7,0.8,3.2-1.7,1.5-2.6c-10.9-5.4-22.2,6.1-16.5,16.9
				C206.3,436.6,208.9,435.1,208,433.4L208,433.4z"/>
		</g>
	</g>
	<g>
		<g>
			<path d="M135.6,330.3c1.2-3.9,0.8-8.2-2.9-10.5c-1.5-0.9-3.3-1.6-5.1-1.6c-9-0.1-13.5,9.8-10.3,17.5c3.7,8.7,15.5,11.7,23.6,8.3
				c10.5-4.4,14.9-17.3,9.2-27.2c-3.1-5.3-8.6-8.8-14.7-9.3c-3.5-0.3-7.1-0.1-10.6-0.1c-1.9,0-1.9,3,0,3c5.9,0,12.3-0.8,17.5,2.5
				c8.3,5.3,9.8,17.2,3.1,24.4c-6,6.4-16.1,6.8-22.7,1c-5.5-4.8-4.6-15.4,3.3-17c1.5-0.3,2-0.2,3.2,0.1c3.9,1.2,4.6,4.4,3.5,8
				C132.2,331.4,135.1,332.2,135.6,330.3L135.6,330.3z"/>
		</g>
	</g>
	<g>
		<g>
			<path d="M141.9,270.3c0.3,3.2-0.5,6.3-3.9,7.2c-0.8,0.2-1.6,0.2-2.4,0.2c-0.9,0,0.2,0.1-0.5-0.1c-7.2-1.9-8.8-10.8-3.9-16.1
				c5.5-5.8,15.9-5.3,21.7-0.1c7.8,6.9,7.1,19.7-1.6,25.7c-6.7,4.6-14,2.3-21.3,0.9c-1.9-0.4-2.7,2.5-0.8,2.9
				c2.9,0.6,5.8,1.1,8.7,1.7c5.5,1,11.1,0,15.7-3.4c9.3-7,10.3-21.2,1.9-29.3c-6.8-6.6-19.4-7.6-26.3-0.5c-6.3,6.4-4.9,18,4,21
				c1.8,0.6,3.7,0.6,5.5,0.1c4.7-1.2,6.5-5.5,6.1-10.1C144.8,268.4,141.8,268.4,141.9,270.3L141.9,270.3z"/>
		</g>
	</g>
	<g>
		<g>
			<path d="M136.5,310.6c6,0.2,12.3,2,17.5,5c4.4,2.6,7.9,6.4,9.5,11.2c1.1,3.5,1,7.2,1.1,10.8c0.1,3.3,0.2,6.7,0.2,10
				c0,2,0.2,4,0.1,6c1-0.1,2-0.3,2.9-0.4c0.1,0.4,0.1,0.5,0.1,0.3c-0.1-1.9-3.1-1.9-3,0c0,0.2,0,0.4,0.1,0.5
				c0.6,1.6,2.8,1.4,2.9-0.4c0.1-1.7-0.1-3.5-0.1-5.1c-0.1-3.3-0.1-6.7-0.2-10c-0.1-3.8,0-7.7-1-11.4c-2.8-10.3-12.4-16-22.2-18.3
				c-2.6-0.6-5.3-1.1-8-1.2C134.6,307.5,134.6,310.5,136.5,310.6L136.5,310.6z"/>
		</g>
	</g>
	<g>
		<g>
			<path d="M141.5,292.6c-0.7-0.1,0.2,0,0.5,0.1c0.7,0.1,1.4,0.2,2.1,0.4c2.3,0.4,4.6,1,6.8,1.6c6.5,1.8,12.8,4.5,18.4,8.3
				c6.3,4.3,11.3,10.4,12.9,18c1.1,5.3,0.5,11.1,0.5,16.4c0,6.1,0,12.2,0,18.4c0,1.9,3,1.9,3,0c0-5.6,0-11.3,0-16.9
				c0-5.6,0.5-11.5-0.3-17.1c-2.4-15.9-17.4-24.8-31.5-29.3c-4-1.3-8.2-2.3-12.4-2.9C139.5,289.4,139.6,292.4,141.5,292.6
				L141.5,292.6z"/>
		</g>
	</g>
	<g>
		<g>
			<path d="M127.1,270.5c-7.8-3.2-16.2-4.7-24.6-5.5c-6-0.6-12-0.7-18,0.1c-13.8,1.8-26.7,8.1-37.3,16.9c-2.3,1.9-4.5,3.9-6.5,6.1
				c-0.3,0.4-0.6,1-0.4,1.5c2.8,6.8,7.8,13,13.1,18.1c10.1,9.7,23.6,16.3,37.6,17.7c9.8,1,20,1.1,29.7-1.1c1.9-0.4,1.1-3.3-0.8-2.9
				c-8.6,2-17.6,1.9-26.4,1.2c-6.1-0.5-11.6-1.7-17.7-4.1c-11.8-4.6-22.1-12.9-29-23.4c-1-1.5-1.9-3-2.7-4.6c-0.2-0.5-0.4-1-0.7-1.4
				c-0.1-0.2-0.4-0.9-0.1-0.2c-0.1,0.5-0.3,1-0.4,1.5c4.9-5.7,11.4-10.3,17.9-13.9c12.1-6.8,25.6-9.6,39.4-8.5
				c8.9,0.7,17.9,2.2,26.2,5.7C128.1,274.2,128.8,271.3,127.1,270.5L127.1,270.5z"/>
		</g>
	</g>
	<g>
		<g>
			<path d="M77.7,269c0.7,0.5,2.2,1.9,3,3c2.5,3.2,4.1,7,5.1,10.9c2.4,10.3,1.5,24.9-7.3,32.1c-1.5,1.2-3.4,2.3-5.3,2.7
				c-1.9,0.4-1.1,3.3,0.8,2.9c6.7-1.4,11.5-8,13.7-14c3.9-10.9,3.2-25.5-3.6-35.2c-1.3-1.9-2.9-3.7-4.8-5
				C77.6,265.3,76.1,267.9,77.7,269L77.7,269z"/>
		</g>
	</g>
	<g>
		<g>
			<path d="M56.9,247.8c-0.7,3.2,0.5,6.6,3.5,8.1c3.4,1.8,7.7,0.6,10.3-2c3.2-3.1,3.7-7.9,1.8-11.9c-1.7-3.6-4.5-6-8.2-7.4
				c-9.3-3.5-19.9,1.7-23.1,11c-3.1,9.2,2.1,19.4,11.2,22.5c3.5,1.2,6.9,0.9,10.5,0.8c5.9-0.2,11.7-0.2,17.6,0.2
				c1.9,0.1,1.9-2.9,0-3c-6.9-0.4-13.9-0.3-20.8,0c-6.3,0.2-12.2-2.5-15-8.4c-3.4-7.2-0.3-16,6.8-19.6c6.4-3.2,15.7-1.4,18.6,5.7
				c1.6,4-0.2,8.7-4.6,9.7c-3.2,0.8-6.4-1.6-5.6-5C60.2,246.7,57.3,245.9,56.9,247.8L56.9,247.8z"/>
		</g>
	</g>
	<g>
		<g>
			<path d="M69.3,253.7c0.8,0.8,2.3,0.9,3.4,1c4.9,0.5,9.9-0.2,14.7-0.7c14.6-1.6,29-1.2,42,6.4c1.7,1,3.2-1.6,1.5-2.6
				c-12.1-7-25.6-8.4-39.4-7.2c-5.7,0.5-11.3,1.4-17,1.2c-1,0-1.9-0.2-2.9-0.3c-0.6-0.1-0.5-0.3-0.2,0
				C70.1,250.2,68,252.4,69.3,253.7L69.3,253.7z"/>
		</g>
	</g>
	<g>
		<g>
			<path d="M68.9,237.3c-3.2-2.4-6.9-3.6-10.8-3.7c-1.9,0-1.9,3,0,3c3.5,0.1,6.6,1.2,9.3,3.3C68.9,241.1,70.4,238.5,68.9,237.3
				L68.9,237.3z"/>
		</g>
	</g>
	<g>
		<g>
			<path d="M69.3,253.7c0.8,0.8,2.3,0.9,3.4,1c4.9,0.5,9.9-0.2,14.7-0.7c14.6-1.6,29-1.2,42,6.4c1.7,1,3.2-1.6,1.5-2.6
				c-12.1-7-25.6-8.4-39.4-7.2c-5.7,0.5-11.3,1.4-17,1.2c-1,0-1.9-0.2-2.9-0.3c-0.6-0.1-0.5-0.3-0.2,0
				C70.1,250.2,68,252.4,69.3,253.7L69.3,253.7z"/>
		</g>
	</g>
	<g>
		<g>
			<path d="M49.1,332.5c-0.5-2.3,0.8-4.7,3.2-5.1c3-0.6,6.1,1.5,7.2,4.2c2.8,7.1-5.3,12.5-11.3,12.8c-7,0.4-13.4-4.4-15.2-11.2
				c-1.8-6.9,1.9-14.3,8.4-17.2c2.7-1.2,5.3-1.2,8.1-1.1c4.6,0.2,9.2,0.2,13.8,0.2c1.9,0,1.9-3,0-3c-5.1,0.1-10.3-0.1-15.4-0.2
				c-3.8-0.1-7.5,0.9-10.7,3.1c-7.2,5-9.7,14.6-5.9,22.5c4,8.4,14.3,12.2,22.9,8.6c6.7-2.8,11.8-11.6,6.5-18.1
				c-2.5-3-6.9-4.6-10.6-3c-3.3,1.4-4.7,5-3.9,8.4C46.6,335.2,49.5,334.4,49.1,332.5L49.1,332.5z"/>
		</g>
	</g>
	<g>
		<g>
			<path d="M61.1,332.9c3.2,0.2,6.4,0.8,9.5,1.5c5.8,1.4,11,4.5,16.8,5.8c10.6,2.5,21.8,0.9,32.3-1.5c1.9-0.4,1.1-3.3-0.8-2.9
				c-10.7,2.4-22.4,4.1-33.1,0.9c-5.5-1.6-10.4-4.3-16-5.5c-2.8-0.6-5.8-1.1-8.7-1.3C59.1,329.8,59.2,332.8,61.1,332.9L61.1,332.9z"
				/>
		</g>
	</g>
	<g>
		<g>
			<path d="M195.1,319.3c-4.8,1.8-5.9,7-4.3,11.5c1.4,3.8,3.4,7.5,5.5,10.9c0.8,1.3,1.6,3,3,3.9c3.6,2.4,11.9,1.7,11.8-3.9
				c-0.1-4.5-4-9.2-6.6-12.6c-2.5-3.2-5.1-6.4-7.9-9.4c-1.3-1.4-3.4,0.7-2.1,2.1c4.3,4.6,8.6,9.6,11.7,15.1c0.8,1.3,1.7,2.9,1.9,4.5
				c0.3,2.2-2.7,2.7-4.5,2.6c-1-0.1-1.9-0.5-2.8-1c-0.4-0.2-0.1,0,0,0.1c-0.2-0.2-0.3-0.4-0.4-0.6c-1.4-2.1-2.7-4.2-3.9-6.4
				c-1.6-2.9-4.4-7.4-3.3-10.9c0.3-0.9,0.9-1.7,1.7-2.3c0.3-0.2,1.4-0.8,1-0.6C197.7,321.5,196.9,318.6,195.1,319.3z"/>
		</g>
	</g>
	<g>
		<g>
			<path d="M225,406.7c-3.4-2.7-6.2-6.2-8.2-10c-3.5-6.7-2.5-15-1.4-22.2c0.5-3.5,1.5-7,1.8-10.5c0.6-6.9-0.8-13.4-4-19.5
				c-0.6-1.2-1.8-4.3-3.7-4.1c-1.2,0.2-1.5,1.3-1.3,2.4c0.3,1.9,3.2,1.1,2.9-0.8c0.1,0.4,0.1,0.4-1.1,0.7c-1.6,0.5-0.8,0.7-0.1,1.9
				c1.9,3.3,3.4,6.8,4,10.6c0.5,2.8,0.6,5.6,0.4,8.4c0,0.3-0.2,1.5-0.1,1.4c0.1-0.4-0.1,0.6-0.2,0.7c-1.1,5.1-1.9,10.3-2.2,15.5
				c-0.4,6.3-0.1,12.3,3,17.9c2,3.6,4.9,7.1,8.2,9.8C224.4,410,226.5,407.9,225,406.7L225,406.7z"/>
		</g>
	</g>
	<g>
		<g>
			<path d="M191.1,326.8c-5.1,1.5-7.6,7.3-7.8,12.1c-0.2,4.3,0.7,8.4,2.6,12.2c1.4,2.8,2.8,5.6,4.3,8.5c0.9,1.7,3.5,0.2,2.6-1.5
				c-1.2-2.4-2.4-4.7-3.6-7.1c-1.7-3.4-2.8-6.3-2.9-10.2c-0.2-4.2,1.5-9.8,5.6-11C193.7,329.1,192.9,326.2,191.1,326.8L191.1,326.8z
				"/>
		</g>
	</g>
	<g>
		<g>
			<path d="M189.7,373.5c4.1-1.4,5.9-5.1,5.4-9.2c-0.8-6.9-7.2-8.6-13-9.8c-6.8-1.4-13.8-2.2-20.7-3c-5-0.5-10.8-0.9-15.2,1.9
				c-4.4,2.9-6.4,10.5-3.5,15c0.4-0.8,0.9-1.5,1.3-2.3c-4.7,0.1-7.8,4.5-8.9,8.6c-0.9,3.5-1,10,3.7,10.9c-0.1-0.9-0.2-1.8-0.4-2.7
				c-3.5,2.5-5.7,6.7-4.9,11c0.7,3.7,3.5,8.4,7.8,8.5c-0.4-0.8-0.9-1.5-1.3-2.3c-1.7,3.8-2.4,9.5,1.7,12.1c3.4,2.1,12.7,3,15.2-1.4
				c-0.6,0.2-1.1,0.5-1.7,0.7c4.2,1,8.4,1.9,12.7,2.5c1.2,0.2,2.4,0.3,3.7,0.4c0.2,0,1.8,0.1,1.1-0.1c0.2,0.1,0.3,0.2,0.5,0.3
				c2.3,1.1,4.3,2.4,6.8,3.1c4.6,1.3,9.8-0.3,11.6-5c1.9-5,1-10.6-4.7-12.1c-0.1,1-0.3,2-0.4,2.9c3.6,0.1,6.2-3.2,7-6.4
				c1.3-5.5-0.4-10.2-5.8-12.1c-3.7-1.3-7.8-1.8-11.7-2.5c-7.2-1.2-14.4-2-21.7-1.8c-1.9,0-1.9,3,0,3c9.8-0.2,19.8,1.2,29.5,3.3
				c3.6,0.8,7,2,7.1,6.2c0.1,2.7-0.9,7.4-4.4,7.3c-1.7,0-2,2.5-0.4,2.9c2.5,0.7,3.5,2.2,3.4,4.8c-0.1,2.1-0.7,4.9-2.7,6
				c-3.9,2.3-8.5-0.3-11.9-2.2c-1.2-0.7-2.2-0.6-3.5-0.7c-2.3-0.2-4.5-0.5-6.7-1c-2.9-0.5-5.7-1.1-8.6-1.8c-0.6-0.2-1.4,0.1-1.7,0.7
				c0,0,0,0.1-0.3,0.3c-0.5,0.4-1.2,0.6-1.8,0.8c-2.5,0.7-6.7,0.7-8.9-0.8c-2.6-1.8-1.5-6.1-0.6-8c0.5-1-0.1-2.2-1.3-2.3
				c-2.6-0.1-4.6-4-4.9-6.4c-0.4-2.9,1.3-5.9,3.5-7.5c1-0.7,1-2.5-0.4-2.7c-3.1-0.6-2.1-5.9-1.4-8c0.8-2.6,3-5.6,5.8-5.7
				c1.1,0,1.9-1.3,1.3-2.3c-2-3.1-0.6-8.9,2.4-10.9c3.5-2.4,8.4-2,12.4-1.6c5.1,0.5,10.2,1.2,15.3,2c2.9,0.5,5.8,1,8.7,1.6
				c2.7,0.6,5.6,1.3,7.1,3.9c1.7,3,1.2,7.5-2.4,8.7C187.1,371.2,187.9,374.1,189.7,373.5L189.7,373.5z"/>
		</g>
	</g>
	<g>
		<g>
			<path d="M154.7,369.2c5.9-0.1,11.8,0.1,17.7,0.8c4.4,0.5,8.8,1.1,13,2.6c3.3,1.2,7,3.1,6.9,7.2c-0.1,3.1-3.6,4.6-6.3,5
				c-1.9,0.3-1.1,3.2,0.8,2.9c2.8-0.4,6-1.9,7.5-4.4c2.3-3.7,0.4-8.6-2.9-11c-3.6-2.7-8.4-3.7-12.8-4.4c-5-0.9-10-1.3-15.1-1.5
				c-3-0.1-5.9-0.2-8.9-0.1C152.8,366.3,152.8,369.3,154.7,369.2L154.7,369.2z"/>
		</g>
	</g>
	<g>
		<g>
			<path d="M152.9,398.4c11.1-0.7,23,0.9,33.3,5.2c1.6,0.7,2.7-2.1,1.2-2.7c-10.6-4.5-22.9-6.2-34.4-5.5
				C150.9,395.5,150.9,398.5,152.9,398.4L152.9,398.4z"/>
		</g>
	</g>
	<g>
		<g>
			<path d="M170.8,354c-0.3,1.6-0.3,3.4,0.3,5c1.1,2.9,3.5,3.6,6.3,4.1c5.3,0.9,10.6,2,15.9,3.1c1.9,0.4,2.7-2.5,0.8-2.9
				c-4.1-0.9-8.3-1.7-12.5-2.5c-2.1-0.4-6.1-0.3-7.4-2.2c-0.7-1-0.8-2.6-0.5-3.8C174.1,352.9,171.2,352.1,170.8,354L170.8,354z"/>
		</g>
	</g>
	<path class="st9" d="M172.4,368.5c0,0-2.7,7.3,4.4,8.5c0,0,13,2.9,17,4.3"/>
	<path class="st9" d="M169.7,383.6c0,0-2.5,5.8,3.5,7.4c0,0,13.1,2.2,19.1,4.3"/>
	<path class="st9" d="M169.2,397.6c0,0-1.2,7.1,4.5,8.1c0,0,11.1,1.8,17,4.7"/>
	<path class="st9" d="M186,416.8c0,0,0.8,4.2,14.5,19.8"/>
	<g>
		<g>
			<path d="M182.2,482.7c-1.2,2.3-4.6,0.7-5.1-1.3c-0.3-1-0.3-2.1-0.2-3.1c0,0.1,0-0.3,0.2-0.7c0.2-0.8,0.5-1.5,1-2.1
				c2-2.6,5.6-2.7,8.5-2.2c3.5,0.7,6.1,2.5,7.1,6c1.1,3.7,0.8,8.6-1,12.1c-4.7,8.8-16.4,9.8-23.6,3.4c-3.6-3.2-5.2-7.5-4.7-12.1
				c0.4-3.7,0.8-7.4,1.2-11.1c1.3-11.6,2.6-23.2,3.8-34.8c0.9-8,1.8-15.9,2.6-23.9c0.2-1.9-2.8-1.9-3,0c-2.4,21.7-4.8,43.3-7.2,65
				c-0.3,2.9-1,5.9-0.6,8.8c1.3,9.5,11.2,16.2,20.4,15.2c7.1-0.8,13.6-6.1,15-13.2c1.1-5.8,0.8-13-4.7-16.5
				c-5.8-3.8-15.8-2.9-17.9,4.7c-0.5,2-0.4,4.4,0.4,6.3c1.6,3.9,8.2,5.2,10.3,1.1C185.7,482.5,183.1,480.9,182.2,482.7L182.2,482.7z
				"/>
		</g>
	</g>
	<g>
		<g>
			<path d="M164.9,449.8c-0.1,2.8-1.5,6.6-3.2,9.3c-4.4,7.3-12.6,10.7-20.8,11.6c-5.4,0.6-10.9,0.2-16.3,0.2c-6.6,0-13,3-12.9,10.5
				c0,5.5,3.1,10.5,8.9,10.7c6.1,0.2,12.2,0,18.3,0c4.1,0,8.3-0.2,12.4,0c4.4,0.2,8.8,1.3,12.9,2.8c4.5,1.7,9.9,4,13,7.7
				c3.3,3.9,5.6,8.8,7.1,13.6c0.9,2.8,3.2,9.1,0,11.3c-0.5,0.4-0.5,0.2-1.1,0.3c-0.6,0-2.3-0.1-3.2-1c-1-1.1-1.1-2.9-1.6-4.2
				c-0.4-1-0.8-2.1-1.3-3c-0.8-1.5-1.8-3-2.9-4.3c-8.8-11.2-26.3-12.6-39.4-10.6c-4.3,0.6-8.5,1.1-12.8,0.9
				c-4.1-0.2-8.4-0.8-12.1-2.6c-4.6-2.1-7.3-5.8-8.9-10.6c-2.8-8.5-1.1-17.5,2-25.5c2.8-7.2,11.9-8.4,18.6-8.5
				c2.6-0.1,5.3,0.1,7.9,0.3c0.2,0,0.5,0.1,0.7,0.1c-0.7-0.1,0.8,0.1,1,0.1c2.5,0.1,5.2-0.2,7.7-0.8c5.8-1.6,10.7-5.8,12.4-11.7
				c1-3.3,1.2-7,1.8-10.5c1.2-7.1,2.3-14.2,3.5-21.3c0.2-1.4,0.5-2.8,0.7-4.2c0.3-1.9-2.6-2.7-2.9-0.8c-1.8,11.4-3.6,22.8-5.5,34.1
				c-0.6,3.6-2.5,6.9-5.6,9.1c-5.6,4-12,2.8-18.4,2.6c-7-0.2-15.4,0.3-21,5c-2.3,1.9-3.2,4.3-4.3,6.9c-1.5,3.6-2.4,7.5-2.8,11.4
				c-1.1,10.1,1.6,22.1,11.6,26.8c6.8,3.2,14.9,3.4,22.3,2.7c3.7-0.4,6.1-0.9,9.6-1.1c8-0.4,16.7,0.2,24,3.8
				c3.7,1.9,6.8,4.6,9.1,8.1c1.5,2.3,2.2,4.7,3.1,7.3c0.7,1.9,2,3.5,4,4.1c1.1,0.4,2.3,0.3,3.4,0.2c-0.7,0.1,0.8-0.1,1.2-0.3
				c2.7-1,3.6-3.9,3.7-6.5c0.1-5.9-2.5-12.2-5.3-17.2c-1.5-2.7-3.2-5.7-5.6-7.7c-7.2-6.1-18.1-9.8-27.5-9.9c-4.8-0.1-9.6,0-14.3,0
				c-5.2,0-10.5,0.4-15.7,0c-2.6-0.2-4.6-2.2-5.3-4.9c-1.2-4.7,0.5-8.7,5.3-10c1.7-0.4,3.4-0.5,5.1-0.4c3.4,0,6.8,0,10.3,0
				c13.9,0,28.4-6.4,31.7-21.1c0.2-1,0.4-2,0.5-3C168,447.9,165,447.9,164.9,449.8L164.9,449.8z"/>
		</g>
	</g>
	<g>
		<g>
			<path d="M434.9,500.4c0,2.8,0,5.7,0,8.5c0,0.9,0.2,2.3-0.3,3.1c-1.2,2-5.4,1.7-7.4,1.7c-2.6,0-7,0.4-8.9-1.7
				c-1-1.1-0.9-2.6-0.9-4c0-2.9,0-5.8,0-8.7c0-1.9-3-1.9-3,0c0,3.3-0.1,6.7,0,10c0.3,7.1,7.2,7.4,12.8,7.4c4.3,0,10.4-0.5,10.6-6
				c0.1-3.5,0-7,0-10.4C437.9,498.5,434.9,498.5,434.9,500.4L434.9,500.4z"/>
		</g>
	</g>
	<g>
		<g>
			<path d="M401.7,463.4c-2,10-4,19.9-6,29.9c-1.4,6.9-4.3,17.7,4.5,21c2.4,0.9,5.7,1,8.3,0.9c3.5-0.2,7.3-1.4,8.8-4.9
				c0.7-1.8-1.8-3.3-2.6-1.5c-1.3,3-4.7,3.5-7.7,3.5c-2.1,0-4.5,0-6.5-1c-3.7-2-3.8-7.1-3.1-10.8c1.5-8.3,3.3-16.6,5-24.8
				c0.8-3.8,1.5-7.6,2.3-11.3C404.9,462.3,402.1,461.5,401.7,463.4L401.7,463.4z"/>
		</g>
	</g>
	<g>
		<g>
			<path d="M454.5,501.4c0,3.9-0.8,8.8,0.8,12.5c1.5,3.5,4.9,4.5,8.5,4.2c5.5-0.4,10.9-2.4,15.3-5.5c1.6-1.1,0.1-3.7-1.5-2.6
				c-4.2,3-18.6,9.9-20,1c-0.5-3.1-0.1-6.5-0.1-9.6C457.5,499.4,454.5,499.4,454.5,501.4L454.5,501.4z"/>
		</g>
	</g>
	<path class="st9" d="M436.4,511.1c0,0,1.8,5.1,9.3,5c0,0,8.6,0.6,10.5-4.1"/>
	<line class="st9" x1="183.4" y1="416.8" x2="179.1" y2="472.5"/>
	<g>
		<g>
			<path d="M565.5,294.5c0-17.7-1.3-35.5-2.6-53.1c-0.7-9.7-1.3-19.4-2.4-29c-0.8-6.4-2.4-12.6-4.9-18.5
				c-4.4-10.2-11.8-18.8-20.6-25.5c-11.3-8.5-25.3-14.4-39.3-16.8c-12.1-2-24.2-3.7-36.3-5.6c-16.5-2.5-33-5.1-49.5-7.6
				c-0.3,0-0.6-0.1-0.9-0.1c-1-0.2-1.8,0.4-1.9,1.4c-1.1,17-2.3,34.1-3.4,51.1c-0.2,2.4-0.3,4.9-0.5,7.3c-0.1,1.9,2.9,1.9,3,0
				c1.1-17,2.3-34.1,3.4-51.1c0.2-2.4,0.3-4.9,0.5-7.3c-0.6,0.5-1.3,1-1.9,1.4c13.9,2.1,27.9,4.3,41.8,6.4
				c14.7,2.3,29.5,4.5,44.2,6.8c11.1,1.8,22.1,5.9,31.8,11.6c9.1,5.4,17.2,12.5,22.9,21.5c3.3,5.1,5.7,10.8,7.2,16.7
				c2.1,8.2,2.4,16.9,3.1,25.3c1.8,21.4,2.9,42.8,3.5,64.3c0,0.3,0,0.5,0,0.8C562.5,296.5,565.5,296.5,565.5,294.5L565.5,294.5z"/>
		</g>
	</g>
	<g>
		<g>
			<path d="M471.6,149.7c-1.9,14-3.7,27.9-5.6,41.9c-0.3,2-0.5,4.1-0.8,6.1c-0.3,1.9,2.7,1.9,3,0c1.9-14,3.7-27.9,5.6-41.9
				c0.3-2,0.5-4.1,0.8-6.1C474.8,147.8,471.8,147.8,471.6,149.7L471.6,149.7z"/>
		</g>
	</g>
	<g>
		<g>
			<path d="M493.2,152.6c-2.2,13.8-4.4,27.7-6.7,41.5c-0.3,2-0.6,3.9-0.9,5.9c-0.3,1.9,2.6,2.7,2.9,0.8c2.2-13.8,4.4-27.7,6.7-41.5
				c0.3-2,0.6-3.9,0.9-5.9C496.4,151.5,493.5,150.7,493.2,152.6L493.2,152.6z"/>
		</g>
	</g>
	<g>
		<g>
			<path d="M520.2,161.6c-4.8,13.1-9.7,26.2-14.5,39.3c-0.7,1.9-1.4,3.8-2.1,5.7c-0.7,1.8,2.2,2.6,2.9,0.8
				c4.8-13.1,9.7-26.2,14.5-39.3c0.7-1.9,1.4-3.8,2.1-5.7C523.8,160.6,520.9,159.8,520.2,161.6L520.2,161.6z"/>
		</g>
	</g>
	<g>
		<g>
			<path d="M340.2,125.9c-0.4,6.6-0.6,13.2-0.6,19.8c-0.1,9.4-0.5,19.7,2.3,28.8c0.2,0.6,0.8,1.2,1.4,1.1
				c17.8-1.6,35.7-2.6,53.4-4.7c2.6-0.3,5.1-1.9,7.1-3.6c5.9-5,6.6-12.3,6.2-19.6c-0.4-5.5-1.9-10.3-7.1-12.9
				c-6.3-3.2-14-3.8-20.9-4.8c-13.4-2.1-26.8-3.9-40.2-5.6c-1.9-0.2-1.9,2.8,0,3c10.6,1.3,21.2,2.8,31.7,4.3c7,1,14.2,1.9,21.1,3.5
				c5.6,1.3,10.8,3.1,12,9.3c1.2,6.5,1.1,14.6-3.8,19.6c-1.4,1.4-3.2,2.6-5,3.4c-0.3,0.1-0.6,0.2-1,0.3c0.7-0.2,0.1,0-0.1,0
				c-8.9,0.8-17.8,1.6-26.6,2.3c-8.9,0.8-17.8,1.6-26.7,2.3c0.5,0.4,1,0.7,1.4,1.1c-2.7-9-2.2-19.3-2.1-28.6
				c0.1-6.4,0.2-12.8,0.6-19.2C343.3,124,340.3,124,340.2,125.9z"/>
		</g>
	</g>
	<path class="st9" d="M365.4,129.1c0,0-2.4,35.8,0,43.1"/>
	<path class="st9" d="M376.8,130.7c0,0-2.4,32.4,0,40.4"/>
	<path class="st9" d="M389.5,132.8c0,0-1.3,29.1,0,37.3"/>
	<g>
		<g>
			<path d="M341.1,129.2c-11.3-1.1-22.7-2.4-34-3.8c-20.6-2.4-41.3-5-61.7-8.5c-7.8-1.3-15.9-2.6-23.4-5.2c-0.7-0.2-1.3,0.2-1.7,0.7
				c-1.5,1.9-1.9,5-2.4,7.2c-2,9.9-2,20.3-1.7,30.3c0,0.8,0.7,1.5,1.5,1.5c11.9,0.1,23.8,0.2,35.8,0.4c21.3,0.2,42.5,0.4,63.8,0.7
				c7.9,0.1,15.9,0.2,23.8,0.3c0-1,0-2,0-3c-14,1.6-28,3.1-41.9,4.7c-22.1,2.5-44.2,5-66.3,7.4c-5.1,0.6-10.2,1.1-15.3,1.7
				c-0.9,0.1-1.4,0.6-1.5,1.5c-0.5,4.2-0.5,8.5-0.4,12.8c0.3,6.6,1.1,14,5.1,19.4c0.4,0.6,1,0.8,1.7,0.7c12.1-2.6,24.2-5.2,36.2-7.7
				c20.9-4.4,41.8-8.8,62.8-12.9c7.2-1.4,14.4-3,21.6-3.9c1.9-0.3,1.1-3.2-0.8-2.9c-16.1,2.2-32.1,6-48,9.3
				c-19.9,4.1-39.7,8.3-59.5,12.5c-4.4,0.9-8.7,1.9-13.1,2.8c0.6,0.2,1.1,0.5,1.7,0.7c-3.9-5.4-4.6-12.7-4.8-19.1
				c-0.1-3.9,0-7.8,0.4-11.6c-0.5,0.5-1,1-1.5,1.5c14-1.6,28-3.1,41.9-4.7c22.1-2.5,44.2-5,66.3-7.4c5.1-0.6,10.2-1.1,15.3-1.7
				c1.9-0.2,2-3,0-3c-16.9-0.3-33.8-0.5-50.8-0.7c-19.9-0.2-39.8-0.4-59.7-0.6c-4.3,0-8.7-0.1-13-0.1c0.5,0.5,1,1,1.5,1.5
				c-0.2-9.8-0.3-19.9,1.6-29.5c0.4-2.2,0.9-4.9,2.1-6.5c-0.6,0.2-1.1,0.5-1.7,0.7c6.6,2.3,13.5,3.5,20.4,4.7
				c9.9,1.8,19.8,3.2,29.8,4.6c19.1,2.6,38.3,4.9,57.4,7c4.1,0.4,8.2,0.9,12.4,1.3C343,132.4,343,129.4,341.1,129.2L341.1,129.2z"/>
		</g>
	</g>
	<path class="st9" d="M263.7,160.1c0,0,3.3,15.1,3.9,27"/>
	<path class="st9" d="M284.8,157.7c0,0,3.5,10.6,3.2,25.1"/>
	<path class="st9" d="M305.7,155.4c0,0,3.7,6.3,2.7,23.3"/>
	<path class="st9" d="M267.6,121.9c0,0-0.5,16.3-2,28.6"/>
	<line class="st9" x1="288" y1="124.7" x2="286.4" y2="150"/>
	<path class="st9" d="M308.6,127.2c0,0,1.3,12.9-1.4,23.5"/>
	<path class="st9" d="M399,484.3c0,0,49.8,4.4,65.2,3.5"/>
	<path class="st9" d="M495.2,333.5c-2.8-1.9-4.6-5-4.6-8.6c0-3.9,2.2-7.3,5.4-9.1"/>
</g>
</svg>
