<?xml version="1.0" encoding="utf-8"?>
<!-- Generator: Adobe Illustrator 22.1.0, SVG Export Plug-In . SVG Version: 6.00 Build 0)  -->
<svg version="1.1" xmlns="http://www.w3.org/2000/svg" xmlns:xlink="http://www.w3.org/1999/xlink" x="0px" y="0px"
	 viewBox="0 0 600 600" style="enable-background:new 0 0 600 600;" xml:space="preserve">
<style type="text/css">
	.st0{fill:#FFFFFF;stroke:#FBFFF2;stroke-miterlimit:10;}
	.st1{opacity:0.8;fill:#FFF2D7;}
	.st2{fill:#CE2828;}
	.st3{opacity:0.8;fill:#383838;}
	.st4{opacity:0.68;fill:#366962;}
	.st5{fill:#FFFFFF;}
	.st6{fill:#FFFFFF;stroke:#000000;stroke-width:2;stroke-miterlimit:10;}
	.st7{fill:#383838;}
	.st8{fill:none;stroke:#000000;stroke-width:3;stroke-linecap:round;stroke-linejoin:round;stroke-miterlimit:10;}
	.st9{fill:#FFFFFF;stroke:#000000;stroke-width:3;stroke-linecap:round;stroke-linejoin:round;stroke-miterlimit:10;}
</style>
<g id="Capa_3">
	<polygon class="st0" points="232.9,323.7 227.3,325.4 223.1,327.7 220.4,330.9 217.4,337 216,341.9 215.2,347 215.2,354.4 
		215.2,359.9 216.1,367.6 217.4,371 221.6,378.3 226.3,381.5 232.9,384.3 238.6,385.9 246.8,386.7 261.6,388.4 277.4,390.3 
		286.7,391.3 293.1,390.5 295.7,387.3 296.3,383.6 296.4,378.1 295.2,373.2 290.7,369.9 285.6,368.3 277.4,367.2 270.1,365.6 
		262.1,364.2 258,363.4 254,360.6 251.2,357.5 251.1,352.5 251.3,350.6 254,351.9 258.2,351.5 261.6,348.8 265.5,348 272.8,347.5 
		273.2,349.7 273.1,353.2 271.6,355 274.9,355.7 278.3,354 281.3,349.7 282.2,346.6 290.6,346.8 312.7,347.5 312.5,342.4 
		309.5,336.1 313.2,332.6 313.9,327.7 314,323.3 307.4,323.3 291.9,323.3 286.3,322.7 281.1,321.3 277.7,316.6 275.7,310 
		275.2,301.3 273.1,305.5 269.5,311.4 	"/>
	<circle class="st1" cx="147.9" cy="476.5" r="16.6"/>
	<circle class="st1" cx="208.4" cy="458.7" r="16.6"/>
	<circle class="st1" cx="258.3" cy="423.1" r="16.6"/>
	<polygon class="st2" points="111.8,359.3 120,361.5 128.5,361.9 130.4,365.7 133.2,369.3 132.1,373.3 130.4,375.8 127.8,382.7 
		126.8,388.5 127.3,391 120.7,391.3 108.8,393 108.4,374.1 	"/>
	<polygon class="st2" points="285.8,347 297.5,347.3 304.8,350.5 310.5,355.7 315.4,363.9 317.7,371.1 320.5,377 325.3,381.5 
		331.6,382.7 331.1,385.4 327.8,389.3 323.7,390.7 318.9,391 314,390.5 308.2,388 304.1,385.4 299.1,381.5 295.9,376.1 295.2,373.2 
		293,371.1 290.7,369.9 283,368 270.1,365.6 262.1,364.2 258,363.4 254,360.6 251,355.7 251.3,350.6 254,351.9 258.2,351.5 
		261.6,348.8 265.5,348 272.8,347.5 273.2,349.7 273.1,353.2 271.6,355 274.9,355.7 278.3,354 281.3,349.7 282.2,346.6 	"/>
	<polygon class="st3" points="277.4,286.7 279.5,290.3 282.1,291.8 286.9,292.4 292.5,292.4 296.8,292.3 301.1,292.4 303.2,293 
		306.9,294.7 310,297.7 311.6,302.3 311.6,305.3 310.8,309.2 308.6,312.5 305.6,314.6 309.1,314.6 312.7,315.4 313.5,318.5 
		314,323.3 307.4,323.3 301.1,323.4 291.9,323.3 286.3,322.7 281.1,321.3 278.9,318.5 277.7,316.6 275.7,310 275.3,305.1 
		275.2,301.3 276.7,296.3 277.3,291.8 	"/>
	<polygon class="st4" points="174.3,361.5 178,366 183.7,371.1 189.6,376.8 196.4,381.5 207.5,388.4 233.2,401.4 248.2,407.8 
		245,411.7 238.6,418.6 231.7,425 221.6,432.9 211.3,439.7 204.2,442.8 193.8,448.4 188.9,450.5 180.4,453.6 174.3,455.5 
		167.5,457.5 155.1,460.3 144.2,462.4 127.3,464.2 108.9,465 110.3,459.5 110.6,445.3 110.4,429.3 110.8,413.3 110.8,393 116.1,392 
		127.3,391 128.9,396.4 133.2,402.3 139.7,407.3 146.6,409.8 154.1,409.4 160.1,407.4 165.7,403.4 169.4,399.5 172,392.3 172.6,385 
		172,379 168.5,374.1 166,371.1 169.4,368.2 	"/>
	<polygon class="st4" points="123.7,465.1 90.4,520.3 152.7,520.3 193.8,448.4 184.4,452.1 174.3,455.5 164.6,458.2 155.1,460.3 
		157.8,463.4 161.3,466.6 164,474.2 164.6,476.5 162.6,484.4 159.2,488.4 154.1,491.8 147.9,493.2 144.2,492.8 140.4,491.5 
		136.3,488.8 133.2,486.1 131.3,480.2 131.1,474.2 133.2,468.1 137.7,463.1 	"/>
	<polygon class="st1" points="172.6,485.8 240.7,482.5 241.6,487.5 243.9,494.2 245.7,501 245.7,504.4 245.7,508.7 242,512.2 
		238.6,513.3 233.3,513.3 229.2,512.2 226.3,509.1 225.9,511.8 222.9,514.6 216.8,515.8 213.4,515.7 209.6,514.6 205.7,511.3 
		203.3,514.6 197.3,516.3 191.8,516.3 185.3,514.1 183.4,509.8 182,513.3 178.6,515.6 172.6,515.8 165.5,515.7 161.9,513.3 
		159.8,507.9 	"/>
	<polygon class="st0" points="281.1,429.9 299.1,438.3 296.9,443.9 301.1,446 308.2,449.7 315.2,453.2 317.7,450.1 321.1,447.9 
		325,446.7 331,447.1 335.7,449.6 338.9,453.2 340.6,457.5 340.6,463.3 339.5,466.6 336.7,470.4 333.1,472.9 327.1,474.3 330,476.5 
		331.6,480.6 331.4,485.8 330.4,488.8 327.3,493.2 321.1,496.6 315.9,497 314.8,501 313.2,506.2 310.3,509.8 306.3,512.2 
		301.1,513.3 295.8,512.2 291.8,509.8 288.7,505.9 287.3,501.4 287.6,495.7 288.6,493.1 271.1,482.5 265,487.6 254.5,479.4 
		249.4,474.1 256.3,465.7 264.8,454.7 	"/>
	<polygon class="st0" points="341,465.7 346.1,465.7 349.9,467.6 354.7,470 360.1,473.8 363.9,477.4 366.5,481.3 368.4,485.7 
		369.7,491.1 371.3,497 372.8,501.4 360.4,514.1 357.8,513.3 354.5,510.1 353.3,507.8 352.4,502.3 351.9,497 350.8,492.9 
		347.9,488.8 343.8,486.1 340.6,485.1 337.4,484.6 333.7,483.6 331.6,480.6 330,476.5 327.1,474.3 334.3,472.1 	"/>
	<polygon class="st0" points="393.9,425 388.2,427.9 385.5,429.1 381.5,430.7 378.1,433.7 376.5,437 376.1,442.1 378.7,446.6 
		380.8,448.4 385,450.1 388.8,450.1 393.9,447.5 398.6,443.6 404.4,436.8 413.7,446.8 409.7,448.4 405.1,451 401.4,453.7 
		398.2,457.5 396.9,462.5 397.8,466.6 399.9,469.8 403.4,472.1 408.2,472.9 413.7,470.4 417.7,465 422.5,457.5 432.1,446.9 
		445.7,433.7 441.5,427.3 436.1,420.5 427.6,411 421.1,404.7 417.1,408.3 406.2,417 	"/>
	<polygon class="st5" points="141.9,330.9 142.4,333.1 142.9,337.9 142.8,344.8 142.9,348.8 144.2,351 146.4,352.3 151.3,352.5 
		155.2,351.9 157.8,351 158.9,345.5 159.1,336.7 163.9,336.8 168.5,336.7 170.3,339.4 173.1,344.2 174,347.5 174.7,353.2 
		174.7,357.2 173.7,359.9 170.7,366.4 166,371.1 168.5,374.1 170.7,377.1 172.3,383.6 172.6,390.5 171.3,394.2 169.4,399.5 
		165.7,403.4 161.8,406.5 156.3,408.9 149.1,409.9 146.6,409.8 139.7,407.3 134.7,403.9 130.9,399.1 127.3,391 126.8,385 
		130.4,375.8 134.7,370.4 133.2,369.3 128.5,361.9 126.8,354.6 126.8,348.8 128.5,344.2 131.2,339.4 134.7,335.4 	"/>
	<polygon class="st5" points="431.2,255.9 485.4,254.9 483.8,257.3 483,259.1 483.6,261 485.8,263.3 485.8,265.8 484.8,268.3 
		485.8,270.6 487,272.3 487,274.4 485.4,277.7 484.9,280.5 487,283 488.2,285.1 487.5,288 485.9,289.5 485.4,292.5 486.8,294.2 
		487.1,297.4 485.8,299.9 484.4,301.8 485.4,303.7 486.1,306.4 485,309 483.9,311.4 485.4,315.2 469.5,315.2 460.7,315.8 
		451.3,316.6 438.1,318.3 437.5,315.8 439.1,313.1 439,310.8 437.2,308.8 436.2,305.8 437.5,301.7 435.6,300.1 433.8,297.6 
		434.7,294.2 434.1,291.8 432.5,289.6 433.1,285.8 433.4,282.6 431.2,278.8 431,275.7 433.1,272.2 431.8,270.3 429.9,268.3 
		429.9,265.1 432.7,262.5 432.8,261.1 430.5,258.4 	"/>
	<polygon class="st5" points="462.3,344 488,343.5 487.5,360.9 471.2,362.7 473.4,364.3 473.3,366.8 470.3,368.8 465.3,369.9 
		458.3,371.8 453.5,373.4 451.1,371.8 450.8,369.2 452,366.2 453.3,364.2 452.9,361.9 455.3,358.4 458.3,355.7 461.4,351.9 462,347 
			"/>
	<polygon class="st5" points="439.7,343.4 444.8,336.7 448.1,332.8 452,328.3 455.3,326.3 457,327.1 458,328.4 458.6,331.4 
		457.4,334.9 454.5,338.4 449.8,344.8 447.1,347.5 444.3,348.7 441.7,348.7 439.8,347 	"/>
	<polygon class="st5" points="451.1,382.7 452,380.2 455.3,377.8 466.6,375.3 472.3,374.5 474.2,376.5 474,380 472.5,381.7 
		468.6,382.3 465.6,382.4 461.9,383.4 457.4,385.4 453.4,385.3 	"/>
	<polygon class="st5" points="450.4,397.9 451.1,395.3 454.8,393.6 459.3,391.6 465.3,390.6 473.3,389.7 475.1,389.3 474.9,391.6 
		474.4,394.6 472.5,396.5 469.4,397.9 466.6,397.9 462.2,398.4 457.4,399.9 455.3,401.3 452.6,401.3 450.8,400.3 	"/>
	<polygon class="st5" points="452,411.4 452.6,408.3 455.3,407.2 459.3,405.6 464.7,404.1 469.5,403.2 473.9,402.6 475.7,404.7 
		475.7,406.2 475.1,408.4 471.8,409.5 468.1,409.6 465,410.7 462,411.4 458.1,413 456,414.4 453.6,414.3 	"/>
	<polygon class="st5" points="458.6,418.4 463.9,417.2 471.8,415.6 478.1,415 481.3,415.1 484.4,416 488.2,418.6 490,421.1 
		491.8,425 493.3,429.8 495.4,435 498.2,439.7 502.5,446.7 506.2,452.2 513.3,462 511.2,464.3 506.7,468 500.9,471.3 491.2,476 
		484.4,478.5 477.5,480.7 474.9,475.4 470.5,465.7 466.8,456.3 463.2,445.5 460.3,434 	"/>
	<path class="st3" d="M301.1,205.3c0,0-34.4,7.7-38.3,50.2c0,0,7.7,7.3,11.1,14.4c0,0-13.2-18.8-36.3-17.2c0,0-25.6,2.3-31.8,29.6
		c0,0-5.9,28.5,26,41c0,0-15.6,0.7-16.8,27.7c0,0-1.9,27.9,14.1,32.5l-32.1-6.5c0,0-19.4-4.9-22.1-19.9c0,0,2.2-11-6.2-20.5h-9.3
		l-0.2,10.2c0,0,0,7.2-6.2,6.3c0,0-9.8,1-9.8-6.3l-1-16l-5,2.8l-4.8,4.2l-3.3,5.8l-2,7.3l1.6,10.9l-8.4-0.5l-12.7-3.6
		c0,0,0.8-53,2.5-84.3c0,0-0.5-51.9,79-77.2C188.9,196.3,238.6,185.5,301.1,205.3z"/>
	<polygon class="st3" points="235.7,464.2 240.7,482.5 172.6,485.5 192.5,450.2 191.9,456.6 192.5,463.4 195.3,469.8 199.7,472.9 
		205.6,475.3 210.6,475.2 215.3,473.8 220.3,470.4 223.9,463.4 225,455.6 221.6,448.4 216.8,443.9 208.4,442.1 215.2,437.2 
		224.7,430.5 231.7,425 245,411.7 242.7,418.9 241.6,424.3 243.3,430.5 248.2,436.4 253.2,439 258.3,439.8 264.4,438.6 269.3,435.6 
		272.4,431.9 273.9,426.6 281.1,429.9 278.2,434.6 273.9,442.8 269.1,448.6 266.7,452.1 262.1,458.4 258.2,463.3 252.6,469.8 
		248.3,474.2 	"/>
	<polygon class="st3" points="331.6,480.6 334,483.6 338.7,484.1 344.5,486.5 348.8,489.8 350.8,493.1 352.2,497.9 352.2,504.4 
		353.3,507.9 347.1,512.1 342.5,515.1 338.7,515.1 333.7,514.5 329.7,513.3 323.7,510.5 314,504.4 314.9,500.3 314.9,496.7 
		318.9,496.7 323.7,495.1 327.4,493.1 330.1,488.8 331,484.4 	"/>
	<polygon class="st3" points="341,465.7 376.1,443.6 379.3,447.2 382.5,450.1 386.5,450.1 391.8,448.7 398.6,443.6 402.8,438.9 
		403.9,435.7 413.7,446.8 408.6,449 403.5,452.1 400.4,454.7 398.2,457.5 396.9,462.5 397.8,466.6 401.4,472.1 372.8,501.4 
		371.5,497.9 369.1,490.8 367.8,484 364.9,478.9 360.8,474.3 355.7,470.8 350.7,467.4 	"/>
	<polygon class="st6" points="100.6,184.1 93.8,159.6 89.7,140.7 87.8,125.8 88.4,120.9 91.3,115.2 94.2,112 99.6,108.9 
		106.7,107.2 110,107.2 109.8,99.6 109.1,93.4 107,88.4 103.9,83.1 100.7,79.8 96.6,77.6 93.4,76.2 90.3,73.6 89.8,70.8 91.4,67.9 
		94.3,66.1 98.9,65.5 102.8,66.1 106.6,67.1 111.9,69 117.7,72.6 122.1,77.2 124.2,80.4 126.4,85.3 127.7,89.8 128.4,94.3 
		129.6,89.3 131.7,82.2 134.6,76.4 137.1,72.8 142,68.1 147.8,64.9 153.3,63.5 158.8,63.5 162.8,64.7 163.9,67 163.9,69.7 
		162.8,71.5 160.8,73.6 157.5,75.2 153.5,77.4 150.8,80.1 148.7,83.5 147.9,86.7 146.9,91.8 146.6,96.9 146.9,103.8 147.2,106.3 
		151,105.9 156.4,105.4 160.1,106.3 164.7,107.9 168.1,110.9 170.1,114.9 171.7,118.6 171.7,122.3 171.2,128.1 170.2,133.8 
		160.1,184.7 160.6,188.2 161.1,192.9 161,196.6 160.5,200.5 159.4,203.9 156.6,209.7 154.6,212.7 150.1,217.4 145.7,220.5 
		142.4,222.1 139.1,223.3 134.9,224.1 129.8,224.5 122.9,223.6 118.9,222.3 114.4,220.1 110.7,217.4 107.2,214 104.1,209.7 
		101.7,204.5 99.9,197.7 99.9,191.4 	"/>
	<polygon class="st2" points="431.2,255.9 433.6,253.9 434.1,252.5 434.1,249.7 432.7,248.2 432.7,246 434.1,243.9 435.6,241.1 
		434.2,237.7 434.1,236.1 435.1,234.4 437,233 437,231.4 436.4,229.5 436.4,227.6 437.9,225.3 439.9,223.9 440.7,222.2 440.3,218.7 
		440.7,216.5 442.7,215.9 444.5,215.1 446,213.4 446.2,211.2 446.4,208.9 448.1,207 450.4,205.8 450.9,203.1 451.5,200.1 
		453.4,198.5 455.6,197.8 457,196.3 458.3,198.5 460.6,200.1 462.5,201.2 463.1,203.7 464.4,205.7 467.1,207 468.4,208.3 
		469.2,211.8 470.9,214 472.7,214.6 473.5,216.7 473.3,218.8 474.1,220.5 476.5,221.8 477.7,224.1 477,226.8 477.3,229.9 
		479.3,231.4 481.6,234 481.6,236.4 480.8,239.7 482.8,241.2 483.5,243.5 483.1,245.3 483.5,248.2 485.4,251.9 485.4,253.8 
		484.7,255.4 	"/>
	<polygon class="st2" points="431.8,320.2 441,317.8 452.6,315.8 471.7,315.8 490.9,316.3 489.8,324.2 488.2,336.7 488,343.5 
		462.3,344 462.3,340.3 461.2,336.7 458.3,332.8 458.6,329.9 457,327.1 454.5,326.8 451.6,328.7 440.1,342.9 440.1,346.3 438.3,347 
		436.5,334.8 433.9,327.4 	"/>
	<path class="st2" d="M477.5,480.7c0,0,24.6-6.3,35.8-18.6l9.2,11.7l6.5,7.9l5.8,6.8l13,14.5l-5.2,4.7l-10.4,7.1l-10.9,6l-13.8,6.3
		l-12.4,4.9l0.7-4.2l-1.2-5.8l-1.3-6.8l-3.8-9.3l-5.2-11.4L477.5,480.7z"/>
	<path class="st3" d="M421.1,404.7l5.1-5.2l3.6-6.2l1.9-5.3l1.5-8.2v-8.5l-0.5-10l0.5-5.8l2.3-6l4.4-3.4l2,2.1l5-1l3.2-3.2l3.7-5.2
		l4.3-6.4l2.9,3.9l1.1,3.7l0,3.6l-0.9,6.2l-0.9,2.3l-2.1,4.7l-4.3,2.6l-1.4,3.4l-1.8,6l1.2,4.2l1.8,2.8l3.6,0.8l-5.4,3.2l-0.9,2.5
		l1.3,2.6l-0.4,3.1l2.9,2.4l3.7,0.7l-3.3,1.8l-4.2,1.9l-0.8,2.6l1.6,3.4l3.3,3.4l5.7,0.4l-5.7,2.1l-2.7,1.8l-0.4,3.1l2.4,2.2
		l1.4,2.1l2.5,1.9v6.7h-3.3l-9.6,8.9C445.7,434,440.5,422.7,421.1,404.7z"/>
	<polygon class="st7" points="471.2,362.7 485,361.5 491.8,361.5 496.1,362.7 498.6,365.2 500.5,370 500.8,372.9 499.8,376.9 
		502.4,379.1 503.7,383.4 503.7,387 502.4,390.4 500.9,392.1 502.6,394 504.2,397.9 503.5,402.6 501.1,405.5 498.5,407.4 
		499.5,410.6 499.2,413.8 498.1,416.5 495.2,418.8 490.3,420.3 488.2,418.6 485.2,416.1 479.5,415 475.1,415.1 467.2,416.2 
		460,418.4 457.1,417.8 454.6,414.4 458,412.9 462.2,411.3 464.8,410.1 469.8,409.7 474.5,409.1 475.8,407.6 475.9,405.1 
		475.1,403.2 473,402.1 469.5,403.2 462.7,404.7 458.6,405.1 455.3,404.7 452,401.3 456,400.5 460,399 464,397.9 469.3,397.6 
		472.1,396.6 474.4,394.6 475.1,389.3 469.3,389.3 464.6,390.8 458.6,391.6 456,391.2 452,388.5 452.4,385.4 454.6,385.3 
		457.9,384.5 461.9,383.4 465.9,382.5 470.9,381.8 473.4,380.8 474.4,378 474.1,374.9 468.5,375.3 462.2,376.4 457.4,377 
		453.8,376.2 452.2,375.3 452,373.4 456,372.5 462.2,370.6 467.2,369.7 469.8,369 472.8,367.8 473.9,366.2 473.4,364.3 	"/>
</g>
<g id="Capa_2">
	<g>
		<circle class="st5" cx="241.4" cy="289" r="35.9"/>
		<g>
			<path d="M275.7,289c-0.1,14.3-9.2,27.5-22.8,32.4c-13.5,4.8-28.9,0.6-38-10.5c-9.2-11.1-10.4-27.3-3-39.6
				c7.4-12.3,22.1-18.8,36.2-16C264.1,258.6,275.6,272.8,275.7,289c0,1.9,3,1.9,3,0c-0.1-15.5-9.8-29.6-24.4-35
				c-14.7-5.5-31.9-0.9-41.8,11.3c-9.9,12.1-11.3,29.6-3.2,43c8.1,13.4,23.9,20.4,39.2,17.4c17.4-3.4,30-19.1,30.1-36.7
				C278.8,287.1,275.8,287.1,275.7,289z"/>
		</g>
	</g>
	<g>
		<g>
			<path d="M219.9,284.3c0.2,11.7,9.6,21.5,21.5,21.5c11.9,0,21.3-9.8,21.5-21.5c0-0.8-0.7-1.5-1.5-1.5c-13.3,0-26.6,0-40,0
				c-1.9,0-1.9,3,0,3c13.3,0,26.6,0,40,0c-0.5-0.5-1-1-1.5-1.5c-0.2,10.1-8.3,18.5-18.5,18.5c-10.2,0-18.3-8.4-18.5-18.5
				C222.9,282.4,219.9,282.4,219.9,284.3z"/>
		</g>
	</g>
	<circle class="st8" cx="242.5" cy="288.4" r="4.1"/>
	<path class="st8" d="M211.1,309.4c0,0-18.9,7.9-17.4,27.5c1.6,19.5,20.9,25.2,20.9,25.2"/>
	<g>
		<g>
			<path d="M232.7,322.3c-6.2,0.3-11.8,4.9-14.8,10c-3.8,6.3-4.9,14.1-4.8,21.4c0,5.5,0.3,11.5,2.1,16.8c1.9,5.6,5.6,10.5,10.8,13.5
				c5.2,3,10.9,3.3,16.7,4c12.4,1.4,24.8,2.9,37.2,4.3c2,0.2,4.1,0.5,6.1,0.7c0.9,0.1,0,0,0.4,0.1c1.1,0.1,2.2,0.2,3.3,0.1
				c3.4-0.3,6.4-2.2,7.5-5.5c0.8-2.5,0.6-5.3,0.6-7.9c0-0.9,0.2-2.2-0.1-3.1c-0.2-0.6-0.8-1.1-1.4-1.1c0,0,0,0,0,0
				c-0.5,0-1.1,0.3-1.3,0.7c-0.2,0.4-0.2,0.6-0.2,1c-0.1,1.7,2.7,2.1,2.9,0.4c0.8-5.7-5-8.9-9.7-9.9c-8.3-1.7-16.6-3.1-24.9-4.8
				c-4.3-0.9-8.7-1.4-10.4-6.4c-0.7-1.9-0.2-4,0-6c0.2-1.8,0.5-3.8,1.3-5.4c1.7-3.4,5.8-4,9.2-4.3c13.2-1.3,26.5-1.9,39.8-2.5
				c0.4,0,0.8-0.1,1.1-0.1c-0.9,0,1,0.1,1.2,0.1c2.5,0,5.1-0.6,7-2.2c3-2.6,2.9-6.4,3-10.1c0.1-3.2,0.4-7-1.3-9.9
				c-1.9-3.2-5.5-3-8.7-3c-1.6,0-3.3-0.1-4.9-0.1c-0.6,0-1.9,0-1.9,0c-3.1-0.4-6.3-2.3-5.8-5.8c0.5-3.5,3.3-4.7,6.3-3.4
				c1.8,0.7,2.6-2.2,0.8-2.9c-5.9-2.4-11.7,2.9-9.9,9.1c1.3,4.8,6.6,6,10.9,6.1c1.4,0,2.8,0.1,4.2,0.1c1.6,0,3.4-0.4,4.9,0.3
				c3.2,1.4,2.4,6.8,2.4,9.6c-0.1,3.9-0.1,8-4.6,9.1c-0.9,0.2-1.9,0.3-2.9,0.2c-0.9,0-0.1-0.1-0.9-0.1c-5.1,0.1-10.3,0.5-15.5,0.8
				c-7.8,0.4-15.6,0.9-23.3,1.6c-3.4,0.3-7,0.5-10,2.2c-3,1.6-4.4,4.5-5.1,7.8c-0.7,3.6-1.4,7.7,0.2,11.1c1.3,2.6,3.7,4.7,6.3,5.8
				c1.6,0.7,3.5,0.9,5.2,1.2c4.7,0.9,9.4,1.9,14.2,2.8c2.5,0.5,5,1,7.5,1.4c2.6,0.5,5.3,0.7,7.6,1.9c1.5,0.7,2.9,1.9,3.4,3.5
				c0.1,0.4,0.2,0.7,0.2,1.1c0,0.2-0.1,1.1,0,0.3c1,0.1,2,0.3,2.9,0.4c0-0.3-0.2,0.5-0.2,0.5c-0.4,0.2-0.9,0.5-1.3,0.7c0,0,0,0,0,0
				c-0.5-0.4-1-0.7-1.4-1.1c-0.2-0.5,0-0.1,0,0.2c-0.1,0.4,0,1.2,0,1.6c0,2.3,0.2,4.8-0.3,7c-0.8,2.9-3.4,4-6.1,3.9
				c-2.1,0-4.7-0.5-7-0.8c-11.7-1.4-23.5-2.7-35.2-4.1c-4-0.5-8.4-0.5-12.3-1.5c-6.4-1.6-11.6-5.6-14.5-11.5
				c-0.8-1.6-1.4-3.3-1.7-5.1c-0.4-1.7-0.6-3.6-0.8-6c-0.8-7.8-0.8-16.3,2.2-23.7c1.8-4.4,4.8-8.3,9-10.5c1.2-0.6,2.4-1.1,3.7-1.4
				c0.4-0.1,0.8-0.2,1.2-0.2c-0.5,0.1,0,0,0.1,0C234.6,325.2,234.6,322.2,232.7,322.3L232.7,322.3z"/>
		</g>
	</g>
	<g>
		<g>
			<path d="M181.3,299.2c-4.4-13.4-2.2-30.1,7.8-40.4c5.6-5.8,13-9.2,20.7-11.4c1.9-0.5,1.1-3.4-0.8-2.9
				c-12.8,3.6-24.3,11.1-29.5,23.7c-3.4,8.2-3.8,17.4-2.3,26.1c0.3,1.9,0.7,3.8,1.3,5.6C179,301.9,181.9,301.1,181.3,299.2
				L181.3,299.2z"/>
		</g>
	</g>
	<g>
		<g>
			<path d="M215,246.2C215.3,246.1,214.9,246.2,215,246.2c0.3,0,0.7-0.1,1.1-0.1c1.2-0.1,2.5-0.2,3.7-0.3c4.1-0.2,8.1-0.2,12.2,0.2
				c10.9,0.9,22.2,4.1,30.5,11.6c5.7,5.2,9.3,12,11.2,19.5c0.5,1.9,3.4,1.1,2.9-0.8c-3.2-13.3-12.2-23.5-24.8-28.8
				c-9.6-4-20.3-5.2-30.5-4.8c-2.3,0.1-4.6,0.2-6.9,0.6C212.3,243.6,213.1,246.4,215,246.2L215,246.2z"/>
		</g>
	</g>
	<path class="st8" d="M277.2,286.9c0,0,1,5.6,8.5,5.6c6.2,0,11,0,11,0s14.8-1.2,14.8,11.8c0,10.4-7.9,10.4-7.9,10.4"/>
	<g>
		<g>
			<path d="M173,357.3c0.1,2.9,1.9,5.8,3.6,8c5.5,6.9,14.2,10.8,22.3,13.4c9.1,3,18.6,4.6,28.1,5.7c1.9,0.2,1.9-2.8,0-3
				c-13.4-1.5-27.7-4-39.5-10.9c-4.4-2.6-9.3-6.5-11-11.1c-0.2-0.6-0.4-1.2-0.5-1.8c-0.1-0.6,0,0.2,0-0.3
				C175.9,355.4,172.9,355.4,173,357.3L173,357.3z"/>
		</g>
	</g>
	<g>
		<g>
			<path d="M159.3,307.9c-3.7-0.2-7,1.4-7.7,5.3c-0.4,2.1-0.2,4.7,0.8,6.6c2.1,3.8,5.3,5.2,9.6,5.2c5.5,0,9.8-2.5,11.2-8
				c2.9-11.8-1.1-26.6-14.3-29.6c-8.3-1.9-18-0.4-23.6,6.5c-3,3.7-4.6,8.6-4.9,13.3c-0.4,6.4,1.8,13.2,5.5,18.3
				c1.7,2.4,3.9,3.7,4.4,6.1c1.1,4.4,1.2,9.4,1.1,14c-0.1,2.5,0.1,5.1,2,6.9c2.5,2.4,6.8,1.6,10,1.7c2.2,0,4.2-0.8,5.5-2.7
				c2.1-2.9,1.4-7.2,1.5-10.6c0-1.3,0.1-2.7,0.1-4c-0.5,0.5-1,1-1.5,1.5c4,0,8.8,0.8,12.6-0.6c7.6-2.8,8.1-15,1-18.7
				c-1.7-0.9-3.2,1.7-1.5,2.6c5.6,2.9,4.3,13-2.2,13.7c-3.2,0.3-6.6,0-9.9,0c-0.8,0-1.5,0.7-1.5,1.5c-0.1,2.5-0.2,5-0.2,7.5
				c0,2.5,0.2,5.9-2.8,6.7c-0.5,0.2,0.1,0-0.1,0c-0.5,0-1.1,0-1.6,0c-1.4,0-2.8,0-4.2,0c-3.3,0.1-4.2-2-4.2-4.9c0-0.1,0-1,0-0.3
				c0.1-1.3,0-2.7,0-4c-0.1-2.4-0.2-4.8-0.5-7.2c-0.2-1.9-0.4-4.2-1.3-6c-0.1-0.3-0.2-0.5-0.4-0.7c-1.8-2.3-3.9-4.1-5.3-6.8
				c-1.9-3.4-3-7.3-3.3-11.1c-0.6-7.5,2.8-15.7,10-18.9c6.9-3.1,17.3-2.3,22.7,3.4c3.8,4,4.9,9.9,4.9,15.3c0,1.3-0.2,3-0.3,3.9
				c-0.3,2.5-0.9,5.2-3,6.8c-2.3,1.7-6.1,1.7-8.8,1.1c-2.3-0.6-3.9-2.7-4.3-4.9c-0.6-3.6,0.7-6.1,4.7-5.9
				C161.3,311,161.2,308,159.3,307.9L159.3,307.9z"/>
		</g>
	</g>
	<path class="st8" d="M168.3,336.8l1.8,2.7c2.8,3.9,4.4,8.7,4.4,13.8c0,13.2-10.7,23.9-23.9,23.9s-23.9-10.7-23.9-23.9
		c0-9.3,5.3-17.3,13-21.3l2.1-1"/>
	<path class="st8" d="M165.8,371.3c4.1,4.1,6.6,9.8,6.6,16c0,12.5-10.1,22.6-22.6,22.6c-12.5,0-22.6-10.1-22.6-22.6
		c0-6.3,2.5-11.9,6.6-16"/>
	<path class="st8" d="M145.3,377.3v11c0,0-0.2,4.7,2.8,4.7c1.8,0,4.6,0.9,4.5-3.9c-0.1-5.9,0-11.9,0-11.9"/>
	<path class="st8" d="M205.5,282.5c0,0-27.2,5.7-33.7,37.1"/>
	<path class="st8" d="M275.7,299.6c0,0-4.4,23.6,13.6,23.8c17.9,0.2,24.6,0,24.6,0"/>
	<path class="st8" d="M251,351.4c0,0,5.3,2.2,10.4-1.4c5.1-3.6,10.5-2.2,10.5-2.2"/>
	<g>
		<g>
			<path d="M264.6,340.5c2.1,1,4,2.7,5.3,4.6c0.9,1.4,3.5,7.5,0.6,8.4c-1.2,0.4-1.5,2-0.4,2.7c4.8,3.1,9.9-0.9,12.1-5.2
				c2.4-4.7,1.2-10.5-3-13.9c-1.5-1.2-3.6,0.9-2.1,2.1c2.7,2.2,4.1,5.8,2.9,9.2c-1.1,3.2-4.8,7.5-8.4,5.2c-0.1,0.9-0.2,1.8-0.4,2.7
				c4.5-1.4,3.8-6.9,2.4-10.4c-1.3-3.4-4.3-6.5-7.6-8.1C264.4,337,262.9,339.6,264.6,340.5L264.6,340.5z"/>
		</g>
	</g>
	<circle class="st9" cx="320.9" cy="291.3" r="12.9"/>
	<circle class="st9" cx="323.5" cy="312.6" r="12.1"/>
	<circle class="st9" cx="348.7" cy="319.7" r="13.2"/>
	<circle class="st9" cx="346.9" cy="286.9" r="13.2"/>
	<g>
		<path class="st5" d="M409.5,262.7c0,0,3.4,9.4,3.9,31.6l-42.2-1.8c0,0-11.9,0.8-11.2-8.2c0.7-9,4.9-8.8,14.9-11.5
			S409.5,262.7,409.5,262.7z"/>
		<g>
			<path d="M408.1,263.1c0.8,2.3,1.3,4.8,1.7,7.3c1.4,7.9,2,16,2.2,24c0.5-0.5,1-1,1.5-1.5c-13.3-0.6-26.6-1.1-39.9-1.7
				c-4.2-0.2-11,0.4-11.9-5c-0.4-2.2,0.2-5.4,1.5-7.2c1.2-1.6,3.3-2.2,5.1-2.8c4.8-1.4,9.8-2.5,14.6-3.9c9-2.6,18-5.3,27-8.1
				c1.8-0.6,1.1-3.5-0.8-2.9c-8.5,2.6-17,5.2-25.6,7.7c-5.2,1.5-10.5,2.8-15.8,4.3c-4.4,1.3-7.7,3.4-8.7,8.1
				c-1,4.8-0.1,9.4,4.7,11.5c2.4,1.1,5,1.2,7.6,1.3c6.6,0.1,13.2,0.6,19.8,0.8c7.4,0.3,14.9,0.6,22.3,1c0.8,0,1.5-0.7,1.5-1.5
				c-0.2-8.1-0.8-16.3-2.2-24.3c-0.5-2.6-0.9-5.2-1.8-7.7C410.3,260.5,407.4,261.2,408.1,263.1z"/>
		</g>
	</g>
	<g>
		<path class="st5" d="M413.5,332.9c0,0-2.3,9.7-13.9,28.7l-34.5-24.4c0,0-10.1-4.3-4.9-12.9c4.6-7.8,8.9-4.8,18.8-1.6
			S413.5,332.9,413.5,332.9z"/>
		<g>
			<path d="M412,332.5c-0.6,2.4-1.6,4.8-2.5,7c-3.1,7.4-7,14.5-11.2,21.3c0.7-0.2,1.4-0.4,2.1-0.5c-10.6-7.5-21.2-15-31.8-22.6
				c-3.8-2.7-9.8-5.2-7.9-10.9c0.8-2.3,2.6-5.1,5-5.8c2.2-0.6,4.7,0.3,6.7,1c4.9,1.6,9.8,3.3,14.7,4.8c8.6,2.6,17.3,5.1,25.9,7.5
				c1.9,0.5,2.7-2.4,0.8-2.9c-8.2-2.3-16.4-4.7-24.5-7.1c-5.4-1.6-10.8-3.4-16.2-5.2c-4.5-1.5-9-2.2-12.4,1.7
				c-3.4,3.8-4.9,9.2-1.6,13.5c1.5,1.9,3.4,3,5.4,4.2c5.7,3.6,11.1,7.9,16.6,11.8c5.9,4.2,11.8,8.3,17.6,12.5
				c0.7,0.5,1.7,0.1,2.1-0.5c4.2-7,8.2-14.1,11.3-21.6c1-2.4,2.1-4.9,2.7-7.5C415.4,331.4,412.5,330.6,412,332.5z"/>
		</g>
	</g>
	<g>
		<g>
			<path d="M282,348.2c10.2,0.3,20.3,0.6,30.5,0.9c0.9,0,1.4-0.7,1.5-1.5c0.3-4-0.1-8.7-2.8-11.8c-1.2-1.5-3.4,0.7-2.1,2.1
				c2.1,2.5,2.1,6.6,1.9,9.7c0.5-0.5,1-1,1.5-1.5c-10.2-0.3-20.3-0.6-30.5-0.9C280.1,345.2,280.1,348.2,282,348.2L282,348.2z"/>
		</g>
	</g>
	<g>
		<g>
			<path d="M279.4,338c0,0.8,0,1.7,0,2.5c0,0.8,0.7,1.5,1.5,1.5c0.8,0,1.5-0.7,1.5-1.5c0-0.8,0-1.7,0-2.5c0-0.8-0.7-1.5-1.5-1.5
				C280.1,336.5,279.4,337.2,279.4,338L279.4,338z"/>
		</g>
	</g>
	<line class="st8" x1="290.4" y1="338" x2="290.4" y2="347"/>
	<line class="st8" x1="300.9" y1="337" x2="300.9" y2="347"/>
	<g>
		<g>
			<path d="M295.7,348.6C296,348.7,295.7,348.6,295.7,348.6c0.3,0,0.6,0.1,0.9,0.2c1,0.2,2.1,0.5,3.1,0.9c3.4,1.3,6.4,3.6,8.8,6.3
				c3.6,4,6.1,9.3,7.3,14.5c0.6,2.4,1.3,4.7,2.7,6.8c3,4.4,7.6,6.7,12.9,7c-0.5-0.5-1-1-1.5-1.5c0.1,8.3-12.6,7.1-17.8,5.4
				c-7.2-2.4-13.8-8.6-16.2-15.9c-0.6-1.8-3.5-1-2.9,0.8c1.9,6,6.5,11.5,11.7,14.9c6.7,4.4,20.4,8.1,26.2,0.4c1.2-1.5,2-3.6,2-5.5
				c0-0.9-0.7-1.4-1.5-1.5c-4.9-0.4-9-2.8-11.2-7.1c-1.2-2.4-1.6-5.1-2.4-7.6c-2.8-8.5-8.4-16.2-16.9-19.6c-1.6-0.7-3.4-1.2-5.2-1.4
				C293.8,345.5,293.8,348.5,295.7,348.6L295.7,348.6z"/>
		</g>
	</g>
	<g>
		<g>
			<path d="M302.6,203.3c-14.9,3.2-28.4,15-35.1,28.3c-3.8,7.5-5.7,15.7-6.5,24.1c-0.2,1.9,2.8,1.9,3,0c1.1-13.2,5.8-25.9,15.2-35.4
				c5.5-5.6,12.4-10.1,19.8-12.8c1.4-0.5,2.9-1,4.4-1.3C305.3,205.7,304.5,202.9,302.6,203.3L302.6,203.3z"/>
		</g>
	</g>
	<g>
		<g>
			<path d="M290,198.8c-4.4,1.3-8.5,3.9-12.1,6.6c-8.8,6.6-15.2,15.6-19.4,25.8c-0.7,1.8,2.2,2.6,2.9,0.8c4-9.6,10.3-18.4,18.9-24.6
				c3.2-2.3,6.8-4.6,10.6-5.7C292.6,201.1,291.8,198.2,290,198.8L290,198.8z"/>
		</g>
	</g>
	<g>
		<g>
			<path d="M275.2,195.4c-12.4,6.8-21.7,20-25.6,33.3c-0.5,1.9,2.4,2.7,2.9,0.8c3.6-12.6,12.5-25.1,24.2-31.5
				C278.4,197.1,276.9,194.5,275.2,195.4L275.2,195.4z"/>
		</g>
	</g>
	<g>
		<g>
			<path d="M264,193.3c-10.6,8.7-19.5,21.3-22.9,34.6c-0.5,1.9,2.4,2.7,2.9,0.8c3.2-12.8,11.9-25,22.1-33.3
				C267.6,194.2,265.4,192.1,264,193.3L264,193.3z"/>
		</g>
	</g>
	<g>
		<g>
			<path d="M251.6,191c-9.2,9.5-15.4,23-18,35.8c-0.4,1.9,2.5,2.7,2.9,0.8c2.6-12.3,8.4-25.3,17.3-34.5
				C255.1,191.7,252.9,189.6,251.6,191L251.6,191z"/>
		</g>
	</g>
	<g>
		<g>
			<path d="M238.2,190.4c-7.7,10.5-12,24.4-12.6,37.3c-0.1,1.9,2.9,1.9,3,0c0.6-12.4,4.8-25.6,12.1-35.8
				C241.9,190.3,239.3,188.8,238.2,190.4L238.2,190.4z"/>
		</g>
	</g>
	<g>
		<g>
			<path d="M227.5,190.4c-6.1,10.9-9.7,23.9-10.3,36.4c-0.1,1.9,2.9,1.9,3,0c0.6-11.9,4.1-24.4,9.9-34.9
				C231,190.2,228.4,188.7,227.5,190.4L227.5,190.4z"/>
		</g>
	</g>
	<g>
		<g>
			<path d="M215.3,192.3c-5.5,10.5-6.7,23.8-6.3,35.3c0.1,1.9,3.1,1.9,3,0c-0.3-8.4,0.5-16.8,2.7-25c0.8-3,1.7-6.1,3.2-8.9
				C218.8,192.1,216.2,190.6,215.3,192.3L215.3,192.3z"/>
		</g>
	</g>
	<g>
		<g>
			<path d="M202.7,194c-0.7,2.7-1,5.5-1.3,8.2c-1.1,8.9-1.4,18-1.6,27c0,1.9,3,1.9,3,0c0.1-8.9,0.5-17.7,1.5-26.6
				c0.3-2.6,0.6-5.3,1.3-7.8C206.1,192.9,203.2,192.1,202.7,194L202.7,194z"/>
		</g>
	</g>
	<g>
		<g>
			<path d="M192.2,195.1c-2.2,12.4-1.9,25.6-0.1,38c0.3,1.9,3.2,1.1,2.9-0.8c-1.8-11.9-2.1-24.5,0.1-36.4
				C195.5,194.1,192.6,193.2,192.2,195.1L192.2,195.1z"/>
		</g>
	</g>
	<g>
		<g>
			<path d="M180.9,197.8c-0.4,4.7-0.5,9.5-0.5,14.2c0.1,8,0.6,16.5,3.3,24.1c0.6,1.8,3.5,1,2.9-0.8c-2.7-7.6-3.1-15.9-3.2-23.9
				c0-4.5,0.1-9.1,0.5-13.6C184.1,195.9,181.1,195.9,180.9,197.8L180.9,197.8z"/>
		</g>
	</g>
	<g>
		<g>
			<path d="M169.7,202.7c-0.2,12.5,1,26.2,6.1,37.7c0.8,1.8,3.4,0.2,2.6-1.5c-4.9-11-5.9-24.3-5.7-36.2
				C172.7,200.7,169.7,200.7,169.7,202.7L169.7,202.7z"/>
		</g>
	</g>
	<g>
		<g>
			<path d="M158.4,208c-0.2,12.5,3.9,26,11.7,35.9c1.2,1.5,3.3-0.6,2.1-2.1c-7.2-9.2-10.9-22.1-10.8-33.8
				C161.5,206,158.5,206,158.4,208L158.4,208z"/>
		</g>
	</g>
	<g>
		<g>
			<path d="M148.2,216.8c0.8,13.7,7.5,27.8,17.4,37.1c1.4,1.3,3.5-0.8,2.1-2.1c-9.4-8.8-15.9-22.1-16.6-35
				C151.1,214.9,148.1,214.8,148.2,216.8L148.2,216.8z"/>
		</g>
	</g>
	<g>
		<g>
			<path d="M138.7,225.8c4.3,13.4,11.7,27.3,22.2,36.7c1.4,1.3,3.6-0.8,2.1-2.1c-10.2-9.1-17.3-22.4-21.4-35.4
				C141.1,223.1,138.2,223.9,138.7,225.8L138.7,225.8z"/>
		</g>
	</g>
	<g>
		<g>
			<path d="M128.3,233.1c1.5,4.6,3.8,9.1,6.3,13.2c5.9,9.8,13.7,18.2,22.8,25c1.5,1.2,3-1.4,1.5-2.6c-8.8-6.6-16.3-14.9-22-24.4
				c-2.2-3.8-4.4-7.8-5.7-12C130.6,230.5,127.7,231.3,128.3,233.1L128.3,233.1z"/>
		</g>
	</g>
	<g>
		<g>
			<path d="M120.1,243.5c2.2,5,5.3,9.7,8.6,14c7.1,9.3,16,17.1,26.6,22.2c1.7,0.8,3.3-1.8,1.5-2.6c-14.6-7-27.6-20.1-34.1-35.1
				C122,240.2,119.4,241.8,120.1,243.5L120.1,243.5z"/>
		</g>
	</g>
	<g>
		<g>
			<path d="M113.5,253.9c7.8,14.8,21.7,27.5,37.2,33.6c1.8,0.7,2.6-2.2,0.8-2.9c-14.7-5.8-28-18.2-35.4-32.2
				C115.2,250.7,112.6,252.2,113.5,253.9L113.5,253.9z"/>
		</g>
	</g>
	<g>
		<g>
			<path d="M110.6,268.2c8.7,8.8,18,17.4,28.2,24.4c1.6,1.1,3.1-1.5,1.5-2.6c-10-6.8-19.1-15.3-27.6-23.9
				C111.3,264.7,109.2,266.8,110.6,268.2L110.6,268.2z"/>
		</g>
	</g>
	<g>
		<g>
			<path d="M108.6,280.5c8.4,6.1,16.9,12.2,25.2,18.5c1.5,1.2,3-1.4,1.5-2.6c-8.3-6.3-16.7-12.4-25.2-18.5
				C108.6,276.8,107.1,279.4,108.6,280.5L108.6,280.5z"/>
		</g>
	</g>
	<g>
		<g>
			<path d="M108,292.6c7.7,4.3,15.4,8.6,23.1,13c1.7,1,3.2-1.6,1.5-2.6c-7.7-4.4-15.4-8.7-23.1-13
				C107.8,289.1,106.3,291.7,108,292.6L108,292.6z"/>
		</g>
	</g>
	<g>
		<g>
			<path d="M108,303.1c7.3,4.6,15.4,9,23.9,10.9c1.9,0.4,2.7-2.5,0.8-2.9c-8.2-1.9-16.1-6.2-23.2-10.6
				C107.9,299.5,106.4,302.1,108,303.1L108,303.1z"/>
		</g>
	</g>
	<g>
		<g>
			<path d="M107.1,312.9c8.3,5.3,18.2,9,27.9,10.4c1.9,0.3,2.7-2.6,0.8-2.9c-9.5-1.3-19.1-5-27.2-10.1
				C106.9,309.2,105.4,311.8,107.1,312.9L107.1,312.9z"/>
		</g>
	</g>
	<g>
		<g>
			<path d="M107.1,321.7c2.5,1.8,5.3,3.2,8.1,4.5c7.7,3.5,15.8,5.8,24.1,7.3c1.9,0.3,2.7-2.5,0.8-2.9c-8.2-1.5-16.3-3.7-23.8-7.2
				c-2.6-1.2-5.3-2.6-7.7-4.3C107,317.9,105.5,320.5,107.1,321.7L107.1,321.7z"/>
		</g>
	</g>
	<g>
		<g>
			<path d="M107.1,332.3c7.5,4.1,16.3,6.7,24.8,7.2c1.9,0.1,1.9-2.9,0-3c-8-0.4-16.3-2.9-23.3-6.8
				C106.9,328.8,105.4,331.4,107.1,332.3L107.1,332.3z"/>
		</g>
	</g>
	<g>
		<g>
			<path d="M107.1,350.3c5.9,3.2,12.9,4.6,19.6,4.6c1.9,0,1.9-3,0-3c-6.1,0-12.6-1.2-18.1-4.2C106.9,346.8,105.4,349.4,107.1,350.3
				L107.1,350.3z"/>
		</g>
	</g>
	<g>
		<g>
			<path d="M128.3,360.6c-7,0.1-14.2-1.6-20.7-4c-1.8-0.7-2.6,2.2-0.8,2.9c6.8,2.6,14.3,4.2,21.5,4.1
				C130.2,363.5,130.2,360.5,128.3,360.6L128.3,360.6z"/>
		</g>
	</g>
	<line class="st8" x1="108.2" y1="393.1" x2="127.1" y2="391.1"/>
	<circle class="st8" cx="147.3" cy="476.7" r="16.6"/>
	<circle class="st8" cx="208.2" cy="458.8" r="16.6"/>
	<circle class="st8" cx="258" cy="423.3" r="16.6"/>
	<polyline class="st8" points="123.7,464.8 90.2,520.4 152.5,520.4 193.6,448.5 	"/>
	<g>
		<g>
			<path d="M223.8,456.8c11.8,9.5,23.6,19.1,35.4,28.6c1.7,1.4,3.4,2.8,5.1,4.2c0.6,0.5,1.6,0.7,2.1,0
				c10.3-12.5,20.6-25.4,28.8-39.4c2.1-3.6,4.4-7.5,5.2-11.6c0.1-0.6-0.1-1.4-0.7-1.7c-8.4-3.8-16.8-7.5-25.2-11.3
				c-1.7-0.8-3.3,1.8-1.5,2.6c8.4,3.8,16.8,7.5,25.2,11.3c-0.2-0.6-0.5-1.1-0.7-1.7c-0.7,3.4-2.4,6.6-4.2,9.7
				c-2.5,4.4-5.2,8.6-8.1,12.7c-5.4,7.8-11.2,15.3-17.1,22.7c-1.3,1.6-2.5,3.1-3.8,4.7c0.7,0,1.4,0,2.1,0
				c-11.8-9.5-23.6-19.1-35.4-28.6c-1.7-1.4-3.4-2.8-5.1-4.2C224.4,453.4,222.3,455.5,223.8,456.8L223.8,456.8z"/>
		</g>
	</g>
	<path class="st8" d="M280.9,430c0,0-17.8,30.3-32.9,44.4"/>
	<g>
		<g>
			<path d="M234,464.7c2.8,10.4,5.7,20.8,8.5,31.2c0.7,2.7,1.6,5.3,2.2,8c1.7,7.9-9.4,9.6-14.9,7.2c-1.1-0.5-2.1-1.3-2.5-2.5
				c-0.1-0.4-0.1-0.7-0.2-1.1c0-0.1,0-1,0-0.6c0.1-2.3,0-4.7,0-7.1c0-1.9-3-1.9-3,0c0,1.4,0,2.8,0.1,4.2c0,0.7,0,1.4,0,2.1
				c0,0,0-0.4,0,0.4c-0.1,2,0.3,3.9,1.7,5.3c2.9,3.1,7.9,3.2,11.7,2.8c3.7-0.4,7.7-1.7,9.4-5.3c1.5-3.2,0.5-6.3-0.4-9.5
				c-1.8-6.4-3.5-12.8-5.3-19.3c-1.5-5.6-3.1-11.2-4.6-16.8C236.4,462.1,233.5,462.8,234,464.7L234,464.7z"/>
		</g>
	</g>
	<g>
		<g>
			<path d="M202.7,500.1c0.4,3.5,0.7,7.1,1.2,10.6c0.4,2.6,2.3,4.5,4.7,5.5c6.5,2.8,21,1.6,18.7-8.5c-0.4-1.9-3.3-1.1-2.9,0.8
				c1.7,7.4-12.5,6.9-16,4.1c-0.7-0.6-1.1-1.2-1.4-2c-0.2-0.5,0,0.3,0,0c-0.1-0.5-0.1-1-0.2-1.5c-0.3-3.1-0.7-6.1-1-9.2
				C205.5,498.2,202.5,498.2,202.7,500.1L202.7,500.1z"/>
		</g>
	</g>
	<g>
		<g>
			<path d="M181.8,501.1c0,3.2-0.2,6.5,0,9.8c0.2,3.2,2.8,5.4,5.8,6.4c5.8,1.9,19,1.8,19.3-6.4c0.1-1.9-2.9-1.9-3,0
				c-0.2,5.7-13.2,4.9-16.7,3c-2-1-2.4-2.3-2.4-4c0-2.9,0-5.8,0-8.7C184.8,499.2,181.8,499.2,181.8,501.1L181.8,501.1z"/>
		</g>
	</g>
	<g>
		<g>
			<path d="M158.1,508c0,2.1,0.9,4.4,2.2,6c2.5,3.2,6.3,3.8,10.2,4c6.5,0.3,14.1-1.4,14.3-9.3c0.1-1.9-2.9-1.9-3,0
				c-0.2,6-6.7,6.5-11.3,6.3c-4.4-0.2-9.3-1.9-9.4-7.1C161.1,506.1,158.1,506.1,158.1,508L158.1,508z"/>
		</g>
	</g>
	<line class="st8" x1="172.4" y1="485.6" x2="240.5" y2="482.6"/>
	<g>
		<g>
			<path d="M310.2,468c3,1.9,6,3.8,8.9,5.7c4.4,2.8,10.3,2.8,14.9,0.4c11.6-6.1,10.3-23.5-1.9-28c-7-2.6-14.6,0.3-18.5,6.5
				c0.7-0.2,1.4-0.4,2.1-0.5c-6.1-3.1-12.2-6.2-18.3-9.2c-1.7-0.9-3.2,1.7-1.5,2.6c6.1,3.1,12.2,6.2,18.3,9.2
				c0.7,0.4,1.6,0.2,2.1-0.5c4.1-6.3,12.8-7.9,18.6-3c5.2,4.5,5.8,12.6,1.2,17.7c-3.9,4.4-10.6,5.4-15.5,2.2
				c-2.9-1.9-5.9-3.8-8.8-5.6C310.1,464.4,308.6,467,310.2,468L310.2,468z"/>
		</g>
	</g>
	<g>
		<g>
			<path d="M297,484.1c3.1,1.5,6.3,3,9.4,4.5c5,2.4,7.7,8,6.6,13.4c-1.3,6.6-8,11-14.6,9.7c-8-1.6-12.1-10.4-8.7-17.7
				c0.3-0.7,0.2-1.6-0.5-2.1c-5.8-3.6-11.7-7.1-17.5-10.7c-1.7-1-3.2,1.6-1.5,2.6c5.8,3.6,11.7,7.1,17.5,10.7
				c-0.2-0.7-0.4-1.4-0.5-2.1c-2.9,6.2-1.9,13.6,3.2,18.3c4.4,4.1,10.9,5.2,16.4,2.9c10.9-4.5,13.2-21.2,2.2-27.2
				c-3.4-1.9-7-3.3-10.5-5C296.7,480.7,295.2,483.3,297,484.1L297,484.1z"/>
		</g>
	</g>
	<path class="st8" d="M328.3,474.4c2,2.4,3.1,5.5,3.1,8.8c0,7.7-6.2,13.9-13.9,13.9c-1,0-1.9-0.1-2.8-0.3"/>
	<g>
		<g>
			<path d="M312.7,505.6c5.9,4.6,13,8.7,20.3,10.5c4.3,1,8.9,1.1,12.8-1.3c2.7-1.7,5.4-3.6,8.1-5.4c1.6-1.1,0.1-3.7-1.5-2.6
				c-2.6,1.7-5.1,3.5-7.7,5.2c-3.5,2.3-7.4,2.1-11.4,1.1c-4.5-1.2-8.8-3.3-12.8-5.8c-1.4-0.9-2.8-1.8-4.2-2.8
				c-0.4-0.3-0.8-0.6-1.2-0.8c-0.1-0.1-0.9-0.7-0.3-0.2C313.4,502.3,311.2,504.4,312.7,505.6L312.7,505.6z"/>
		</g>
	</g>
	<g>
		<g>
			<path d="M400.2,471.1c-12,12.3-23.9,24.5-35.9,36.8c-1.7,1.7-3.4,3.5-5.1,5.2c0.5-0.1,1-0.3,1.5-0.4c-4.9-0.9-6.7-5.5-6.9-10
				c-0.2-4.5-0.4-8.8-3.1-12.7c-2.4-3.5-5.9-5.4-10-6.3c-3.6-0.8-7.1-0.7-8.4-5.2c-0.5-1.9-3.4-1.1-2.9,0.8c1.3,4.7,5.1,6.7,9.7,7.2
				c0.7,0.1-0.3-0.1,0.5,0.1c1.1,0.3,2.2,0.6,3.3,1c2.1,0.8,3.7,2,5,3.8c1.6,2.2,2.5,4.7,2.8,7.4c0.2,1.7,0,3.4,0.2,5.1
				c0.4,4.2,2.1,8.8,6,10.9c1.4,0.7,3.2,1.5,4.6,0.5c0.5-0.4,0.9-0.9,1.4-1.4c2.1-2.2,4.3-4.4,6.4-6.5c6.6-6.8,13.2-13.6,19.8-20.3
				c4.4-4.6,8.9-9.1,13.3-13.7C403.6,471.9,401.5,469.8,400.2,471.1L400.2,471.1z"/>
		</g>
	</g>
	<path class="st8" d="M338.5,468.1c0,0,3.1-4,8.8-1.4c5.7,2.5,17.8,7.7,21.1,20c0,0,1.8,8.8,4.1,14.9"/>
	<path class="st8" d="M377.2,442.9c0,0-31.2,20.4-37.1,23.9"/>
	<path class="st8" d="M404.2,436.9c-6.5,9.2-12.6,11.9-12.6,11.9c-1.5,0.9-3.3,1.4-5.3,1.4c-5.7,0-10.4-4.7-10.4-10.4
		c0-4.6,3-8.5,7.1-9.9c0,0,15.7-4.1,41.5-28.5c0,0,9.7-9.6,8.7-27.9l-0.5-12c0,0-1-8.6,4-13.1l2.8-2.6"/>
	<path class="st8" d="M422.3,457.6c-14.6-18.3-28.7-32.4-28.7-32.4"/>
	<path class="st8" d="M413.5,446.9c-9.1,3.3-13.3,7.9-13.3,7.9c-2.2,1.9-3.5,4.7-3.5,7.8c0,5.7,4.7,10.4,10.4,10.4
		c2.7,0,5.4-0.8,8.5-5.1c0,0,8.4-13.2,16.2-20.9s23.2-21.8,23.2-21.8h4"/>
	<path class="st8" d="M420.9,404.9c0,0,16.2,14.7,24.5,29"/>
	<g>
		<g>
			<path d="M470.9,364.5c1.3,0.3,1.3,1.4,0.4,2.1c-0.7,0.5-1.7,0.7-2.5,1c-1.4,0.4-2.7,0.7-4.1,0.9c-1.9,0.4-3.8,0.9-5.7,1.5
				c-1.7,0.5-3.7,1.6-5.5,1.8c-1.3,0.1-1.4-0.9-1.4-2.1c0-1.8,1-2.9,2.5-3.7c0.9-0.4,1.9-0.7,2.8-0.9c-0.9,0.1,0.6,0,0.8,0
				c10.4-0.7,20.9-1.7,31.4-2c2-0.1,4.1,0.3,5.8,1.4c3.3,2,5.2,8.4,3,11.8c-0.4,0.6-0.2,1.7,0.5,2.1c4.6,2,4,9.9,0.7,12.8
				c-0.8,0.7-0.4,1.8,0.3,2.4c-0.3-0.2,0.9,1,1.1,1.3c1,1.3,1.4,2.9,1.4,4.5c0,3.5-2.3,5.2-5.2,6.5c-0.7,0.3-1,1.5-0.5,2.1
				c1.5,1.9,1.4,5.1,0.3,7.1c-1.3,2.6-4.7,3.5-7.4,3.9c-1.9,0.3-1.1,3.2,0.8,2.9c3.6-0.6,7.7-2.1,9.3-5.7c1.4-2.9,1.5-7.2-0.5-9.8
				c-0.2,0.7-0.4,1.4-0.5,2.1c4-1.8,6.7-4.5,6.7-9.1c0-3.2-1.5-6.4-4.1-8.4c0.1,0.8,0.2,1.6,0.3,2.4c4.7-4,5-14.8-1.3-17.5
				c0.2,0.7,0.4,1.4,0.5,2.1c2.3-3.5,1.2-9.4-0.8-12.7c-2.1-3.4-6.2-5-10-5c-5.5-0.1-11.2,0.7-16.7,1.1c-4,0.3-8,0.5-12.1,0.8
				c-1.7,0.1-3.4,0.1-5.1,0.4c-3.7,0.7-7,3.1-7.2,7.1c-0.1,3.3,1.9,6.3,5.5,5.2c2.9-1,5.8-2,8.8-2.7c2-0.5,4-0.8,6-1.3
				c2.1-0.6,4.5-1.4,5.3-3.6c0.9-2.4-0.5-4.9-3-5.4C469.8,361.2,469,364.1,470.9,364.5L470.9,364.5z"/>
		</g>
	</g>
	<g>
		<g>
			<path d="M487.4,400.9c-4.1-0.3-8.3-0.1-12.4,0.2c-3.7,0.3-7.4,0.9-11,1.7c-3.7,0.9-8.3,2-11.5,4.2c-1.9,1.3-2.4,4-1.8,6.1
				c0.7,2.8,3.2,3.4,5.7,2.5c1.3-0.5,2.4-1.2,3.7-1.8c3.4-1.6,7.2-2.3,10.9-2.6c2.7-0.3,5.8-1,6.4-4.1c0.3-1.5-0.2-3.2-1-4.4
				c-1-1.6-3.6-0.1-2.6,1.5c2.5,4-2.9,4-5.6,4.3c-3.8,0.5-7.5,1.6-10.9,3.4c-1.6,0.9-4.8,2.3-3.7-1.3c0.6-2.2,4.7-3,6.6-3.6
				c5.7-1.9,11.7-2.8,17.6-3.2c3.2-0.2,6.5-0.3,9.7,0C489.3,404,489.3,401,487.4,400.9L487.4,400.9z"/>
		</g>
	</g>
	<g>
		<g>
			<path d="M488.4,388.1c-9.7-0.6-19.9-0.1-29.2,2.5c-4.4,1.2-11.5,3.1-10.3,9.1c1.3,6.7,10.5,0.9,14.3,0.2
				c3.4-0.7,7.4,0.2,10.4-2.1c2.1-1.6,2.5-4.1,2.8-6.6c0.2-1.9-2.8-1.9-3,0c-0.2,2.8-1,4.6-4,5.1c-1.9,0.4-3.9,0.2-5.8,0.5
				c-1.7,0.3-3.4,0.8-5.1,1.4c-1.6,0.6-3.1,1.3-4.8,1.7c-0.4,0.1-1.1,0.4-1.5,0.2c-0.8-0.4-0.2-2.3,0.1-2.9c0.9-1.7,4.8-2.6,6.9-3.3
				c9.3-2.8,19.7-3.3,29.4-2.7C490.3,391.2,490.3,388.2,488.4,388.1L488.4,388.1z"/>
		</g>
	</g>
	<path class="st8" d="M451.8,401.5c0,0,1.9,5.1,10.2,3.4"/>
	<g>
		<g>
			<path d="M487.4,373.5c-11-1.1-23.2-0.1-33.4,4.1c-2.1,0.9-4.1,1.8-4.5,4.3c-0.4,2.7,1.1,4.9,3.8,5.1c1.7,0.1,3.4-0.3,5-0.9
				c2.6-0.8,5.2-1.6,7.8-2.1c2.9-0.5,6.7,0.4,8.6-2.4c1-1.6,1.1-3.7,0.8-5.5c-0.3-1.9-3.2-1.1-2.9,0.8c0.3,1.7,0,3.6-2.2,3.7
				c-3.3,0.2-6.5,0.6-9.7,1.5c-1.5,0.4-2.9,1-4.4,1.4c-0.8,0.2-3,0.9-3.7,0.1c-0.9-1.1,0.1-2.2,1-2.7c6.4-3.6,15.1-4.4,22.3-4.7
				c3.8-0.2,7.7-0.2,11.5,0.2C489.3,376.6,489.3,373.6,487.4,373.5L487.4,373.5z"/>
		</g>
	</g>
	<path class="st8" d="M451.8,373.6c0,0,0.2,4.6,8,3.6"/>
	<path class="st8" d="M452.2,385.5c0,0-2.4,7.4,9,6.1"/>
	<path class="st8" d="M451.4,328.8l-11.1,13.2c0,0-2.2,4.7,1.6,6.5s8.3-4.2,8.3-4.2l6.4-9.1c0,0,3-4.3,1.2-6.9
		C455.4,324.7,451.4,328.8,451.4,328.8z"/>
	<path class="st8" d="M457.7,333.2c0,0,6.2,2,3.8,15.8c0,0-1.1,6.5-7.3,11.1c0,0-3,2.5-1.3,5.3"/>
	<g>
		<g>
			<path d="M456.9,418.5c-0.2,3.3,0.3,6.7,0.7,10c1.4,9.9,4.3,19.6,7.8,28.9c5.6,15,13.5,28.8,20,43.3c3.5,7.9,7.3,16.3,8.5,25
				c0.2,1.5,0.3,3.7,0.1,4.6c0,0.2-0.1,0.4-0.2,0.6c-0.1,0.4,0.1-0.3,0,0.1c-0.2,0.4-0.1,0.1,0,0c-1,1,0,3,1.5,2.5
				c7.1-2.5,14.1-5.5,21-8.7c11.4-5.3,23.5-11.5,32.3-20.7c0.6-0.6,0.6-1.5,0-2.1c-10.5-11.2-20.5-22.9-29.9-35
				c-7.1-9-13.9-18.3-19.6-28.2c-2.1-3.7-4.2-7.6-5.4-11.7c-0.9-3.2-2-6.2-4.1-8.8c-4.7-5.8-12.4-5.1-19.1-4.1
				c-3.4,0.5-6.6,1.6-9.9,2.6c-2.3,0.7-3.8-0.2-4.1-2.6c-0.3-1.9-3.2-1.1-2.9,0.8c0.6,4.4,4.5,5.7,8.4,4.5c2.9-1,5.9-1.9,9-2.3
				c3.6-0.6,8.4-1.2,12-0.1c4.3,1.3,6.6,6.1,7.7,10.1c1,3.4,2.4,6.6,4,9.7c5.1,9.9,11.8,19.1,18.6,27.9c6.8,8.9,13.9,17.5,21.2,25.9
				c4,4.6,8,9.1,12.1,13.5c0-0.7,0-1.4,0-2.1c-8.7,9-20.5,15-31.7,20.3c-6.6,3.1-13.4,6-20.3,8.4c0.5,0.8,1,1.7,1.5,2.5
				c1.2-1.2,1.2-3.5,1.1-5.1c-0.2-6.9-3-13.9-5.5-20.2c-5.8-14.7-13.9-28.3-20-42.8c-4.6-10.7-8.4-21.9-10.5-33.4
				c-0.8-4.2-1.6-8.8-1.3-13.2C460,416.6,457,416.6,456.9,418.5L456.9,418.5z"/>
		</g>
	</g>
	<path class="st8" d="M477.3,480.8c0,0,26.2-6.9,35.8-18.6"/>
	<g>
		<g>
			<path d="M483.8,440.6c10.9,20.9,22.2,41.8,35.4,61.3c3.4,5,6.8,10.3,11.3,14.4c1.4,1.3,3.5-0.8,2.1-2.1
				c-3.8-3.6-6.9-8.1-9.8-12.4c-4.2-6.1-8.1-12.4-11.8-18.8c-7.1-11.8-13.8-23.9-20.3-36c-1.4-2.6-2.8-5.3-4.2-7.9
				C485.5,437.4,482.9,438.9,483.8,440.6L483.8,440.6z"/>
		</g>
	</g>
	<g>
		<g>
			<path d="M473.9,443.7c11,22.4,22,45,31.2,68.2c1.6,4.1,4.3,9.5,4.4,13.7c0,1.9,3,1.9,3,0c-0.1-4.1-2.2-8.4-3.6-12.2
				c-2.7-6.9-5.6-13.7-8.6-20.5c-6.2-14-12.7-27.9-19.4-41.7c-1.5-3.1-3-6.1-4.4-9.2C475.7,440.4,473.1,441.9,473.9,443.7
				L473.9,443.7z"/>
		</g>
	</g>
	<g>
		<g>
			<path d="M488.9,361c-0.6-14.7,1.1-29.6,3.3-44.1c0.1-1-0.4-1.9-1.4-1.9c-13.7-0.6-27.5-0.9-41.2,0.4c-5.5,0.5-11.2,1.1-16.4,2.8
				c-0.7,0.2-1.5,0.5-2.2,0.9c-0.6,0.3-0.9,1.1-0.7,1.7c1.1,3.4,2.1,6.7,3.1,10.1c1.5,5.3,3.1,10.8,3.4,16.2c0.1,1.9,3.1,1.9,3,0
				c-0.5-9.2-3.7-18.5-6.6-27.2c-0.2,0.6-0.5,1.1-0.7,1.7c0.1,0,0.2-0.2,0.3-0.2c0.1,0-0.3,0.1,0.1-0.1c0.2-0.1,0.4-0.2,0.7-0.2
				c1.6-0.6,3.3-1,5-1.3c8.4-1.7,17-2.1,25.5-2.3c8.9-0.2,17.8,0,26.6,0.4c-0.5-0.6-1-1.3-1.4-1.9c-2.2,14.8-4,30-3.4,44.9
				C485.9,362.9,488.9,362.9,488.9,361L488.9,361z"/>
		</g>
	</g>
	<path class="st8" d="M462.1,344.1c0,0,17-0.7,25.7-0.5"/>
	<g>
		<g>
			<path d="M486.5,314.6c-0.6-1-1.5-2.1-1.2-3.4c0.1-0.6,0.7-1.2,1.1-1.7c0.6-0.9,1.1-1.9,1.1-3c0-1-0.1-2-0.6-2.8
				c-0.2-0.3-0.5-0.6-0.6-0.9c-0.6-1.5,0.4-1.5,1.1-2.5c1.2-1.7,1.3-3.8,0.8-5.7c-0.3-1.2-1.6-3.1-0.9-4.3c0.6-1.2,1.7-1.6,2.1-3.1
				c0.4-1.8-0.1-3.5-1.4-4.8c-0.6-0.6-1.7-1.3-1.9-2.1c-0.3-1.3,1.4-3.1,1.8-4.4c0.8-2.2,0.4-3.8-0.8-5.6c-1-1.5-1-1.8-0.3-3.5
				c0.4-0.9,0.6-1.8,0.5-2.9c-0.4-2.4-4.1-3.4-2.2-6c1.5-2,2.1-3.6,1.4-6.1c-0.3-1.1-0.7-2.1-1.2-3.1c-1-1.8-0.7-2.7-0.5-4.7
				c0.1-0.8,0-1.7-0.3-2.4c-0.2-0.5-0.5-1-0.9-1.4c0,0-1.3-0.9-1.3-0.9c-0.4-0.9,0.7-2.5,0.8-3.4c0.1-1-0.1-2.1-0.6-3
				c-0.5-0.9-1.3-1.6-2.1-2.2c-1.5-1.1-2.6-1.6-2-3.7c0.6-1.9,1-4-0.5-5.6c-0.5-0.6-1.2-0.8-1.8-1.2c-1.3-0.7-1.5-1.1-1.4-2.7
				c0.3-2.7-0.8-3.6-3.1-4.6c-2.2-1-1.2-4.6-3.1-6.4c-0.8-0.7-1.8-1-2.7-1.4c-0.4-0.2-1-0.4-1.2-0.7c-0.3-0.4-0.3-2.3-0.5-2.9
				c-1.1-3-5.9-2.2-5.8-5.7c-1,0-2,0-3,0c0,1.1-3,1.6-3.8,2.2c-0.7,0.5-1.4,1.3-1.8,2.1c-0.6,1.2-0.3,2.2-0.5,3.4
				c-0.2,1.9-1.7,1.9-3,3c-0.7,0.6-1.2,1.3-1.5,2.2c-0.5,1.4,0.3,3.1-0.3,4.4c-0.7,1.6-3.2,1.8-4.4,2.9c-1.9,1.7-1.2,3.2-1.1,5.4
				c0.1,2.3-1.7,2.4-3,3.7c-0.8,0.8-1.2,1.9-1.3,3c-0.1,1.1,0.1,1.9,0.3,3c0.2,1,0.4,1.3-0.4,2.1c-0.4,0.4-0.9,0.5-1.3,1
				c-1.6,1.7-0.9,4.1-0.1,6c0.7,1.5,1.1,1.4-0.5,3.2c-0.3,0.4-0.8,0.7-1,1.1c-0.6,0.8-0.9,1.8-0.9,2.8c0,2,3.1,4.8,1.1,6.4
				c-0.8,0.6-1.5,0.7-2.2,1.5c-0.7,0.9-1.1,1.9-1,3c0.1,1.2,0.8,1.8,1.5,2.7c0.8,1,0.9,0.9,0.3,2c-0.3,0.5-0.8,0.9-1.1,1.3
				c-1.2,1.8-1.6,4.1-0.4,6c0.5,0.7,1.6,1.1,2,1.8c0.6,1.1-1.5,3.1-1.8,4.3c-0.5,2.3,1,3.8,2,5.7c1.6,2.7-1.1,5.5-0.3,8.4
				c0.5,1.7,2.1,2.4,2.2,4.3c0.1,1.5-0.5,2.9-0.1,4.5c0.3,1.1,0.9,1.8,1.8,2.5c0.5,0.4,0.8,0,0.9,0.8c0,0.1-0.8,1.6-0.8,1.7
				c-0.4,1.4-0.3,2.9,0.2,4.2c0.5,1.2,1.4,1.8,2.1,2.7c1.3,1.8-0.3,2.7-1,4.3c-0.5,1.2-0.4,2.2,0.1,3.3c0.8,1.7,3.4,0.2,2.6-1.5
				c-0.4-0.9,1.5-2.7,1.8-3.5c0.3-0.9,0.4-1.7,0.1-2.6c-0.3-0.9-0.9-1.4-1.5-2.1c-1.6-1.7-2-2.9-1-5c1-2,0.8-3.3-1-4.6
				c-0.2-0.2-0.7-0.1-0.8-0.3c-0.9-0.8-0.6-1.9-0.5-2.9c0.2-1.3,0.4-2.6-0.1-3.9c-0.4-1.1-1.2-1.5-1.8-2.4c-0.7-1.2,0.1-2.7,0.4-3.9
				c0.7-3-0.1-4.5-1.6-7c-1.7-2.8,1.3-3.9,1.5-6.4c0.3-3.1-4.6-3.5-2.5-6.8c1.1-1.7,3.2-2.7,2.2-5.1c-0.4-1-2.6-2.2-2.2-3.5
				c0.2-0.6,2.4-1.5,2.9-2.3c0.8-1.2,1-3,0.5-4.4c-0.3-1.1-1.6-2.1-1.6-3.3c0-1.3,2.4-2.6,2.9-3.9c1-2.6-2.4-5.3-0.5-7.5
				c0.6-0.7,1.5-0.8,1.9-1.7c0.5-1,0.3-2.1,0.1-3.1c-0.4-1.6-1-2.9,0.5-4.2c0.8-0.7,1.6-0.9,2.3-1.8c0.7-1,1.1-2.1,1.1-3.3
				c-0.1-1.5-1-2.9,0.6-3.9c1.6-1,3.5-1.3,4.4-3.1c0.6-1.1,0.3-2.2,0.4-3.4c0.1-1.4,0-2.1,1.5-2.9c0.5-0.3,1.1-0.4,1.6-0.7
				c2.8-1.8,0.4-4.9,2.3-6.9c1-1.1,2.8-1,4-1.9c1.1-0.8,1.5-1.8,1.5-3.1c0-1.9-3-1.9-3,0c0,2.1,0.8,4,2.6,5.1c1.6,1,2.9,0.5,3.5,2.9
				c0.3,1.1,0.3,1.9,1.1,2.8c1.5,1.5,3.9,1.3,4.6,3.4c0.6,1.9,0.3,3.9,2.2,5.2c1.3,0.8,2.4,0.8,2.4,2.6c0,1-0.2,1.8,0.2,2.7
				c0.8,1.8,2.6,1.6,3.7,2.9c0.9,1.1-0.4,3.3-0.5,4.6c-0.1,0.8,0,1.6,0.4,2.4c1.2,2.5,5.4,2.7,4.3,6.1c-0.6,1.9-1.4,3.2,0.2,4.8
				c0.5,0.5,1.3,0.6,1.7,1.2c0.6,1,0,1.5-0.1,2.3c-0.2,1.3-0.4,2.2,0.1,3.4c0.6,1.4,1.4,2.6,1.9,4.1c0.6,2-0.1,2.8-1.2,4.3
				c-1.2,1.8-1.5,3.7-0.1,5.4c0.7,0.9,2.1,1.5,2.2,2.7c0,0.9-0.9,2-1.1,2.8c-0.2,0.8-0.3,1.6,0,2.4c0.5,1.3,1.9,1.9,2.1,3.3
				c0.4,2.4-2.6,4.3-2.3,6.9c0.2,2.2,2,2.7,3,4.4c1.3,2.2-1,2.9-1.8,4.5c-0.6,1.1-0.4,2.2,0.1,3.3c0.7,1.8,1.7,3.8,0.8,5.6
				c-0.6,1.1-1.7,1.6-2.2,2.8c-0.4,1.1-0.1,1.9,0.4,2.9c0.3,0.7,0.9,0.9,1.1,1.8c0.3,1.3-0.4,2.1-1,3c-1.8,2.6-1.1,5,0.5,7.6
				C484.9,317.8,487.5,316.2,486.5,314.6L486.5,314.6z"/>
		</g>
	</g>
	<line class="st8" x1="431" y1="256" x2="485.2" y2="255"/>
	<path class="st8" d="M430.5,277.2l9-0.6c0,0,7.8-0.5,8.7,5.9c1,6.4-3.2,8.4-5.7,8.8c-4,0.6-8.6,0.6-8.6,0.6"/>
	<g>
		<g>
			<path d="M135.8,225.7c10.2-1.9,19.2-8.7,23.5-18.1c4.4-9.5,3.9-20.8-1.4-29.8c-10.9-18.6-37.7-21.3-52-5.1
				c-14,16-8.7,41.9,10.8,50.7c8.1,3.6,20,5.2,26.1-2.8c6.2-8.1,1.7-20.5-8.4-22.7c-6.6-1.4-13.4,3.4-12,10.7
				c0.7,3.8,3.7,6.3,7.6,5.7c3.3-0.5,5.9-3.3,4.6-6.7c-0.7-1.8-3.6-1-2.9,0.8c1,2.6-2.4,3.7-4.4,2.7c-2-1-2.2-3.7-1.8-5.6
				c1.5-6.5,9.2-5.7,13.2-2.3c7.1,6,4.1,17.9-5.1,19.8c-7.6,1.5-16.5-1.7-22.3-6.6c-13.6-11.4-13.8-32.7-0.5-44.4
				c13.2-11.6,34.3-8.6,43.8,6.1c5.3,8.3,6.2,19,2.1,27.9c-4,8.9-12.2,15-21.8,16.8C133.2,223.1,134,226,135.8,225.7L135.8,225.7z"
				/>
		</g>
	</g>
	<g>
		<g>
			<path d="M99.6,202c3.1,1.6,6.2,3.2,9.3,4.8c1.7,0.9,3.2-1.7,1.5-2.6c-3.1-1.6-6.2-3.2-9.3-4.8C99.4,198.5,97.9,201.1,99.6,202
				L99.6,202z"/>
		</g>
	</g>
	<g>
		<g>
			<path d="M109.2,196.6c-2.8-1.9-5.6-3.8-8.3-5.8c-1.6-1.1-3.1,1.5-1.5,2.6c2.8,1.9,5.6,3.8,8.3,5.8
				C109.2,200.2,110.7,197.6,109.2,196.6L109.2,196.6z"/>
		</g>
	</g>
	<g>
		<g>
			<path d="M100.8,183.1c3.1,3.6,6.3,7.3,9.4,10.9c1.3,1.5,3.4-0.7,2.1-2.1c-3.1-3.6-6.3-7.3-9.4-10.9
				C101.6,179.5,99.5,181.7,100.8,183.1L100.8,183.1z"/>
		</g>
	</g>
	<g>
		<g>
			<path d="M106.8,173.6c2.7,4.7,5.4,9.5,8.1,14.2c1,1.7,3.5,0.2,2.6-1.5c-2.7-4.7-5.4-9.5-8.1-14.2
				C108.5,170.4,105.9,171.9,106.8,173.6L106.8,173.6z"/>
		</g>
	</g>
	<g>
		<g>
			<path d="M116.8,166c1.5,6,3,11.9,4.4,17.9c0.5,1.9,3.4,1.1,2.9-0.8c-1.5-6-3-11.9-4.4-17.9C119.2,163.3,116.3,164.1,116.8,166
				L116.8,166z"/>
		</g>
	</g>
	<g>
		<g>
			<path d="M137.4,165.1c-0.7,6.1-1.5,12.3-2.2,18.4c-0.2,1.9,2.8,1.9,3,0c0.7-6.1,1.5-12.3,2.2-18.4
				C140.6,163.2,137.6,163.2,137.4,165.1L137.4,165.1z"/>
		</g>
	</g>
	<g>
		<g>
			<path d="M146.7,168.6c-1.8,5.4-3.6,10.8-5.4,16.3c-0.6,1.8,2.3,2.6,2.9,0.8c1.8-5.4,3.6-10.8,5.4-16.3
				C150.2,167.6,147.3,166.8,146.7,168.6L146.7,168.6z"/>
		</g>
	</g>
	<g>
		<g>
			<path d="M154.9,176.8c-2.7,3.8-5.4,7.5-8,11.3c-1.1,1.6,1.5,3.1,2.6,1.5c2.7-3.8,5.4-7.5,8-11.3
				C158.6,176.8,156,175.3,154.9,176.8L154.9,176.8z"/>
		</g>
	</g>
	<g>
		<g>
			<path d="M158.9,185.2c-2.8,2.7-5.6,5.4-8.4,8.1c-1.4,1.3,0.7,3.5,2.1,2.1c2.8-2.7,5.6-5.4,8.4-8.1
				C162.4,186,160.3,183.8,158.9,185.2L158.9,185.2z"/>
		</g>
	</g>
	<g>
		<g>
			<path d="M152.9,202.5c2.7-1.6,5.4-3.1,8.1-4.7c1.7-1,0.2-3.6-1.5-2.6c-2.7,1.6-5.4,3.1-8.1,4.7
				C149.7,200.9,151.2,203.5,152.9,202.5L152.9,202.5z"/>
		</g>
	</g>
	<g>
		<g>
			<path d="M131.3,182.1c0.2-9.4,0.4-18.7,0.1-28.1c-0.4-15.8-0.9-31.6-1.3-47.4c-0.2-8.5,0-16.6-3.7-24.5c-1.8-3.8-4.3-7.3-7.5-10
				c-3.9-3.3-8.3-5-13.1-6.4c-3.2-0.9-6.5-1.7-9.9-1.3C92,64.8,87.3,68,88,72.5c0.6,3.5,4.3,5.4,7.3,6.4c1.3,0.5,1.5,0.4,2.5,1
				c6.2,3.5,8.9,11,10,17.6c0.5,3.4,0.6,6.9,0.5,10.4c0.5-0.5,1-1,1.5-1.5c-5.5-0.6-11.7,0.7-16.1,4.1c-3.2,2.4-5.8,6.2-6.9,10.1
				c-1.1,3.8-0.4,7.8,0,11.6c1.8,14.1,5.2,27.9,8.8,41.7c1.1,4.3,2.2,8.5,3.4,12.8c0.5,1.9,3.4,1.1,2.9-0.8
				c-2.6-9.6-5.1-19.2-7.4-28.9c-1.5-6.3-3-12.7-4-19.1c-1.1-7-2.9-14.7,1.3-20.9c4-5.9,11-8.4,18-7.6c0.8,0.1,1.5-0.8,1.5-1.5
				c0.3-11.6-2.3-27.4-15-31.7c-3.2-1.1-7.7-3.9-3.8-7.3c3-2.6,8-1.7,11.4-0.7c4,1.2,7.9,2.3,11.4,4.9c3.5,2.5,6.1,5.9,8,9.7
				c3.6,7.3,3.4,14.8,3.6,22.7c0.4,15.2,0.8,30.3,1.2,45.5c0.3,10.4,0.2,20.7,0,31.1C128.2,184,131.2,184,131.3,182.1L131.3,182.1z"
				/>
		</g>
	</g>
	<path class="st8" d="M92.2,114"/>
	<g>
		<g>
			<path d="M109.2,122.4c-4.1-5-10.2-8.9-16.6-9.9c-1.9-0.3-2.7,2.6-0.8,2.9c5.9,0.9,11.5,4.4,15.3,9.1
				C108.3,126,110.4,123.9,109.2,122.4L109.2,122.4z"/>
		</g>
	</g>
	<g>
		<g>
			<path d="M106.1,127.8c-4.2-5.3-11.3-8.1-17.7-8.8c-1.9-0.2-1.9,2.8,0,3c5.7,0.6,11.9,3.3,15.6,7.9
				C105.2,131.4,107.3,129.3,106.1,127.8L106.1,127.8z"/>
		</g>
	</g>
	<g>
		<g>
			<path d="M162.8,107.3c-6.1,3.5-12.2,7.7-16.9,13.1c-1.3,1.5,0.9,3.6,2.1,2.1c4.5-5.1,10.4-9.2,16.3-12.6
				C166,109,164.5,106.4,162.8,107.3L162.8,107.3z"/>
		</g>
	</g>
	<g>
		<g>
			<path d="M169.1,113.7c-6.5,3.4-13,7.3-18.4,12.3c-1.4,1.3,0.7,3.4,2.1,2.1c5.2-4.8,11.6-8.6,17.8-11.9
				C172.4,115.4,170.9,112.9,169.1,113.7L169.1,113.7z"/>
		</g>
	</g>
	<g>
		<g>
			<path d="M90.1,147.8c6.9,2.1,13.8,4.3,20.7,6.4c1.8,0.6,2.6-2.3,0.8-2.9c-6.9-2.1-13.8-4.3-20.7-6.4
				C89.1,144.3,88.3,147.2,90.1,147.8L90.1,147.8z"/>
		</g>
	</g>
	<g>
		<g>
			<path d="M91.8,156.2c6.3,1.7,12.7,3.3,19,5c1.9,0.5,2.7-2.4,0.8-2.9c-6.3-1.7-12.7-3.3-19-5C90.7,152.8,89.9,155.7,91.8,156.2
				L91.8,156.2z"/>
		</g>
	</g>
	<g>
		<g>
			<path d="M167.6,142.8c-6.7,3.2-13.5,6.4-20.2,9.7c-1.7,0.8-0.2,3.4,1.5,2.6c6.7-3.2,13.5-6.4,20.2-9.7
				C170.8,144.6,169.3,142,167.6,142.8L167.6,142.8z"/>
		</g>
	</g>
	<g>
		<g>
			<path d="M166.3,152.4c-5.7,2-11.3,3.9-17,5.9c-1.8,0.6-1,3.5,0.8,2.9c5.7-2,11.3-3.9,17-5.9C168.9,154.6,168.1,151.7,166.3,152.4
				L166.3,152.4z"/>
		</g>
	</g>
	<g>
		<g>
			<path d="M129.7,96c1.6-11.9,7-26.8,20-30.1c0.3-0.1,0.7-0.1,1-0.2c0.2,0,0.3-0.1-0.2,0c0.3-0.1,0.6-0.1,0.9-0.1
				c2.7-0.4,5.8-0.8,8.5-0.2c4.9,1.1,0.6,6.7-2,8.1c-1.6,0.9-3.3,1.3-4.9,2.2c-1.6,1-2.9,2.3-3.9,3.8c-5.2,7.6-4.9,18.2-3.8,26.9
				c0.1,1,0.8,1.6,1.9,1.4c6.1-1,14.9-1.4,19.2,3.9c4.8,5.9,3.4,13.3,2.3,20c-2.4,13.4-5,26.7-7.7,40.1c-0.8,4-1.6,8-2.4,12
				c-0.4,1.9,2.5,2.7,2.9,0.8c2.2-11.2,4.4-22.4,6.6-33.7c1.3-6.5,2.5-13,3.7-19.6c1.3-7.4,2-15.3-3.1-21.5
				c-5.1-6.2-14.9-6-22.2-4.8c0.6,0.5,1.3,1,1.9,1.4c-1.1-8.2-1.8-19.5,4.1-26.3c2.9-3.4,8-3.5,10.9-7.3c2-2.6,2.9-7.5-0.5-9.5
				c-2.8-1.7-6.7-1.3-9.8-1c-1,0.1-2,0.3-3,0.4c0.8-0.1-0.3,0-0.6,0.1c-3.9,0.9-7.5,2.9-10.5,5.5c-7.7,6.7-11,17-12.3,26.8
				C126.6,97.1,129.5,97.9,129.7,96L129.7,96z"/>
		</g>
	</g>
	<path class="st8" d="M112.2,360.7c0,0-6.4,14-3.6,32.4l1.4-0.2"/>
	<g>
		<g>
			<path d="M108.6,392.9c0.8,18.8,1.2,37.6,0.3,56.4c-0.2,5.1-0.5,10.4-1.6,15.5c-0.2,1,0.4,1.9,1.4,1.9c11.4,0.4,23-0.8,34.3-2.5
				c24.3-3.6,48.4-11,69.7-23.7c13.9-8.3,26.4-18.8,36.4-31.5c0.7-0.9,0.5-2.1-0.7-2.5c-7.1-2.7-14-5.9-20.8-9.1
				c-13.2-6.3-26.3-13.3-38-22.1c-5.7-4.3-11.3-9.2-15-15.3c-1-1.6-3.6-0.1-2.6,1.5c7.2,11.7,20,19.8,31.5,26.6
				c11.6,6.8,23.7,12.7,36.1,18c2.7,1.1,5.3,2.3,8,3.3c-0.2-0.8-0.4-1.7-0.7-2.5c-17.3,21.8-41.4,36.7-67.6,45.6
				c-19,6.4-39,10-58.9,11c-3.9,0.2-7.8,0.3-11.7,0.2c0.5,0.6,1,1.3,1.4,1.9c2.2-10.1,2-21,2-31.3c0.1-11.4-0.1-22.8-0.4-34.1
				c-0.1-2.4-0.1-4.8-0.2-7.2C111.5,391,108.5,391,108.6,392.9L108.6,392.9z"/>
		</g>
	</g>
</g>
</svg>
