<svg xmlns="http://www.w3.org/2000/svg" width="900" height="900" viewBox="0 0 900 900">
  <defs>
    <style>
      .cls-1, .cls-10, .cls-6, .cls-7 {
        fill: #fff;
      }

      .cls-1 {
        stroke: #fbfff2;
      }

      .cls-1, .cls-7 {
        stroke-miterlimit: 10;
      }

      .cls-2 {
        fill: #fff2d7;
      }

      .cls-2, .cls-4 {
        opacity: 0.8;
      }

      .cls-3 {
        fill: #ce2828;
      }

      .cls-4, .cls-8 {
        fill: #383838;
      }

      .cls-5 {
        fill: #366962;
        opacity: 0.68;
      }

      .cls-10, .cls-7, .cls-9 {
        stroke: #000;
      }

      .cls-7 {
        stroke-width: 2px;
      }

      .cls-9 {
        fill: none;
      }

      .cls-10, .cls-9 {
        stroke-linecap: round;
        stroke-linejoin: round;
        stroke-width: 3px;
      }
    </style>
  </defs>
  <title>mictlantecuhtli</title>
  <g id="Capa_3" data-name="Capa 3">
    <polygon class="cls-1" points="346.39 488.04 337.75 490.68 331.22 494.2 327 499.23 322.27 508.66 320.11 516.29 318.85 524.25 318.85 535.81 318.85 544.29 320.35 556.27 322.28 561.54 328.89 572.85 336.05 577.94 346.39 582.2 355.24 584.71 367.97 585.99 391.01 588.65 415.49 591.47 429.93 593.14 439.91 591.79 444.05 586.86 444.96 581.07 445.08 572.63 443.26 565.05 436.14 559.91 428.22 557.43 415.49 555.64 404.19 553.2 391.7 550.93 385.35 549.72 379.1 545.36 374.79 540.59 374.58 532.8 374.9 529.92 379.1 531.94 385.73 531.26 391.01 527.12 397.1 525.87 408.44 524.99 409.01 528.47 408.84 533.91 406.57 536.63 411.59 537.74 416.88 535.16 421.66 528.47 423 523.64 436.06 524.01 470.38 524.99 470.1 517.05 465.36 507.34 471.11 501.87 472.27 494.2 472.41 487.4 462.19 487.4 438.12 487.4 429.42 486.51 421.35 484.35 415.96 476.95 412.88 466.83 412.14 453.31 408.83 459.83 403.22 468.98 346.39 488.04"/>
    <circle class="cls-2" cx="214.35" cy="725.54" r="25.86"/>
    <circle class="cls-2" cx="308.36" cy="697.89" r="25.86"/>
    <circle class="cls-2" cx="385.78" cy="642.59" r="25.86"/>
    <polygon class="cls-3" points="158.23 543.38 171 546.77 184.1 547.47 187.05 553.38 191.39 558.91 189.7 565.1 187.05 569.05 183 579.77 181.54 588.71 182.33 592.57 172.03 593.14 153.57 595.7 152.89 566.45 158.23 543.38"/>
    <polygon class="cls-3" points="428.6 524.25 446.73 524.68 458.18 529.75 466.99 537.74 474.59 550.48 478.12 561.76 482.48 570.95 490.03 577.94 499.81 579.77 498.95 583.88 493.8 590 487.41 592.22 480.06 592.57 472.41 591.79 463.39 587.94 456.98 583.88 449.24 577.94 444.34 569.54 443.26 565.05 439.83 561.76 436.14 559.91 424.21 556.87 404.19 553.2 391.7 550.93 385.35 549.72 379.1 545.36 374.54 537.74 374.9 529.92 379.1 531.94 385.73 531.26 391.01 527.12 397.1 525.87 408.44 524.99 409.01 528.47 408.84 533.91 406.57 536.63 411.59 537.74 416.88 535.16 421.66 528.47 423 523.64 428.6 524.25"/>
    <polygon class="cls-4" points="415.49 430.62 418.77 436.08 422.79 438.43 430.32 439.35 439 439.35 445.75 439.28 452.3 439.35 455.67 440.41 461.35 442.94 466.14 447.58 468.67 454.74 468.62 459.41 467.4 465.57 464.09 470.63 459.31 473.92 464.73 473.86 470.46 475.11 471.68 479.94 472.41 487.4 462.19 487.4 452.3 487.53 438.12 487.4 429.42 486.51 421.35 484.35 417.85 479.94 415.96 476.95 412.88 466.83 412.29 459.07 412.14 453.31 414.42 445.41 415.4 438.43 415.49 430.62"/>
    <polygon class="cls-5" points="255.34 546.77 261.11 553.76 269.91 561.76 279.04 570.53 289.6 577.94 306.91 588.53 346.77 608.74 370.16 618.72 365.18 624.79 355.24 635.55 344.5 645.54 328.89 657.74 312.75 668.39 301.77 673.08 285.63 681.85 277.96 685.03 264.75 689.9 255.34 692.94 244.79 695.96 225.46 700.35 208.47 703.59 182.33 706.35 153.75 707.68 155.91 699.16 156.31 676.98 156.06 652.13 156.66 627.23 156.62 595.7 164.86 594.13 182.33 592.57 184.83 601.05 191.39 610.21 201.62 618.03 212.26 621.83 223.94 621.23 233.2 618.14 242 611.9 247.68 605.91 251.76 594.72 252.71 583.33 251.76 573.96 246.34 566.45 242.4 561.76 247.76 557.13 255.34 546.77"/>
    <polygon class="cls-5" points="176.63 707.74 124.89 793.57 221.82 793.57 285.63 681.85 271.04 687.58 255.34 692.94 240.21 697 225.46 700.35 229.65 705.18 235.15 710.18 239.33 721.98 240.21 725.54 237.16 737.71 231.9 743.92 223.94 749.29 214.35 751.39 208.47 750.86 202.61 748.89 196.2 744.54 191.39 740.38 188.5 731.2 188.12 721.98 191.39 712.51 198.51 704.64 176.63 707.74"/>
    <polygon class="cls-2" points="252.71 739.89 358.45 734.77 359.88 742.54 363.41 752.99 366.29 763.55 366.29 768.83 366.29 775.57 360.58 781.03 355.24 782.63 347.01 782.63 340.55 781.03 336.07 776.14 335.53 780.36 330.86 784.79 321.43 786.53 316.03 786.45 310.15 784.79 304.16 779.54 300.42 784.79 291.04 787.4 282.45 787.4 272.33 783.91 269.53 777.18 267.32 782.68 261.95 786.33 252.71 786.59 241.65 786.45 236.06 782.68 232.82 774.3 252.71 739.89"/>
    <polygon class="cls-1" points="421.35 653.06 449.24 666.2 445.83 674.91 452.3 678.18 463.39 683.79 474.25 689.28 478.17 684.55 483.42 681.01 489.49 679.16 498.79 679.79 506.15 683.63 511.12 689.28 513.82 695.98 513.82 705.05 512.01 710.18 507.64 716.08 502.15 719.9 492.7 722.1 497.29 725.54 499.81 731.87 499.39 739.89 497.89 744.54 493 751.39 483.42 756.67 475.29 757.32 473.7 763.55 471.11 771.61 466.65 777.18 460.52 781.03 452.3 782.63 444.05 781.03 437.86 777.18 433.15 771.14 430.9 764.22 431.38 755.4 432.88 751.26 405.79 734.77 396.25 742.72 379.94 730.02 372 721.83 382.67 708.7 395.9 691.62 421.35 653.06"/>
    <polygon class="cls-1" points="514.29 708.7 522.22 708.7 528.27 711.69 535.62 715.44 544.12 721.28 549.88 726.96 554 732.9 556.95 739.8 558.94 748.15 561.41 757.32 563.73 764.22 544.51 783.91 540.44 782.63 535.28 777.77 533.54 774.09 532.02 765.66 531.37 757.32 529.57 750.95 525.14 744.54 518.67 740.49 513.82 738.87 508.76 738.13 502.98 736.46 499.81 731.87 497.29 725.54 492.7 722.1 504.01 718.61 514.29 708.7"/>
    <polygon class="cls-1" points="596.51 645.55 587.75 650.04 583.58 651.82 577.27 654.28 571.95 659.03 569.52 664.19 568.96 672.03 572.92 678.97 576.18 681.85 582.74 684.55 588.64 684.55 596.51 680.42 603.88 674.35 612.87 663.78 627.31 679.27 621.16 681.85 614 685.82 608.25 690.13 603.24 695.96 601.23 703.74 602.57 710.18 605.86 715.06 611.4 718.74 618.79 719.84 627.31 716.08 633.5 707.68 641.07 695.96 655.89 679.49 677 659.03 670.49 649.1 662.18 638.44 648.9 623.75 638.91 613.96 632.69 619.46 615.76 633 596.51 645.55"/>
    <polygon class="cls-6" points="205.02 499.23 205.71 502.69 206.49 510.08 206.42 520.8 206.49 527.12 208.47 530.52 211.93 532.45 219.57 532.8 225.57 531.94 229.72 530.52 231.44 521.89 231.7 508.24 239.11 508.49 246.23 508.24 249.06 512.39 253.49 519.95 254.84 524.99 255.91 533.9 255.91 540.06 254.43 544.29 249.72 554.46 242.4 561.76 246.34 566.45 249.69 571.09 252.26 581.07 252.71 591.79 250.73 597.55 247.68 605.91 242 611.9 235.85 616.68 227.3 620.44 216.14 621.96 212.26 621.83 201.62 618.03 193.84 612.67 187.84 605.25 182.33 592.57 181.54 583.33 187.05 569.05 193.84 560.59 191.39 558.91 184.1 547.47 181.54 536.03 181.54 527.12 184.1 519.95 188.4 512.4 193.84 506.28 205.02 499.23"/>
    <polygon class="cls-6" points="654.6 382.69 738.83 381.14 736.32 384.79 734.99 387.66 735.9 390.59 739.36 394.15 739.36 398.02 737.81 401.99 739.36 405.51 741.19 408.1 741.19 411.49 738.83 416.54 737.95 420.85 741.19 424.88 743.09 428.02 742.04 432.52 739.61 434.87 738.83 439.55 740.95 442.15 741.46 447.18 739.36 451.08 737.16 454.08 738.81 456.99 739.92 461.2 738.07 465.24 736.44 468.98 738.71 474.87 714.08 474.87 700.39 475.85 685.7 476.95 665.27 479.69 664.37 475.85 666.88 471.63 666.68 467.95 663.88 464.9 662.24 460.17 664.29 453.88 661.4 451.35 658.5 447.52 659.98 442.15 659.05 438.43 656.48 435.09 657.48 429.13 657.89 424.22 654.6 418.33 654.21 413.39 657.48 408.08 655.48 405.13 652.46 401.95 652.46 397.05 656.83 393 657.07 390.71 653.37 386.54 654.6 382.69"/>
    <polygon class="cls-6" points="702.79 519.53 742.73 518.77 742.1 545.82 716.66 548.67 720.18 551.11 719.97 555.08 715.25 558.11 707.47 559.84 696.71 562.74 689.26 565.26 685.47 562.78 684.98 558.83 686.85 554.03 688.85 551.01 688.28 547.47 691.94 542.01 696.71 537.74 701.39 531.94 702.37 524.25 702.79 519.53"/>
    <polygon class="cls-6" points="667.75 518.7 675.73 508.24 680.87 502.12 686.85 495.19 691.94 492.06 694.58 493.4 696.22 495.29 697.04 500.05 695.31 505.38 690.8 510.83 683.46 520.9 679.26 524.99 674.93 526.97 670.87 526.97 667.91 524.25 667.75 518.7"/>
    <polygon class="cls-6" points="685.49 579.77 686.85 575.92 691.94 572.16 709.59 568.23 718.37 567.06 721.4 570.05 721.07 575.47 718.74 578.2 712.65 579.11 707.95 579.31 702.32 580.76 695.31 583.88 688.99 583.81 685.49 579.77"/>
    <polygon class="cls-6" points="684.31 603.39 685.47 599.36 691.18 596.71 698.18 593.64 707.61 591.97 720.03 590.57 722.76 590 722.37 593.64 721.59 598.26 718.77 601.24 713.86 603.39 709.59 603.39 702.73 604.15 695.31 606.52 691.94 608.71 687.8 608.71 684.95 607.02 684.31 603.39"/>
    <polygon class="cls-6" points="686.85 624.26 687.8 619.46 691.94 617.85 698.18 615.37 706.65 612.96 714.01 611.52 720.87 610.62 723.75 613.96 723.75 616.29 722.76 619.7 717.67 621.36 711.84 621.61 707.13 623.24 702.36 624.26 696.4 626.84 693.08 629.06 689.31 628.92 686.85 624.26"/>
    <polygon class="cls-6" points="697.04 635.18 705.3 633.4 717.56 630.81 727.42 629.91 732.46 630.05 737.21 631.45 743.18 635.54 745.93 639.4 748.74 645.55 751.09 652.87 754.31 661.04 758.71 668.39 765.35 679.24 771.03 687.71 782.16 703.04 778.93 706.5 771.84 712.23 762.8 717.5 747.8 724.71 737.17 728.66 726.46 731.96 722.46 723.78 715.65 708.7 709.84 694.07 704.24 677.34 699.7 659.4 697.04 635.18"/>
    <path class="cls-4" d="M452.3,304.09s-53.53,12-59.54,78c0,0,12,11.37,17.29,22.35,0,0-20.44-29.28-56.41-26.72,0,0-39.71,3.64-49.48,46,0,0-9.24,44.35,40.35,63.79,0,0-24.24,1.14-26.15,43,0,0-3,43.32,21.88,50.55L290.3,571s-30.17-7.54-34.39-30.89a39.39,39.39,0,0,0-9.68-31.82H231.7l-.3,15.86s.07,11.21-9.58,9.81c0,0-15.2,1.58-15.19-9.81L205,499.23l-7.82,4.36-7.5,6.49-5.09,9-3.07,11.4,2.56,17-13.1-.7-19.75-5.67s1.24-82.29,3.94-131c0,0-.72-80.6,122.77-120C278,290.15,355.2,273.25,452.3,304.09Z"/>
    <polygon class="cls-4" points="350.7 706.35 358.45 734.77 252.71 739.49 283.55 684.56 282.72 694.62 283.55 705.14 287.89 715.14 294.85 719.9 303.96 723.68 311.72 723.52 319.06 721.34 326.73 716.08 332.39 705.18 334.17 692.95 328.89 681.85 321.29 674.91 308.36 672.03 318.85 664.45 333.71 653.97 344.5 645.54 365.18 624.79 361.61 636.01 359.95 644.34 362.57 653.97 370.16 663.18 377.93 667.22 385.78 668.44 395.31 666.63 402.95 661.91 407.77 656.18 410.05 648 421.35 653.06 416.85 660.45 410.05 673.07 402.66 682.14 398.86 687.58 391.7 697.35 385.73 704.99 377.02 715.14 370.28 721.98 350.7 706.35"/>
    <polygon class="cls-4" points="499.81 731.87 503.45 736.46 510.82 737.35 519.84 741 526.48 746.25 529.61 751.26 531.78 758.72 531.78 768.83 533.54 774.3 523.91 780.76 516.67 785.52 510.82 785.52 502.98 784.5 496.88 782.63 487.41 778.33 472.41 768.83 473.78 762.54 473.78 756.88 480.06 756.94 487.41 754.47 493.17 751.26 497.49 744.54 498.79 737.71 499.81 731.87"/>
    <polygon class="cls-4" points="514.29 708.7 568.96 674.35 573.8 679.92 578.82 684.55 585.11 684.55 593.29 682.33 603.88 674.35 610.35 667.14 612.11 662.05 627.31 679.27 619.38 682.72 611.43 687.58 606.7 691.62 603.24 695.96 601.23 703.74 602.57 710.18 608.25 718.61 563.73 764.22 561.84 758.7 557.97 747.68 556 737.13 551.43 729.29 545.09 722.1 537.28 716.58 529.37 711.31 514.29 708.7"/>
    <polygon class="cls-7" points="140.81 271.09 130.19 233 123.82 203.75 120.93 180.52 121.75 172.97 126.37 164.02 130.87 159.01 139.3 154.27 150.31 151.64 155.43 151.64 155.03 139.87 153.98 130.18 150.76 122.38 145.92 114.08 140.93 109.01 134.53 105.56 129.59 103.48 124.78 99.44 123.92 95.03 126.48 90.53 130.95 87.75 138.18 86.82 144.2 87.69 150.16 89.33 158.34 92.19 167.4 97.87 174.16 104.98 177.4 109.97 180.87 117.58 182.9 124.59 184.01 131.64 185.81 123.81 189.18 112.79 193.63 103.73 197.53 98.17 205.14 90.83 214.08 85.93 222.75 83.7 231.25 83.7 237.43 85.6 239.11 89.08 239.11 93.36 237.51 96.19 234.38 99.32 229.16 101.86 223.05 105.29 218.73 109.46 215.6 114.83 214.25 119.72 212.71 127.64 212.23 135.55 212.76 146.29 213.23 150.25 219.15 149.63 227.47 148.81 233.28 150.28 240.35 152.66 245.66 157.32 248.79 163.58 251.26 169.25 251.26 175.05 250.48 184.11 248.95 192.93 233.28 272.08 234 277.49 234.79 284.78 234.59 290.52 233.88 296.63 232.16 301.85 227.87 310.95 224.71 315.53 217.69 322.8 210.8 327.61 205.8 330.1 200.64 331.96 194.08 333.29 186.1 333.93 175.43 332.5 169.17 330.46 162.3 327.02 156.51 322.89 151.02 317.51 146.22 310.95 142.45 302.81 139.68 292.21 139.68 282.51 140.81 271.09"/>
    <polygon class="cls-3" points="654.6 382.69 658.29 379.54 659.12 377.38 659.12 372.99 656.86 370.71 656.86 367.33 659.12 364.04 661.33 359.72 659.23 354.41 658.99 351.86 660.66 349.34 663.48 347.11 663.48 344.54 662.65 341.66 662.64 338.7 664.89 335.2 668.1 332.92 669.29 330.26 668.63 324.85 669.29 321.53 672.44 320.53 675.15 319.23 677.59 316.66 677.79 313.2 678.11 309.6 680.76 306.65 684.39 304.89 685.2 300.57 686.12 295.93 689.1 293.55 692.47 292.38 694.55 290.06 696.71 293.55 700.16 295.95 703.13 297.66 704.05 301.54 706.18 304.74 710.33 306.66 712.31 308.69 713.51 314.12 716.29 317.51 718.95 318.45 720.28 321.72 719.96 325.01 721.27 327.73 724.96 329.75 726.73 333.35 725.77 337.47 726.11 342.22 729.21 344.69 732.89 348.71 732.79 352.37 731.58 357.48 734.67 359.87 735.84 363.41 735.12 366.15 735.84 370.77 738.83 376.49 738.83 379.48 737.66 381.92 654.6 382.69"/>
    <polygon class="cls-3" points="655.48 482.61 669.79 478.85 687.8 475.85 717.44 475.85 747.3 476.62 745.65 488.9 743.18 508.24 742.73 518.77 702.79 519.53 702.83 513.92 701.16 508.24 696.71 502.12 697.04 497.69 694.58 493.4 690.81 492.81 686.18 495.8 668.38 517.83 668.29 523.22 665.6 524.25 662.82 505.35 658.73 493.73 655.48 482.61"/>
    <path class="cls-3" d="M726.46,732s38.25-9.83,55.7-28.92l14.29,18.23,10.14,12.26,9,10.51,20.18,22.57-8.08,7.33L811.55,785l-17,9.28-21.42,9.85-19.27,7.54L755,805.2l-1.86-9.06-2.06-10.62-5.84-14.47-8.13-17.65Z"/>
    <path class="cls-4" d="M638.91,614l8-8,5.6-9.59,3-8.19,2.33-12.67V562.29l-.7-15.52.7-9,3.63-9.27,6.85-5.25,3.14,3.33,7.83-1.56,5-4.92L690,512l6.7-9.88,4.45,6.12,1.67,5.68,0,5.62-1.4,9.66-1.4,3.6-3.28,7.26L690,544.17l-2.17,5.31L685,558.83l1.87,6.52,2.87,4.31,5.59,1.29-8.46,5-1.36,3.85,2,4.11-.64,4.88,4.45,3.81,5.74,1.07-5.1,2.75-6.47,3-1.16,4,2.54,5.32,5.09,5.25,8.89.55-8.89,3.34-4.14,2.82-.65,4.89,3.79,3.46,2.14,3.28,4,2.88v10.37h-5.1L677,659.4S669,641.89,638.91,614Z"/>
    <polygon class="cls-8" points="716.66 548.67 738.08 546.77 748.72 546.77 755.45 548.67 759.34 552.51 762.27 559.99 762.69 564.57 761.2 570.79 765.13 574.12 767.26 580.76 767.26 586.38 765.21 591.76 762.8 594.35 765.51 597.34 767.98 603.39 766.96 610.73 763.2 615.12 759.1 618.15 760.65 623.09 760.28 628.1 758.45 632.28 753.96 635.86 746.39 638.21 743.18 635.54 738.39 631.69 729.56 629.94 722.76 630.04 710.54 631.84 699.32 635.18 694.79 634.24 690.94 629.02 696.25 626.62 702.73 624.12 706.7 622.37 714.48 621.63 721.77 620.77 723.9 618.47 723.97 614.51 722.82 611.66 719.47 609.87 714.01 611.52 703.51 613.96 697.04 614.51 691.94 613.96 686.85 608.71 693.08 607.35 699.32 605.1 705.46 603.39 713.79 602.97 718.05 601.27 721.59 598.26 722.76 590 713.79 590 706.47 592.33 697.04 593.64 693.08 592.9 686.85 588.76 687.49 583.88 690.93 583.72 696.07 582.48 702.32 580.76 708.48 579.47 716.28 578.4 720.18 576.81 721.59 572.38 721.24 567.59 712.56 568.23 702.73 570 695.31 570.95 689.72 569.66 687.15 568.23 686.85 565.35 693.08 563.93 702.73 560.96 710.43 559.61 714.48 558.41 719.11 556.6 720.88 554.12 720.18 551.11 716.66 548.67"/>
  </g>
  <g id="Capa_2" data-name="Capa 2">
    <g>
      <circle class="cls-6" cx="359.57" cy="434.19" r="55.72"/>
      <path d="M413.79,434.19c-.14,22.61-14.47,43.39-35.87,51A54.23,54.23,0,1,1,370.15,381c25.19,5,43.48,27.59,43.64,53.19a1.5,1.5,0,0,0,3,0,57.25,57.25,0,1,0-.72,9,60.85,60.85,0,0,0,.72-9A1.5,1.5,0,0,0,413.79,434.19Z"/>
    </g>
    <path d="M327.08,426.84a32.56,32.56,0,0,0,65.12,0,1.52,1.52,0,0,0-1.5-1.5H328.58a1.5,1.5,0,0,0,0,3H390.7l-1.5-1.5a29.56,29.56,0,1,1-59.12,0A1.5,1.5,0,0,0,327.08,426.84Z"/>
    <circle class="cls-9" cx="361.3" cy="433.2" r="6.36"/>
    <path class="cls-9" d="M312.54,465.78s-29.42,12.34-27,42.68,32.49,39.23,32.49,39.23"/>
    <path d="M346.09,486.76c-9.33.49-17.79,7.57-22.4,15.21-5.85,9.68-7.38,21.51-7.28,32.62a139.21,139.21,0,0,0,1.77,20.07,35,35,0,0,0,1.53,6.13,37.05,37.05,0,0,0,17,20.59c7.9,4.3,16.44,4.66,25.13,5.66l57.73,6.66,8.7,1,1.32.15c-.89-.11.08,0,.27.06a19.66,19.66,0,0,0,2.17.2c4.16.16,8.59-1,11.3-4.36,3.92-4.86,2.94-12.33,2.91-18.17,0-.84.17-2.1-.5-2.76a1.53,1.53,0,0,0-1.82-.23,2,2,0,0,0-.81,1.72c-.14,1.66,2.7,2.08,2.95.4,1.33-9.11-9-13.34-16.19-14.62-12.85-2.29-25.64-4.87-38.44-7.45a54.74,54.74,0,0,1-6.49-1.38c-4.22-1.72-8.2-5.5-9.17-10-.65-3.05.06-6.48.47-9.54a23,23,0,0,1,2.06-7.69c2.84-5.39,9.17-6.43,14.69-7,20.55-2.11,41.28-2.91,61.91-3.93.64,0,1.29-.09,1.94-.1-.74,0,.06,0,.42.05s1,.08,1.52.09c3.81.06,7.82-.91,10.67-3.55,4.57-4.24,4-11,4.11-16.66.08-4.64.39-10.66-2.95-14.38s-8.2-2.87-12.62-2.89c-2.4,0-4.8-.1-7.2-.14-.78,0-1.57,0-2.35-.05a1.19,1.19,0,0,1-.35,0c-3.56-.5-7.86-2.21-9.33-5.75a9.53,9.53,0,0,1,1.5-9,6.6,6.6,0,0,1,5.92-2,11.23,11.23,0,0,1,3,.76c1.79.73,2.57-2.17.8-2.9a11.8,11.8,0,0,0-9.48.12c-4.74,2.47-6.49,9.48-4.49,14.23,3.17,7.51,12,7.57,18.84,7.7,2.07,0,4.06,0,6.12-.1,2.46-.12,5.39,0,7.23,1.89,3.6,3.69,2.36,11.45,2.24,16-.17,5.82-.9,11.48-7.32,13.2a16.18,16.18,0,0,1-4.95.48c-1.14-.06-.69-.12-1.49-.11-7.83.08-15.7.79-23.51,1.23-11.94.67-23.88,1.35-35.79,2.38-5.3.45-11,.66-15.79,3.13s-7.07,7.11-8,12.24c-1,5.74-2.2,12.23,1,17.46a19.34,19.34,0,0,0,9.36,7.7,51.29,51.29,0,0,0,7.5,1.6q9.78,2,19.56,3.88c6.6,1.29,13.24,2.39,19.83,3.73,4.89,1,11,3.36,12.09,8.9a10.87,10.87,0,0,1,.13,1.4c0,.22-.1,1.09,0,.29l2.95.4c0-.29-.1.48-.67.87l-1.82-.24c-.63-.61-.38-1.33-.38-.21,0,.84,0,1.69,0,2.53,0,3.61.34,7.56-.54,11.07-1.18,4.62-5.13,6.72-9.65,6.79-3.51.06-7.42-.72-11.11-1.15l-55.6-6.41c-6.63-.77-13.72-.86-20.13-2.61a34,34,0,0,1-22-18.05c-3-6.08-3.5-11.46-4.15-17.82-1.25-12.28-1.24-25.45,3.45-37.07,2.57-6.37,6.82-12.16,12.75-15.76a26.73,26.73,0,0,1,5.84-2.65c.75-.23,1.51-.43,2.28-.59l.82-.15c.52-.09.22,0,.34-.05a3.29,3.29,0,0,1,.54-.05c1.92-.11,1.93-3.11,0-3Z"/>
    <path d="M265.45,450.24a72.52,72.52,0,0,1-3.15-22.09c0-15.33,4.75-30.51,15.66-41.6,8.79-8.94,20.35-14.4,32.29-17.76a1.51,1.51,0,0,0-.8-2.9C289.76,371.45,271.94,383,264,402.52c-5.14,12.58-5.68,26.69-3.41,40a61,61,0,0,0,2,8.55c.6,1.83,3.49,1,2.89-.8Z"/>
    <path d="M318.31,366.76l.21,0,1.6-.19q2.89-.3,5.8-.46a133.07,133.07,0,0,1,19.15.29c17.2,1.5,35,6.63,48,18.51,8.87,8.1,14.51,18.76,17.3,30.37.46,1.87,3.35,1.08,2.9-.8a63,63,0,0,0-14.93-28.58A66.08,66.08,0,0,0,375,370.2c-14.72-6-31.1-7.85-46.9-7.22a97.91,97.91,0,0,0-10.54.89c-1.9.29-1.1,3.18.8,2.89Z"/>
    <path class="cls-9" d="M415.18,430.83s1.53,8.74,13.15,8.74c9.69,0,17.11-.07,17.11-.07s22.93-1.8,22.93,18.4c0,16.24-12.28,16.18-12.28,16.18"/>
    <path d="M254.11,540.28c.11,4.26,2.82,8.56,5.36,11.78,8.43,10.69,22,16.66,34.64,20.76,14,4.55,28.62,7,43.22,8.67,1.91.21,1.9-2.79,0-3-21-2.38-43.46-6.23-62-17.07-7-4.1-14.54-10.14-17.37-17.67a18.61,18.61,0,0,1-.81-2.8c-.15-.75-.06,0-.08-.67-.05-1.93-3.05-1.94-3,0Z"/>
    <path d="M232,464.28c-5.84-.4-10.55,2.34-11.25,8.42a14.84,14.84,0,0,0,1.73,9.49c1.31,2.08,2.69,4,4.91,5.24,3.41,1.86,7.84,2,11.6,1.61s7.29-1.47,9.89-4.2c2.9-3,3.89-7.13,4.45-11.18a51.59,51.59,0,0,0-.78-19.69c-3-12-12-20.31-24.35-22.17-12.65-1.9-26.18.88-33.94,11.77a36.44,36.44,0,0,0-6.37,19A45.79,45.79,0,0,0,197,491.32c1.63,2.19,3.91,4,5.48,6.11a11.43,11.43,0,0,1,.84,2.58c1.69,6.84,2,14.59,1.77,21.59-.12,3.64-.22,7.44,2.49,10.31,2.11,2.24,5.05,2.7,8,2.54,2.31-.12,4.65,0,7,0,3.28.06,6.09-1,8.05-3.83,3-4.43,2-11,2.15-16.17l.15-6-1.5,1.5c5,0,10.13.29,15.14,0,7.27-.45,12.1-5.93,12.75-13.05.56-6.14-1.39-12.41-7.17-15.32-1.72-.86-3.24,1.73-1.52,2.59,5.92,3,7.15,10.94,4.75,16.71a10.08,10.08,0,0,1-8.14,6,44.24,44.24,0,0,1-5.64.08H231.39a1.54,1.54,0,0,0-1.5,1.5c-.1,4-.31,8.05-.31,12.06,0,4.18,0,9.58-5,10.91a3.15,3.15,0,1,0-.37.09c-.84.06-1.73,0-2.57,0-2,0-4.08-.13-6.11,0-2.7.16-5.35-.24-6.7-2.87a10.69,10.69,0,0,1-1-5.09c0-.46.06-.92.09-1.38,0,.75,0-.5,0-.65,0-1.38,0-2.75,0-4.13-.09-3.87-.27-7.74-.71-11.59-.35-3.06-.6-6.74-2.08-9.53a11.72,11.72,0,0,0-2.29-2.54,41.59,41.59,0,0,1-7.45-10.57A44.4,44.4,0,0,1,191,466.16c-.76-12.57,5.82-26,18.24-30.18,11.33-3.86,26.92-2.21,35,7.41,5.57,6.65,7.06,15.91,6.75,24.33-.06,1.78-.27,3.84-.45,5.14-.52,3.68-1.26,7.67-4.14,10.31-3.2,2.94-8,3.19-12.1,2.93-4.48-.29-8.29-2.51-9.9-6.74-1.07-2.78-1.17-7.29.58-9.77,1.62-2.3,4.55-2.48,7.12-2.31,1.93.14,1.92-2.87,0-3Z"/>
    <path class="cls-9" d="M245.92,508.46l2.84,4.15A37.19,37.19,0,1,1,201.46,501l3.25-1.57"/>
    <path class="cls-9" d="M242.09,562a35.19,35.19,0,1,1-49.76,0"/>
    <path class="cls-9" d="M210.17,571.31v17.14s-.35,7.3,4.29,7.36c2.75,0,7.19,1.33,7-6.13-.17-9.2,0-18.51,0-18.51"/>
    <path class="cls-9" d="M303.86,424s-42.34,8.89-52.4,57.69"/>
    <path class="cls-9" d="M412.82,450.64s-6.8,36.67,21.09,37,38.2,0,38.2,0"/>
    <path class="cls-9" d="M374.48,531.14A18.14,18.14,0,0,0,390.7,529a21.25,21.25,0,0,1,16.24-3.37"/>
    <path d="M396,513.43a22.51,22.51,0,0,1,8.84,8.06c1.68,2.73,5.13,12.27.13,13.72a1.52,1.52,0,0,0-.36,2.74c7,4.56,14.56-1.52,17.66-7.77a16.81,16.81,0,0,0-4.5-20.56c-1.49-1.19-3.63.92-2.12,2.12a13.86,13.86,0,0,1,4.43,16c-2.11,5.09-8.07,11.43-14,7.6l-.35,2.74c6.58-1.91,5-10.77,3-15.58a24.39,24.39,0,0,0-11.23-11.68c-1.72-.86-3.24,1.72-1.51,2.59Z"/>
    <circle class="cls-10" cx="483.11" cy="437.7" r="20.03"/>
    <circle class="cls-10" cx="487.11" cy="470.85" r="18.74"/>
    <circle class="cls-10" cx="526.31" cy="481.88" r="20.46"/>
    <circle class="cls-10" cx="523.61" cy="430.83" r="20.46"/>
    <g>
      <path class="cls-6" d="M620.87,393.21s5.21,14.65,6.13,49.16l-65.59-2.8s-18.45,1.29-17.34-12.73,7.54-13.72,23.17-17.85S620.87,393.21,620.87,393.21Z"/>
      <path d="M619.43,393.61A74.44,74.44,0,0,1,622.11,405a251.25,251.25,0,0,1,3.39,37.35l1.5-1.5-62.57-2.67c-6.95-.3-18,.14-18.87-9.1-.33-3.5.41-8,2.47-11,1.84-2.6,4.93-3.77,7.87-4.66,7.69-2.34,15.59-4.05,23.32-6.27,14.06-4,28.07-8.27,42-12.55,1.84-.56,1.06-3.46-.79-2.89q-19.31,5.91-38.67,11.57c-8.17,2.37-16.41,4.44-24.62,6.66-6.91,1.86-12.41,4.79-14,12.28-.81,3.82-1.2,8.1.75,11.65a12.86,12.86,0,0,0,6.84,5.57c3.49,1.36,7.13,1.54,10.81,1.57,10.45.11,20.93.9,31.37,1.35l34,1.45a1.5,1.5,0,0,0,1.5-1.5,258.71,258.71,0,0,0-3.42-37.69,74.34,74.34,0,0,0-2.76-11.87C621.68,391,618.78,391.78,619.43,393.61Z"/>
    </g>
    <g>
      <path class="cls-6" d="M627,502.37S623.43,517.5,605.48,547l-53.57-37.94s-15.63-6.71-7.67-20.11c7.18-12.08,13.78-7.43,29.15-2.42S627,502.37,627,502.37Z"/>
      <path d="M625.56,502a73.25,73.25,0,0,1-3.94,11,252.54,252.54,0,0,1-17.44,33.22l2.06-.54L556,510.12a49.22,49.22,0,0,0-4.71-3.06c-5.71-3.19-9.64-8.89-6.76-15.46,1.49-3.4,4.2-7.41,8-8.49,3.36-1,7.11.33,10.3,1.37,7.6,2.48,15.12,5.09,22.77,7.4,13.64,4.1,27.32,8.05,41,11.94a1.5,1.5,0,0,0,.79-2.9q-18.82-5.34-37.59-10.91-12.28-3.66-24.39-7.81c-6.7-2.3-13.91-4.24-19.33,1.65s-7.82,14.28-2.34,20.9c2.21,2.67,5.06,4.1,7.88,5.93,9,5.83,17.56,12.44,26.31,18.63l26.78,19a1.53,1.53,0,0,0,2.06-.53,257.33,257.33,0,0,0,17.55-33.51,75.38,75.38,0,0,0,4.12-11.47C628.9,500.89,626,500.09,625.56,502Z"/>
    </g>
    <path d="M422.7,525.36l41.49,1.18,5.89.17a1.54,1.54,0,0,0,1.5-1.5c.43-5.87-.08-13.21-4.12-17.81-1.27-1.46-3.39.67-2.12,2.12,3.46,3.94,3.61,10.7,3.24,15.69l1.5-1.5-41.5-1.18-5.88-.17c-1.93-.05-1.93,2.95,0,3Z"/>
    <path d="M419.54,510.29v3.85a1.5,1.5,0,0,0,3,0v-3.85a1.5,1.5,0,0,0-3,0Z"/>
    <line class="cls-9" x1="435.75" y1="510.29" x2="435.75" y2="524.23"/>
    <line class="cls-9" x1="451.99" y1="508.7" x2="451.99" y2="524.32"/>
    <path d="M444,526h.14c.48.08,1,.16,1.43.27a31.11,31.11,0,0,1,4.79,1.46A37.4,37.4,0,0,1,463.9,537,51.25,51.25,0,0,1,476,560.54a30.26,30.26,0,0,0,3.61,9.51c4.36,7.13,11.67,10.87,19.9,11.44L498,580c.09,7-7.21,10.92-13.74,11.25A41.26,41.26,0,0,1,447.69,572a36.33,36.33,0,0,1-4.15-8.26c-.59-1.83-3.48-1-2.89.8,2.9,9,9.71,17.22,17.45,22.41a44.26,44.26,0,0,0,25.25,7.3c5.59-.13,11.48-1.75,14.94-6.44A13.47,13.47,0,0,0,501,580a1.52,1.52,0,0,0-1.5-1.5c-7.64-.53-14.21-4.23-17.92-11-1.89-3.45-2.44-7.14-3.56-10.85-4.09-13.47-12.63-25.92-26-31.46a28,28,0,0,0-8-2.2c-1.92-.17-1.91,2.83,0,3Z"/>
    <path d="M455,301.68c-7.1,1.5-14.08,4.78-20.34,8.35a84.72,84.72,0,0,0-33.77,35.29,100.87,100.87,0,0,0-9.91,37c-.16,1.92,2.84,1.91,3,0,1.72-20.53,9.09-40.41,23.58-55.35a84.26,84.26,0,0,1,31.28-20.28,51.28,51.28,0,0,1,7-2.13c1.88-.4,1.09-3.29-.8-2.89Z"/>
    <path d="M435.28,294.72a53.62,53.62,0,0,0-12.06,5.75,86.12,86.12,0,0,0-23.93,21.88,101.08,101.08,0,0,0-12.43,22.09c-.74,1.78,2.16,2.56,2.89.8,8.17-19.64,22.84-37.42,42.58-46.18a32.1,32.1,0,0,1,3.74-1.45c1.85-.55,1.06-3.45-.79-2.89Z"/>
    <path d="M412.48,289.45C400,296.27,389.25,308.06,382,320.14a85.77,85.77,0,0,0-8.88,20.56,1.51,1.51,0,0,0,2.9.8,86.29,86.29,0,0,1,34.36-47.21c1.17-.79,2.35-1.58,3.59-2.25,1.7-.93.19-3.52-1.51-2.59Z"/>
    <path d="M395.22,286a110.74,110.74,0,0,0-15.09,15.45c-9.19,11.15-16.76,23.9-20.28,38-.46,1.88,2.43,2.67,2.9.8,3.48-14,11.05-26.63,20.26-37.6a109.38,109.38,0,0,1,14.33-14.54c1.5-1.21-.63-3.33-2.12-2.12Z"/>
    <path d="M376,282.44a93.29,93.29,0,0,0-11.42,15.1,120.56,120.56,0,0,0-16.39,40.19c-.39,1.88,2.5,2.69,2.89.79a118.36,118.36,0,0,1,16.09-39.47,89.77,89.77,0,0,1,10.95-14.49c1.35-1.38-.77-3.5-2.12-2.12Z"/>
    <path d="M355.34,281.25A93.93,93.93,0,0,0,346,298.08a110.7,110.7,0,0,0-10,40.67c-.08,1.93,2.92,1.93,3,0a107.35,107.35,0,0,1,10.11-40.25,93.69,93.69,0,0,1,8.88-15.74c1.14-1.56-1.46-3.05-2.59-1.51Z"/>
    <path d="M338.64,281.25a123.87,123.87,0,0,0-7.54,17,130.24,130.24,0,0,0-8.37,39.1c-.09,1.93,2.91,1.93,3,0A127.54,127.54,0,0,1,334,299a118.33,118.33,0,0,1,7.24-16.28c.94-1.68-1.65-3.2-2.59-1.51Z"/>
    <path d="M319.69,284.24a73,73,0,0,0-5.36,14.67A134.47,134.47,0,0,0,310,338.75c.07,1.93,3.07,1.94,3,0a131.07,131.07,0,0,1,4.22-39,69,69,0,0,1,5-13.95c.9-1.71-1.69-3.23-2.59-1.52Z"/>
    <path d="M300.29,286.65a99.66,99.66,0,0,0-2.06,12.62,389.73,389.73,0,0,0-2.43,41.83c0,1.93,3,1.93,3,0a392,392,0,0,1,2.38-41.39,92.69,92.69,0,0,1,2-12.26,1.51,1.51,0,0,0-2.9-.8Z"/>
    <path d="M284,288.5c-3.44,19.13-3,39.47-.1,58.6.28,1.9,3.17,1.09,2.89-.8a194.66,194.66,0,0,1-1.68-40.15,142.18,142.18,0,0,1,1.78-16.85c.34-1.89-2.55-2.7-2.89-.8Z"/>
    <path d="M266.38,292.48c-.66,7.26-.84,14.59-.78,21.87.12,12.44.8,25.56,5.07,37.36.65,1.81,3.55,1,2.89-.79-4.25-11.77-4.88-24.79-5-37.19-.05-7.08.14-14.2.78-21.25.18-1.92-2.83-1.91-3,0Z"/>
    <path d="M248.93,300a196.71,196.71,0,0,0,1,21.43c1.2,12.47,3.2,25.27,8.41,36.76.79,1.76,3.38.23,2.59-1.51-5.15-11.34-7-24.19-8.11-36.5a194.14,194.14,0,0,1-.91-20.18,1.5,1.5,0,0,0-3,0Z"/>
    <path d="M231.47,308.19a92.65,92.65,0,0,0,2.11,19.36c2.59,12.92,7.55,25.42,15.78,35.8,1.2,1.51,3.31-.62,2.12-2.12-8-10.12-12.68-22.48-15.12-35.06a88.39,88.39,0,0,1-1.89-18,1.5,1.5,0,0,0-3,0Z"/>
    <path d="M215.52,321.9a82.69,82.69,0,0,0,4.09,20.17c4.45,14,12,26.91,22.78,36.94,1.41,1.32,3.53-.8,2.12-2.12a82.66,82.66,0,0,1-22.17-36.16,78.14,78.14,0,0,1-3.82-18.83c-.11-1.92-3.11-1.93-3,0Z"/>
    <path d="M200.86,335.64a149.71,149.71,0,0,0,20.91,41.58,91.22,91.22,0,0,0,13.39,15c1.43,1.28,3.56-.83,2.12-2.12-10.85-9.62-18.78-22.15-25.14-35.07a147.74,147.74,0,0,1-8.39-20.24c-.58-1.83-3.48-1-2.89.8Z"/>
    <path d="M184.66,347.1a81.93,81.93,0,0,0,5.64,13,133.15,133.15,0,0,0,19.91,28.51A138.13,138.13,0,0,0,229.47,406c1.55,1.16,3.05-1.45,1.52-2.59-18-13.49-33.21-31.9-41.84-52.81-.58-1.41-1.15-2.82-1.6-4.27-.58-1.84-3.47-1.05-2.89.8Z"/>
    <path d="M171.84,363.05a94.79,94.79,0,0,0,7.86,14,124.73,124.73,0,0,0,24.55,27.81,105.06,105.06,0,0,0,22,14.1c1.74.82,3.26-1.76,1.52-2.59-21.88-10.38-39.58-28.79-50.94-50-.84-1.57-1.67-3.17-2.38-4.81s-3.35-.24-2.59,1.52Z"/>
    <path d="M161.62,379.23a99.75,99.75,0,0,0,9,13.72,127.1,127.1,0,0,0,26,25.83,99.41,99.41,0,0,0,22.23,12.27c1.8.71,2.58-2.19.8-2.89-22-8.68-40.27-26-52.76-45.89-.94-1.49-1.87-3-2.69-4.56s-3.49-.19-2.59,1.52Z"/>
    <path d="M156.87,401.25c13.4,13.67,27.84,27,43.68,37.75,1.6,1.09,3.11-1.51,1.52-2.59-15.63-10.65-29.86-23.8-43.08-37.28-1.36-1.38-3.48.74-2.12,2.12Z"/>
    <path d="M153.68,420.24c13.08,9.51,26.21,19,39.1,28.74,1.54,1.17,3-1.44,1.51-2.59-12.88-9.77-26-19.23-39.1-28.74-1.56-1.14-3.06,1.47-1.51,2.59Z"/>
    <path d="M152.68,439c12,6.71,24,13.4,36,20.2a1.5,1.5,0,0,0,1.51-2.59c-11.94-6.8-24-13.49-36-20.2-1.69-.94-3.2,1.65-1.52,2.59Z"/>
    <path d="M152.68,455.39c11.28,7.07,23.89,13.93,36.93,16.91,1.88.43,2.68-2.46.8-2.89-12.81-2.93-25.14-9.66-36.21-16.61-1.64-1-3.15,1.57-1.52,2.59Z"/>
    <path d="M151.23,470.49a110.58,110.58,0,0,0,43.2,16.1c1.89.25,2.7-2.64.8-2.9a108.29,108.29,0,0,1-42.48-15.79c-1.64-1-3.15,1.56-1.52,2.59Z"/>
    <path d="M151.23,484.17a67.61,67.61,0,0,0,12.49,7,154.14,154.14,0,0,0,37.34,11.32c1.89.34,2.7-2.55.8-2.9a150.56,150.56,0,0,1-37.08-11.23,66.72,66.72,0,0,1-12-6.76c-1.55-1.16-3,1.44-1.52,2.59Z"/>
    <path d="M151.23,500.74a91.3,91.3,0,0,0,38.17,11.05c1.93.1,1.92-2.9,0-3a87.78,87.78,0,0,1-36.65-10.64c-1.7-.92-3.22,1.67-1.52,2.59Z"/>
    <path d="M151.23,528.64c9,4.88,19.87,7.08,30,7a1.5,1.5,0,0,0,0-3c-9.59.1-20-1.94-28.48-6.57-1.7-.93-3.22,1.66-1.52,2.59Z"/>
    <path d="M183.79,546.19c-10.93.2-22.24-2.46-32.45-6.31-1.8-.69-2.59,2.21-.79,2.89,10.44,3.94,22.06,6.62,33.24,6.42,1.93,0,1.94-3,0-3Z"/>
    <line class="cls-9" x1="152.59" y1="595.91" x2="182.02" y2="592.78"/>
    <circle class="cls-9" cx="213.42" cy="725.75" r="25.86"/>
    <circle class="cls-9" cx="308" cy="698.04" r="25.86"/>
    <circle class="cls-9" cx="385.43" cy="642.75" r="25.86"/>
    <polyline class="cls-9" points="176.72 707.29 124.58 793.78 221.51 793.78 285.32 682.07"/>
    <path d="M332.8,694.23,388.06,739l7.68,6.22a1.53,1.53,0,0,0,2.12,0c5.76-7,11.34-14.06,16.84-21.22,9.8-12.78,19.48-25.83,27.63-39.75,3.25-5.56,6.82-11.63,8.05-18a1.56,1.56,0,0,0-.69-1.7L415.4,649.12l-4.9-2.2c-1.74-.78-3.27,1.8-1.51,2.59l34.29,15.38,4.89,2.2-.69-1.7c-1,5.41-3.86,10.49-6.54,15.23-3.82,6.76-8.11,13.25-12.54,19.62-8.42,12.15-17.42,23.9-26.66,35.44q-3,3.72-6,7.4h2.12L342.6,698.33l-7.68-6.22c-1.49-1.21-3.62.9-2.12,2.12Z"/>
    <path class="cls-9" d="M421,653.28s-27.69,47.11-51.19,69"/>
    <path d="M349,707l13.42,49.27c1.13,4.13,2.78,8.44,3.43,12.68.6,3.9-.57,7.71-4,9.9-3.14,2-7.12,2.49-10.75,2.62-3.37.13-7.06,0-10.14-1.52a7.43,7.43,0,0,1-4.15-7.14c.31-3.57,0-7.25,0-10.84a1.5,1.5,0,0,0-3,0l.1,6.5c0,1.05,0,2.1,0,3.15s.07-.36,0,.4c-.25,2.95.2,5.72,2.23,8,4.27,4.85,12.27,4.86,18.12,4.19,5.69-.65,11.82-2.87,14-8.68,1.75-4.74,0-9.41-1.27-14l-8.28-30.39-6.8-25a1.5,1.5,0,0,0-2.89.8Z"/>
    <path d="M300.24,762.23l1.54,13.42c.25,2.24.28,4.38,1.49,6.36,2.83,4.64,8.8,6,13.85,6.26a35.83,35.83,0,0,0,11.81-1.06c6.06-1.83,9.38-6.49,7.88-12.84-.44-1.88-3.33-1.09-2.89.79,2.27,9.66-9.72,10.38-16.43,10.12-4.12-.15-9.72-1.09-11.86-5.17-.16-.31-.6-1.86-.48-1.18-.21-1.21-.28-2.47-.42-3.69l-1.49-13c-.22-1.89-3.22-1.91-3,0Z"/>
    <path d="M267.82,763.77v12.79c0,2.42,0,4.48,1.43,6.61,4.75,7.32,17.58,6.88,25.18,5.45,5.21-1,10.59-3.72,10.72-9.69,0-1.93-3-1.93-3,0-.17,8.1-13.81,7.63-19.36,7.24-4-.29-9-1.1-11.19-4.9-1-1.72-.78-2.81-.78-4.89V763.77a1.5,1.5,0,0,0-3,0Z"/>
    <path d="M231,774.52c0,6.4,4.62,11.94,10.59,13.82,3.29,1,7,1.08,10.42,1.14a26.55,26.55,0,0,0,11.12-1.93,12.5,12.5,0,0,0,7.67-11.77c0-1.93-3-1.93-3,0-.18,10-10.76,10.94-18.47,10.55-5-.26-10.12-.88-13.19-5.35a12,12,0,0,1-2.14-6.46,1.5,1.5,0,0,0-3,0Z"/>
    <line class="cls-9" x1="252.4" y1="739.71" x2="358.14" y2="734.98"/>
    <path d="M467,711.63l13.34,8.54a22.69,22.69,0,0,0,22,1.41,23.09,23.09,0,1,0-29.66-32.84l2.05-.53-28.42-14.38c-1.72-.86-3.24,1.72-1.51,2.6l28.41,14.37a1.55,1.55,0,0,0,2.06-.54,20.1,20.1,0,1,1,10.44,29.41,22.56,22.56,0,0,1-4.67-2.61l-12.52-8c-1.64-1-3.14,1.55-1.52,2.59Z"/>
    <path d="M446.35,736.57,457.8,742c1.7.81,3.51,1.53,5.16,2.46a19,19,0,0,1,7.35,8.6,20.1,20.1,0,1,1-36.33-.8,1.53,1.53,0,0,0-.54-2l-27.2-16.56c-1.65-1-3.16,1.58-1.51,2.59l27.2,16.56-.54-2.05a23.09,23.09,0,1,0,43.66,10.59c0-7.77-4.26-16.45-11.48-19.9L447.86,734c-1.73-.83-3.26,1.76-1.51,2.59Z"/>
    <path class="cls-9" d="M494.64,722.2a21.67,21.67,0,0,1-21.16,34.89"/>
    <path d="M471.05,770.11a100.67,100.67,0,0,0,21.13,12.56c9.56,4.17,20.93,7.16,30.24.91L534,775.82c1.6-1.07.1-3.67-1.51-2.59l-9.8,6.57c-3.45,2.31-6.65,4.19-11,4.41-11.1.57-22.25-5.55-31.35-11.29-1.82-1.15-3.61-2.34-5.36-3.59-.49-.35-1-.7-1.46-1.06-.17-.12-1-.78-.38-.28-1.51-1.17-3.65.94-2.12,2.12Z"/>
    <path d="M606.89,717.76l-21.57,22.1-34.23,35.06-8,8.15,1.46-.39c-6.41-1.1-9.68-6.27-10.87-12.28-.94-4.71-.16-9.5-1.25-14.21a27.11,27.11,0,0,0-6.55-12.47c-3.3-3.45-9-5.8-13.69-6.46a31.85,31.85,0,0,1-4.82-.71,10.5,10.5,0,0,1-7.49-7.67,1.51,1.51,0,0,0-2.9.8c1.84,7.05,7.82,10,14.56,10.53.61,0-.46-.1.05,0s.73.16,1.09.25a36.67,36.67,0,0,1,5.11,1.65,17.63,17.63,0,0,1,7.75,6,23.94,23.94,0,0,1,4.28,10.24c.53,3,.19,6,.44,9,.51,6.38,2.88,13.52,8.91,16.69,1.73.91,4.62,2.3,6.29.86.82-.7,1.55-1.58,2.3-2.36L558.1,772l30.66-31.4L609,719.89c1.35-1.39-.77-3.51-2.12-2.13Z"/>
    <path class="cls-9" d="M510.52,712.46s4.77-6.16,13.69-2.23,27.67,12,32.8,31.06c0,0,2.79,13.63,6.41,23.15"/>
    <path class="cls-9" d="M570.62,673.28S522.19,705,513,710.4"/>
    <path class="cls-9" d="M612.56,664C602.39,678.28,593,682.54,593,682.54a16.16,16.16,0,1,1-13.29-29.26s24.47-6.39,64.46-44.25c0,0,15-15,13.49-43.38L656.8,547s-1.58-13.29,6.28-20.43l4.36-4.11"/>
    <path class="cls-9" d="M640.77,696.18a664,664,0,0,0-44.57-50.41"/>
    <path class="cls-9" d="M627,679.49c-14.11,5.14-20.6,12.34-20.6,12.34a16.16,16.16,0,0,0,10.68,28.29c4.12,0,8.34-1.3,13.26-7.91,0,0,13.1-20.54,25.24-32.5s36.06-33.94,36.06-33.94h6.24"/>
    <path class="cls-9" d="M638.6,614.18s25.11,22.82,38.09,45.07"/>
    <path d="M716.41,550.68c1.85.31,3.16,2.16,1.88,4-.7,1-2.23,1.51-3.31,1.91a47,47,0,0,1-7.57,1.94,121.25,121.25,0,0,0-17.58,5.07c-5,1.75-4.08-6.42-1.9-8.61a12.66,12.66,0,0,1,6.12-3c.29-.07,1.45-.23.65-.15l.66,0c16.66-.77,33.28-2.65,49.95-3.26a16.45,16.45,0,0,1,10.59,3.14c3.67,2.91,5,8.17,5,12.66a11.06,11.06,0,0,1-1.3,6,1.5,1.5,0,0,0,.53,2c3.12,1.33,5,4.67,5.28,7.93.43,4.86-.11,10-4,13.28a1.51,1.51,0,0,0,.3,2.35c-.55-.42.44.41.57.55a11.66,11.66,0,0,1,1.51,1.78,12.67,12.67,0,0,1,2.35,7.47c0,5.76-3.65,8.64-8.53,10.82-1,.43-.83,1.68-.31,2.35-.39-.49.27.46.38.68a9.77,9.77,0,0,1,.91,2.45,12.66,12.66,0,0,1-1.23,9c-2.32,3.88-7.53,5.31-11.71,6-1.9.32-1.09,3.21.8,2.9,5.36-.9,11.65-3.15,14.06-8.46,2-4.48,2.06-10.69-1.09-14.71l-.3,2.36c5.9-2.64,10-6.61,10-13.41a15.7,15.7,0,0,0-5.91-12.39l.3,2.36c4.59-3.93,5.48-10.35,4.78-16.12-.49-4-2.87-8.17-6.69-9.8l.54,2c3.36-5.11,1.76-14-1.2-18.81-3.08-5-9.19-7.44-14.91-7.46-8.2,0-16.54,1-24.73,1.57l-18.45,1.21c-2.85.18-5.8.17-8.63.59-4.7.68-10.1,3.62-11,8.68-.72,4.28,1.14,10.89,6.75,9.13,4-1.26,7.91-2.7,11.94-3.83,3.13-.87,6.3-1.37,9.45-2.13,3-.71,7.5-1.63,9.34-4.39a5.52,5.52,0,0,0-3.59-8.54c-1.89-.31-2.7,2.58-.79,2.9Z"/>
    <path d="M741.79,608.78a119.25,119.25,0,0,0-17.73.23c-11.46.9-23.06,3-33.54,7.93-1.56.72-3,1.28-4,2.69a8.42,8.42,0,0,0-1.35,6.25c.72,4.48,4.25,5.68,8.24,4.19,1.84-.68,3.46-1.81,5.23-2.64a48.45,48.45,0,0,1,16.51-4.17c4-.32,9.16-1,10.08-5.72a9.42,9.42,0,0,0-1.43-6.42c-1-1.64-3.61-.13-2.59,1.52a6.81,6.81,0,0,1,1.13,3.88c-.28,4-6.25,3.61-9,3.91A47.7,47.7,0,0,0,695,626a14.86,14.86,0,0,1-3.26,1.51c-2.62.75-3.85-.61-3.7-3.39.24-4.31,5.5-5.34,8.83-6.56a103.77,103.77,0,0,1,28.72-5.63,116.65,116.65,0,0,1,16.19-.12c1.93.14,1.92-2.87,0-3Z"/>
    <path d="M743.4,589c-14.34-1-29.44-.12-43.39,3.39a59.69,59.69,0,0,0-13.2,4.83,7.91,7.91,0,0,0-4.28,7.6c.25,4,2.57,6.16,6.47,5.47,4.86-.85,9.32-3.43,14.14-4.55,5.24-1.22,11.45.19,16.16-3,3.34-2.25,4-6.16,4.36-9.9.16-1.92-2.84-1.91-3,0-.24,2.79-.65,5.92-3.23,7.54-3.73,2.34-8.71,1.33-12.86,2-4.66.76-8.94,2.68-13.38,4.18-1.13.38-3,1.22-4.21.87-1.92-.55-1.69-3.87-1-5.32,1.2-2.57,4.54-3.47,7.24-4.5a75.41,75.41,0,0,1,12.06-3.35A142.71,142.71,0,0,1,730,591.77c4.45-.1,8.93-.1,13.38.19,1.93.13,1.92-2.87,0-3Z"/>
    <path class="cls-9" d="M686.55,608.93s3,7.93,15.88,5.25"/>
    <path d="M741.79,566.21a123.82,123.82,0,0,0-16.9-.32c-11.12.42-22.49,1.92-32.93,5.92-3.14,1.2-7,2.3-8,5.93-1.17,4.06,1.18,7.63,5.33,7.85a19.34,19.34,0,0,0,7.16-1.33,84.84,84.84,0,0,1,11.82-3.18,77.49,77.49,0,0,1,8.31-.65,6.32,6.32,0,0,0,4.93-2.79,11,11,0,0,0,1.07-7.77c-.34-1.9-3.23-1.1-2.89.79.24,1.3.28,3.85-.67,5.3s-2.52,1.49-4.17,1.47a36.94,36.94,0,0,0-6.72.63c-5.34.93-10.3,3.07-15.55,4.21-1.34.29-3.32.71-4.62.05-1.76-.88-1.56-3.8-.35-5.09a8.28,8.28,0,0,1,2.85-1.57,65.46,65.46,0,0,1,7.92-2.83,111.72,111.72,0,0,1,27.76-4,124.51,124.51,0,0,1,15.69.37c1.92.19,1.91-2.81,0-3Z"/>
    <path class="cls-9" d="M686.55,565.57s.28,7.15,12.46,5.51"/>
    <path class="cls-9" d="M687.18,584.1s-3.74,11.53,13.91,9.53"/>
    <path class="cls-9" d="M685.87,496,668.59,516.6s-3.44,7.37,2.54,10.17S684,520.29,684,520.29l10-14.11s4.58-6.62,1.94-10.68C692.1,489.66,685.87,496,685.87,496Z"/>
    <path class="cls-9" d="M695.77,502.77s9.67,3.06,5.86,24.52a29.44,29.44,0,0,1-11.31,17.19s-4.66,3.84-2,8.25"/>
    <path d="M695.23,635.4c-.38,5.19.4,10.58,1.15,15.7,2.28,15.66,6.93,31,12.52,45.76,4.21,11.15,9.05,22.07,14.31,32.77,5.71,11.58,11.76,23,17,34.77,5.31,12,10.93,24.78,12.68,37.88a22.46,22.46,0,0,1,0,7.27,8.84,8.84,0,0,1-.25.88c-.17.53.12-.2-.11.27s-.09.16-.05.13a1.51,1.51,0,0,0,1.46,2.5c21.82-7.59,43.59-17.39,63-29.93a107.17,107.17,0,0,0,19.48-15.51,1.52,1.52,0,0,0,0-2.12c-16.38-17.53-32-35.88-46.78-54.76-10.88-13.88-21.49-28.19-30.23-43.54-3.31-5.83-6.72-12-8.56-18.5-1.4-5-3.19-9.71-6.53-13.74a17.17,17.17,0,0,0-11.07-6.36,66.88,66.88,0,0,0-19.91,1,71.45,71.45,0,0,0-7.88,2c-2.41.74-5.1,2.17-7.63,2.18-2.85,0-4.46-2.53-4.81-5.11-.26-1.91-3.15-1.1-2.89.79a9.39,9.39,0,0,0,3,5.65c3.29,2.84,7.3,1.29,10.91.1a71.6,71.6,0,0,1,14.57-3.35,77.08,77.08,0,0,1,8.86-.44c2.87,0,5.87-.08,8.59,1,6.42,2.51,10,9.79,11.68,16.1a74.19,74.19,0,0,0,6.29,15.08c8,15.39,18.34,29.58,28.86,43.32s21.54,27,32.88,40.06c6.09,7,12.23,13.94,18.56,20.71v-2.12c-10.58,11-24.35,19-37.83,25.91a365.75,365.75,0,0,1-36,16c-2.45.94-4.9,1.87-7.37,2.73l1.46,2.51c1.79-1.76,1.63-5.44,1.52-7.67-.51-10.85-4.8-21.68-8.79-31.62-9.19-22.85-21.77-44.09-31.28-66.79-6.94-16.56-12.79-33.77-16-51.47-1.17-6.46-2.36-13.39-1.88-20,.14-1.93-2.86-1.92-3,0Z"/>
    <path class="cls-9" d="M726.16,732.18s40.74-10.67,55.69-28.92"/>
    <path d="M737,669.37c6,11.49,12.18,22.87,18.47,34.2,11.44,20.6,23.15,41.16,36.28,60.75,5.24,7.8,10.66,16,17.59,22.48,1.41,1.31,3.54-.8,2.12-2.12-5.93-5.51-10.65-12.41-15.2-19-6.5-9.49-12.55-19.29-18.45-29.17-11-18.51-21.54-37.36-31.73-56.36-2.18-4.07-4.36-8.15-6.49-12.25-.89-1.71-3.48-.2-2.59,1.52Z"/>
    <path d="M721.64,674q9.48,19.4,18.63,39c10.42,22.17,20.84,44.42,29.91,67.19,1.77,4.46,3.51,9,5,13.52.85,2.62,1.91,5.65,2,8.16,0,1.92,3,1.93,3,0a26.93,26.93,0,0,0-1.52-7.25c-1.19-3.9-2.61-7.73-4.08-11.54-4.08-10.57-8.6-21-13.2-31.32-9.66-21.79-19.82-43.37-30.14-64.86-2.3-4.79-4.61-9.59-6.95-14.36-.85-1.74-3.43-.22-2.59,1.51Z"/>
    <path d="M743.29,546c-.59-14.81.62-29.7,2.14-44.43.84-8.14,1.8-16.28,3-24.38a1.53,1.53,0,0,0-1.44-1.9c-21.33-1-42.83-1.39-64.12.55-8.45.78-17.23,1.71-25.34,4.4a18.64,18.64,0,0,0-3.12,1.25,1.52,1.52,0,0,0-.69,1.7c1.72,5.26,3.3,10.58,4.79,15.92,2.28,8.2,4.86,16.77,5.28,25.32.09,1.92,3.09,1.93,3,0-.42-8.63-2.93-17.26-5.23-25.54-1.53-5.53-3.16-11.05-5-16.5l-.69,1.69a1.63,1.63,0,0,1,.52-.24c.33,0-.22.07.4-.17l1-.38a60.55,60.55,0,0,1,7.94-2.07c13.1-2.67,26.65-3.3,40-3.59,13.74-.29,27.48,0,41.2.66l-1.45-1.89a500,500,0,0,0-5.06,49.91c-.32,6.56-.46,13.13-.2,19.69.08,1.92,3.08,1.93,3,0Z"/>
    <path class="cls-9" d="M702.48,519.75s26.48-1.13,39.94-.76"/>
    <path d="M739.7,474.33c-1.59-2.51-2.81-4.8-1-7.57,1.07-1.67,2.17-3,2.42-5a7.68,7.68,0,0,0-.89-4.67c-.41-.72-1.41-1.51-1.65-2.27-.39-1.22,1.07-1.93,1.81-2.66,2.67-2.63,2.8-6.5,1.81-9.92-.44-1.53-2.5-4.64-1.68-6.19.36-.7,1.5-1.23,2-1.84a7.47,7.47,0,0,0,1.34-2.26c1.25-3.24,0-6-2.31-8.28-1-.95-2.32-1.91-2.52-3.34-.3-2.12,1.84-4.32,2.63-6.2,1.4-3.34,1.28-6.56-1.3-9.21-.84-.86-1.46-1.44-1.31-2.74a9.66,9.66,0,0,1,1-2.52,7.86,7.86,0,0,0,.91-4.08c-.39-3.31-6-5.22-4.49-8.51.82-1.82,2.54-3.06,3.31-4.93a7.2,7.2,0,0,0,0-5.17,27.78,27.78,0,0,0-1.83-4.8c-.46-.84-1.05-1.61-1.46-2.48-.74-1.6-.19-2.84.21-4.42a6.67,6.67,0,0,0-.36-4.83,6.4,6.4,0,0,0-1.29-1.76c-.75-.72-2.53-1.19-2.57-2.4-.06-1.52,1.62-3.25,1.79-4.89a7.12,7.12,0,0,0-1.41-5.06,12.64,12.64,0,0,0-3.22-2.69c-2.32-1.53-3.54-2.51-2.75-5.53s2-6.51-.83-8.93a18,18,0,0,0-3.22-1.77c-2-1.12-1.74-2.5-1.48-4.59.19-1.62.21-3.32-1-4.61-1.33-1.47-3.54-1.13-4.89-2.38s-1.12-4-1.54-5.72a6.85,6.85,0,0,0-2.41-3.95c-1.36-1.05-3-1.45-4.53-2.24-2.41-1.28-1.35-3.37-2.19-5.54-1.85-4.73-9.4-3-9.11-9.15h-3c.24,2.57-4.32,2.83-6,3.91a7.59,7.59,0,0,0-3,3.83c-.59,1.64-.33,3.18-.31,4.88,0,3.08-2.71,2.87-4.68,4.34a7.09,7.09,0,0,0-2.59,3.76c-.57,2.06.44,4.45-.3,6.4-.91,2.4-4.67,2.91-6.58,4.32a6.14,6.14,0,0,0-2.17,2.69c-.84,2.21.43,4.1.39,6.29,0,2.93-2.58,3.44-4.44,5a6.88,6.88,0,0,0-2.28,4.21,10.37,10.37,0,0,0,.32,4.5c.41,1.45,1.25,2.74-.18,4.08-.59.55-1.49.81-2.11,1.37-2.69,2.4-1.64,6.12-.33,9a8.24,8.24,0,0,1,1,2.39c.16,1.63-1,2.34-2,3.22a7.24,7.24,0,0,0-2.79,4.45c-.63,3.75,3.45,6.25,2.56,9.82-.44,1.78-1.83,1.83-3.16,2.74a7,7,0,0,0-2.67,3.86,5,5,0,0,0,.9,4.15,27.57,27.57,0,0,0,2,1.9c1.43,1.6.44,2.59-.69,3.73-2.37,2.41-3.89,6-2.4,9.29a7.68,7.68,0,0,0,2.84,3.09c2.6,1.88-.61,4.32-1.52,6.4-1.53,3.5.22,6.18,2.15,9a7.47,7.47,0,0,1,1,6.86c-.55,2-1.37,4.17-1.08,6.31.35,2.5,2.63,3.25,3.39,5.44.86,2.51-.58,5.39-.24,8a5.85,5.85,0,0,0,2.58,4.42,6.77,6.77,0,0,1,.82.36c.8.59.78-.3,1,1.08.14,1.11-.79,2.08-1.16,3.1-1.44,4.05.28,7.59,3.16,10.38,1.29,1.26,1.82,2.25,1,4-.47,1-1.42,1.78-2,2.76a5.11,5.11,0,0,0-.2,5.25c.94,1.69,3.53.18,2.59-1.51-1.09-1.94,2.15-4.57,2.81-6.29a4.79,4.79,0,0,0-.2-4.1c-.81-1.49-2.27-2.37-3.33-3.65a6.22,6.22,0,0,1-.46-7c.71-1.4,1.51-2.83,1-4.46-.46-1.42-1.45-1.7-2.67-2.25-2.65-1.2-2-3.9-1.66-6.32.25-2.05.34-4.15-.76-6-1.21-2-3-2.52-2.57-5.33.38-2.28,1.4-4.4,1.53-6.73a8.49,8.49,0,0,0-1.16-4.69c-.95-1.7-2.71-3.26-3-5.24-.64-3.91,5.6-6.51,2.76-10.56-.88-1.24-2.46-1.72-3.37-2.91-1.78-2.34-.09-5.12,1.64-6.88,2.49-2.52,3.25-5,.42-7.7-.84-.8-2.14-1.45-2.16-2.82s1.44-2.4,2.51-2.95a5.74,5.74,0,0,0,2.84-2.55,7.7,7.7,0,0,0-.17-7c-1.32-2.46-2.92-4.56-.38-7,1.29-1.23,2.67-2,3.26-3.8,1.14-3.56-3.76-7.34-2-10.53.77-1.38,2.83-1.69,3.77-3,1.06-1.51.76-3.21.26-4.87-.59-1.94-1.29-4.29,0-6.13s3.64-2.16,4.9-4a7,7,0,0,0,1.2-4.27c-.11-2.16-1.59-4.51.46-6.16,2.24-1.79,5.45-2,7.12-4.59a7.83,7.83,0,0,0,.88-4.95c-.07-1.42-.2-2.87.66-4.1s2.14-1.48,3.39-2a5,5,0,0,0,3.28-3.56c.47-2.09-.47-4.28.42-6.29,1.8-4.05,9.53-2.64,9-8.41a1.5,1.5,0,0,0-3,0,7.87,7.87,0,0,0,5.08,7.83,25.44,25.44,0,0,1,2.83,1.09c1.6.87,1.42,2.36,1.61,3.94a5.18,5.18,0,0,0,2,3.6,14.76,14.76,0,0,0,3.5,1.77,5.15,5.15,0,0,1,3.55,4.35c.51,2.89.74,5.87,3.78,7.19a18.52,18.52,0,0,1,2.39.77c1.31.82,1,2.06.88,3.32a7.26,7.26,0,0,0,.43,4.58c1.29,2.35,4.67,2.24,5.88,4.35s-.69,4.88-1,6.89a5.69,5.69,0,0,0,1,4.49c2.2,2.92,7.93,3.91,6.44,8.61-.52,1.63-1.72,3-1.59,4.81s1.26,2.57,2.61,3.42c2.83,1.8,1.52,4,1.08,6.63a7.32,7.32,0,0,0,1.08,5,32.2,32.2,0,0,1,2.52,5.58c1,2.85-.15,4.34-1.83,6.57-2,2.59-2.52,5.59-.21,8.15,1,1.09,3,2.11,3.27,3.66.34,1.77-1.3,3.67-1.78,5.31a5.19,5.19,0,0,0,.16,3.7c.91,1.91,3.09,2.71,3.21,5,.2,4.09-4.26,6.92-3.53,11.1.53,3,3.52,4.1,4.85,6.59,1.53,2.85-.87,4.58-2.57,6.4-1.32,1.42-1.28,3.05-.67,4.81.83,2.43,2.13,4.76,2.09,7.41,0,2.91-2,3.75-3.49,5.77a3.83,3.83,0,0,0-.33,4.42c.66,1.13,1.68,1.93,2,3.25a5,5,0,0,1-.79,4.11c-1.16,1.83-2.51,3.29-2.56,5.58s1.21,4.61,2.47,6.6c1,1.63,3.62.12,2.59-1.52Z"/>
    <line class="cls-9" x1="654.3" y1="382.91" x2="738.52" y2="381.36"/>
    <path class="cls-9" d="M653.42,415.8l14-.95S679.5,414.08,681,424s-4.91,13.13-8.89,13.74a99.59,99.59,0,0,1-13.34.95"/>
    <path d="M195.34,334.89a49.35,49.35,0,1,0-12.1.63c6.81.49,13.49-.2,19-4.64,12.42-10,9.53-30.29-5.15-36.46-9.57-4-20.5.06-21.55,11.36-.35,3.7,1.07,8,4.27,10.13,4.27,2.81,12.6,1.52,13.57-4.26a7.47,7.47,0,0,0-.37-3.86c-.7-1.78-3.6-1-2.89.8,1.68,4.3-3.07,6.39-6.8,5.58-3.11-.68-4.77-4-4.87-7a10.85,10.85,0,0,1,7.67-11c3.82-1.13,8.13-.1,11.59,1.82,13.29,7.4,12.12,27.57-2,33.28-5.38,2.17-12.27,1.57-17.83.48a46.23,46.23,0,1,1,26.27-2.52,48.26,48.26,0,0,1-9.58,2.72c-1.89.34-1.09,3.23.8,2.89Z"/>
    <path d="M139.67,298.15l14.46,7.46c1.71.88,3.23-1.71,1.51-2.6l-14.46-7.45c-1.71-.89-3.23,1.7-1.51,2.59Z"/>
    <path d="M153.66,291.18l-13-8.95c-1.59-1.1-3.09,1.5-1.51,2.59l13,8.95c1.59,1.1,3.09-1.49,1.51-2.59Z"/>
    <path d="M141.63,269l14.63,17c1.26,1.47,3.37-.66,2.12-2.12l-14.63-17c-1.26-1.47-3.37.66-2.12,2.12Z"/>
    <path d="M151.2,254.37l12.59,22.08a1.5,1.5,0,0,0,2.59-1.51L153.8,252.85a1.51,1.51,0,0,0-2.6,1.52Z"/>
    <path d="M166.78,242.78l6.9,27.84c.46,1.87,3.36,1.08,2.89-.8L169.67,242c-.47-1.88-3.36-1.08-2.89.79Z"/>
    <path d="M198.83,241.6l-3.44,28.62c-.23,1.91,2.77,1.89,3,0l3.44-28.62c.23-1.91-2.77-1.9-3,0Z"/>
    <path d="M213.22,247.28l-8.34,25.28c-.61,1.84,2.29,2.62,2.89.8l8.34-25.28c.61-1.84-2.29-2.63-2.89-.8Z"/>
    <path d="M225.87,260.24l-12.5,17.59c-1.12,1.58,1.48,3.08,2.59,1.52l12.5-17.59c1.12-1.58-1.48-3.08-2.59-1.52Z"/>
    <path d="M231.91,273.38,218.81,286c-1.39,1.34.73,3.46,2.12,2.12L234,275.5c1.4-1.34-.73-3.46-2.12-2.12Z"/>
    <path d="M221.67,299.06l12.66-7.28a1.5,1.5,0,0,0-1.51-2.59l-12.66,7.28a1.5,1.5,0,0,0,1.51,2.59Z"/>
    <path d="M187.6,268c.32-14.44.61-28.76.21-43.19l-2-73.37c-.36-13,.1-25.49-5.28-37.69a45.6,45.6,0,0,0-11-15.51c-6.08-5.5-13.1-8.27-20.86-10.48-4.81-1.36-9.56-2.62-14.62-2-5.92.7-13.81,5.7-11.78,12.74,1.41,4.85,7.18,7.4,11.58,8.8a12.59,12.59,0,0,1,3.58,1.59c9.56,5.78,13.83,17.51,15.4,28a89.51,89.51,0,0,1,.78,15.78l1.5-1.5c-8.52-1-18.31,1.16-25,6.58a30.63,30.63,0,0,0-10.36,16.23c-1.31,6-.09,12.15.63,18.12,2.61,21.49,8.17,42.54,13.58,63.46q2.52,9.69,5.14,19.34a1.51,1.51,0,0,0,2.9-.8q-6.19-22.49-11.58-45.2c-2.34-9.9-4.67-19.86-6.19-29.93-.83-5.46-1.57-11-2-16.53a24.52,24.52,0,0,1,4.58-16.63c6.36-9,17.44-12.94,28.28-11.64a1.51,1.51,0,0,0,1.5-1.5c.41-14.17-1.51-30.19-11.43-41.16-3.49-3.87-7.32-5.87-12-7.63-5.25-2-11.34-6.47-5.86-12,4.65-4.74,12.84-3.48,18.57-1.81,6.1,1.78,12,3.47,17.36,7.08a40.9,40.9,0,0,1,13.06,14.77,51.4,51.4,0,0,1,6,21.71c.19,4.79.26,9.58.39,14.38l2,71.54c.18,6.59.46,13.19.54,19.78.1,8.38-.35,16.81-.53,25.19L184.6,268c0,1.93,3,1.93,3,0Z"/>
    <path d="M153.56,175.77c-6.18-7.62-15.69-13.72-25.44-15.1-1.89-.27-2.7,2.62-.8,2.89,9.32,1.32,18.21,7.05,24.12,14.33,1.22,1.5,3.33-.64,2.12-2.12Z"/>
    <path d="M148.71,184.21c-6.34-8-17.15-12.38-27-13.41-1.92-.2-1.91,2.8,0,3,9.09.95,19,5.18,24.86,12.53,1.2,1.51,3.32-.63,2.13-2.12Z"/>
    <path d="M237.92,152.54c-9.39,5.38-19,11.94-26,20.16-1.26,1.46.85,3.59,2.12,2.12,6.95-8,16.25-14.42,25.44-19.69a1.5,1.5,0,0,0-1.51-2.59Z"/>
    <path d="M247.72,162.51c-10,5.2-20.2,11.28-28.49,19-1.42,1.32.71,3.44,2.12,2.12,8.1-7.55,18.08-13.46,27.89-18.54,1.71-.89.2-3.48-1.52-2.59Z"/>
    <path d="M124.76,213.85l32.16,10c1.85.57,2.64-2.32.8-2.89l-32.16-10c-1.85-.58-2.64,2.32-.8,2.89Z"/>
    <path d="M127.32,226.92l29.6,7.75a1.5,1.5,0,0,0,.8-2.89L128.12,224a1.51,1.51,0,0,0-.8,2.9Z"/>
    <path d="M245.27,207.71l-31.36,15c-1.74.84-.22,3.42,1.51,2.59l31.37-15c1.74-.83.22-3.42-1.52-2.59Z"/>
    <path d="M243.05,222.58l-26.43,9.2c-1.81.63-1,3.53.8,2.89l26.42-9.2c1.82-.63,1-3.53-.79-2.89Z"/>
    <path d="M185.31,133.61C187.78,115,196.57,92,216.9,86.73c.56-.15,1.12-.26,1.69-.37.36-.07-.13,0-.14,0l1.19-.2c4.33-.7,9.08-1.27,13.43-.38,2.52.51,4.19,1.39,4.28,4.14.11,3.57-1.81,6.51-4.58,8.61a31.13,31.13,0,0,1-7.4,3.72,18.09,18.09,0,0,0-7.81,6.27c-8.45,11.71-7.91,28.36-6.13,41.93a1.53,1.53,0,0,0,1.9,1.44,64.07,64.07,0,0,1,11.16-.72c6,.09,13.39.76,17.9,5.24,9,8.94,7.44,21.46,5.5,32.46-3.72,21.05-7.92,42-12,63q-1.87,9.51-3.74,19c-.38,1.88,2.52,2.69,2.89.79q5.08-25.71,10-51.45c2-10.28,4-20.55,5.77-30.86,1.95-11,3.29-23-4.06-32.46-7.74-10-22.81-9.79-34.24-7.91l1.9,1.45c-1.71-13-2.52-29.36,5.81-40.54,4.23-5.68,12.09-6,16.79-11.23,3.31-3.72,5.52-11.54.22-14.6-4.32-2.49-10.44-1.84-15.17-1.27q-1.4.17-2.79.39c-.2,0-1.78.32-.85.16-.43.07-.86.12-1.29.21-6.1,1.23-11.81,4.73-16.37,8.86-11.57,10.46-16.48,26.14-18.47,41.16-.25,1.91,2.75,1.89,3,0Z"/>
    <path class="cls-9" d="M158.79,545.58s-9.88,21.69-5.53,50.33l2.21-.3"/>
    <path d="M154,595.61c.41,10.21.67,20.42.86,30.64.35,19.1.51,38.25-.39,57.34-.38,8-.74,16.1-2.45,23.91a1.53,1.53,0,0,0,1.45,1.9c4.92.19,9.88,0,14.8-.16a355.22,355.22,0,0,0,38.23-3.67,337.49,337.49,0,0,0,51.79-11.84,267.75,267.75,0,0,0,55.95-24.66,206.51,206.51,0,0,0,51.16-42.34q2.85-3.3,5.54-6.73a1.53,1.53,0,0,0-.66-2.51c-11-4.27-21.84-9.16-32.51-14.25-20.56-9.81-41-20.69-59.19-34.49-8.84-6.71-17.62-14.37-23.45-23.93-1-1.64-3.6-.14-2.59,1.52,5.16,8.46,12.55,15.44,20.21,21.63a238.28,238.28,0,0,0,28.92,19.63,488.61,488.61,0,0,0,55.67,27.77c4,1.72,8.06,3.43,12.15,5l-.67-2.5c-26.82,34-64.53,57.15-105.22,71a340.22,340.22,0,0,1-92,17.25c-6,.3-12.11.54-18.15.31l1.45,1.9a135.14,135.14,0,0,0,2.34-20.66c.54-9.4.74-18.83.81-28.24.14-17.56-.16-35.12-.69-52.67-.11-3.71-.23-7.42-.38-11.12-.08-1.93-3.08-1.94-3,0Z"/>
  </g>
</svg>
