<?xml version="1.0" encoding="utf-8"?>
<!-- Generator: Adobe Illustrator 23.0.4, SVG Export Plug-In . SVG Version: 6.00 Build 0)  -->
<svg version="1.1" id="Layer_1" xmlns="http://www.w3.org/2000/svg" xmlns:xlink="http://www.w3.org/1999/xlink" x="0px" y="0px"
	 viewBox="0 0 612 792" style="enable-background:new 0 0 612 792;" xml:space="preserve">
<style type="text/css">
	.st0{fill:#FFFFFF;stroke:#FBFCF2;stroke-miterlimit:10;}
	.st1{opacity:0.8;fill:#FFF3D8;}
	.st2{fill:#CE2929;}
	.st3{opacity:0.8;fill:#383938;}
	.st4{opacity:0.68;fill:#376A63;}
	.st5{fill:#FFFFFF;}
	.st6{fill:#FFFFFF;stroke:#010101;stroke-width:2;stroke-miterlimit:10;}
	.st7{fill:#010101;}
	.st8{fill:none;stroke:#010101;stroke-width:4;stroke-miterlimit:10;}
	.st9{fill:none;stroke:#010101;stroke-width:2;stroke-miterlimit:10;}
</style>
<polygon class="st0" points="238.03,417.48 233.34,418.92 229.8,420.83 227.51,423.56 224.95,428.67 223.77,432.81 223.09,437.13 
	223.09,443.4 223.09,448 223.9,454.5 224.95,457.36 228.54,463.5 232.42,466.25 238.03,468.56 242.83,469.93 249.74,470.62 
	262.23,472.06 275.51,473.6 283.35,474.5 288.76,473.77 291.01,471.09 291.5,467.95 291.57,463.37 290.58,459.26 286.72,456.48 
	282.42,455.13 275.51,454.16 269.39,452.83 262.61,451.61 259.16,450.95 255.77,448.58 253.43,445.99 253.32,441.77 253.49,440.21 
	255.77,441.3 259.37,440.93 262.23,438.69 265.54,438.01 271.69,437.53 272,439.42 271.91,442.37 270.68,443.84 273.4,444.45 
	276.27,443.05 278.86,439.42 279.59,436.8 286.67,437 305.29,437.53 305.14,433.22 302.57,427.96 305.69,424.99 306.32,420.83 
	306.4,417.14 300.85,417.14 287.79,417.14 283.07,416.65 278.69,415.48 275.77,411.47 274.1,405.98 273.7,398.64 271.91,402.18 
	268.86,407.15 "/>
<circle class="st1" cx="166.4" cy="546.32" r="14.03"/>
<circle class="st1" cx="217.4" cy="531.32" r="14.03"/>
<circle class="st1" cx="259.4" cy="501.32" r="14.03"/>
<polygon class="st2" points="135.96,447.51 142.88,449.34 149.99,449.73 151.59,452.93 153.95,455.93 153.03,459.29 151.59,461.43 
	149.39,467.25 148.6,472.1 149.03,474.19 143.44,474.5 133.42,475.89 133.06,460.02 "/>
<polygon class="st2" points="282.63,437.13 292.46,437.36 298.68,440.12 303.45,444.45 307.58,451.36 309.49,457.48 311.86,462.47 
	315.95,466.25 321.26,467.25 320.79,469.48 318,472.8 314.53,474 310.55,474.19 306.4,473.77 301.5,471.68 298.02,469.48 
	293.82,466.25 291.17,461.7 290.58,459.26 288.72,457.48 286.72,456.48 280.25,454.82 269.39,452.83 262.61,451.61 259.16,450.95 
	255.77,448.58 253.3,444.45 253.49,440.21 255.77,441.3 259.37,440.93 262.23,438.69 265.54,438.01 271.69,437.53 272,439.42 
	271.91,442.37 270.68,443.84 273.4,444.45 276.27,443.05 278.86,439.42 279.59,436.8 "/>
<polygon class="st3" points="275.51,386.33 277.29,389.3 279.48,390.57 283.56,391.07 288.27,391.07 291.93,391.03 295.48,391.07 
	297.31,391.65 300.39,393.02 302.99,395.54 304.37,399.42 304.34,401.96 303.68,405.29 301.88,408.04 299.29,409.83 302.23,409.79 
	305.34,410.47 306,413.09 306.4,417.14 300.85,417.14 295.48,417.21 287.79,417.14 283.07,416.65 278.69,415.48 276.8,413.09 
	275.77,411.47 274.1,405.98 273.78,401.77 273.7,398.64 274.93,394.36 275.47,390.57 "/>
<polygon class="st4" points="188.64,449.35 191.76,453.14 196.54,457.48 201.49,462.24 207.22,466.25 216.61,472 238.24,482.96 
	250.92,488.38 248.22,491.67 242.83,497.51 237,502.93 228.54,509.55 219.78,515.32 213.83,517.87 205.07,522.62 200.91,524.35 
	193.74,526.99 188.64,528.64 182.92,530.28 172.42,532.66 163.21,534.42 149.03,535.91 133.52,536.64 134.7,532.01 134.91,519.98 
	134.78,506.5 135.1,492.99 135.08,475.89 139.55,475.04 149.03,474.19 150.38,478.79 153.95,483.76 159.49,488 165.27,490.07 
	171.6,489.74 176.63,488.06 181.4,484.68 184.48,481.43 186.7,475.36 187.21,469.18 186.7,464.1 183.75,460.02 181.62,457.48 
	184.52,454.97 "/>
<polygon class="st4" points="145.93,536.67 117.87,583.23 170.45,583.23 205.07,522.62 197.15,525.74 188.64,528.64 180.43,530.85 
	172.42,532.66 174.7,535.28 177.68,537.99 179.95,544.4 180.43,546.32 178.78,552.93 175.92,556.3 171.6,559.21 166.4,560.35 
	163.21,560.06 160.03,558.99 156.56,556.64 153.95,554.38 152.37,549.4 152.17,544.4 153.95,539.26 157.8,534.99 "/>
<polygon class="st1" points="187.21,554.11 244.57,551.33 245.35,555.55 247.26,561.22 248.82,566.95 248.82,569.81 248.82,573.47 
	245.73,576.43 242.83,577.3 238.37,577.3 234.86,576.43 232.43,573.78 232.14,576.06 229.6,578.47 224.49,579.42 221.56,579.37 
	218.37,578.47 215.12,575.62 213.09,578.47 208.01,579.88 203.35,579.88 197.86,577.99 196.33,574.34 195.14,577.32 192.22,579.31 
	187.21,579.45 181.21,579.37 178.18,577.32 176.42,572.78 "/>
<polygon class="st0" points="278.69,507.01 293.82,514.13 291.98,518.86 295.48,520.64 301.5,523.68 307.39,526.66 309.52,524.09 
	312.37,522.17 315.66,521.17 320.7,521.51 324.7,523.59 327.4,526.66 328.86,530.29 328.86,535.21 327.87,537.99 325.5,541.2 
	322.53,543.27 317.4,544.46 319.89,546.32 321.26,549.76 321.03,554.11 320.21,556.64 317.57,560.35 312.37,563.21 307.96,563.57 
	307.09,566.95 305.69,571.32 303.27,574.34 299.94,576.43 295.48,577.3 291.01,576.43 287.65,574.34 285.1,571.07 283.87,567.31 
	284.14,562.53 284.95,560.28 270.25,551.33 265.08,555.65 256.23,548.76 251.92,544.32 257.71,537.19 264.89,527.93 "/>
<polygon class="st0" points="329.12,537.19 333.41,537.19 336.7,538.81 340.68,540.85 345.29,544.01 348.42,547.1 350.66,550.32 
	352.26,554.06 353.33,558.59 354.68,563.57 355.93,567.31 345.51,577.99 343.3,577.3 340.5,574.66 339.56,572.66 338.73,568.09 
	338.38,563.57 337.4,560.11 335,556.64 331.49,554.44 328.86,553.56 326.11,553.16 322.98,552.25 321.26,549.76 319.89,546.32 
	317.4,544.46 323.54,542.57 "/>
<polygon class="st0" points="373.72,502.93 368.96,505.37 366.7,506.34 363.28,507.67 360.39,510.25 359.08,513.05 358.77,517.3 
	360.92,521.06 362.69,522.62 366.24,524.09 369.45,524.09 373.72,521.85 377.72,518.56 382.59,512.83 390.43,521.23 387.09,522.62 
	383.2,524.78 380.09,527.12 377.37,530.28 376.28,534.5 377,537.99 378.79,540.64 381.79,542.64 385.8,543.24 390.43,541.2 
	393.78,536.64 397.89,530.28 405.93,521.35 417.38,510.25 413.85,504.86 409.34,499.08 402.14,491.11 396.72,485.8 393.34,488.78 
	384.16,496.12 "/>
<polygon class="st5" points="161.34,423.56 161.71,425.43 162.14,429.44 162.1,435.26 162.14,438.69 163.21,440.53 165.08,441.58 
	169.23,441.77 172.49,441.3 174.74,440.53 175.67,435.85 175.81,428.44 179.83,428.58 183.69,428.44 185.23,430.7 187.63,434.8 
	188.36,437.53 188.95,442.37 188.95,445.71 188.14,448 185.59,453.52 181.62,457.48 183.75,460.02 185.57,462.54 186.97,467.95 
	187.21,473.77 186.13,476.9 184.48,481.43 181.4,484.68 178.06,487.27 173.42,489.31 167.37,490.14 165.27,490.07 159.49,488 
	155.27,485.1 152.02,481.07 149.03,474.19 148.6,469.18 151.59,461.43 155.27,456.85 153.95,455.93 149.99,449.73 148.6,443.52 
	148.6,438.69 149.99,434.8 152.32,430.7 155.27,427.38 "/>
<polygon class="st5" points="405.23,360.34 450.92,359.49 449.56,361.48 448.84,363.03 449.34,364.62 451.21,366.55 451.21,368.65 
	450.37,370.81 451.21,372.71 452.2,374.12 452.2,375.96 450.92,378.7 450.45,381.03 452.2,383.22 453.23,384.92 452.66,387.37 
	451.34,388.64 450.92,391.18 452.07,392.59 452.35,395.32 451.21,397.43 450.02,399.06 450.91,400.64 451.52,402.92 450.51,405.12 
	449.63,407.15 450.86,410.34 437.5,410.34 430.07,410.87 422.1,411.47 411.02,412.96 410.53,410.87 411.89,408.58 411.78,406.59 
	410.26,404.94 409.38,402.37 410.49,398.95 408.92,397.58 407.35,395.5 408.15,392.59 407.64,390.57 406.25,388.76 406.79,385.53 
	407.02,382.87 405.23,379.67 405.02,376.99 406.79,374.11 405.71,372.51 404.07,370.78 404.07,368.12 406.44,365.93 406.57,364.69 
	404.56,362.42 "/>
<polygon class="st5" points="431.37,434.57 453.04,434.16 452.7,448.83 438.89,450.38 440.8,451.7 440.69,453.86 438.13,455.5 
	433.91,456.44 428.08,458.01 424.04,459.37 421.98,458.03 421.71,455.89 422.73,453.28 423.81,451.65 423.5,449.73 425.49,446.77 
	428.08,444.45 430.61,441.3 431.14,437.13 "/>
<polygon class="st5" points="412.36,434.12 416.69,428.44 419.48,425.12 422.73,421.36 425.49,419.67 426.92,420.39 427.81,421.42 
	428.25,424 427.32,426.89 424.87,429.85 420.88,435.31 418.61,437.53 416.26,438.61 414.05,438.61 412.45,437.13 "/>
<polygon class="st5" points="421.99,467.25 422.73,465.16 425.49,463.12 435.06,460.99 439.83,460.35 441.47,461.97 441.29,464.92 
	440.02,466.4 436.72,466.89 434.17,467 431.12,467.79 427.32,469.48 423.88,469.44 "/>
<polygon class="st5" points="421.35,480.06 421.98,477.87 425.07,476.44 428.87,474.77 433.98,473.86 440.72,473.11 442.21,472.8 
	441.99,474.77 441.57,477.28 440.04,478.9 437.38,480.06 435.06,480.06 431.34,480.47 427.32,481.76 425.49,482.95 423.24,482.95 
	421.69,482.03 "/>
<polygon class="st5" points="422.73,491.39 423.24,488.78 425.49,487.91 428.87,486.56 433.47,485.25 437.46,484.47 441.18,483.98 
	442.74,485.8 442.74,487.06 442.21,488.91 439.44,489.81 436.28,489.94 433.73,490.83 431.14,491.39 427.91,492.78 426.11,493.99 
	424.06,493.91 "/>
<polygon class="st5" points="428.25,497.31 432.73,496.34 439.38,494.93 444.73,494.45 447.47,494.52 450.04,495.29 453.28,497.5 
	454.77,499.6 456.3,502.93 457.57,506.9 459.32,511.34 461.71,515.32 465.31,521.21 468.39,525.8 474.43,534.12 472.68,536 
	468.83,539.1 463.93,541.97 455.79,545.88 450.02,548.02 444.22,549.81 442.04,545.37 438.35,537.19 435.2,529.26 432.16,520.18 
	429.7,510.45 "/>
<path class="st3" d="M295.48,317.7c0,0-29.04,6.51-32.3,42.32c0,0,6.51,6.17,9.38,12.12c0,0-11.09-15.88-30.6-14.5
	c0,0-21.54,1.97-26.84,24.96c0,0-5.01,24.06,21.89,34.6c0,0-13.15,0.62-14.19,23.32c0,0-1.61,23.5,11.87,27.42l-27.09-5.49
	c0,0-16.37-4.09-18.65-16.76c0,0,1.87-9.26-5.25-17.26h-7.88l-0.16,8.61c0,0,0.04,6.08-5.2,5.32c0,0-8.25,0.86-8.24-5.32
	l-0.87-13.49l-4.24,2.37l-4.06,3.52l-2.76,4.9l-1.66,6.18l1.39,9.2l-7.11-0.38l-10.71-3.07c0,0,0.67-44.64,2.14-71.04
	c0,0-0.39-43.73,66.6-65.1C200.91,310.13,242.81,300.97,295.48,317.7z"/>
<polygon class="st3" points="240.37,535.91 244.57,551.33 187.21,553.9 203.94,524.09 203.49,529.56 203.94,535.26 206.3,540.69 
	210.07,543.27 215.01,545.32 219.22,545.23 223.2,544.05 227.36,541.2 230.43,535.28 231.4,528.65 228.54,522.62 224.41,518.86 
	217.4,517.3 223.09,513.19 231.15,507.5 237,502.93 248.22,491.67 246.28,497.76 245.38,502.28 246.81,507.5 250.92,512.5 
	255.14,514.69 259.4,515.35 264.57,514.37 268.71,511.81 271.33,508.7 272.57,504.26 278.69,507.01 276.25,511.01 272.57,517.86 
	268.56,522.78 266.49,525.74 262.61,531.03 259.37,535.18 254.65,540.69 250.99,544.4 "/>
<polygon class="st3" points="321.26,549.76 323.23,552.25 327.23,552.73 332.13,554.71 335.73,557.56 337.42,560.28 338.6,564.33 
	338.6,569.81 339.56,572.78 334.33,576.29 330.41,578.87 327.23,578.87 322.98,578.31 319.67,577.3 314.53,574.97 306.4,569.81 
	307.14,566.4 307.14,563.33 310.55,563.36 314.53,562.02 317.66,560.28 320,556.64 320.7,552.93 "/>
<polygon class="st3" points="329.12,537.19 358.77,518.56 361.4,521.58 364.12,524.09 367.53,524.09 371.97,522.88 377.72,518.56 
	381.23,514.65 382.18,511.89 390.43,521.23 386.12,523.1 381.81,525.74 379.25,527.92 377.37,530.28 376.28,534.5 377,537.99 
	380.09,542.57 355.93,567.31 354.91,564.31 352.81,558.34 351.74,552.61 349.26,548.36 345.82,544.46 341.58,541.47 337.29,538.61 
	"/>
<polygon class="st6" points="126.5,299.79 120.74,279.13 117.29,263.26 115.72,250.66 116.17,246.57 118.67,241.71 121.11,238.99 
	125.69,236.42 131.66,234.99 134.43,234.99 134.22,228.61 133.65,223.35 131.9,219.12 129.28,214.62 126.57,211.87 123.1,209.99 
	120.42,208.87 117.81,206.68 117.34,204.28 118.73,201.84 121.16,200.33 125.08,199.83 128.34,200.3 131.58,201.19 136.01,202.74 
	140.93,205.82 144.6,209.68 146.36,212.39 148.23,216.52 149.34,220.32 149.94,224.14 150.92,219.89 152.75,213.92 155.16,209 
	157.27,205.99 161.4,202 166.25,199.34 170.96,198.14 175.57,198.14 178.92,199.17 179.83,201.05 179.83,203.38 178.96,204.91 
	177.26,206.61 174.43,207.99 171.12,209.85 168.77,212.11 167.08,215.02 166.34,217.67 165.51,221.97 165.25,226.26 165.54,232.09 
	165.79,234.24 169,233.9 173.52,233.46 176.67,234.25 180.51,235.55 183.38,238.07 185.08,241.47 186.42,244.55 186.42,247.69 
	186,252.61 185.17,257.39 176.67,300.33 177.06,303.27 177.49,307.22 177.38,310.34 176.99,313.65 176.06,316.48 173.73,321.42 
	172.02,323.9 168.21,327.84 164.47,330.45 161.76,331.81 158.96,332.82 155.4,333.53 151.07,333.88 145.29,333.11 141.89,332 
	138.16,330.14 135.02,327.89 132.05,324.98 129.44,321.42 127.4,317 125.89,311.25 125.89,305.99 "/>
<polygon class="st2" points="405.23,360.34 407.23,358.62 407.68,357.45 407.68,355.07 406.46,353.84 406.46,352 407.68,350.22 
	408.88,347.87 407.74,344.99 407.61,343.61 408.52,342.24 410.04,341.03 410.04,339.64 409.6,338.08 409.59,336.47 410.81,334.57 
	412.55,333.33 413.2,331.89 412.84,328.96 413.2,327.15 414.91,326.62 416.38,325.91 417.7,324.51 417.81,322.64 417.99,320.69 
	419.42,319.08 421.39,318.13 421.83,315.78 422.33,313.27 423.95,311.98 425.78,311.34 426.9,310.08 428.08,311.98 429.95,313.28 
	431.56,314.21 432.06,316.31 433.21,318.05 435.46,319.09 436.54,320.19 437.19,323.13 438.69,324.97 440.14,325.49 440.86,327.26 
	440.69,329.05 441.4,330.52 443.4,331.61 444.36,333.57 443.84,335.8 444.02,338.38 445.7,339.72 447.7,341.9 447.65,343.88 
	446.99,346.66 448.67,347.95 449.3,349.88 448.91,351.36 449.3,353.87 450.92,356.97 450.92,358.6 450.29,359.92 "/>
<polygon class="st2" points="405.71,414.54 413.47,412.5 423.24,410.87 439.32,410.87 455.52,411.29 454.63,417.95 453.28,428.44 
	453.04,434.16 431.37,434.57 431.39,431.53 430.49,428.44 428.08,425.12 428.25,422.72 426.92,420.39 424.87,420.08 422.36,421.69 
	412.7,433.65 412.66,436.57 411.2,437.13 409.69,426.87 407.47,420.57 "/>
<path class="st2" d="M444.22,549.81c0,0,20.75-5.33,30.21-15.69l7.75,9.89l5.5,6.66l4.86,5.7l10.94,12.25l-4.38,3.98l-8.74,6
	l-9.2,5.04l-11.62,5.34l-10.45,4.09l0.6-3.51l-1.01-4.91l-1.12-5.76l-3.17-7.85l-4.41-9.58L444.22,549.81z"/>
<path class="st3" d="M396.72,485.8l4.32-4.36l3.03-5.2l1.64-4.44l1.26-6.87v-7.15l-0.38-8.42l0.38-4.9l1.97-5.03l3.72-2.84l1.7,1.81
	l4.25-0.85l2.74-2.67l3.09-4.38l3.64-5.36l2.41,3.32l0.91,3.08l-0.02,3.04l-0.76,5.24l-0.76,1.95l-1.77,3.94l-3.66,2.23l-1.18,2.88
	l-1.53,5.07l1.01,3.54l1.55,2.34l3.04,0.7l-4.59,2.69l-0.74,2.09l1.08,2.23l-0.34,2.65l2.41,2.06l3.11,0.58l-2.76,1.5l-3.51,1.61
	l-0.63,2.19l1.38,2.89l2.76,2.85l4.82,0.3l-4.82,1.81l-2.25,1.53l-0.35,2.65l2.06,1.88l1.16,1.78l2.15,1.56v5.62h-2.76l-8.11,7.52
	C417.38,510.45,413.02,500.95,396.72,485.8z"/>
<polygon class="st3" points="438.89,450.38 450.52,449.35 456.29,449.34 459.94,450.38 462.05,452.46 463.64,456.52 463.87,459 
	463.06,462.38 465.19,464.18 466.35,467.79 466.35,470.83 465.23,473.75 463.93,475.16 465.4,476.78 466.74,480.06 466.18,484.04 
	464.15,486.43 461.92,488.07 462.76,490.75 462.56,493.47 461.57,495.74 459.13,497.68 455.02,498.95 453.28,497.5 450.69,495.41 
	445.9,494.46 442.21,494.52 435.57,495.5 429.49,497.31 427.03,496.8 424.95,493.97 427.82,492.66 431.34,491.31 433.5,490.36 
	437.71,489.96 441.67,489.49 442.82,488.24 442.86,486.1 442.24,484.55 440.42,483.58 437.46,484.47 431.76,485.8 428.25,486.1 
	425.49,485.8 422.73,482.95 426.11,482.21 429.49,480.99 432.82,480.06 437.34,479.83 439.65,478.91 441.57,477.28 442.21,472.8 
	437.34,472.8 433.37,474.06 428.25,474.77 426.11,474.37 422.73,472.13 423.07,469.48 424.94,469.39 427.73,468.72 431.12,467.79 
	434.46,467.08 438.69,466.51 440.8,465.64 441.57,463.24 441.38,460.64 436.67,460.99 431.34,461.95 427.32,462.47 424.28,461.76 
	422.89,460.99 422.73,459.42 426.11,458.65 431.34,457.04 435.51,456.31 437.71,455.66 440.23,454.68 441.19,453.33 440.8,451.7 "/>
<g>
	<circle class="st5" cx="245.35" cy="388.15" r="30.23"/>
	<g>
		<path class="st7" d="M274.57,388.15c-0.14,12.13-7.65,23.22-19.12,27.43c-11.5,4.23-24.67,0.67-32.54-8.69
			c-7.89-9.38-8.95-23.17-2.69-33.68c6.24-10.47,18.72-16.1,30.7-13.76C264.61,362.14,274.41,374.3,274.57,388.15
			c0.01,1.29,2.01,1.29,2,0c-0.15-12.93-8.12-24.66-20.27-29.25c-12.29-4.64-26.66-0.8-35.01,9.35
			c-8.28,10.06-9.48,24.62-2.79,35.85c6.66,11.18,19.85,17.09,32.62,14.74c14.71-2.71,25.28-15.88,25.45-30.69
			C276.59,386.87,274.59,386.86,274.57,388.15z"/>
	</g>
</g>
<g>
	<g>
		<path class="st7" d="M227.54,384.17c0.2,9.73,7.98,17.83,17.85,17.85c9.87,0.02,17.65-8.14,17.85-17.85c0.01-0.54-0.47-1-1-1
			c-11.23,0-22.46,0-33.7,0c-1.29,0-1.29,2,0,2c11.23,0,22.46,0,33.7,0c-0.33-0.33-0.67-0.67-1-1c-0.17,8.63-7.08,15.85-15.85,15.85
			c-8.77,0-15.67-7.22-15.85-15.85C229.51,382.88,227.51,382.88,227.54,384.17z"/>
	</g>
</g>
<circle class="st8" cx="246.28" cy="387.62" r="3.45"/>
<path class="st9" d="M219.83,405.29c0,0-15.96,6.69-14.63,23.15c1.33,16.46,17.62,21.28,17.62,21.28"/>
<g>
	<g>
		<path class="st7" d="M238.03,416.48c-5.11,0.28-9.74,4.11-12.29,8.31c-3.28,5.4-4.09,12.03-3.99,18.23
			c0.07,4.57,0.29,9.61,1.84,13.99c1.68,4.78,4.99,8.88,9.49,11.27c4.31,2.28,8.96,2.46,13.68,3c10.64,1.23,21.28,2.46,31.93,3.68
			c3.19,0.37,5.41,1.12,8.41,0.48c2.91-0.62,4.82-2.75,5.28-5.68c0.32-2.07,0.22-4.3,0.2-6.39c-0.01-0.6,0.09-1.28-0.33-1.77
			c-0.42-0.49-1.27-0.33-1.57,0.2c-0.13,0.23-0.15,0.48-0.17,0.74c-0.1,1.11,1.81,1.38,1.96,0.27c0.57-4.1-3.34-6.78-6.82-7.72
			c-3.45-0.94-7.11-1.36-10.62-2.04c-3.58-0.69-7.15-1.4-10.73-2.12c-3.76-0.76-7.58-1.05-9.49-5.01c-1.3-2.68-0.5-7.52,0.7-10.19
			c1.48-3.31,5.2-3.82,8.44-4.14c11.1-1.1,22.27-1.25,33.39-2.1c0.14-0.01,1.15-0.06,0.58-0.07c0.54,0.01,1.08,0.12,1.63,0.11
			c1.91-0.03,3.92-0.54,5.39-1.82c2.38-2.09,2.36-5.16,2.43-8.09c0.07-2.63,0.38-5.84-0.96-8.24c-2.37-4.24-9.04-2.23-12.87-2.66
			c-2.4-0.27-5.36-1.75-5.29-4.65c0.08-3.36,2.8-4.85,5.71-3.67c1.19,0.48,1.71-1.45,0.53-1.93c-4.58-1.84-8.9,1.74-8.18,6.65
			c0.58,3.95,4.77,5.56,8.3,5.63c2.42,0.05,5.53-0.41,7.88,0.11c3.39,0.75,2.95,5.15,2.9,7.82c-0.07,3.43,0.14,7.45-3.84,8.58
			c-1.2,0.34-2.63,0.2-3.5,0.2c-4.33-0.01-8.71,0.44-13.03,0.69c-6.56,0.37-13.12,0.73-19.66,1.32c-5.66,0.51-11.08,1.55-12.43,7.88
			c-0.6,2.85-1.25,6.35-0.06,9.1c0.95,2.23,2.95,4.03,5.13,5.06c1.29,0.61,2.74,0.75,4.12,1.03c3.9,0.79,7.81,1.56,11.72,2.32
			c4.18,0.81,9.12,1.05,13.03,2.77c1.46,0.64,2.85,1.64,3.41,3.19c0.16,0.43,0.23,1.69,0.26,1.47c0.65,0.09,1.31,0.18,1.96,0.27
			c0.02-0.29-0.06,0.2-0.1,0.27c-0.52,0.07-1.05,0.13-1.57,0.2c-0.69-0.8-0.11-0.69-0.26-0.18c-0.11,0.37,0,0.92,0,1.3
			c-0.01,2.04,0.24,4.36-0.39,6.32c-0.81,2.52-3.29,3.31-5.71,3.17c-1.87-0.11-3.76-0.44-5.62-0.65
			c-9.86-1.14-19.72-2.27-29.57-3.41c-3.49-0.4-7.27-0.46-10.65-1.31c-5.39-1.35-9.83-4.78-12.28-9.79
			c-1.57-3.23-1.87-6.1-2.23-9.48c-0.69-6.62-0.71-13.74,1.79-20.02c1.99-5,6.82-10.18,12.13-10.47
			C239.31,418.41,239.32,416.41,238.03,416.48L238.03,416.48z"/>
	</g>
</g>
<g>
	<g>
		<path class="st7" d="M194.47,396.81c-3.7-11.32-1.89-25.44,6.54-34.17c4.78-4.95,11.09-7.93,17.63-9.8
			c1.24-0.35,0.71-2.28-0.53-1.93c-10.63,3.03-20.32,9.22-24.69,19.74c-2.86,6.87-3.2,14.56-1.99,21.84
			c0.27,1.63,0.6,3.27,1.11,4.84C192.93,398.56,194.87,398.04,194.47,396.81L194.47,396.81z"/>
	</g>
</g>
<g>
	<g>
		<path class="st7" d="M223.01,351.76c12.87-1.92,29.84,0.31,40.17,9.58c4.92,4.41,8,10.22,9.56,16.59
			c0.31,1.25,2.24,0.72,1.93-0.53c-2.71-11.06-10.02-19.56-20.5-23.96c-8.1-3.4-17.15-4.44-25.88-4.1c-1.94,0.08-3.88,0.2-5.8,0.49
			C221.21,350.02,221.75,351.94,223.01,351.76L223.01,351.76z"/>
	</g>
</g>
<path class="st9" d="M275.51,386.33c0,0,0.83,4.74,7.13,4.74c5.25,0,9.28-0.04,9.28-0.04s12.44-0.97,12.44,9.98
	c0,8.81-6.66,8.78-6.66,8.78"/>
<g>
	<g>
		<path class="st7" d="M187.95,445.71c0.07,2.33,1.51,4.66,2.89,6.43c4.56,5.83,11.93,9.1,18.77,11.34
			c7.67,2.52,15.68,3.85,23.67,4.77c1.28,0.15,1.27-1.85,0-2c-11.32-1.3-23.42-3.36-33.42-9.18c-3.78-2.2-7.8-5.29-9.43-9.52
			c-0.25-0.66-0.47-1.63-0.48-1.84C189.91,444.42,187.91,444.42,187.95,445.71L187.95,445.71z"/>
	</g>
</g>
<g>
	<g>
		<path class="st7" d="M176.16,404.29c-3.11-0.16-5.71,1.14-6.24,4.39c-0.28,1.69-0.12,3.7,0.68,5.22c3.41,6.53,14.4,5.55,16.72-1.4
			c3.19-9.58-0.42-22.46-10.9-25.35c-6.8-1.87-15.19-0.81-19.96,4.8c-2.66,3.12-4.13,7.27-4.4,11.34
			c-0.34,5.19,1.38,10.75,4.27,15.02c1.32,1.96,3.47,3.28,4.05,5.52c0.99,3.83,1.03,8.1,0.93,12.02c-0.06,2.41,0.23,5.09,2.64,6.34
			c1.41,0.74,2.97,0.51,4.5,0.5c1.18-0.01,2.43,0.2,3.6,0.05c6.15-0.78,4.65-9.98,4.76-14.31c-0.33,0.33-0.67,0.67-1,1
			c3.38,0,7.61,0.73,10.84-0.62c5.96-2.49,6.07-12.19,0.49-15.13c-1.14-0.6-2.15,1.13-1.01,1.73c5.01,2.63,3.76,11.42-2.05,12
			c-2.71,0.27-5.55,0.02-8.28,0.02c-0.55,0-0.99,0.46-1,1c-0.05,2.1-0.16,4.2-0.16,6.3c0,2.22,0.1,5.36-2.62,6
			c-0.94,0.22-3.13-0.08-4.45-0.05c-3.23,0.07-4.34-1.37-4.3-4.46c0.03-2.58-0.03-6.61-0.42-9.76c-0.19-1.5-0.33-3.28-1.05-4.65
			c-0.07-0.13-0.12-0.27-0.2-0.4c-1.27-1.89-3.13-3.3-4.32-5.33c-1.76-2.98-2.84-6.4-3.16-9.84c-0.6-6.43,2.21-13.53,8.3-16.39
			c5.86-2.75,14.74-2.14,19.44,2.6c3.34,3.36,4.39,8.32,4.37,12.91c0,1.21-0.1,2.55-0.25,3.65c-0.24,1.8-0.57,3.79-1.84,5.19
			c-1.78,1.97-4.86,2.16-7.34,1.86c-2.39-0.29-4.27-1.84-4.81-4.18c-0.76-3.28,0.53-5.8,4.16-5.61
			C177.45,406.36,177.44,404.36,176.16,404.29L176.16,404.29z"/>
	</g>
</g>
<path class="st9" d="M183.69,428.44l1.54,2.25c2.34,3.29,3.72,7.32,3.72,11.67c0,11.14-9.03,20.17-20.17,20.17
	c-11.14,0-20.17-9.03-20.17-20.17c0-7.83,4.46-14.61,10.97-17.96l1.77-0.85"/>
<path class="st9" d="M181.62,457.48c3.45,3.45,5.59,8.23,5.59,13.5c0,10.54-8.55,19.09-19.09,19.09s-19.09-8.55-19.09-19.09
	c0-5.27,2.14-10.04,5.59-13.5"/>
<path class="st9" d="M164.3,462.54v9.3c0,0-0.19,3.96,2.33,3.99c1.49,0.02,3.9,0.72,3.82-3.33c-0.09-4.99,0-10.04,0-10.04"/>
<path class="st9" d="M215.12,382.61c0,0-22.96,4.82-28.42,31.3"/>
<path class="st9" d="M274.23,397.08c0,0-3.69,19.89,11.44,20.06c15.13,0.17,20.72,0,20.72,0"/>
<path class="st9" d="M253.43,440.75c0,0,4.48,1.83,8.8-1.17c4.32-2.99,8.81-1.83,8.81-1.83"/>
<g>
	<g>
		<path class="st7" d="M265.04,431.3c1.66,0.84,3.16,2.13,4.26,3.62c1,1.36,3.44,6.91,0.65,7.85c-0.82,0.28-0.98,1.35-0.24,1.83
			c3.81,2.43,7.92-0.63,9.71-4.04c2.06-3.94,1.16-8.79-2.34-11.61c-0.99-0.8-2.42,0.6-1.41,1.41c2.45,1.98,3.58,5.27,2.44,8.26
			c-1.05,2.75-4.19,6.3-7.38,4.26c-0.08,0.61-0.16,1.22-0.24,1.83c3.54-1.2,2.95-5.53,1.87-8.37c-1.1-2.87-3.56-5.37-6.3-6.76
			C264.9,428.99,263.89,430.72,265.04,431.3L265.04,431.3z"/>
	</g>
</g>
<circle class="st6" cx="312.37" cy="390.06" r="10.87"/>
<circle class="st6" cx="314.53" cy="408.04" r="10.17"/>
<circle class="st6" cx="335.8" cy="414.02" r="11.1"/>
<circle class="st6" cx="334.33" cy="386.33" r="11.1"/>
<g>
	<path class="st5" d="M387.1,365.93c0,0,2.83,7.94,3.33,26.67l-35.58-1.52c0,0-10.01,0.7-9.41-6.9c0.6-7.6,4.09-7.44,12.57-9.68
		C366.48,372.24,387.1,365.93,387.1,365.93z"/>
	<g>
		<path class="st7" d="M386.14,366.19c2.89,8.22,3.04,17.82,3.29,26.4c0.33-0.33,0.67-0.67,1-1c-11.19-0.48-22.37-0.96-33.56-1.43
			c-3.8-0.16-9.98,0.23-10.45-4.86c-0.17-1.81,0.25-4.32,1.36-5.81c1.15-1.55,3.13-2.12,4.9-2.62c4.04-1.13,8.12-2.1,12.15-3.26
			c7.53-2.17,15.04-4.43,22.54-6.73c1.23-0.38,0.7-2.31-0.53-1.93c-7.21,2.21-14.44,4.39-21.69,6.48c-4.48,1.3-9.04,2.32-13.5,3.65
			c-3.48,1.04-6.03,2.79-6.85,6.5c-0.84,3.76-0.23,7.49,3.48,9.31c2.08,1.02,4.32,1.14,6.58,1.18c5.51,0.1,11.03,0.47,16.54,0.71
			c6.35,0.27,12.69,0.54,19.04,0.81c0.53,0.02,1.02-0.48,1-1c-0.2-6.82-0.67-13.66-1.84-20.39c-0.38-2.19-0.78-4.44-1.52-6.54
			C387.64,364.45,385.71,364.97,386.14,366.19z"/>
	</g>
</g>
<g>
	<path class="st5" d="M390.43,425.14c0,0-1.94,8.21-11.68,24.21l-29.06-20.58c0,0-8.48-3.64-4.16-10.9
		c3.9-6.56,7.47-4.03,15.81-1.31S390.43,425.14,390.43,425.14z"/>
	<g>
		<path class="st7" d="M389.46,424.88c-2.03,8.47-7.13,16.63-11.58,23.97c0.46-0.12,0.91-0.24,1.37-0.36
			c-8.96-6.34-17.91-12.69-26.87-19.03c-3.28-2.32-8.42-4.53-6.75-9.49c0.68-2.02,2.32-4.5,4.47-5.1c1.99-0.55,4.26,0.35,6.13,0.98
			c4.05,1.37,8.09,2.71,12.19,3.94c7.23,2.17,14.48,4.26,21.74,6.32c1.24,0.35,1.77-1.58,0.53-1.93c-7.07-2-14.13-4.04-21.17-6.15
			c-4.49-1.35-8.91-2.86-13.36-4.31c-3.58-1.17-7.14-1.67-9.89,1.39c-2.81,3.12-4.12,7.53-1.42,11.11c1.2,1.6,2.8,2.47,4.45,3.5
			c4.76,2.96,9.23,6.54,13.8,9.78c5.05,3.57,10.1,7.15,15.14,10.72c0.45,0.32,1.11,0.07,1.37-0.36c3.53-5.84,6.85-11.83,9.5-18.13
			c0.86-2.05,1.76-4.15,2.28-6.32C391.69,424.16,389.76,423.62,389.46,424.88z"/>
	</g>
</g>
<g>
	<g>
		<path class="st7" d="M279.59,437.8c8.57,0.24,17.14,0.49,25.7,0.73c0.57,0.02,0.96-0.47,1-1c0.23-3.3-0.1-7.16-2.29-9.79
			c-0.82-0.99-2.23,0.43-1.41,1.41c1.8,2.17,1.89,5.68,1.7,8.38c0.33-0.33,0.67-0.67,1-1c-8.57-0.24-17.14-0.49-25.7-0.73
			C278.3,435.76,278.31,437.76,279.59,437.8L279.59,437.8z"/>
	</g>
</g>
<g>
	<g>
		<path class="st7" d="M277.69,429.44c0,0.7,0,1.39,0,2.09c0,1.29,2,1.29,2,0c0-0.7,0-1.39,0-2.09
			C279.69,428.15,277.69,428.15,277.69,429.44L277.69,429.44z"/>
	</g>
</g>
<line class="st9" x1="286.67" y1="429.44" x2="286.67" y2="437"/>
<line class="st9" x1="295.48" y1="428.58" x2="295.48" y2="437.05"/>
<g>
	<g>
		<path class="st7" d="M291.17,438.13c6.88,0.64,12.88,7.39,15.51,13.65c1.32,3.14,1.67,6.67,3.33,9.67
			c2.36,4.24,6.5,6.43,11.25,6.8c-0.33-0.33-0.67-0.67-1-1c0.06,7.57-11.22,6.18-15.63,4.68c-6.06-2.06-11.55-7.36-13.55-13.53
			c-0.4-1.22-2.33-0.7-1.93,0.53c2.45,7.54,9.32,13.66,16.95,15.5c5.72,1.38,16.22,1.05,16.16-7.19c0-0.57-0.46-0.96-1-1
			c-5.06-0.39-9.03-3.39-10.57-8.24c-1.33-4.19-2.33-8.26-4.83-12c-3.23-4.84-8.67-9.32-14.69-9.87
			C289.88,436.01,289.89,438.01,291.17,438.13L291.17,438.13z"/>
	</g>
</g>
<g>
	<g>
		<path class="st7" d="M297.05,316.09c-12.55,2.67-23.87,12.59-29.5,23.82c-3.15,6.28-4.77,13.13-5.37,20.1
			c-0.11,1.28,1.89,1.27,2,0c0.96-11.12,4.92-21.86,12.79-29.94c4.7-4.82,10.54-8.6,16.86-10.91c1.22-0.45,2.47-0.87,3.74-1.14
			C298.84,317.75,298.31,315.82,297.05,316.09L297.05,316.09z"/>
	</g>
</g>
<g>
	<g>
		<path class="st7" d="M286.37,312.31c-12.36,3.73-21.63,15.76-26.4,27.1c-0.5,1.19,1.44,1.7,1.93,0.53
			c4.48-10.68,13.36-22.19,25-25.71C288.13,313.87,287.6,311.94,286.37,312.31L286.37,312.31z"/>
	</g>
</g>
<g>
	<g>
		<path class="st7" d="M273.95,309.47c-10.39,5.69-18.18,16.75-21.42,27.92c-0.36,1.24,1.57,1.77,1.93,0.53
			c3.1-10.69,10.56-21.28,20.5-26.72C276.09,310.58,275.08,308.85,273.95,309.47L273.95,309.47z"/>
	</g>
</g>
<g>
	<g>
		<path class="st7" d="M264.55,307.63c-8.92,7.28-16.39,17.9-19.23,29.08c-0.32,1.25,1.61,1.78,1.93,0.53
			c2.77-10.88,10.04-21.12,18.72-28.2C266.97,308.23,265.54,306.82,264.55,307.63L264.55,307.63z"/>
	</g>
</g>
<g>
	<g>
		<path class="st7" d="M254.14,305.7c-7.77,8.02-12.88,19.28-15.14,30.07c-0.26,1.26,1.66,1.79,1.93,0.53
			c2.19-10.45,7.09-21.41,14.62-29.19C256.45,306.19,255.04,304.78,254.14,305.7L254.14,305.7z"/>
	</g>
</g>
<g>
	<g>
		<path class="st7" d="M242.89,305.09c-6.45,8.86-10.04,20.45-10.55,31.29c-0.06,1.29,1.94,1.28,2,0
			c0.5-10.51,4.03-21.7,10.28-30.28C245.38,305.06,243.64,304.06,242.89,305.09L242.89,305.09z"/>
	</g>
</g>
<g>
	<g>
		<path class="st7" d="M233.83,305.09c-5.1,9.2-8.13,20.06-8.66,30.52c-0.07,1.29,1.93,1.28,2,0c0.51-10.1,3.46-20.64,8.38-29.51
			C236.18,304.98,234.45,303.97,233.83,305.09L233.83,305.09z"/>
	</g>
</g>
<g>
	<g>
		<path class="st7" d="M223.55,306.72c-4.61,8.8-5.58,19.95-5.28,29.67c0.04,1.28,2.04,1.29,2,0c-0.29-9.36,0.55-20.16,5-28.66
			C225.87,306.59,224.15,305.57,223.55,306.72L223.55,306.72z"/>
	</g>
</g>
<g>
	<g>
		<path class="st7" d="M213.01,308.07c-0.57,2.22-0.83,4.53-1.11,6.8c-0.93,7.55-1.22,15.18-1.33,22.79c-0.02,1.29,1.98,1.29,2,0
			c0.11-7.46,0.39-14.94,1.28-22.35c0.27-2.23,0.53-4.52,1.09-6.7C215.26,307.35,213.33,306.82,213.01,308.07L213.01,308.07z"/>
	</g>
</g>
<g>
	<g>
		<path class="st7" d="M204.16,309.07c-1.86,10.43-1.59,21.46-0.05,31.89c0.19,1.27,2.11,0.73,1.93-0.53
			c-1.48-10.05-1.74-20.78,0.05-30.82C206.31,308.34,204.38,307.8,204.16,309.07L204.16,309.07z"/>
	</g>
</g>
<g>
	<g>
		<path class="st7" d="M194.6,311.28c-0.95,10.43-1.21,22.22,2.34,32.18c0.43,1.2,2.36,0.69,1.93-0.53
			c-3.49-9.8-3.19-21.39-2.26-31.65C196.72,310,194.72,310.01,194.6,311.28L194.6,311.28z"/>
	</g>
</g>
<g>
	<g>
		<path class="st7" d="M185.14,315.34c-0.13,10.48,0.82,22.02,5.14,31.66c0.53,1.17,2.25,0.16,1.73-1.01
			c-4.17-9.31-4.99-20.55-4.87-30.65C187.15,314.05,185.15,314.05,185.14,315.34L185.14,315.34z"/>
	</g>
</g>
<g>
	<g>
		<path class="st7" d="M175.67,319.8c-0.13,10.52,3.27,21.79,9.76,30.06c0.79,1.01,2.2-0.41,1.41-1.41
			c-6.15-7.84-9.3-18.69-9.17-28.64C177.69,318.51,175.69,318.51,175.67,319.8L175.67,319.8z"/>
	</g>
</g>
<g>
	<g>
		<path class="st7" d="M167.01,327.24c0.64,11.51,6.3,23.28,14.63,31.12c0.94,0.88,2.35-0.53,1.41-1.41
			c-7.94-7.46-13.43-18.71-14.04-29.7C168.94,325.96,166.94,325.95,167.01,327.24L167.01,327.24z"/>
	</g>
</g>
<g>
	<g>
		<path class="st7" d="M159.07,334.74c3.58,11.26,9.79,22.88,18.65,30.81c0.96,0.86,2.38-0.55,1.41-1.41
			c-8.6-7.69-14.66-18.98-18.14-29.92C160.61,332.99,158.68,333.51,159.07,334.74L159.07,334.74z"/>
	</g>
</g>
<g>
	<g>
		<path class="st7" d="M150.28,340.96c4.03,12.78,13.91,24.16,24.4,32.05c1.03,0.77,2.03-0.96,1.01-1.73
			c-10.06-7.57-19.62-18.6-23.48-30.85C151.82,339.2,149.89,339.72,150.28,340.96L150.28,340.96z"/>
	</g>
</g>
<g>
	<g>
		<path class="st7" d="M143.34,349.65c5.61,12.96,16.95,24.36,29.57,30.4c1.16,0.55,2.17-1.17,1.01-1.73
			c-12.36-5.91-23.37-17-28.86-29.69C144.56,347.47,142.84,348.48,143.34,349.65L143.34,349.65z"/>
	</g>
</g>
<g>
	<g>
		<path class="st7" d="M137.8,358.43c6.52,12.39,18.22,23.04,31.17,28.2c1.2,0.48,1.71-1.46,0.53-1.93
			c-12.45-4.96-23.7-15.38-29.97-27.28C138.93,356.28,137.2,357.29,137.8,358.43L137.8,358.43z"/>
	</g>
</g>
<g>
	<g>
		<path class="st7" d="M135.25,370.42c7.29,7.43,15.14,14.62,23.74,20.51c1.06,0.73,2.07-1,1.01-1.73
			c-8.46-5.79-16.16-12.89-23.33-20.2C135.76,368.08,134.35,369.5,135.25,370.42L135.25,370.42z"/>
	</g>
</g>
<g>
	<g>
		<path class="st7" d="M133.56,380.75c7.1,5.16,14.22,10.29,21.21,15.59c1.03,0.78,2.02-0.96,1.01-1.73
			c-6.99-5.3-14.11-10.43-21.21-15.59C133.53,378.26,132.53,380,133.56,380.75L133.56,380.75z"/>
	</g>
</g>
<g>
	<g>
		<path class="st7" d="M133.02,390.93c6.51,3.64,13.02,7.27,19.51,10.96c1.12,0.64,2.13-1.09,1.01-1.73
			c-6.48-3.69-13-7.31-19.51-10.96C132.9,388.57,131.89,390.3,133.02,390.93L133.02,390.93z"/>
	</g>
</g>
<g>
	<g>
		<path class="st7" d="M133.02,399.82c6.15,3.85,12.98,7.52,20.08,9.19c1.25,0.29,1.79-1.63,0.53-1.93
			c-6.94-1.63-13.58-5.22-19.6-8.99C132.93,397.41,131.93,399.14,133.02,399.82L133.02,399.82z"/>
	</g>
</g>
<g>
	<g>
		<path class="st7" d="M132.23,408.01c7,4.43,15.29,7.59,23.48,8.75c1.26,0.18,1.8-1.75,0.53-1.93c-8.05-1.14-16.12-4.19-23-8.55
			C132.15,405.59,131.14,407.32,132.23,408.01L132.23,408.01z"/>
	</g>
</g>
<g>
	<g>
		<path class="st7" d="M132.23,415.43c7.56,5.67,18,8.3,27.08,9.94c1.26,0.23,1.8-1.7,0.53-1.93c-8.95-1.62-19.15-4.16-26.6-9.74
			C132.21,412.93,131.21,414.67,132.23,415.43L132.23,415.43z"/>
	</g>
</g>
<g>
	<g>
		<path class="st7" d="M132.23,424.42c6.32,3.43,13.63,5.61,20.8,6.02c1.29,0.07,1.28-1.93,0-2c-6.8-0.39-13.79-2.49-19.79-5.75
			C132.11,422.08,131.1,423.8,132.23,424.42L132.23,424.42z"/>
	</g>
</g>
<g>
	<g>
		<path class="st7" d="M132.23,439.55c4.93,2.66,10.82,3.83,16.37,3.81c1.29,0,1.29-2,0-2c-5.19,0.02-10.74-1.05-15.36-3.54
			C132.11,437.21,131.1,438.94,132.23,439.55L132.23,439.55z"/>
	</g>
</g>
<g>
	<g>
		<path class="st7" d="M149.99,448.73c-5.93,0.07-12.01-1.33-17.55-3.42c-1.21-0.45-1.73,1.48-0.53,1.93
			c5.7,2.14,11.98,3.56,18.08,3.49C151.27,450.71,151.28,448.71,149.99,448.73L149.99,448.73z"/>
	</g>
</g>
<line class="st9" x1="133.06" y1="475.89" x2="149.03" y2="474.19"/>
<circle class="st9" cx="166.06" cy="546.32" r="14.03"/>
<circle class="st9" cx="217.37" cy="531.29" r="14.03"/>
<circle class="st9" cx="259.37" cy="501.3" r="14.03"/>
<polyline class="st9" points="146.15,536.31 117.87,583.23 170.45,583.23 205.07,522.62 "/>
<g>
	<g>
		<path class="st7" d="M230.69,529.36c9.93,8.04,19.86,16.08,29.79,24.12c1.45,1.18,2.9,2.35,4.35,3.53c0.39,0.32,1.04,0.45,1.41,0
			c4.69-5.65,9.2-11.47,13.55-17.38c3.37-4.58,6.66-9.24,9.63-14.1c2.14-3.51,4.55-7.37,5.36-11.46c0.08-0.4-0.04-0.94-0.46-1.13
			c-7.09-3.18-14.17-6.36-21.26-9.53c-1.16-0.52-2.18,1.2-1.01,1.73c7.09,3.18,14.17,6.36,21.26,9.53
			c-0.15-0.38-0.31-0.75-0.46-1.13c-0.81,4.09-3.27,7.93-5.43,11.42c-2.9,4.7-6.09,9.22-9.36,13.66
			c-4.25,5.78-8.65,11.46-13.24,16.98c0.47,0,0.94,0,1.41,0c-9.93-8.04-19.86-16.08-29.79-24.12c-1.45-1.18-2.9-2.35-4.35-3.53
			C231.11,527.14,229.69,528.55,230.69,529.36L230.69,529.36z"/>
	</g>
</g>
<path class="st9" d="M278.69,507.01c0,0-15.02,25.55-27.77,37.45"/>
<g>
	<g>
		<path class="st7" d="M239.4,536.18c2.35,8.63,4.7,17.27,7.06,25.9c0.63,2.31,1.35,4.62,1.93,6.95c1.73,6.98-7.7,8.8-12.71,6.68
			c-3.69-1.56-2.49-6.52-2.54-9.76c-0.02-1.29-2.02-1.29-2,0c0.02,1.15,0.03,2.31,0.05,3.46c0.02,1.16,0.01,1.58-0.01,2.22
			c-0.05,1.51,0.17,2.88,1.16,4.1c2.14,2.62,6.18,2.81,9.27,2.57c3.09-0.24,6.57-1.12,8.18-4.04c1.44-2.61,0.61-5.31-0.11-7.96
			c-1.48-5.44-2.96-10.88-4.45-16.32c-1.3-4.78-2.6-9.56-3.91-14.34C241,534.41,239.07,534.93,239.4,536.18L239.4,536.18z"/>
	</g>
</g>
<g>
	<g>
		<path class="st7" d="M212.97,566.12c0.34,2.99,0.49,6.07,1.03,9.03c0.38,2.08,1.87,3.53,3.79,4.36
			c5.28,2.28,17.17,1.39,15.39-6.85c-0.27-1.26-2.2-0.73-1.93,0.53c1.42,6.57-11.05,6.36-14.16,3.58c-1.28-1.14-1.1-1.76-1.27-3.19
			c-0.28-2.48-0.57-4.97-0.85-7.45C214.83,564.85,212.83,564.84,212.97,566.12L212.97,566.12z"/>
	</g>
</g>
<g>
	<g>
		<path class="st7" d="M195.39,566.95c0,5.23-1.49,11.48,4.86,13.42c4.69,1.43,15.47,1.47,15.76-5.19c0.06-1.29-1.94-1.28-2,0
			c-0.22,5.06-11.37,4.45-14.52,2.74c-1.54-0.84-2.09-1.98-2.1-3.6c-0.02-2.46,0-4.91,0-7.37
			C197.39,565.66,195.39,565.66,195.39,566.95L195.39,566.95z"/>
	</g>
</g>
<g>
	<g>
		<path class="st7" d="M175.42,572.78c0.05,5.72,5.22,7.97,10.16,8.22c5.35,0.27,11.59-1.06,11.81-7.54c0.04-1.29-1.96-1.29-2,0
			c-0.18,5.27-5.69,5.74-9.81,5.54c-3.82-0.19-8.12-1.67-8.16-6.22C177.41,571.5,175.41,571.49,175.42,572.78L175.42,572.78z"/>
	</g>
</g>
<line class="st9" x1="187.21" y1="553.9" x2="244.57" y2="551.33"/>
<g>
	<g>
		<path class="st7" d="M303.52,538.82c2.86,1.83,5.68,4.02,8.72,5.53c6.26,3.11,14.14-0.34,16.83-6.54c2.56-5.9,0.19-13-5.43-16.15
			c-6.03-3.39-13.41-1.18-17.1,4.49c0.46-0.12,0.91-0.24,1.37-0.36c-5.14-2.6-10.28-5.2-15.42-7.8c-1.15-0.58-2.16,1.15-1.01,1.73
			c5.14,2.6,10.28,5.2,15.42,7.8c0.5,0.25,1.06,0.12,1.37-0.36c3.57-5.48,11.25-6.89,16.26-2.43c4.56,4.06,4.75,11.26,0.47,15.59
			c-3.61,3.65-9.16,4-13.38,1.3c-2.36-1.51-4.72-3.02-7.08-4.53C303.44,536.4,302.43,538.13,303.52,538.82L303.52,538.82z"/>
	</g>
</g>
<g>
	<g>
		<path class="st7" d="M292.33,552.35c2.53,1.21,5.05,2.41,7.58,3.62c4.18,1.99,6.75,6.19,6.18,10.9c-0.71,5.98-6.45,10.31-12.4,9.3
			c-7.1-1.2-10.79-8.94-7.82-15.36c0.23-0.5,0.14-1.07-0.36-1.37c-4.92-2.99-9.84-5.99-14.76-8.98c-1.1-0.67-2.11,1.06-1.01,1.73
			c4.92,2.99,9.84,5.99,14.76,8.98c-0.12-0.46-0.24-0.91-0.36-1.37c-3.05,6.57-0.54,14.55,6.31,17.48
			c5.81,2.48,12.75,0.22,15.96-5.23c3.19-5.43,1.86-13.02-3.42-16.69c-2.88-2-6.5-3.23-9.66-4.74
			C292.18,550.08,291.17,551.8,292.33,552.35L292.33,552.35z"/>
	</g>
</g>
<path class="st9" d="M318.62,544.4c1.65,2.02,2.64,4.6,2.64,7.42c0,6.49-5.26,11.75-11.75,11.75c-0.81,0-1.6-0.08-2.37-0.24"/>
<g>
	<g>
		<path class="st7" d="M305.89,570.68c4.96,3.83,10.94,7.28,17.08,8.67c3.49,0.79,7.17,0.81,10.29-1.14
			c2.31-1.44,4.53-3.04,6.79-4.56c1.06-0.71,0.06-2.45-1.01-1.73c-2.18,1.46-4.34,2.97-6.56,4.4c-3.08,1.98-6.63,1.77-10.05,0.83
			c-5.58-1.54-10.97-4.67-15.54-8.2C305.88,568.16,304.89,569.9,305.89,570.68L305.89,570.68z"/>
	</g>
</g>
<g>
	<g>
		<path class="st7" d="M379.38,541.86c-10.08,10.33-20.16,20.66-30.24,30.98c-1.45,1.48-2.89,2.96-4.34,4.44
			c0.32-0.09,0.65-0.17,0.97-0.26c-4.22-0.79-5.87-4.78-6.03-8.7c-0.16-3.89-0.39-7.43-2.72-10.72c-1.96-2.78-4.93-4.39-8.24-5.09
			c-3.14-0.67-6.07-0.77-7.13-4.54c-0.35-1.24-2.28-0.71-1.93,0.53c1.04,3.71,4.03,5.45,7.69,5.83c0.6,0.06,1.63,0.28,2.74,0.66
			c2.04,0.7,3.74,1.72,5.02,3.47c2.44,3.35,2.24,6.9,2.62,10.79c0.33,3.33,1.6,6.95,4.65,8.73c1.06,0.62,2.66,1.38,3.78,0.69
			c0.35-0.22,0.67-0.68,0.95-0.97c1.77-1.81,3.53-3.62,5.3-5.42c5.61-5.75,11.22-11.49,16.83-17.24c3.83-3.92,7.65-7.84,11.48-11.76
			C381.7,542.35,380.28,540.94,379.38,541.86L379.38,541.86z"/>
	</g>
</g>
<path class="st9" d="M327.23,539.11c0,0,2.59-3.34,7.43-1.21c4.84,2.13,15.01,6.49,17.8,16.85c0,0,1.51,7.4,3.48,12.56"/>
<path class="st9" d="M359.84,517.86c0,0-26.27,17.22-31.24,20.13"/>
<path class="st9" d="M382.59,512.83c-5.52,7.75-10.62,10.06-10.62,10.06c-1.3,0.77-2.82,1.2-4.44,1.2c-4.84,0-8.76-3.92-8.76-8.76
	c0-3.87,2.51-7.16,5.99-8.32c0,0,13.28-3.46,34.97-24.01c0,0,8.15-8.13,7.32-23.53l-0.46-10.12c0,0-0.86-7.21,3.4-11.08l2.37-2.23"
	/>
<path class="st9" d="M397.89,530.28c-12.3-15.47-24.17-27.35-24.17-27.35"/>
<path class="st9" d="M390.43,521.23c-7.66,2.79-11.18,6.7-11.18,6.7c-1.82,1.61-2.97,3.96-2.97,6.58c0,4.84,3.92,8.77,8.77,8.77
	c2.24,0,4.52-0.7,7.19-4.29c0,0,7.11-11.14,13.69-17.63c6.58-6.49,19.56-18.41,19.56-18.41h3.39"/>
<path class="st9" d="M396.72,485.8c0,0,13.62,12.38,20.66,24.45"/>
<g>
	<g>
		<path class="st7" d="M438.87,451.53c0.75,0.17,0.91,1.54,0.56,2.19c-0.1,0.18-0.61,0.3-0.79,0.42c-0.63,0.42-1.7,0.6-2.44,0.79
			c-0.94,0.24-1.9,0.4-2.86,0.6c-1.84,0.38-3.64,0.91-5.43,1.48c-1.07,0.34-2.76,1.32-3.88,1.3c-1.27-0.02-1.43-1.31-1.34-2.37
			c0.15-1.76,1.37-2.76,2.93-3.36c1.37-0.53,1.36-0.43,2.6-0.51c8.75-0.57,17.54-1.49,26.31-1.71c1.68-0.04,3.42,0.27,4.89,1.13
			c2.98,1.73,4.73,7.31,2.76,10.39c-0.27,0.42-0.12,1.16,0.36,1.37c4.05,1.77,3.58,8.67,0.67,11.21c-0.37,0.32-0.41,1.1,0,1.41
			c1.5,1.17,2.41,3.05,2.5,4.93c0.17,3.25-1.81,4.85-4.53,6.08c-0.45,0.21-0.66,0.97-0.36,1.37c1.33,1.75,1.26,4.7,0.18,6.51
			c-1.26,2.1-4,2.84-6.26,3.23c-1.27,0.22-0.73,2.15,0.53,1.93c2.99-0.52,6.38-1.75,7.74-4.7c1.09-2.36,1.19-5.81-0.46-7.98
			c-0.12,0.46-0.24,0.91-0.36,1.37c3.13-1.42,5.35-3.47,5.51-7.08c0.12-2.6-0.99-5.45-3.08-7.08c0,0.47,0,0.94,0,1.41
			c3.81-3.33,4.15-12.06-1.07-14.35c0.12,0.46,0.24,0.91,0.36,1.37c1.87-2.93,0.99-7.95-0.81-10.65c-1.73-2.59-4.94-3.82-7.97-3.89
			c-4.78-0.1-9.7,0.6-14.47,0.91c-3.52,0.23-7.03,0.46-10.55,0.69c-1.34,0.09-2.73,0.07-4.04,0.4c-2.84,0.72-5.34,2.61-5.39,5.74
			c-0.05,2.7,1.46,4.76,4.27,4.01c2.49-0.66,4.89-1.67,7.4-2.29c1.7-0.43,3.44-0.66,5.12-1.15c1.68-0.49,3.65-1.11,4.3-2.89
			c0.69-1.9-0.45-3.73-2.39-4.17C438.15,449.32,437.62,451.24,438.87,451.53L438.87,451.53z"/>
	</g>
</g>
<g>
	<g>
		<path class="st7" d="M452.7,482.68c-3.51-0.25-7.09-0.11-10.59,0.21c-3.2,0.29-6.4,0.77-9.53,1.54c-2.91,0.72-6.78,1.6-9.24,3.41
			c-3.26,2.41-1.43,8.23,2.92,6.84c1.1-0.35,2.04-1.02,3.07-1.51c3.11-1.47,6.42-1.97,9.8-2.33c3.79-0.41,6.16-3.21,3.98-6.8
			c-0.67-1.1-2.4-0.09-1.73,1.01c0.66,1.09,0.94,2.43-0.24,3.25c-1.17,0.82-3.02,0.58-4.39,0.76c-1.71,0.22-3.4,0.56-5.04,1.07
			c-1.48,0.46-2.91,1.04-4.28,1.76c-0.57,0.3-1.08,0.66-1.71,0.86c-1.98,0.64-2.57-2.01-1.29-3.24c0.97-0.93,3.16-1.46,4.42-1.9
			c1.62-0.57,3.29-1.04,4.96-1.43c3.03-0.7,6.12-1.14,9.23-1.38c3.2-0.25,6.45-0.36,9.65-0.13
			C453.98,484.77,453.98,482.77,452.7,482.68L452.7,482.68z"/>
	</g>
</g>
<g>
	<g>
		<path class="st7" d="M453.57,471.93c-8.21-0.54-16.97-0.07-24.91,2.2c-3.53,1.01-9.29,2.54-8.18,7.41
			c1.17,5.14,8.67,0.39,11.56-0.22c2.88-0.61,6.38,0.16,8.86-1.81c1.63-1.3,1.97-3.33,2.14-5.3c0.12-1.28-1.89-1.27-2,0
			c-0.23,2.52-1.01,4.14-3.69,4.61c-1.56,0.28-3.16,0.12-4.73,0.36c-1.59,0.24-3.11,0.72-4.62,1.26c-1.17,0.42-2.32,0.93-3.53,1.26
			c-0.9,0.25-1.24,0.42-1.81-0.23c-0.7-0.8-0.26-2.15,0.39-2.84c1.36-1.46,4.53-2.12,6.45-2.66c7.68-2.14,16.12-2.56,24.07-2.04
			C454.85,474.02,454.85,472.01,453.57,471.93L453.57,471.93z"/>
	</g>
</g>
<path class="st9" d="M422.73,482.95c0,0,1.64,4.31,8.62,2.85"/>
<g>
	<g>
		<path class="st7" d="M452.7,459.59c-9.47-0.91-20.11-0.11-28.86,3.78c-1.55,0.69-2.76,1.65-2.85,3.5
			c-0.1,2.11,1.21,3.52,3.27,3.61c1.39,0.06,2.73-0.36,4.03-0.79c2.34-0.76,4.72-1.46,7.16-1.82c2.23-0.33,5.08,0.37,6.46-1.91
			c0.75-1.24,0.78-2.87,0.54-4.25c-0.22-1.27-2.15-0.73-1.93,0.53c0.31,1.76-0.19,3.3-2.14,3.45c-2.65,0.19-5.12,0.48-7.71,1.19
			c-1.25,0.34-2.46,0.78-3.69,1.16c-0.83,0.25-2.2,0.75-3.02,0.39c-2.28-0.98-0.56-2.62,0.57-3.18c5.69-2.85,12.68-3.58,18.94-3.83
			c3.07-0.12,6.18-0.12,9.24,0.17C453.98,461.71,453.97,459.71,452.7,459.59L452.7,459.59z"/>
	</g>
</g>
<path class="st9" d="M422.73,459.42c0,0,0.15,3.88,6.76,2.99"/>
<path class="st9" d="M423.07,469.48c0,0-2.03,6.26,7.55,5.17"/>
<path class="st9" d="M422.36,421.69l-9.38,11.17c0,0-1.86,4,1.38,5.52s6.98-3.52,6.98-3.52l5.41-7.65c0,0,2.49-3.59,1.05-5.79
	C425.74,418.25,422.36,421.69,422.36,421.69z"/>
<path class="st9" d="M427.73,425.36c0,0,5.25,1.66,3.18,13.31c0,0-0.9,5.44-6.13,9.32c0,0-2.53,2.08-1.09,4.48"/>
<g>
	<g>
		<path class="st7" d="M427.25,497.31c-0.2,2.73,0.2,5.56,0.58,8.25c1.18,8.28,3.59,16.38,6.49,24.21
			c4.66,12.55,11.25,24.12,16.76,36.28c3.07,6.77,6.29,14,7.4,21.42c0.2,1.34,0.33,2.94,0.11,4.14c-0.06,0.32-0.23,0.77-0.19,0.66
			c-0.09,0.24-0.18,0.22-0.02,0.07c-0.68,0.68,0,2.01,0.97,1.67c6-2.09,11.88-4.59,17.63-7.27c9.64-4.49,19.73-9.69,27.2-17.43
			c0.38-0.4,0.37-1.01,0-1.41c-8.85-9.47-17.29-19.39-25.29-29.59c-5.99-7.63-11.83-15.5-16.61-23.96
			c-1.74-3.09-3.47-6.33-4.48-9.75c-0.79-2.67-1.71-5.24-3.52-7.43c-3.83-4.63-10.13-4.09-15.55-3.3c-2.85,0.41-5.49,1.3-8.23,2.12
			c-2.13,0.63-3.74,0.04-4.07-2.26c-0.18-1.27-2.11-0.73-1.93,0.53c0.44,3.03,3.05,4.61,5.95,3.85c5.8-1.53,11.71-3.63,17.85-2.47
			c4.13,0.78,6.31,5.08,7.38,8.74c0.81,2.78,1.94,5.42,3.26,8c4.29,8.4,9.92,16.13,15.63,23.6c5.76,7.54,11.81,14.84,18.03,22
			c3.33,3.83,6.7,7.64,10.16,11.35c0-0.47,0-0.94,0-1.41c-7.35,7.61-17.31,12.69-26.8,17.11c-5.6,2.61-11.32,5.04-17.16,7.07
			c0.32,0.56,0.65,1.11,0.97,1.67c0.97-0.96,0.93-2.86,0.89-4.09c-0.18-5.8-2.5-11.65-4.61-16.96
			c-4.88-12.26-11.6-23.64-16.77-35.77c-3.9-9.16-7.19-18.7-9-28.51c-0.66-3.59-1.33-7.44-1.07-11.12
			C429.34,496.03,427.34,496.03,427.25,497.31L427.25,497.31z"/>
	</g>
</g>
<path class="st9" d="M444.22,549.81c0,0,22.1-5.78,30.21-15.69"/>
<g>
	<g>
		<path class="st7" d="M449.92,515.83c9.14,17.54,18.69,35.1,29.72,51.53c2.85,4.24,5.8,8.7,9.55,12.21
			c0.94,0.88,2.36-0.53,1.41-1.41c-3.29-3.07-5.9-6.89-8.42-10.59c-3.48-5.1-6.72-10.36-9.88-15.65
			c-5.99-10.03-11.67-20.25-17.19-30.55c-1.17-2.18-2.33-4.35-3.47-6.54C451.05,513.68,449.32,514.69,449.92,515.83L449.92,515.83z"
			/>
	</g>
</g>
<g>
	<g>
		<path class="st7" d="M441.6,518.37c9.22,18.86,18.45,37.85,26.24,57.36c1.43,3.58,3.74,7.95,3.83,11.89c0.03,1.28,2.03,1.29,2,0
			c-0.08-3.44-1.82-7.06-3.03-10.2c-2.18-5.65-4.6-11.22-7.05-16.75c-5.26-11.88-10.8-23.65-16.42-35.36
			c-1.27-2.65-2.55-5.3-3.84-7.94C442.77,516.2,441.04,517.21,441.6,518.37L441.6,518.37z"/>
	</g>
</g>
<g>
	<g>
		<path class="st7" d="M453.7,448.83c-0.47-12.4,0.95-25.02,2.79-37.28c0.1-0.66-0.26-1.23-0.96-1.27
			c-13.42-0.61-27.09-0.95-40.43,0.95c-3.16,0.45-7.02,0.84-9.89,2.43c-0.37,0.21-0.59,0.72-0.46,1.13
			c2.32,7.12,5.05,14.81,5.46,22.32c0.07,1.28,2.07,1.29,2,0c-0.42-7.71-3.14-15.56-5.53-22.86c-0.15,0.38-0.31,0.75-0.46,1.13
			c2.27-1.26,6.49-1.82,9.41-2.23c13.15-1.87,26.67-1.48,39.9-0.88c-0.32-0.42-0.64-0.84-0.96-1.27
			c-1.86,12.43-3.34,25.23-2.86,37.81C451.75,450.11,453.75,450.12,453.7,448.83L453.7,448.83z"/>
	</g>
</g>
<path class="st9" d="M431.37,434.57c0,0,14.36-0.61,21.67-0.41"/>
<g>
	<g>
		<path class="st7" d="M451.72,409.84c-1.24-2.02-1.1-2.81-0.01-4.69c0.34-0.59,0.63-1.12,0.74-1.8c0.14-0.84,0.06-1.69-0.28-2.48
			c-0.14-0.34-0.41-0.62-0.56-0.94c-0.56-1.22-0.2-1.17,0.56-2.04c1.05-1.2,1.36-2.65,1.16-4.21c-0.15-1.19-1.06-2.42-1.13-3.56
			c-0.08-1.3,1.14-1.75,1.64-2.8c0.59-1.25,0.57-2.69-0.15-3.87c-0.37-0.61-0.95-1.06-1.43-1.57c-1.46-1.55-0.31-2.73,0.38-4.24
			c0.58-1.26,0.95-2.78,0.4-4.13c-0.61-1.48-1.67-1.36-1.33-3.55c0.12-0.79,0.74-1.41,0.76-2.28c0.05-1.78-1.24-2.08-2.04-3.37
			c-1.11-1.8,0.91-3.1,1.4-4.44c0.36-0.98,0.23-1.82-0.03-2.8c-0.54-2.07-2.13-3.78-1.78-5.96c0.35-2.16-0.05-2.6-1.16-4.32
			c-0.77-1.2-0.5-1.71-0.18-2.96c0.17-0.69,0.2-1.41,0.01-2.1c-0.49-1.79-1.96-2.21-3.18-3.35c-1.81-1.7,0.6-4.41-0.53-6.5
			c-0.75-1.39-3.06-1.45-3.31-3.1c-0.3-1.92,0.68-3.02-1.28-4.3c-0.95-0.62-1.4,0.15-2.21-1.48c-0.22-0.44-0.17-1.07-0.26-1.54
			c-0.18-0.9-0.36-1.73-0.97-2.44c-0.5-0.59-1.19-0.9-1.86-1.22c-0.15-0.07-1.13-0.38-1.37-0.62c-1.17-1.14-0.38-1.66-0.84-2.68
			c-1.1-2.42-4.99-2.04-4.97-5.01c-0.67,0-1.33,0-2,0c0.01,1.18-2.58,1.52-3.4,2.14c-0.56,0.43-1.01,0.99-1.3,1.64
			c-0.41,0.9-0.27,1.65-0.37,2.57c-0.23,2.01-1.54,1.91-2.68,2.9c-0.63,0.55-1.08,1.32-1.27,2.13c-0.24,1.01,0.32,2.53-0.19,3.46
			c-0.79,1.45-3.24,1.48-4.25,2.88c-0.37,0.52-0.58,1.1-0.61,1.74c-0.02,0.55,0.33,1.27,0.3,1.78c-0.07,1.06-1.02,2.19-1.64,2.85
			c-1.21,1.29-2.09,2.03-1.97,4.02c0.07,1.2,0.93,2.3,0.08,3.42c-0.54,0.71-1.37,0.75-1.79,1.72c-1.12,2.59,1.78,4.26-0.07,6.94
			c-0.86,1.23-1.77,1.93-1.48,3.65c0.39,2.29,2.69,3.56,0.16,5.27c-1.16,0.79-2.19,1.93-1.98,3.46c0.13,0.95,0.7,1.26,1.18,2.01
			c0.41,0.63,1.11,0.2,0.71,1.6c-0.1,0.36-0.85,0.81-1.11,1.15c-1.09,1.41-1.63,3.35-0.67,5c0.33,0.57,0.98,0.83,1.32,1.33
			c1.16,1.71-0.64,2.41-1.02,4.04c-0.41,1.75,0.55,2.87,1.38,4.28c1.13,1.94,0.57,3.16,0.15,5.11c-0.22,1.02-0.35,2.06,0.12,3.03
			c0.15,0.3,0.39,0.51,0.57,0.79c0.78,1.17,1.11,1.75,0.95,3.26c-0.12,1.04-0.28,2.06,0.08,3.07c0.28,0.79,0.73,1.15,1.29,1.7
			c0.12,0.12,0.56,0.12,0.64,0.26c0.48,0.79-0.11,1.25-0.36,1.94c-0.75,2.09-0.04,3.67,1.18,5.33c0.56,0.76,1.56,0.87,1.16,2.31
			c-0.16,0.58-0.95,1.22-1.22,1.76c-0.47,0.92-0.55,1.76-0.16,2.71c0.49,1.17,2.42,0.66,1.93-0.53c-0.74-1.78,2.27-3.42,1.45-5.58
			c-0.3-0.79-0.95-1.26-1.51-1.86c-1.65-1.76-0.89-2.98-0.26-4.86c0.34-1.02,0.31-2.12-0.66-2.79c-1.06-0.73-1.76-0.53-1.7-2.35
			c0.04-1.11,0.41-2.19,0.18-3.31c-0.16-0.78-0.53-1.2-0.93-1.85c-0.73-1.2-1.06-0.02-0.83-2.52c0.05-0.54,0.35-1.18,0.47-1.68
			c0.55-2.3,0.01-3.6-1.19-5.5c-1-1.59-0.68-2.58,0.37-4.18c0.43-0.65,0.81-1.29,0.72-2.11c-0.33-2.84-4.67-2.48-1.37-6.14
			c0.88-0.98,1.71-1.82,1.13-3.24c-0.29-0.71-1.01-1.01-1.39-1.61c-1.38-2.17,0.79-2.11,1.8-3.23c0.7-0.78,0.94-1.97,0.84-2.98
			c-0.06-0.6-0.28-1.09-0.5-1.64c-0.52-1.32-1.31-1.59-0.43-2.96c0.52-0.81,0.8-0.92,1.37-1.61c1.01-1.23,0.83-2.42,0.26-3.78
			c-0.63-1.51-1.14-1.77,0.22-3.7c0.16-0.23,0.56-0.29,0.74-0.52c0.48-0.63,0.81-1.04,0.81-1.91c0-1.28-0.98-2.36-0.6-3.7
			c0.38-1.33,1.62-1.52,2.46-2.35c0.56-0.56,0.96-1.24,1.12-2.03c0.26-1.25-0.55-2.93,0.1-4.06c0.77-1.35,3.29-1.26,4.17-2.84
			c0.44-0.78,0.37-1.53,0.41-2.38c0.05-1.06,0.46-2.39,1.39-3.13c0.33-0.26,0.94-0.3,1.31-0.55c2.6-1.72-0.06-4.88,3.02-6.47
			c1.65-0.85,3.37-1.03,3.34-3.31c-0.02-1.29-1.99-1.29-2,0c-0.01,1.44,0.45,2.76,1.6,3.69c1.05,0.85,1.89,0.84,2.78,2
			c0.76,0.98,0.69,1.96,1.42,2.89c1.24,1.58,3.38,1.21,4.18,3.31c0.58,1.53,0.18,3.13,1.74,4.18c1.19,0.8,2.34,0.38,2.16,2.32
			c-0.05,0.59-0.17,1.21-0.02,1.8c0.41,1.61,1.62,1.67,2.74,2.56c1.74,1.37-0.49,4.26,0.39,6.18c0.78,1.7,3.4,2.05,3.88,3.85
			c0.55,2.04-1.62,3.04-0.49,5.09c0.26,0.47,0.49,0.35,0.73,0.64c1.7,2.04,1.22,1.72,0.9,3.24c-0.18,0.86-0.17,1.53,0.14,2.36
			c0.35,0.93,0.99,1.7,1.35,2.63c0.7,1.78,0.45,3.02-0.64,4.64c-0.93,1.39-1.32,2.82-0.29,4.26c0.57,0.8,1.32,1.11,1.63,2.11
			c0.39,1.28-0.45,1.93-0.68,3.12c-0.45,2.31,2.14,3.26,1.74,5.54c-0.31,1.77-2.02,2.98-1.79,4.91c0.2,1.66,1.61,2.18,2.42,3.43
			c1.57,2.44-2.23,3.52-1.62,6.1c0.41,1.72,1.58,3.12,1.04,4.98c-0.37,1.28-1.57,1.73-2.03,2.91c-0.26,0.68-0.15,1.25,0.11,1.9
			c0.14,0.36,0.36,0.44,0.51,0.71c0.98,1.84,0.64,2.32-0.26,3.88c-1.29,2.25-0.92,3.9,0.44,6.11
			C450.67,411.94,452.4,410.94,451.72,409.84L451.72,409.84z"/>
	</g>
</g>
<line class="st9" x1="405.23" y1="360.34" x2="450.92" y2="359.49"/>
<path class="st9" d="M404.76,378.18l7.61-0.52c0,0,6.54-0.42,7.34,4.94c0.8,5.36-2.66,7.12-4.82,7.46
	c-3.38,0.52-7.24,0.51-7.24,0.51"/>
<g>
	<g>
		<path class="st7" d="M156.3,334.47c18.2-3.4,28.02-24.45,18.29-40.44c-9.39-15.42-31.92-17.27-43.57-3.39
			c-11.5,13.72-6.31,35.3,10.25,42.18c6.76,2.81,16.46,3.75,21.17-3.08c4.72-6.86,0.73-16.71-7.46-18.29
			c-5.3-1.02-10.58,2.98-9.58,8.75c0.53,3.09,2.94,5.09,6.12,4.64c2.67-0.37,4.71-2.56,3.66-5.32c-0.45-1.19-2.39-0.68-1.93,0.53
			c1.07,2.82-3.26,3.74-4.9,1.99c-1.4-1.5-1.25-4.06-0.42-5.77c2.43-4.99,9.25-3.01,12.16,0.29c5.66,6.42,0.7,16.08-7.47,16.31
			c-6.71,0.19-13.27-2.2-18.15-6.84c-10.67-10.13-10.07-27.79,1.21-37.21c11.4-9.52,29.16-6.64,37.03,5.93
			c9.36,14.95,0.15,34.58-16.92,37.78C154.51,332.77,155.04,334.7,156.3,334.47L156.3,334.47z"/>
	</g>
</g>
<g>
	<g>
		<path class="st7" d="M125.96,314.51c2.61,1.35,5.23,2.7,7.84,4.05c1.14,0.59,2.15-1.14,1.01-1.73c-2.61-1.35-5.23-2.7-7.84-4.05
			C125.82,312.2,124.81,313.92,125.96,314.51L125.96,314.51z"/>
	</g>
</g>
<g>
	<g>
		<path class="st7" d="M133.74,310.42c-2.35-1.62-4.69-3.24-7.04-4.86c-1.06-0.73-2.06,1-1.01,1.73c2.35,1.62,4.69,3.24,7.04,4.86
			C133.79,312.88,134.79,311.14,133.74,310.42L133.74,310.42z"/>
	</g>
</g>
<g>
	<g>
		<path class="st7" d="M126.99,298.68c2.64,3.07,5.29,6.15,7.93,9.22c0.84,0.98,2.25-0.44,1.41-1.41c-2.64-3.07-5.29-6.15-7.93-9.22
			C127.56,296.29,126.15,297.71,126.99,298.68L126.99,298.68z"/>
	</g>
</g>
<g>
	<g>
		<path class="st7" d="M132.15,290.7c2.28,3.99,4.55,7.99,6.83,11.98c0.64,1.12,2.37,0.11,1.73-1.01
			c-2.28-3.99-4.55-7.99-6.83-11.98C133.24,288.57,131.51,289.58,132.15,290.7L132.15,290.7z"/>
	</g>
</g>
<g>
	<g>
		<path class="st7" d="M140.58,284.37c1.25,5.03,2.5,10.07,3.75,15.1c0.31,1.25,2.24,0.72,1.93-0.53c-1.25-5.03-2.5-10.07-3.75-15.1
			C142.2,282.59,140.27,283.12,140.58,284.37L140.58,284.37z"/>
	</g>
</g>
<g>
	<g>
		<path class="st7" d="M157.96,283.68c-0.62,5.18-1.24,10.35-1.87,15.53c-0.15,1.28,1.85,1.26,2,0c0.62-5.18,1.25-10.35,1.87-15.53
			C160.11,282.4,158.11,282.41,157.96,283.68L157.96,283.68z"/>
	</g>
</g>
<g>
	<g>
		<path class="st7" d="M165.77,286.71c-1.51,4.57-3.02,9.14-4.52,13.71c-0.4,1.23,1.53,1.75,1.93,0.53
			c1.51-4.57,3.02-9.14,4.52-13.71C168.1,286.02,166.17,285.49,165.77,286.71L165.77,286.71z"/>
	</g>
</g>
<g>
	<g>
		<path class="st7" d="M172.65,293.7c-2.26,3.18-4.52,6.36-6.78,9.54c-0.75,1.05,0.99,2.05,1.73,1.01c2.26-3.18,4.52-6.36,6.78-9.54
			C175.13,293.65,173.39,292.65,172.65,293.7L172.65,293.7z"/>
	</g>
</g>
<g>
	<g>
		<path class="st7" d="M175.96,300.79c-2.37,2.28-4.74,4.56-7.11,6.84c-0.93,0.89,0.49,2.31,1.41,1.41
			c2.37-2.28,4.74-4.56,7.11-6.84C178.3,301.31,176.89,299.89,175.96,300.79L175.96,300.79z"/>
	</g>
</g>
<g>
	<g>
		<path class="st7" d="M170.63,315.01c2.29-1.32,4.58-2.63,6.87-3.95c1.12-0.64,0.11-2.37-1.01-1.73c-2.29,1.32-4.58,2.63-6.87,3.95
			C168.51,313.92,169.51,315.65,170.63,315.01L170.63,315.01z"/>
	</g>
</g>
<g>
	<g>
		<path class="st7" d="M152.24,297.98c0.47-21.35-0.41-42.65-1-63.99c-0.2-7.28-0.05-14.15-3.39-20.89
			c-3.53-7.13-9.53-10.95-16.98-13.11c-2.8-0.81-5.65-1.49-8.59-0.97c-2.99,0.53-6.47,3.07-5.97,6.5c0.65,4.37,6.09,4.69,8.94,6.62
			c7.26,4.92,8.37,15.3,8.17,23.26c0.33-0.33,0.67-0.67,1-1c-4.6-0.54-9.86,0.6-13.52,3.47c-2.61,2.05-4.81,5.21-5.7,8.42
			c-0.84,3.02-0.37,6.16,0.02,9.22c1.51,11.98,4.41,23.66,7.43,35.33c0.94,3.64,1.9,7.28,2.9,10.91c0.34,1.24,2.27,0.71,1.93-0.53
			c-2.18-7.93-4.23-15.9-6.13-23.91c-1.28-5.38-2.54-10.78-3.41-16.24c-0.9-5.69-2.52-12.38,0.72-17.57
			c3.38-5.42,9.51-7.84,15.77-7.11c0.55,0.06,0.99-0.51,1-1c0.24-9.3-1.71-22.77-11.97-26.35c-2.45-0.85-6.72-2.68-4.51-5.9
			c2.29-3.33,7.35-2.44,10.64-1.49c3.42,0.99,6.71,1.99,9.64,4.1c2.98,2.14,5.29,5.07,6.91,8.35c3.11,6.28,2.92,12.73,3.1,19.51
			c0.35,12.85,0.71,25.7,1.06,38.55c0.24,8.63,0.14,17.17-0.05,25.81C150.21,299.26,152.21,299.26,152.24,297.98L152.24,297.98z"/>
	</g>
</g>
<path class="st9" d="M119.57,240.56"/>
<g>
	<g>
		<path class="st7" d="M133.72,247.83c-3.41-4.18-8.54-7.42-13.88-8.24c-1.26-0.19-1.8,1.73-0.53,1.93c5.05,0.77,9.78,3.78,13,7.72
			C133.12,250.24,134.53,248.82,133.72,247.83L133.72,247.83z"/>
	</g>
</g>
<g>
	<g>
		<path class="st7" d="M131.09,252.41c-3.51-4.38-9.36-6.72-14.77-7.33c-1.28-0.14-1.27,1.86,0,2c4.91,0.55,10.19,2.78,13.36,6.74
			C130.48,254.83,131.88,253.4,131.09,252.41L131.09,252.41z"/>
	</g>
</g>
<g>
	<g>
		<path class="st7" d="M179.26,235.2c-5.12,2.94-10.27,6.5-14.17,10.96c-0.84,0.97,0.56,2.39,1.41,1.41
			c3.8-4.35,8.78-7.79,13.76-10.65C181.38,236.29,180.37,234.56,179.26,235.2L179.26,235.2z"/>
	</g>
</g>
<g>
	<g>
		<path class="st7" d="M184.58,240.61c-5.47,2.84-10.95,6.15-15.5,10.35c-0.95,0.87,0.47,2.29,1.41,1.41
			c4.42-4.07,9.78-7.27,15.09-10.03C186.73,241.74,185.72,240.01,184.58,240.61L184.58,240.61z"/>
	</g>
</g>
<g>
	<g>
		<path class="st7" d="M117.92,268.8c5.81,1.81,11.63,3.62,17.44,5.43c1.23,0.38,1.76-1.55,0.53-1.93
			c-5.81-1.81-11.63-3.62-17.44-5.43C117.22,266.49,116.69,268.42,117.92,268.8L117.92,268.8z"/>
	</g>
</g>
<g>
	<g>
		<path class="st7" d="M119.3,275.89c5.35,1.4,10.7,2.8,16.06,4.2c1.25,0.33,1.78-1.6,0.53-1.93c-5.35-1.4-10.7-2.8-16.06-4.2
			C118.59,273.64,118.06,275.57,119.3,275.89L119.3,275.89z"/>
	</g>
</g>
<g>
	<g>
		<path class="st7" d="M183.25,265.13c-5.67,2.72-11.34,5.43-17.02,8.15c-1.16,0.56-0.15,2.28,1.01,1.73
			c5.67-2.72,11.34-5.43,17.02-8.15C185.42,266.3,184.4,264.58,183.25,265.13L183.25,265.13z"/>
	</g>
</g>
<g>
	<g>
		<path class="st7" d="M182.08,273.18c-4.78,1.66-9.56,3.33-14.34,4.99c-1.21,0.42-0.69,2.35,0.53,1.93
			c4.78-1.66,9.56-3.33,14.34-4.99C183.82,274.69,183.3,272.76,182.08,273.18L182.08,273.18z"/>
	</g>
</g>
<g>
	<g>
		<path class="st7" d="M150.96,225.36c1.36-10.07,5.91-22.61,16.94-25.5c0.89-0.23,0.88-0.21,1.39-0.29
			c2.29-0.37,4.76-0.69,7.06-0.3c4.95,0.83,1.46,6.02-1.29,7.53c-2.8,1.54-5.38,2.26-7.25,5.08c-4.24,6.4-3.95,15.09-3.02,22.36
			c0.09,0.69,0.56,1.08,1.27,0.96c5.4-0.88,12.93-1.13,16.61,3.59c3.85,4.94,2.81,11.2,1.79,16.9c-2.02,11.31-4.26,22.58-6.47,33.85
			c-0.65,3.33-1.3,6.65-1.96,9.98c-0.25,1.26,1.68,1.8,1.93,0.53c1.89-9.58,3.77-19.16,5.61-28.75c1.05-5.47,2.11-10.94,3.06-16.43
			c1.06-6.13,1.54-12.62-2.71-17.72c-4.24-5.09-12.39-4.85-18.39-3.88c0.42,0.32,0.84,0.64,1.27,0.96
			c-0.89-6.99-1.62-17.15,3.84-22.74c2.72-2.78,7.07-2.75,9.24-6.38c1.29-2.16,1.65-5.61-0.81-7.06c-2.31-1.36-5.65-1.01-8.19-0.72
			c-1.43,0.17-1.93,0.23-2.82,0.42c-3.28,0.74-6.27,2.46-8.78,4.67c-6.39,5.63-9.14,14.2-10.25,22.39
			C148.86,226.09,150.79,226.63,150.96,225.36L150.96,225.36z"/>
	</g>
</g>
<path class="st9" d="M136.42,448.58c0,0-5.36,11.77-3,27.3l1.2-0.17"/>
<g>
	<g>
		<path class="st7" d="M133.62,475.72c0.63,15.76,0.99,31.61,0.27,47.37c-0.2,4.42-0.4,8.94-1.34,13.28
			c-0.14,0.65,0.29,1.24,0.96,1.27c9.56,0.36,19.3-0.67,28.74-2.07c20.44-3.05,40.7-9.24,58.55-19.82
			c11.77-6.98,22.32-15.92,30.82-26.66c0.49-0.62,0.31-1.38-0.44-1.67c-17.2-6.67-34.62-15.07-49.39-26.18
			c-4.89-3.68-9.73-7.89-12.97-13.15c-0.67-1.09-2.4-0.09-1.73,1.01c6.01,9.77,16.75,16.56,26.41,22.27
			c9.79,5.79,20.06,10.77,30.51,15.25c2.2,0.94,4.41,1.87,6.64,2.74c-0.15-0.56-0.29-1.11-0.44-1.67
			c-14.58,18.43-34.96,30.97-57.04,38.46c-16.04,5.44-32.95,8.5-49.86,9.34c-3.25,0.16-6.53,0.29-9.79,0.17
			c0.32,0.42,0.64,0.84,0.96,1.27c1.84-8.52,1.64-17.64,1.72-26.31c0.08-9.56-0.08-19.12-0.37-28.67c-0.06-2.07-0.13-4.13-0.21-6.2
			C135.57,474.44,133.57,474.43,133.62,475.72L133.62,475.72z"/>
	</g>
</g>
</svg>
