<?xml version="1.0" encoding="utf-8"?>
<!-- Generator: Adobe Illustrator 23.0.4, SVG Export Plug-In . SVG Version: 6.00 Build 0)  -->
<svg version="1.1" id="Layer_2" xmlns="http://www.w3.org/2000/svg" xmlns:xlink="http://www.w3.org/1999/xlink" x="0px" y="0px"
	 viewBox="0 0 612 792" style="enable-background:new 0 0 612 792;" xml:space="preserve">
<style type="text/css">
	.st0{fill:#FFFFFF;stroke:#FBFCF2;stroke-miterlimit:10;}
	.st1{fill:#CE2929;}
	.st2{opacity:0.8;}
	.st3{fill:#CCCCCA;}
	.st4{opacity:0.8;fill:#FFF3D8;}
	.st5{fill:#FFFFFF;}
	.st6{opacity:0.68;fill:#376A63;}
	.st7{fill:#FFF3D8;}
	.st8{fill:#010101;}
	.st9{fill:#FBFCF2;}
	.st10{fill:none;stroke:#010101;stroke-width:2;stroke-miterlimit:10;}
</style>
<polygon class="st0" points="336.31,422.21 331.69,421.96 328.97,419.63 322.59,421.57 304.11,424.43 294.63,424.57 285.78,424.57 
	285.78,397.6 296.12,397.34 307.64,398.08 316.74,399.37 328.97,402.25 333.53,398.38 339.02,396.79 344.48,397.42 344.63,392.97 
	346.8,384.99 350.66,377.42 354.46,372.58 361.19,366.99 369.1,363.38 376.29,361.93 384.56,362.39 392.78,364.83 398.85,368 
	403.94,372.58 408.22,377.98 411.13,383.61 413.2,391.06 413.62,396.74 413.4,400.42 417.59,400.79 422.71,402.93 426.73,408.15 
	427.67,412.47 427.59,415.81 422.82,414.9 417.47,416.79 414.36,419.38 412.4,423.14 410.38,419.38 405.74,416.13 399.88,414.81 
	395.58,415.15 391.62,416.79 389,419.9 391.69,424.7 395.58,422.93 400.49,423.95 403.39,427.84 404.14,431.55 404.09,436.61 
	404.84,438.89 404.22,447.27 401.73,449.24 398.66,449.58 395.55,449.58 392.78,448.56 391.33,449.58 390.67,452.39 387.35,454.14 
	382.5,454.11 378.68,453.66 376.21,450.53 373.77,453.45 370.17,455.22 365.97,455.19 359.89,452.99 356.93,454.94 353.16,455.97 
	350.16,455.93 345.08,454.81 343.43,452.17 338.09,456.8 333.84,456.93 330.04,456.38 327.9,454.57 327.26,443.37 327.66,438.59 
	327.26,433.9 327.66,428.2 328.3,425.46 330.03,423.34 "/>
<polygon class="st0" points="424.94,437.18 428.87,436.59 432.71,435.8 428.09,453.01 "/>
<path class="st1" d="M363.38,314.28l3.29-51.16l54.42,8.36l-5.36,40.51C415.74,311.99,380.82,308.93,363.38,314.28z"/>
<polygon class="st1" points="439.26,274.27 432.75,315.25 436.29,314.28 440.56,314.82 444.13,316.97 445.86,318.7 447.34,321.22 
	449.58,315.53 462.03,281.83 455.03,278.71 449.86,276.87 "/>
<polygon class="st1" points="350.66,257.21 350.17,270.01 350.17,278.24 350.99,288.7 342.16,289.58 339.92,289.58 339.11,282.7 
	339.02,271.75 339.92,255.5 "/>
<polygon class="st1" points="310.35,251.44 330.33,254.12 329.83,263.12 329.42,279 330.33,290.42 323.64,291 312.31,292 
	310.61,286.63 309.81,264.79 "/>
<polygon class="st1" points="265.09,250.37 282.67,252.51 282.67,257.81 282.54,263.12 282.06,267.93 281.21,272.92 267.35,272.37 
	263.74,272.33 264.22,266.4 265.09,256.85 "/>
<polygon class="st1" points="209.07,240.72 228.64,245.09 247.87,248.07 247.87,254.12 247.19,261.06 246.22,272.27 219.91,271.48 
	205.77,271.75 205.72,263.43 206.43,251.44 "/>
<polygon class="st1" points="205.7,284.61 220.93,282.9 230.78,281.79 244.57,280.24 245.44,284.61 247.02,294.37 247.87,303.32 
	237.08,305.28 224.7,307.9 209.54,311.13 207.27,306.68 205.7,301 205.33,292.97 "/>
<polygon class="st1" points="262.05,278.28 280,276.27 281.21,280.24 281.94,283.9 282.35,288.07 282.35,291.63 282.27,295.9 
	264.64,299.51 264.85,292 264.41,286.08 "/>
<polygon class="st1" points="240.66,409.83 248.73,406.65 260.48,402.26 273.31,399.11 282.42,397.6 285.78,397.6 285.78,406.63 
	285.78,424.57 280,424.3 273.57,423.42 266.01,422.21 258.29,419.03 251.55,415.98 "/>
<polyline class="st1" points="327.72,431.55 342.82,431.55 342.82,431.55 391.83,430.89 391.69,424.7 389.57,420.91 386.15,419.41 
	383.75,419.38 379.78,419.82 377,422.21 376.11,425.37 376.15,427.45 374.59,423.57 371.57,420.9 368.54,420.46 364.3,420.58 
	362,421.59 359.84,424.57 358.38,423.66 356.9,422.21 352.73,421.21 349.69,421.21 346.19,422.34 344.63,424.43 343.73,427.2 
	342.18,425.46 339.35,422.7 336.31,422.21 333.39,422.21 330.03,423.34 328.3,425.46 327.66,428.2 327.72,431.55 "/>
<polyline class="st1" points="327.26,447.95 392.52,444.52 391.77,447.7 390.67,452.39 387.35,454.14 382.5,454.11 378.68,453.66 
	376.21,450.53 374.59,451.39 373.77,453.45 370.17,455.22 365.97,455.19 362.85,454.97 359.89,452.99 358.64,453.05 356.93,454.94 
	353.16,455.97 350.16,455.93 347.39,455.97 345.08,454.81 343.43,452.17 342.14,454.14 341.02,455.97 338.09,456.8 333.84,456.93 
	330.04,456.38 327.9,454.57 327.27,452.05 327.26,447.95 "/>
<polyline class="st1" points="392.56,426.06 393.81,423.14 398.13,422.93 400.49,423.95 403.39,427.84 404.14,431.55 404.14,435.43 
	404.09,436.61 404.84,438.89 405.14,443.8 404.22,447.27 401.73,449.24 398.66,449.58 395.55,449.58 392.78,448.56 392.15,445.32 
	392.52,437.84 392.56,426.06 "/>
<polyline class="st1" points="424.79,472.09 426.97,461.02 408.22,463.54 "/>
<g class="st2">
	<path class="st3" d="M497.73,433.53l-2.35,0.96l-9.05,0.59l-2.65-1.17l-2.37,2.35l-5.94,0.3l-4.5-0.3l-0.05,4.16l-1.32,3.63
		l-4.6,2.66l-4.61,0.57l-2.86-0.57l0.54,11.65l1.26,9.89l1.06,8.64l2.7,9.01l0.85,5.17H438.9h-17.8l1.5-7.5l5.07-25.2l0.66-3.14
		l2.81-13.69l3.1-7.63l1.67-3.77l1.43-2.32l-1.43-5.65l-3.12-4.19l-5.12-1.84v-2.04l-1.29-6.16l-2.94-4.06
		c-2.28-4.28-10.19-3.45-10.19-3.45s0.25-6.48-0.58-11.27c-0.83-4.79-4.72-17.19-14.94-21.67c-10.22-4.48-13.76-6.84-25.67-4.85
		c-11.91,1.99-18.77,11.26-18.77,11.26l3.42-7.45l5.02-5.96l-5.02-9.82l-9.33-12l-10.67-6.83l-6.85-3.47l-9.17-1.68
		c0,0,34.45-18.43,87.52-15.34c2.58,0.15,5.09,0.37,7.52,0.65l5.36-40.51l18.16,2.79l-6.51,40.99c6.57,1.8,10.02,2.94,15.27,5.55
		l14.01-38.97l6.91,3.97l7.05,5.32l6.77,7.06l5.84,8.42l2.23,6.12l2.84,10.62l1.38,12.76l2.67,57.5V433.53z"/>
</g>
<polygon class="st4" points="389.41,418.93 392.52,416.42 395.58,415.15 399.99,414.81 405.76,415.57 409.31,418.25 411.92,421.83 
	412.4,425.19 413.16,421.21 415.36,418.54 418.96,416.13 421.1,415.51 424.94,414.81 429.45,416.13 433.83,419.38 435.9,422.16 
	436.67,425.19 435.9,430.13 434.23,433.9 430.56,436.76 426.97,436.87 425.04,436.93 427.67,452.5 428.36,456.97 427.67,458.36 
	426.05,460.72 422.31,461.65 342,472.09 336.32,472.09 332.83,470.98 329.75,468.65 328.97,465.11 328.97,455.47 332.15,456.93 
	335.04,456.97 339.06,456.56 342.14,454.14 342.82,450.73 345.08,454.81 347.39,455.97 353.16,455.97 356.93,454.94 359.13,451.95 
	361.19,454.14 365.06,455.22 368.57,455.22 371.75,454.69 374.59,452.44 375.31,449.58 376.58,452.06 378.68,453.66 382.5,454.11 
	386.15,454.09 390.67,452.39 391.77,447.7 394.24,449.21 398.66,449.58 401.73,449.24 404.22,447.27 405.14,443.8 404.84,438.89 
	404.14,435.43 403.92,430.44 402.69,426.06 399.5,422.93 396.54,422.93 393.81,423.14 391.69,424.7 390.67,421.8 "/>
<polygon class="st5" points="435.4,491.53 434.9,527.99 435.75,536.28 438.9,540.36 443.81,541.69 450.81,541.37 454.73,537.37 
	457.52,538.73 460.3,542.2 466.02,543.64 470,542.89 473.7,541.26 478.99,535.39 481.1,539.49 484.31,542.2 488.62,542.89 
	494.71,541.37 498.52,537.64 499.78,532.05 499.31,521.06 497.73,473.63 496.04,440.42 495.38,434.49 483.68,434.9 478.87,436.26 
	475.37,436.56 470.87,436.26 470.82,440.42 469.5,444.05 464.9,446.71 460.3,447.27 457.44,446.71 457.52,454.14 458.44,461.95 
	460.3,476.89 463.85,491.07 "/>
<polygon class="st3" points="350.66,257.21 356.72,258.45 359.89,259.46 364.28,262.37 366.37,267.83 366.68,274.27 365.54,280.13 
	362.48,285.1 357.07,288.07 350.99,288.7 350.17,281.83 350.17,267 "/>
<polygon class="st3" points="330.33,254.12 339.92,255.5 339.92,261.65 339.02,271.75 339.07,278.24 339.92,289.58 330.33,290.42 
	329.42,283.08 329.42,268.84 "/>
<path class="st3" d="M282.42,252.48l27.39,3.02v17.42c0,0-0.27,15.97,1.44,17.5c1.72,1.52-28.98,5.48-28.98,5.48
	s1.8-12.12-2.28-19.63l25.61-3.32l-24.4-0.69C281.21,272.27,283.81,266.12,282.42,252.48z"/>
<polygon class="st3" points="247.87,248.07 265.09,250.37 263.74,272.33 246.22,272.15 "/>
<path class="st3" d="M244.57,280.24l17.81-2c0,0,3.9,11.48,2.69,21.18l-17.21,3.59C247.87,303.01,246.85,290.1,244.57,280.24z"/>
<path class="st6" d="M350.66,491.07l57.56-27.52l16.57,8.55l-3.69,18.97l14.3,0.46l-0.4,39.76
	C435,531.29,385.28,530.18,350.66,491.07z"/>
<circle class="st4" cx="342" cy="502.3" r="14.03"/>
<circle class="st4" cx="384" cy="532.89" r="14.03"/>
<path class="st4" d="M413.65,556.55c0,0-46.22-0.97-55.01-2.97l-1.92,10.44l-1.02,6.46l1.02,5.69l5.61,1.94l4.89,0.2l4.85-2.14
	l2.38,2.14l4.83,1.41h5.39l4.49-1.41l1.43-2.79l1.22,2.87l5.26,1.98l6.43-0.65l3.4-1.41v-2.14l2.31,3.29l5.65,0.9l6.51-1.64
	l3.57-2.56L413.65,556.55z"/>
<polygon class="st0" points="362.12,536.28 358.65,553.58 387.59,555.74 413.65,556.55 398.03,530.56 398.03,536.28 396.91,539.61 
	394.84,542.2 390.67,545.64 384,546.92 380.65,546.92 377.46,545.76 372.91,542.89 371.3,538.84 369.97,532.89 370.12,530.89 "/>
<polygon class="st6" points="391.81,520.98 430.3,584.23 481.32,584.23 454.73,537.37 452.55,539.61 449.43,540.99 445.26,541.62 
	440.36,541.05 436.67,538.09 435,531.29 425.54,530.89 420.41,529.85 407.55,526.86 "/>
<polygon class="st5" points="424.87,325.98 426.57,320.8 430.1,316.38 433.74,314.65 438.9,314.28 442.96,316.12 445.86,318.7 
	447.58,321.91 448.02,325.47 447.3,329.24 445.52,333.05 444.15,334.91 442.96,336.02 439.26,333.17 435.05,330.57 430.69,328.36 
	"/>
<polygon class="st5" points="468.39,358.65 471.25,357.17 476,356.07 480.72,356.3 486.55,358.65 489.07,361.93 490.89,365.84 
	490.89,370.07 490.58,373.14 489.3,376.71 487.72,379.32 485.15,381.49 482.29,382.34 479.14,382.53 475.42,382.53 472.4,381.49 
	472.94,375.48 472.94,370.07 471.51,364.42 "/>
<polygon class="st5" points="362.48,330.32 360.61,326.49 359.6,321.91 361.04,315.53 365.23,311.13 371.01,309.93 376.66,311.13 
	380.26,314.28 382.84,319.64 383.48,325.98 376.29,325.98 369.1,327.51 "/>
<path class="st1" d="M362.96,331c0,0,3.59,4.51,6.13,5.93c2.55,1.41,9.9,3.63,9.9,3.63l2.32-4.78l1.28-5.46l0.8-4.84l-7.11,0.5
	l-8,2.18l-5.33,2.16V331z"/>
<polygon class="st1" points="424.87,325.98 424.56,330.57 425.6,336.1 427.67,340.72 430.15,344.2 433.44,342.55 437.94,339.91 
	442.96,336.02 436.92,331 "/>
<polygon class="st1" points="468.39,358.65 465.95,360.4 462.03,363.64 459.81,367.29 456.51,373.22 462.03,376.71 467.24,379.24 
	472.4,381.49 472.94,375.48 472.3,367.48 470.66,362.26 "/>
<circle class="st4" cx="435.4" cy="547.32" r="14.03"/>
<polygon class="st0" points="328.97,507.5 295.9,528.87 293.03,525.66 287.73,524.07 283.43,524.73 279.51,526.91 276.93,529.9 
	275.49,533.27 275.12,536.28 263.22,527.99 225.47,502.3 227.68,499.3 228.54,495.71 227.72,491.3 224.8,487.5 221,485.33 
	217.12,485.33 214.84,486.14 211.05,489.05 207.82,485.9 204.31,480.99 202.01,475.76 201.26,468.71 202.69,460.21 204.07,452.28 
	203.89,445.21 202.3,439.21 199.82,433.44 196.92,428.29 193.68,423.56 187.1,415.71 184.8,417.46 183.06,420.89 183.7,422.44 
	182.19,422.71 179.51,424.68 178.04,429.54 178.51,436.15 179.93,440.26 183.7,448.48 179.96,446.4 175.07,445.21 166.13,444.04 
	155.37,442.59 149.15,443.11 145.14,445.21 143.21,448.95 142.92,452.73 143.71,455.27 141.44,455.92 139.22,457.79 137.91,460.15 
	137.15,463.08 137.06,465.63 137.37,467.89 139.72,469.24 138.15,470.69 136.67,473 136.05,476 136.58,478.55 138.79,482.06 
	141.53,483.31 140.72,485.9 140.66,489.05 141.88,491.3 144.93,492.63 148.83,492.83 152.69,492.61 153.93,491.17 158.48,492.15 
	165.32,493.28 168.23,493.36 172,495.4 176.19,496.62 179.07,496.27 180.2,498.97 184.39,504.45 190.95,512.88 188.79,515.58 
	186.99,518.87 186.45,523.81 188.19,527.99 191.71,531.29 195.31,532.58 198.97,532.52 203.66,530.29 205.53,527.99 211.78,532.89 
	250.48,563.4 249.37,565.99 248.44,569.2 248.58,573.01 250.13,576.73 252.66,579.47 256.74,581.8 260.9,581.8 264.91,580.37 
	267.56,578.3 269.97,574.32 270.63,570.29 273.75,570.48 278.2,569.18 280.51,566.97 281.83,564.02 281.85,559.89 280.61,557.56 
	283.35,556.55 286.43,556.32 287.67,561.04 289.54,564.02 294.8,566.53 298.48,566.63 302.05,566.3 303.17,568.34 303.99,571.79 
	306.4,575.59 311.1,578.71 315.3,579.47 320.47,578.31 324.91,574.77 326.83,571.23 327.26,567.22 327.26,564.66 326.06,562.05 
	322.92,560.39 335.04,553.58 348.01,545.08 370.12,530.89 371.45,526.63 375.31,522.29 378.19,520.13 381.54,519.09 388.09,519.27 
	381.54,515.88 370.12,508.7 361.74,502.3 354.18,494.71 355.57,498.76 356.03,504.45 355.02,507.5 352.11,512.01 348.36,514.67 
	344.63,516.08 342,516.32 336.73,515.3 331.89,512.01 "/>
<polygon class="st4" points="270.63,570.29 274.48,576.17 279.19,579.47 286.31,581.06 290.93,580.42 296.58,577.55 300.64,573.01 
	303.17,568.34 302.05,566.3 298.48,566.63 294.8,566.53 289.54,564.02 286.9,558.87 286.43,556.32 280.61,557.56 281.85,559.89 
	281.83,564.02 280.51,566.97 278.2,569.18 273.75,570.48 "/>
<polygon class="st1" points="58.37,352.35 59.71,349.72 62.71,346.45 67.75,343.94 73.76,343.5 78.8,345.79 81.59,348.75 
	82.98,352.35 82.33,356.63 81.59,358.3 85.17,358.91 90.06,358.91 95.27,358.3 103.44,357.49 109.1,357.24 113.78,357.82 
	118.25,358.49 122.87,359.68 127.49,361.43 132.75,364.21 130.84,366.46 129.44,370.19 129.62,374.91 124.72,372.67 119.07,371.67 
	112.59,370.01 106.79,369.77 100.78,369.51 93.27,370.05 79,370.76 72.69,370.92 68.25,370.65 65.03,369.51 62.07,368.18 
	59.71,364.75 57.99,360.96 57.47,357.49 "/>
<polygon class="st1" points="57.47,389.04 61.41,385.18 66.92,380.83 72.22,377.43 79.7,373.76 85.26,371.8 88.42,370.98 
	92.12,374.91 94.76,380.01 96.69,388.47 96.61,394.15 95.59,401.14 93.27,405.88 90.48,410.6 86.9,413.28 84.27,414.33 79.7,412.13 
	72.71,407.6 65.97,401.47 59.71,393.45 "/>
<polygon class="st1" points="74.51,409.5 65.03,409.5 58.61,409.98 53.92,412.28 50.1,416.74 48.53,421.96 48.96,426.86 
	51.18,431.44 54.87,434.85 57.47,436.56 62.21,436.98 67.36,436.56 70.15,434.44 72.92,431.16 73.76,428.29 73.76,426.14 
	75.46,424.83 86.24,427.25 95.11,430.62 100.46,431.63 106.79,431.89 111.59,431.58 117.26,430.8 122.87,429.66 122.01,427 
	121.53,423.24 122.77,418.78 123.67,417.38 118.41,417.97 112.25,418.78 106.79,418.75 101.61,418.4 96.54,417.97 90.48,416.54 
	84.27,414.33 "/>
<polygon class="st4" points="94.76,380.01 96.69,388.47 96.61,394.15 96.11,397.6 93.27,405.88 90.48,410.6 84.27,414.33 
	109.23,418.76 118.41,417.97 125.82,415.81 122.77,418.78 121.82,425.46 122.87,429.66 127.9,433.44 131.99,434.93 136.05,435.19 
	140.3,434.24 144.72,431.55 147.48,428.29 149.18,424.43 149.63,418.78 148.4,414.33 145.21,409.83 138.42,406.09 146.19,407.48 
	152.69,410.27 157.16,413.7 160.66,418.78 161.92,422.93 162.46,429.48 162.5,437.84 162,443.48 169.17,444.04 177.54,445.8 
	177.54,423.24 176.98,415.14 175.54,410.84 173.75,407.62 171.06,404.23 166.51,400.26 162.09,397.48 158.63,395.75 153.16,393.59 
	147.78,392 144.62,391.01 148.82,389.44 152.08,387.25 154.68,384.25 156.44,380.6 157.15,378.63 157.15,375.29 156.51,371.62 
	154.71,367.77 150.55,363.54 146.72,361.68 142.79,360.63 137.81,360.96 134.77,362.82 130.07,366.99 129.07,370.96 129.62,374.91 
	127.91,373.97 123.67,372.67 119.07,371.67 113.6,370.27 107.71,369.9 102.07,369.57 97.57,369.57 93.27,370.05 88.42,370.98 
	92.12,374.91 "/>
<polygon class="st7" points="153.93,491.17 165.32,493.28 168.23,493.36 172,495.4 177.54,497 176.44,502.02 175.68,512.01 
	173.28,543.64 176.43,542.79 179.51,542.98 184.39,545.11 186.55,548.48 187.22,552.61 186.7,557.56 185.58,560.42 183.7,562.97 
	180.87,565.99 176.85,566.89 172.21,567.11 167.19,565.56 163.89,563.33 159.53,558.48 159.34,553.58 160.47,543.55 162.62,525.09 
	160.82,532.89 157.16,536.28 152.69,539.81 148.12,541.69 141.53,543.34 136.05,543.55 129.07,542.95 124.32,543.64 119.97,545.7 
	118.12,548.48 118.12,552.61 119.68,557.05 122.87,558.86 127.51,558.97 134.77,558.97 141.53,558.97 147.54,558.97 153.95,559.48 
	158.25,560.48 166.73,564.02 173.93,570.02 176.85,575.1 178.71,579.72 180.2,586.06 180.2,589.98 178.04,591.67 175.07,591.67 
	172.66,589.77 170.82,584.72 168.54,581.06 163.92,576.59 159.34,574.19 153.31,572.46 148.38,571.79 144.63,571.61 138.4,571.84 
	130.9,572.75 126.34,572.9 120.57,572.42 115.03,570.48 110.29,567.95 107.68,564.57 105.6,558.99 104.88,551.95 105.82,544.78 
	107.68,539.07 110.53,533.88 115.2,532.05 121.53,530.29 125.04,530.61 133.46,530.56 138.19,530.56 142.54,528.93 146.05,526.02 
	148.7,521.62 150.37,510.81 "/>
<g>
	<circle class="st3" cx="376.21" cy="395.36" r="14.47"/>
	<g>
		<path class="st8" d="M389.67,395.36c-0.17,7.34-5.99,13.47-13.47,13.47c-7.34,0-13.47-6.12-13.47-13.47
			c0-7.33,6.12-13.48,13.47-13.47C383.68,381.91,389.5,388.01,389.67,395.36c0.03,1.28,2.03,1.29,2,0
			c-0.15-6.35-3.89-12.09-9.88-14.42c-6.21-2.41-13.43-0.46-17.61,4.7c-8.83,10.9,0.95,27.3,14.7,24.94
			c7.43-1.28,12.61-7.82,12.79-15.23C391.7,394.07,389.7,394.07,389.67,395.36z"/>
	</g>
</g>
<g>
	<circle class="st8" cx="376.21" cy="395.36" r="5.06"/>
	<g>
		<path class="st8" d="M380.27,395.36c-0.28,5.2-8.13,5.25-8.13,0C372.14,390.11,379.99,390.15,380.27,395.36
			c0.07,1.28,2.07,1.29,2,0c-0.18-3.29-2.63-6.06-6.06-6.06c-3.3,0-6.06,2.77-6.06,6.06c0,3.2,2.6,5.91,5.79,6.05
			c3.54,0.16,6.16-2.65,6.34-6.05C382.34,394.07,380.34,394.08,380.27,395.36z"/>
	</g>
</g>
<g>
	<circle class="st9" cx="376.21" cy="395.36" r="1.62"/>
	<g>
		<path class="st9" d="M377.33,395.36c-0.08,1.44-2.24,1.45-2.24,0C375.09,393.91,377.25,393.92,377.33,395.36
			c0.03,0.64,1.03,0.64,1,0c-0.06-1.15-0.92-2.12-2.12-2.12c-1.15,0-2.12,0.97-2.12,2.12c0,1.12,0.91,2.07,2.03,2.12
			c1.23,0.05,2.14-0.93,2.21-2.12C378.36,394.72,377.36,394.72,377.33,395.36z"/>
	</g>
</g>
<g>
	<g>
		<path class="st8" d="M428.59,415.81c0.39-5.82-1.26-11.75-6.76-14.59c-2.51-1.3-5.59-1.99-8.42-1.8c0.33,0.33,0.67,0.67,1,1
			c1.64-16.58-8.29-32.27-24.13-37.64c-14.88-5.04-31.21,0.63-40.05,13.5c-4.25,6.18-6.59,13.25-6.59,20.7c0,1.29,2,1.29,2,0
			c0-2.21-0.04-4.05,0.46-6.19c0.84-3.62,2.13-7.12,3.93-10.37c3.41-6.18,8.58-11.32,14.97-14.38c13.59-6.5,30.25-2.36,39.86,9.03
			c5.97,7.07,8.46,16.21,7.56,25.36c-0.05,0.51,0.5,1.03,1,1c2.26-0.15,4.7,0.3,6.76,1.21c5.33,2.34,6.79,7.75,6.43,13.17
			C426.5,417.09,428.5,417.09,428.59,415.81L428.59,415.81z"/>
	</g>
</g>
<g>
	<g>
		<path class="st8" d="M353.51,375.07c2.6-9.42,11.1-17.21,19.64-21.2c19.04-8.9,41.81-3.58,56.79,10.51
			c6.86,6.45,12.55,14.9,13.88,24.39c0.18,1.27,2.1,0.73,1.93-0.53c-2.61-18.7-20.45-33.71-37.75-38.71
			c-17.78-5.14-39.18-0.58-50.79,14.53c-2.36,3.08-4.58,6.68-5.62,10.47C351.24,375.78,353.16,376.31,353.51,375.07L353.51,375.07z"
			/>
	</g>
</g>
<g>
	<g>
		<path class="st8" d="M339.58,413.8c0.19-2.58,2.96-4.35,5.26-2.81c1.04,0.7,1.36,1.65,1.5,2.81c0.11,0.87,0-0.1,0.02,0.14
			c0.06,0.83,0.05,1.64-0.12,2.46c-0.9,4.39-5.26,5.76-9.28,5.75c-7.53-0.01-11.15-7.75-9.52-14.48c1.81-7.47,9.61-11.36,16.78-9.28
			c1.24,0.36,1.77-1.57,0.53-1.93c-6.94-2.02-14.53,0.8-17.95,7.32c-3,5.71-2.15,13.86,3.01,18.09c4.07,3.34,11.73,3.17,15.71-0.35
			c2.18-1.93,3.02-4.8,2.82-7.63c-0.47-6.94-10.26-7.1-10.77-0.1C337.48,415.08,339.48,415.07,339.58,413.8L339.58,413.8z"/>
	</g>
</g>
<g>
	<g>
		<path class="st8" d="M329.24,401.28c-9.37-3.07-19.6-4.34-29.4-4.8c-16.37-0.77-32.44,1.74-47.68,7.75
			c-4.02,1.58-8.04,3.17-12.06,4.75c-0.76,0.3-1.04,1.36-0.24,1.83c6.71,3.88,13.27,7.48,20.61,10.11
			c14.43,5.16,29.44,5.17,44.56,4.15c8.19-0.55,16.46-1.63,24.21-4.47c1.2-0.44,0.68-2.37-0.53-1.93
			c-13.87,5.09-29.73,5.21-44.33,4.89c-11.8-0.26-24.4-3.73-34.79-9.43c-2.94-1.61-5.81-3.36-8.72-5.04
			c-0.08,0.61-0.16,1.22-0.24,1.83c9.2-3.63,18.33-7.61,28-9.82c16.31-3.74,33.54-3.55,49.92-0.36c3.41,0.66,6.85,1.41,10.15,2.49
			C329.93,403.61,330.46,401.68,329.24,401.28L329.24,401.28z"/>
	</g>
</g>
<g>
	<g>
		<path class="st8" d="M284.78,397.6c0,8.94,0,17.89,0,26.83c0,1.29,2,1.29,2,0c0-8.94,0-17.89,0-26.83
			C286.78,396.31,284.78,396.31,284.78,397.6L284.78,397.6z"/>
	</g>
</g>
<g>
	<g>
		<path class="st8" d="M342.78,451.53c1.29,0,1.29-2,0-2C341.49,449.53,341.49,451.53,342.78,451.53L342.78,451.53z"/>
	</g>
</g>
<g>
	<g>
		<path class="st8" d="M342.74,438.59c-3.9-0.19-7.82,0.21-11.72,0.14c-1.01-0.02-1.31,0.15-1.85-0.71
			c-0.46-0.74-0.36-1.39-0.38-2.24c-0.03-1.92-0.07-3.83-0.1-5.75c-0.04-2.05-0.05-4.18,1.66-5.66c1.68-1.44,4.22-1.24,6.31-1.15
			c3.08,0.13,4.96,2,5.04,4.96c0.2,6.84,0.04,13.71,0.06,20.56c0.01,3.12-0.02,6.19-3.71,7.05c-2.5,0.58-7.39,0.75-9.01-1.29
			c-1.46-1.84-0.79-5.41-0.79-7.5c0-1.1,0-2.2,0-3.3c0-0.61-0.23-1.74,0-2.3c0.27-0.69,0.4-0.55,1.3-0.57
			c0.9-0.03,1.79-0.06,2.69-0.09c1.28-0.04,1.29-2.04,0-2c-1.5,0.05-4.22-0.41-5.36,0.79c-1,1.05-0.62,3.08-0.62,4.4
			c0,3.07-0.6,6.75,0.2,9.78c1.22,4.56,6.43,4.45,10.26,4.27c3.76-0.17,6.97-2.48,7.08-6.47c0.21-7.74,0.07-15.58-0.1-23.33
			c-0.06-2.88-1.46-5.55-4.33-6.53c-4.82-1.65-11.76-0.31-12.63,5.5c-0.32,2.15-0.03,4.48,0.01,6.63c0.03,1.9-0.4,4.68,1.13,6.13
			c1.51,1.44,4.65,0.82,6.49,0.79c2.78-0.05,5.58-0.25,8.36-0.12C344.03,440.65,344.03,438.65,342.74,438.59L342.74,438.59z"/>
	</g>
</g>
<g>
	<g>
		<path class="st8" d="M393.56,426.06c0.42-3.68,5.98-1.93,7.43-0.43c1.17,1.21,1.68,2.93,1.97,4.55c0.38,2.13-0.09,4.23,0.14,6.31
			c0.21,1.87,1.03,3.58,1.07,5.58c0.05,2.23-0.14,5.46-2.71,6.21c-1.44,0.42-3.31,0.38-4.79,0.27c-1.2-0.08-2.73-0.19-3.15-1.48
			c-0.26-0.8,0-2.13,0-2.97C393.52,438.09,393.54,432.07,393.56,426.06c0-1.29-2-1.29-2,0c-0.02,6.47-0.04,12.93-0.04,19.4
			c0,1.9,0.03,3.48,1.95,4.41c2.03,0.99,4.65,0.8,6.82,0.57c4.5-0.47,5.97-4,5.88-8.36c-0.03-1.47-0.18-2.99-0.6-4.4
			c-0.12-0.39-0.27-0.76-0.41-1.14c-0.25-0.7-0.05-0.02-0.05-0.04c-0.04-2.32,0.22-4.52-0.21-6.85c-0.61-3.32-2.32-6.34-5.74-7.38
			c-3.27-1-7.17,0.03-7.59,3.79C391.41,427.33,393.41,427.32,393.56,426.06z"/>
	</g>
</g>
<g>
	<g>
		<path class="st8" d="M359.43,437.59c-4.02-0.19-8.06,0.19-12.09,0.14c-1.07-0.01-1.48,0.18-2.06-0.72
			c-0.47-0.71-0.39-1.22-0.4-2.05c-0.04-2.05-0.08-4.09-0.12-6.14c-0.04-2.2,0.1-4.38,2.15-5.75c1.72-1.15,4.16-0.94,6.17-0.87
			c3.06,0.11,5.19,1.83,5.3,4.88c0.25,6.95,0.05,13.95,0.07,20.91c0,0.89,0.11,1.88,0.03,2.76c-0.2,2.29-1.9,3.59-4.02,4.04
			c-2.54,0.54-7.39,0.71-9.17-1.13c-1.7-1.76-0.98-5.54-0.98-7.68c0-1.17,0-2.34,0-3.51c0-0.5-0.25-1.85,0-2.28
			c0.48-0.83,3.13-0.45,4.19-0.48c1.28-0.04,1.29-2.04,0-2c-1.48,0.05-3.96-0.38-5.26,0.51c-1.34,0.92-0.93,3.07-0.93,4.45
			c0,3.13-0.63,6.92,0.21,10c1.28,4.64,6.75,4.44,10.63,4.27c3.65-0.15,7.1-2.26,7.33-6.2c0.21-3.56-0.05-7.21-0.06-10.77
			c-0.01-4.32,0.1-8.67-0.04-12.98c-0.1-3.02-1.82-5.62-4.83-6.48c-4.85-1.38-11.83-0.22-12.74,5.62c-0.34,2.14-0.03,4.48,0.01,6.63
			c0.04,1.95-0.42,4.79,1.27,6.21c1.61,1.36,4.75,0.74,6.66,0.71c2.88-0.05,5.79-0.25,8.67-0.12
			C360.71,439.65,360.71,437.65,359.43,437.59L359.43,437.59z"/>
	</g>
</g>
<g>
	<g>
		<path class="st8" d="M375.24,436.84c-4.02-0.19-8.06,0.19-12.09,0.14c-1.07-0.01-1.48,0.18-2.06-0.72
			c-0.47-0.71-0.39-1.22-0.4-2.05c-0.04-2.05-0.08-4.09-0.12-6.14c-0.04-2.2,0.1-4.38,2.15-5.75c1.72-1.15,4.16-0.94,6.17-0.87
			c3.06,0.11,5.19,1.83,5.3,4.88c0.25,6.95,0.05,13.95,0.07,20.91c0,0.89,0.11,1.88,0.03,2.76c-0.2,2.29-1.9,3.59-4.02,4.04
			c-2.54,0.54-7.39,0.71-9.17-1.13c-1.7-1.76-0.98-5.54-0.98-7.68c0-1.17,0-2.34,0-3.51c0-0.5-0.25-1.85,0-2.28
			c0.48-0.83,3.13-0.45,4.19-0.48c1.28-0.04,1.29-2.04,0-2c-1.48,0.05-3.96-0.38-5.26,0.51c-1.34,0.92-0.93,3.07-0.93,4.45
			c0,3.13-0.63,6.92,0.21,10c1.28,4.64,6.75,4.44,10.63,4.27c3.65-0.15,7.1-2.26,7.33-6.2c0.21-3.56-0.05-7.21-0.06-10.77
			c-0.01-4.32,0.1-8.67-0.04-12.98c-0.1-3.02-1.82-5.62-4.83-6.48c-4.85-1.38-11.83-0.22-12.74,5.62c-0.34,2.14-0.03,4.48,0.01,6.63
			c0.04,1.95-0.42,4.79,1.27,6.21c1.61,1.36,4.75,0.74,6.66,0.71c2.88-0.05,5.79-0.25,8.67-0.12
			C376.52,438.9,376.52,436.9,375.24,436.84L375.24,436.84z"/>
	</g>
</g>
<g>
	<g>
		<path class="st8" d="M391.73,435.76c-4-0.19-8.03,0.19-12.03,0.14c-1.02-0.01-1.48,0.16-2.05-0.72c-0.46-0.71-0.38-1.23-0.4-2.05
			c-0.04-1.98-0.07-3.96-0.11-5.95c-0.04-2.07-0.04-4.19,1.73-5.66c1.71-1.42,4.09-1.21,6.19-1.16c3.14,0.07,5.49,1.59,5.63,4.8
			c0.31,6.88,0.04,13.84,0.07,20.73c0.01,3.11-0.05,6.07-3.66,7c-0.97,0.25-1.86,0.23-2.85,0.22c-2.16-0.02-4.93,0.43-6.58-1.28
			c-1.73-1.8-0.97-5.77-0.97-7.92c0-1.09,0-2.18,0-3.26c0-0.49-0.27-1.86,0-2.28c0.53-0.83,3.08-0.45,4.16-0.48
			c1.28-0.04,1.29-2.04,0-2c-1.46,0.05-3.96-0.38-5.24,0.51c-1.33,0.93-0.93,3.07-0.93,4.45c0,3.13-0.64,6.92,0.21,10
			c1.28,4.63,6.73,4.46,10.61,4.27c3.8-0.18,7.18-2.42,7.28-6.5c0.19-7.78,0.15-15.69-0.11-23.46c-0.1-3.01-1.81-5.62-4.81-6.48
			c-4.85-1.39-11.78-0.2-12.68,5.62c-0.33,2.14-0.03,4.48,0.01,6.63c0.04,2-0.42,4.89,1.36,6.29c1.61,1.26,4.66,0.66,6.53,0.63
			c2.87-0.05,5.76-0.25,8.63-0.12C393.02,437.82,393.01,435.82,391.73,435.76L391.73,435.76z"/>
	</g>
</g>
<g>
	<g>
		<path class="st8" d="M389.48,420.55c2.77-3.82,6.56-5.07,11.29-4.69c4.03,0.32,7.99,2.15,9.96,5.82c0.93,1.72,0.67,2.13,0.67,4.25
			c0,2.65,0,5.3,0,7.95c0,1.29,2,1.29,2,0c0-3.44-0.36-7.07,0-10.48c0.04-0.42-0.09,0.25,0.04-0.27c0.12-0.48,0.34-0.94,0.56-1.38
			c0.83-1.65,2.12-3.04,3.72-3.96c4.93-2.83,13.8-1.72,16.71,3.56c1.4,2.55,1.46,5.82,0.72,8.59c-0.38,1.43-1.08,2.77-2.15,3.81
			c-2.17,2.12-5.15,2-7.98,2.18c-0.7,0.05-1.08,0.6-0.96,1.27c0.78,4.61,1.56,9.22,2.33,13.82c0.5,2.98,2.45,7.31-1.2,9.02
			c-1.55,0.73-3.49,0.55-5.19,0.78c-2.12,0.29-4.25,0.58-6.37,0.87c-6.01,0.82-12.03,1.64-18.04,2.45
			c-1.94,0.26-3.88,0.53-5.82,0.79c-1.13,0.15-0.4,0.06-1.44,0.19c-4.38,0.56-8.76,1.12-13.14,1.68
			c-8.51,1.09-17.12,1.87-25.57,3.29c-5.23,0.88-11.65,2.12-16.68-0.14c-2.72-1.23-2.97-3.1-2.97-5.73c0-2.72,0-5.45,0-8.17
			c0-1.29-2-1.29-2,0c0,2.58,0,5.16,0,7.73c0,2.11-0.17,4,1.2,5.78c3.43,4.43,11.17,3.78,16.05,3.23c3.15-0.36,4.79-0.76,7.54-1.11
			c5.7-0.73,11.39-1.46,17.09-2.19c7.77-0.99,15.54-1.96,23.31-3.01c6.19-0.84,12.37-1.68,18.56-2.52c4.1-0.56,8.41-0.8,12.46-1.54
			c5.56-1.02,5.5-5.86,4.43-10.25c-1.23-5.05-1.75-10.37-2.61-15.49c-0.32,0.42-0.64,0.84-0.96,1.27c2.8-0.18,5.67-0.1,8.1-1.72
			c1.78-1.19,3.07-3.03,3.75-5.05c0.91-2.72,1.01-5.95,0.17-8.68c-3.25-10.7-21.89-11.04-25.41-0.3c-0.44,1.34-0.25,2.79-0.25,4.18
			c0,2.5,0,5.01,0,7.51c0,1.29,2,1.29,2,0c0-4.99,1.24-10.64-2.02-14.84c-3.07-3.96-8.22-5.44-13.08-5.23
			c-4.63,0.2-7.89,2.07-10.55,5.73C387,420.58,388.73,421.58,389.48,420.55L389.48,420.55z"/>
	</g>
</g>
<g>
	<g>
		<path class="st8" d="M455.8,404.1c2.15,5.41-1.65,10.02-7.27,10.11c-6.27,0.1-10.03-5.58-9.93-11.33
			c0.19-11.8,11.94-19.35,23.02-16.15c10.64,3.07,16.88,15.79,9.58,25.07c-3.01,3.83-3.88,8.24-3.43,13.08
			c0.3,3.25,1.31,6.3,1.84,9.51c0.78,4.74,0.49,10.66-5.21,11.73c-2.12,0.39-4.48,0.15-6.53-0.5c-1.23-0.39-1.76,1.54-0.53,1.93
			c6.7,2.12,13.96-0.27,14.61-8.04c0.4-4.73-1.5-9.15-2.07-13.76c-0.46-3.65-0.36-7.64,1.58-10.88c1.19-1.98,2.9-3.52,3.8-5.69
			c5-12.16-5.57-24.48-17.72-25.14c-12-0.65-22.45,9.27-20.81,21.53c0.93,6.99,7.54,11.9,14.47,10.34
			c5.67-1.27,8.69-6.93,6.54-12.33C457.26,402.38,455.33,402.9,455.8,404.1L455.8,404.1z"/>
	</g>
</g>
<g>
	<g>
		<path class="st8" d="M318.65,327.51c11.61,0.1,23.29,7.27,30.75,15.66c4.71,5.3,8.22,11.55,10.83,18.12
			c0.47,1.18,2.4,0.67,1.93-0.53c-6.82-17.2-20.62-31.77-39.47-34.82c-1.33-0.21-2.69-0.41-4.04-0.43
			C317.36,325.5,317.36,327.5,318.65,327.51L318.65,327.51z"/>
	</g>
</g>
<g>
	<g>
		<path class="st8" d="M328.71,320.72c3.68,0.74,7.27,2.47,10.51,4.29c8.68,4.88,15.73,12.11,21.1,20.44
			c0.69,1.08,2.43,0.08,1.73-1.01c-5.46-8.47-12.6-15.86-21.38-20.91c-3.5-2.01-7.43-3.94-11.43-4.75
			C327.98,318.54,327.44,320.46,328.71,320.72L328.71,320.72z"/>
	</g>
</g>
<g>
	<g>
		<path class="st8" d="M339.41,316.05c10.09,6.17,20.61,14.56,26.4,25.01c0.62,1.13,2.35,0.12,1.73-1.01
			c-5.96-10.76-16.74-19.38-27.12-25.73C339.32,313.65,338.31,315.38,339.41,316.05L339.41,316.05z"/>
	</g>
</g>
<g>
	<g>
		<path class="st8" d="M362.99,331.18c6.33-2.81,13.45-4.6,20.36-4.84c1.28-0.04,1.29-2.04,0-2c-7.3,0.25-14.7,2.15-21.37,5.11
			C360.8,329.97,361.82,331.7,362.99,331.18L362.99,331.18z"/>
	</g>
</g>
<g>
	<circle class="st8" cx="372.06" cy="322.28" r="4.23"/>
	<g>
		<path class="st8" d="M375.29,322.28c-0.22,4.13-6.45,4.17-6.45,0C368.84,318.11,375.07,318.15,375.29,322.28
			c0.07,1.28,2.07,1.29,2,0c-0.15-2.83-2.27-5.23-5.23-5.23c-2.84,0-5.23,2.39-5.23,5.23c0,2.76,2.25,5.1,5,5.21
			c3.05,0.13,5.3-2.29,5.46-5.21C377.36,321,375.36,321,375.29,322.28z"/>
	</g>
</g>
<g>
	<g>
		<path class="st8" d="M350.16,313.58c3.34,2.19,6.18,5.32,8.73,8.35c0.83,0.99,2.24-0.44,1.41-1.41c-2.67-3.16-5.64-6.37-9.13-8.66
			C350.08,311.15,349.08,312.88,350.16,313.58L350.16,313.58z"/>
	</g>
</g>
<g>
	<g>
		<path class="st8" d="M358.49,312c1.52,1.1,3,2.47,4.03,4.04c0.7,1.07,2.43,0.07,1.73-1.01c-1.23-1.87-2.94-3.45-4.75-4.76
			C358.45,309.51,357.45,311.25,358.49,312L358.49,312z"/>
	</g>
</g>
<g>
	<g>
		<path class="st8" d="M364.53,310.64c1.46,1.34,2.81,2.89,3.71,4.66c0.58,1.15,2.31,0.14,1.73-1.01c-0.96-1.91-2.45-3.63-4.02-5.07
			C364.99,308.36,363.57,309.77,364.53,310.64L364.53,310.64z"/>
	</g>
</g>
<g>
	<g>
		<path class="st8" d="M376.66,309.33c7.33,6.1,9.54,17.64,9.61,26.55c0.01,1.29,2.01,1.29,2,0c-0.07-9.42-2.47-21.53-10.19-27.96
			C377.09,307.1,375.67,308.51,376.66,309.33L376.66,309.33z"/>
	</g>
</g>
<g>
	<g>
		<path class="st8" d="M366.17,309.94c-7.32,3.3-9.05,11.57-5.85,18.44c3.36,7.21,10.95,12.56,18.94,13.18
			c0.31,0.02,0.74-0.2,0.86-0.5c2.82-6.57,5.74-14.74,3.63-21.88c-0.93-3.14-2.65-6.19-5.34-8.14c-3.56-2.58-7.95-2.45-12-1.21
			c-1.23,0.38-0.7,2.31,0.53,1.93c6.48-1.99,12.1,0.33,14.5,6.79c2.16,5.83,0.33,12.08-1.62,17.73c-0.34,0.97-1.17,2.31-1.25,3.34
			c-0.06,0.83,0.78,0.2,0.34-0.1c-0.36-0.24-1.31-0.22-1.74-0.32c-1.13-0.25-2.25-0.59-3.33-1c-6.66-2.53-12.8-8.78-13.24-16.2
			c-0.26-4.42,2.6-8.54,6.58-10.33C368.35,311.14,367.34,309.42,366.17,309.94z"/>
	</g>
</g>
<g>
	<g>
		<path class="st8" d="M385.89,309.43c4.83,7.28,6.24,17.27,6.55,25.75c0.05,1.28,2.05,1.29,2,0c-0.32-8.84-1.79-19.18-6.82-26.76
			C386.91,307.36,385.17,308.36,385.89,309.43L385.89,309.43z"/>
	</g>
</g>
<g>
	<g>
		<path class="st8" d="M394.72,309.13c4.07,7.67,4.7,17.6,4.58,26.05c-0.02,1.29,1.98,1.29,2,0c0.13-8.82-0.61-19.07-4.85-27.06
			C395.84,306.99,394.11,307.99,394.72,309.13L394.72,309.13z"/>
	</g>
</g>
<g>
	<g>
		<path class="st8" d="M403.14,308.47c2.36,8.89,2.78,18.51,3.22,27.63c0.06,1.28,2.06,1.29,2,0c-0.45-9.29-0.89-19.11-3.29-28.16
			C404.74,306.69,402.81,307.22,403.14,308.47L403.14,308.47z"/>
	</g>
</g>
<g>
	<g>
		<path class="st8" d="M411.44,309.6c1.44,9.14,1.88,18.55,1.56,27.78c-0.04,1.29,1.96,1.29,2,0c0.33-9.42-0.17-18.99-1.64-28.31
			C413.17,307.8,411.24,308.34,411.44,309.6L411.44,309.6z"/>
	</g>
</g>
<g>
	<g>
		<path class="st8" d="M424.6,326.94c6.33,2.12,12.58,5.45,17.65,9.79c0.97,0.83,2.39-0.58,1.41-1.41
			c-5.35-4.57-11.86-8.06-18.54-10.3C423.91,324.6,423.38,326.53,424.6,326.94L424.6,326.94z"/>
	</g>
</g>
<g>
	<circle class="st8" cx="436.92" cy="326.49" r="4.08"/>
	<g>
		<path class="st8" d="M439.22,328.54c-1.18,1.19-3.04,1.42-4.35,0.26c-1.26-1.11-1.37-3.09-0.26-4.35
			C437.25,321.48,441.78,325.5,439.22,328.54c-0.82,0.98,0.58,2.4,1.41,1.41c1.78-2.11,1.84-5.23-0.26-7.18
			c-2.02-1.88-5.3-1.76-7.18,0.26c-1.87,2.02-1.77,5.3,0.26,7.18c2.07,1.92,5.23,1.7,7.18-0.26
			C441.54,329.04,440.13,327.62,439.22,328.54z"/>
	</g>
</g>
<g>
	<circle class="st5" cx="436.92" cy="326.49" r="1.02"/>
	<g>
		<path class="st8" d="M436.97,326.47c-0.04,0.04-0.07,0.03-0.09,0.04c0.04-0.02-0.05-0.06,0.03-0.06
			C436.92,326.45,436.99,326.44,436.97,326.47c-0.34,0.42-0.41,1,0,1.41c0.35,0.35,1.08,0.42,1.41,0c0.68-0.85,0.79-2.06-0.06-2.85
			c-0.8-0.75-2.09-0.73-2.85,0.06c-0.73,0.77-0.74,2.05,0.02,2.8c0.82,0.82,2.09,0.77,2.9-0.01
			C439.31,327,437.9,325.58,436.97,326.47z"/>
	</g>
</g>
<g>
	<g>
		<path class="st8" d="M419.04,310.34c0.42,8.85,0.83,17.88,0,26.71c-0.12,1.28,1.88,1.27,2,0c0.83-8.83,0.42-17.86,0-26.71
			C420.97,309.05,418.97,309.05,419.04,310.34L419.04,310.34z"/>
	</g>
</g>
<g>
	<g>
		<path class="st8" d="M426.2,311.34c0,2.77,0,5.53,0,8.3c0,1.29,2,1.29,2,0c0-2.77,0-5.53,0-8.3
			C428.2,310.05,426.2,310.05,426.2,311.34L426.2,311.34z"/>
	</g>
</g>
<g>
	<g>
		<path class="st8" d="M440.82,313.85c-6.25-2.05-12.7,1.11-15.38,6.99c-3.54,7.78-1.86,17.79,3.99,24.06
			c0.33,0.35,0.81,0.34,1.21,0.16c6.12-2.77,13.38-6.65,16.51-12.89c1.42-2.83,2.25-6.11,1.68-9.27c-0.77-4.28-4.01-7.15-7.78-8.94
			c-1.16-0.55-2.17,1.17-1.01,1.73c3.62,1.72,6.68,4.42,6.95,8.65c0.18,2.87-0.83,5.77-2.32,8.18c-3.15,5.1-9.72,8.41-15.04,10.82
			c0.4,0.05,0.81,0.1,1.21,0.16c-5.24-5.61-6.77-14.67-3.68-21.64c2.27-5.13,7.71-7.85,13.12-6.07
			C441.52,316.18,442.04,314.25,440.82,313.85z"/>
	</g>
</g>
<g>
	<g>
		<path class="st8" d="M452.45,319.64c-0.02,2.26-0.88,4.63-1.71,6.7c-2.71,6.74-7.43,12.52-12.55,17.57
			c-0.92,0.91,0.5,2.32,1.41,1.41c5.27-5.2,10.05-11.12,12.89-18.01c0.98-2.37,1.93-5.06,1.96-7.67
			C454.47,318.35,452.47,318.35,452.45,319.64L452.45,319.64z"/>
	</g>
</g>
<g>
	<g>
		<path class="st8" d="M459.34,323.84c-0.63,2.42-1.87,4.73-3.09,6.89c-3.7,6.59-8.64,12.38-13.99,17.68
			c-0.92,0.91,0.5,2.32,1.41,1.41c5.46-5.41,10.53-11.36,14.31-18.08c1.29-2.3,2.62-4.8,3.29-7.37
			C461.59,323.13,459.66,322.6,459.34,323.84L459.34,323.84z"/>
	</g>
</g>
<g>
	<g>
		<path class="st8" d="M466.37,328.73c-4.37,9.69-11.88,18.69-20.7,24.55c-1.07,0.71-0.07,2.44,1.01,1.73
			c9.09-6.05,16.91-15.27,21.42-25.27C468.63,328.58,466.9,327.56,466.37,328.73L466.37,328.73z"/>
	</g>
</g>
<g>
	<g>
		<path class="st8" d="M472.56,335.39c-6.43,8.22-13.7,16.58-22.26,22.64c-1.04,0.74-0.04,2.47,1.01,1.73
			c8.71-6.17,16.11-14.58,22.66-22.95C474.75,335.8,473.35,334.38,472.56,335.39L472.56,335.39z"/>
	</g>
</g>
<g>
	<g>
		<path class="st8" d="M477.94,341.84c-4.93,4.44-9.87,8.89-14.8,13.33c-0.96,0.86,0.46,2.27,1.41,1.41
			c4.93-4.44,9.87-8.89,14.8-13.33C480.31,342.39,478.9,340.98,477.94,341.84L477.94,341.84z"/>
	</g>
</g>
<g>
	<g>
		<path class="st8" d="M459.59,358.18c-1.82,1.61-3.64,3.26-5.57,4.75c-1.02,0.79,0.41,2.19,1.41,1.41
			c1.93-1.49,3.75-3.13,5.57-4.75C461.97,358.74,460.55,357.33,459.59,358.18L459.59,358.18z"/>
	</g>
</g>
<g>
	<g>
		<path class="st8" d="M457.48,373.49c-0.11,0.26,0.46-0.98,0.61-1.28c0.56-1.12,1.18-2.22,1.85-3.29c2.08-3.31,4.67-6.43,7.87-8.7
			c5.47-3.87,12.81-4.47,18.06-0.44c4.79,3.68,5.45,12.43,2.07,17.21c-3.34,4.72-9.96,5.41-15.01,3.62
			c-5.59-1.98-10.91-5.08-15.9-8.26c-1.09-0.69-2.09,1.04-1.01,1.73c5.27,3.36,10.92,6.64,16.87,8.63
			c5.52,1.85,12.54,0.7,16.31-4.07c4.19-5.3,3.82-15.46-1.5-19.97c-1.03-0.87-2.08-1.59-3.78-2.34c-4.19-1.86-8.88-1.81-13.09-0.06
			c-7,2.91-12.41,9.81-15.27,16.69C455.05,374.15,456.99,374.66,457.48,373.49z"/>
	</g>
</g>
<g>
	<g>
		<path class="st8" d="M467.68,359.35c1.27,1.24,2.07,3.1,2.66,4.73c1.98,5.45,1.88,11.47,1.1,17.14c-0.17,1.26,1.75,1.8,1.93,0.53
			c0.83-6.02,1-12.4-1.1-18.2c-0.71-1.96-1.65-4.13-3.17-5.61C468.17,357.04,466.76,358.45,467.68,359.35L467.68,359.35z"/>
	</g>
</g>
<g>
	<circle class="st8" cx="477.02" cy="368.5" r="4.08"/>
	<g>
		<path class="st8" d="M479.32,370.54c-1.18,1.19-3.04,1.42-4.35,0.26c-1.26-1.11-1.37-3.09-0.26-4.35
			C477.35,363.49,481.88,367.51,479.32,370.54c-0.82,0.98,0.58,2.4,1.41,1.41c1.78-2.11,1.84-5.23-0.26-7.18
			c-2.02-1.88-5.3-1.76-7.18,0.26c-1.87,2.02-1.77,5.3,0.26,7.18c2.07,1.92,5.23,1.7,7.18-0.26
			C481.65,371.04,480.23,369.63,479.32,370.54z"/>
	</g>
</g>
<g>
	<circle class="st5" cx="477.02" cy="368.5" r="1.02"/>
	<g>
		<path class="st8" d="M477.07,368.48c-0.04,0.04-0.07,0.03-0.09,0.04c0.04-0.02-0.05-0.06,0.03-0.06
			C477.02,368.45,477.09,368.45,477.07,368.48c-0.34,0.42-0.41,1,0,1.41c0.35,0.35,1.08,0.42,1.41,0c0.68-0.85,0.79-2.06-0.06-2.85
			c-0.8-0.75-2.09-0.73-2.85,0.06c-0.73,0.77-0.74,2.05,0.02,2.8c0.82,0.82,2.09,0.77,2.9-0.01C479.41,369,478,367.59,477.07,368.48
			z"/>
	</g>
</g>
<g>
	<g>
		<path class="st8" d="M481.58,348.51c-2.46,3-5.71,5.43-9.14,7.19c-1.15,0.59-0.13,2.31,1.01,1.73c3.56-1.83,6.99-4.39,9.55-7.51
			C483.81,348.93,482.4,347.51,481.58,348.51L481.58,348.51z"/>
	</g>
</g>
<g>
	<g>
		<path class="st8" d="M455.93,369.5c1.81,0.12,4-0.07,5.52-1.16c1.04-0.74,0.04-2.48-1.01-1.73c-1.25,0.9-3.02,0.98-4.51,0.88
			C454.64,367.42,454.65,369.42,455.93,369.5L455.93,369.5z"/>
	</g>
</g>
<g>
	<g>
		<path class="st8" d="M459.81,381.4c3.39-0.01,7.23,0.04,10.45-1.12c1.2-0.43,0.68-2.36-0.53-1.93c-3.07,1.1-6.69,1.04-9.92,1.05
			C458.52,379.41,458.52,381.41,459.81,381.4L459.81,381.4z"/>
	</g>
</g>
<g>
	<g>
		<path class="st8" d="M493.18,375.84c-7.05,5-16.08,7.63-24.5,8.9c-1.27,0.19-0.73,2.12,0.53,1.93c8.56-1.29,17.81-4.02,24.98-9.1
			C495.23,376.83,494.24,375.1,493.18,375.84L493.18,375.84z"/>
	</g>
</g>
<g>
	<g>
		<path class="st8" d="M485.63,353.95c-0.91,1.17-2.2,2.12-3.6,2.57c-1.22,0.39-0.7,2.32,0.53,1.93c1.72-0.55,3.37-1.65,4.48-3.09
			C487.82,354.36,486.42,352.94,485.63,353.95L485.63,353.95z"/>
	</g>
</g>
<g>
	<g>
		<path class="st8" d="M494.56,382.74c-7.17,4.1-15.79,6.25-23.9,7.32c-1.26,0.17-1.27,2.17,0,2c8.47-1.12,17.41-3.31,24.91-7.59
			C496.69,383.83,495.68,382.1,494.56,382.74L494.56,382.74z"/>
	</g>
</g>
<g>
	<g>
		<path class="st8" d="M496.34,390.1c-7.39,2.68-15.11,4.84-22.9,5.92c-1.27,0.18-0.73,2.1,0.53,1.93
			c7.79-1.08,15.51-3.24,22.9-5.92C498.07,391.59,497.55,389.66,496.34,390.1L496.34,390.1z"/>
	</g>
</g>
<g>
	<g>
		<path class="st8" d="M497.23,397.22c-6.59,3.52-14.49,5.16-21.86,5.65c-1.28,0.08-1.29,2.09,0,2c7.75-0.51,15.95-2.23,22.87-5.93
			C499.37,398.34,498.37,396.61,497.23,397.22L497.23,397.22z"/>
	</g>
</g>
<g>
	<g>
		<path class="st8" d="M496.1,405.43c-6.61,2.86-15.57,4.3-23.15,4.76c-1.28,0.08-1.29,2.08,0,2c8.11-0.5,16.65-1.78,24.16-5.04
			C498.29,406.65,497.27,404.92,496.1,405.43L496.1,405.43z"/>
	</g>
</g>
<g>
	<g>
		<path class="st8" d="M496.34,413.13c-8.6,3.32-18.22,4.69-27.39,4.71c0,0.67,0,1.33,0,2c4.24-0.54,10.53-0.8,13.91,2.25
			c2.56,2.31,2.81,7.89,0.67,10.5c-2.67,3.26-8.54,3.8-12.39,2.7c-1.24-0.35-1.77,1.58-0.53,1.93c4.23,1.21,9.93,0.6,13.37-2.26
			c3.46-2.87,3.56-8.1,1.9-12.01c-2.49-5.85-11.66-5.78-16.92-5.11c-1.24,0.16-1.33,2,0,2c9.33-0.02,19.16-1.41,27.92-4.79
			C498.06,414.6,497.54,412.66,496.34,413.13L496.34,413.13z"/>
	</g>
</g>
<g>
	<g>
		<path class="st8" d="M485.15,423.93c4.11-0.28,8.41-0.8,12.28-2.24c1.19-0.45,0.68-2.38-0.53-1.93c-3.72,1.39-7.81,1.9-11.75,2.17
			C483.88,422.02,483.87,424.02,485.15,423.93L485.15,423.93z"/>
	</g>
</g>
<g>
	<g>
		<path class="st8" d="M485.84,430.44c3.85-0.01,7.96-0.31,11.6-1.64c1.2-0.44,0.68-2.37-0.53-1.93c-3.49,1.28-7.37,1.57-11.06,1.57
			C484.55,428.45,484.55,430.45,485.84,430.44L485.84,430.44z"/>
	</g>
</g>
<g>
	<g>
		<path class="st8" d="M483.91,435.79c4.44,0.58,9.25,0.47,13.53-0.93c1.22-0.4,0.7-2.33-0.53-1.93c-4.12,1.34-8.72,1.41-13,0.85
			C482.63,433.63,482.65,435.63,483.91,435.79L483.91,435.79z"/>
	</g>
</g>
<g>
	<g>
		<path class="st8" d="M485.55,435.08c0.17,9.98,0.34,19.96,0.53,29.94c0.31,17.05,0.63,34.11,1.04,51.16
			c0.13,5.29,0.18,10.59,0.5,15.88c0.08,1.28,2.08,1.29,2,0c-0.74-12.27-0.71-24.62-0.96-36.9c-0.33-16.4-0.63-32.81-0.92-49.21
			c-0.06-3.62-0.13-7.24-0.19-10.86C487.53,433.79,485.53,433.79,485.55,435.08L485.55,435.08z"/>
	</g>
</g>
<g>
	<g>
		<path class="st8" d="M474.42,436.76c0.32,12.93,0.64,25.86,0.96,38.79c0.41,16.32,0.81,32.64,1.22,48.96
			c0.13,5.09,0.24,10.55,3.22,14.92c2.76,4.06,7.83,4.16,12.32,3.65c5.56-0.64,8-4.87,8.57-10.13c0.65-6.02,0.17-12.28-0.01-18.32
			c-0.31-10.27-0.78-20.54-1.28-30.8c-0.78-15.98-1.54-31.97-2.64-47.93c-0.02-0.28-0.03-0.55-0.05-0.83c-0.08-1.28-2.08-1.29-2,0
			c0.78,12.73,1.49,25.46,2.15,38.19c0.95,18.16,2.17,36.4,2.03,54.59c-0.02,2.91,0,5.95-1.03,8.71c-1.07,2.86-3.25,4.27-6.22,4.56
			c-2.18,0.21-5.31,0.39-7.37-0.4c-5.45-2.1-5.55-10.44-5.67-15.37c-0.37-14.95-0.74-29.9-1.11-44.84
			c-0.36-14.33-0.51-28.68-1.07-43.01c-0.01-0.25-0.01-0.5-0.02-0.75C476.39,435.47,474.39,435.47,474.42,436.76L474.42,436.76z"/>
	</g>
</g>
<g>
	<g>
		<path class="st8" d="M465.02,446.71c0.5,24.09,0.99,48.19,1.27,72.29c0.05,4.33,0.27,8.73,0.02,13.06c-0.07,1.29,1.93,1.28,2,0
			c0.6-10.34-0.11-20.89-0.27-31.23c-0.24-14.68-0.51-29.37-0.8-44.05c-0.07-3.36-0.13-6.71-0.2-10.07
			C466.99,445.42,464.99,445.42,465.02,446.71L465.02,446.71z"/>
	</g>
</g>
<g>
	<g>
		<path class="st8" d="M454.62,491.07c0,11.18,0,22.36,0,33.54c0,3.07-0.29,6.28,0.09,9.34c0.89,7.23,7.27,10.6,14.14,9.83
			c5.75-0.64,10.8-4.93,10.42-11.09c-0.08-1.28-2.08-1.29-2,0c0.35,5.53-4.36,8.87-9.46,9.18c-5.85,0.35-10.91-2.82-11.18-8.96
			c-0.43-9.68,0-19.48,0-29.17c0-4.22,0-8.44,0-12.65C456.62,489.78,454.62,489.78,454.62,491.07L454.62,491.07z"/>
	</g>
</g>
<g>
	<g>
		<path class="st8" d="M444.62,491.14c0,13.92,0,27.84,0,41.76c0,1.29,2,1.29,2,0c0-13.92,0-27.84,0-41.76
			C446.62,489.85,444.62,489.85,444.62,491.14L444.62,491.14z"/>
	</g>
</g>
<g>
	<g>
		<path class="st8" d="M434.4,491.07c-0.13,10.56-0.26,21.11-0.38,31.67c-0.09,7.77-1.48,19.78,9.8,19.95
			c4.78,0.07,12.73-1.83,12.8-7.99c0.02-1.29-1.98-1.29-2,0c-0.06,5.3-8.62,6.5-12.4,5.87c-4.26-0.71-6.24-4.75-6.31-8.72
			c-0.18-9.81,0.24-19.67,0.36-29.49c0.05-3.77,0.09-7.53,0.14-11.3C436.42,489.78,434.42,489.78,434.4,491.07L434.4,491.07z"/>
	</g>
</g>
<g>
	<g>
		<path class="st8" d="M421.1,492.53c12.61-0.2,25.21-0.4,37.82-0.61c1.84-0.03,3.67-0.06,5.51-0.09c0.63-0.01,1.17-0.63,0.96-1.27
			c-3.14-9.81-5.13-20.16-6.22-30.38c-0.75-7.05-0.73-13.96-0.37-21.02c0.17-3.33-0.33-6.95-2.04-9.86
			c-2.68-4.57-7.79-5.46-12.72-5.03c-4.52,0.4-8.08,2.51-10.28,6.52c-2.64,4.8-3.64,10.51-4.81,15.81
			c-1.22,5.56-2.34,11.14-3.45,16.73c-1.84,9.3-3.63,18.61-5.36,27.94c-0.23,1.26,1.69,1.8,1.93,0.53c1.3-7,2.63-14,3.99-20.99
			c2.07-10.65,3.91-21.45,6.8-31.91c1.22-4.44,2.85-9.86,7.51-11.79c4.4-1.82,11.41-1.59,14.31,2.65c1.85,2.71,2.28,6.27,2.11,9.48
			c-0.36,6.75-0.39,13.39,0.29,20.13c1.08,10.68,3.11,21.49,6.38,31.73c0.32-0.42,0.64-0.84,0.96-1.27
			c-12.61,0.2-25.21,0.4-37.82,0.61c-1.84,0.03-3.67,0.06-5.51,0.09C419.81,490.55,419.81,492.55,421.1,492.53z"/>
	</g>
</g>
<g>
	<g>
		<path class="st8" d="M446.76,443.44c0.05,7.27,0.18,14.55,0.39,21.82c0.15,5.31,0.33,10.63,0.67,15.93
			c0.21,3.3,0.22,6.94,1.2,10.13c0.38,1.23,2.31,0.7,1.93-0.53c-0.97-3.17-0.95-6.78-1.15-10.06c-0.33-5.33-0.51-10.67-0.66-16.01
			c-0.2-7.09-0.33-14.19-0.38-21.29C448.75,442.16,446.75,442.15,446.76,443.44L446.76,443.44z"/>
	</g>
</g>
<g>
	<g>
		<path class="st8" d="M438.26,443.44c-1.12,13.87-2.25,27.74-3.37,41.61c-0.16,2-0.32,4.01-0.49,6.01c-0.1,1.28,1.9,1.28,2,0
			c1.12-13.87,2.25-27.74,3.37-41.61c0.16-2,0.32-4.01,0.49-6.01C440.36,442.16,438.36,442.17,438.26,443.44L438.26,443.44z"/>
	</g>
</g>
<g>
	<g>
		<path class="st8" d="M425.07,472.41c-5.23-2.96-10.46-5.92-15.7-8.88c-1.07-0.6-1.78-1.13-2.97-0.63
			c-1.56,0.67-3.08,1.49-4.61,2.24c-13.26,6.43-26.51,12.87-39.77,19.3c-3.96,1.92-7.92,3.84-11.87,5.76
			c-0.44,0.22-0.67,0.96-0.36,1.37c3.67,4.8,8.32,8.97,12.97,12.78c11.53,9.44,24.77,16.69,38.83,21.59
			c10.76,3.75,21.96,6.04,33.3,7.12c1.28,0.12,1.27-1.88,0-2c-29.35-2.78-58.71-14.72-79.45-36.1c-1.04-1.07-2.05-2.16-3.02-3.3
			c-0.24-0.28-0.48-0.72-0.77-0.93c-0.09-0.06-0.44-0.56-0.13-0.16c-0.12,0.46-0.24,0.91-0.36,1.37
			c16.54-8.03,33.08-16.06,49.62-24.08c2.36-1.15,4.72-2.29,7.09-3.44c-0.34,0-0.67,0-1.01,0c5.73,3.24,11.47,6.49,17.2,9.73
			C425.18,474.77,426.19,473.04,425.07,472.41L425.07,472.41z"/>
	</g>
</g>
<circle class="st10" cx="342" cy="502.3" r="14.03"/>
<circle class="st10" cx="384" cy="533.3" r="14.03"/>
<circle class="st10" cx="435" cy="547.3" r="14.03"/>
<g>
	<g>
		<path class="st8" d="M392.57,523.43c9.3,15.47,18.6,30.95,27.91,46.42c2.2,3.67,4.41,7.33,6.61,11c0.66,1.09,1.64,3.82,2.94,4.35
			c0.56,0.23,1.52,0.04,2.09,0.04c1.74,0,3.49,0,5.23,0c5.32,0,10.65,0,15.97,0c9.33,0,18.66,0,27.99,0c0.76,0,1.25-0.85,0.86-1.5
			c-7.83-13.34-15.3-26.89-22.91-40.35c-1.23-2.17-2.45-4.34-3.68-6.51c-0.63-1.12-2.36-0.11-1.73,1.01
			c7.54,13.35,15.08,26.7,22.63,40.05c1.29,2.29,2.63,4.54,3.96,6.81c0.29-0.5,0.58-1,0.86-1.5c-7.68,0-15.35,0-23.03,0
			c-5.68,0-11.37,0-17.05,0c-2.16,0-4.33,0-6.49,0c-1.19,0-2.66-0.24-3.83,0c-0.05,0.01-0.58-0.04-0.59,0
			c-0.07,0.19,0.73,0.56,0.81,0.45c0.01-0.02-0.14-0.2-0.14-0.23c-0.08-0.66-1.03-1.72-1.37-2.28c-2-3.32-3.99-6.64-5.99-9.97
			c-5.86-9.74-11.72-19.49-17.57-29.23c-3.92-6.52-7.84-13.03-11.75-19.55C393.64,521.32,391.91,522.32,392.57,523.43L392.57,523.43
			z"/>
	</g>
</g>
<g>
	<g>
		<path class="st8" d="M368.96,507.64c-15.97,9.7-31.94,19.41-47.91,29.11c-2.23,1.36-4.46,2.71-6.7,4.07
			c-1.1,0.67-0.09,2.4,1.01,1.73c15.97-9.7,31.94-19.41,47.91-29.11c2.23-1.36,4.46-2.71,6.7-4.07
			C371.07,508.7,370.06,506.97,368.96,507.64L368.96,507.64z"/>
	</g>
</g>
<g>
	<g>
		<path class="st8" d="M328.47,506.64c-11.02,7.12-22.05,14.25-33.07,21.37c0.46,0.12,0.91,0.24,1.37,0.36
			c-4.8-8.05-16.54-6.24-20.9,1.35c-5.11,8.91,1.77,19.81,11.81,19.76c5.44-0.03,10.63-2.82,14.88-5.98
			c1.02-0.76,0.02-2.5-1.01-1.73c-7.09,5.28-20.66,10.07-24.8-1.78c-2.09-6,1.38-12.71,7.48-14.47c4.19-1.21,8.49-0.04,10.81,3.85
			c0.27,0.45,0.91,0.65,1.37,0.36c11.02-7.12,22.05-14.25,33.07-21.37C330.56,507.67,329.55,505.94,328.47,506.64L328.47,506.64z"/>
	</g>
</g>
<g>
	<g>
		<path class="st8" d="M310.28,551.92c-6.89,4.93-11.15,15.05-5.9,22.74c6.7,9.82,22.52,6.1,24-5.75c0.48-3.88-0.47-8.37-4.81-9.4
			c0.08,0.61,0.16,1.22,0.24,1.83c13.67-8.53,27.34-17.05,41.02-25.58c1.93-1.2,3.86-2.41,5.8-3.61c1.09-0.68,0.09-2.41-1.01-1.73
			c-13.67,8.53-27.34,17.05-41.02,25.58c-1.93,1.2-3.86,2.41-5.8,3.61c-0.7,0.44-0.63,1.62,0.24,1.83
			c4.46,1.06,3.91,7.32,2.43,10.52c-2.72,5.87-10.09,8.24-15.72,5.02c-9.46-5.41-5.75-18.12,1.54-23.34
			C312.33,552.91,311.33,551.17,310.28,551.92L310.28,551.92z"/>
	</g>
</g>
<g>
	<g>
		<path class="st8" d="M287.39,547.98c-3.3,5.15-2.53,13.88,2.5,17.68c3.75,2.84,9.4,2.31,13.55,0.64c1.18-0.48,0.66-2.41-0.53-1.93
			c-3.25,1.31-7.56,1.99-10.79,0.34c-5.21-2.67-5.95-11.12-3-15.72C289.81,547.9,288.08,546.9,287.39,547.98L287.39,547.98z"/>
	</g>
</g>
<g>
	<g>
		<path class="st8" d="M302.01,565.99c-0.84,6.87-6.01,12.57-12.87,13.82c-7.47,1.36-14.79-2.92-17.58-9.89
			c-0.47-1.18-2.41-0.67-1.93,0.53c3.12,7.79,10.95,12.66,19.37,11.4c8.1-1.21,14.04-7.86,15.02-15.86
			C304.17,564.71,302.17,564.72,302.01,565.99L302.01,565.99z"/>
	</g>
</g>
<g>
	<g>
		<path class="st8" d="M279.74,558.06c3.75,6.15-1.95,13.17-8.72,10.9c-1.22-0.41-1.75,1.52-0.53,1.93
			c8.45,2.84,15.61-6.24,10.98-13.83C280.8,555.96,279.07,556.96,279.74,558.06L279.74,558.06z"/>
	</g>
</g>
<g>
	<g>
		<path class="st8" d="M269.11,551.11c3.77,5.9,11.05,8.02,17.59,6.17c1.24-0.35,0.71-2.28-0.53-1.93
			c-5.65,1.6-12.05-0.11-15.33-5.25C270.15,549.02,268.41,550.03,269.11,551.11L269.11,551.11z"/>
	</g>
</g>
<g>
	<g>
		<path class="st8" d="M219.56,520.14c11.33,8.5,22.66,17.01,33.99,25.51c1.64,1.23,3.28,2.47,4.93,3.7
			c1.03,0.77,2.03-0.96,1.01-1.73c-11.33-8.5-22.66-17.01-33.99-25.51c-1.64-1.23-3.28-2.47-4.93-3.7
			C219.54,517.64,218.54,519.37,219.56,520.14L219.56,520.14z"/>
	</g>
</g>
<g>
	<g>
		<path class="st8" d="M262.6,559.32c3.84,2.52,7.11,6.25,7.01,11.07c0,0.19,0,0.27,0.01,0.02c-0.03,0.66-0.07,1.35-0.18,2
			c-0.27,1.57-0.93,3.05-1.88,4.32c-1.97,2.64-5.15,4.17-8.45,4.06c-7.1-0.24-11.83-7.84-8.86-14.32c0.95-2.08,1.88-3.03,0.02-4.49
			c-10.83-8.54-21.66-17.07-32.48-25.61c-3.84-3.03-7.69-6.06-11.53-9.09c-0.51-0.4-1.19-0.39-1.57,0.2
			c-2.73,4.3-8.62,5.46-12.91,2.7c-4.8-3.1-5.75-9.95-2-14.25c5.5-6.31,15.39-3.1,19.98,2.62c0.81,1,2.21-0.42,1.41-1.41
			c-3.34-4.15-8.12-6.76-13.51-6.54c-4.95,0.21-9.43,2.47-11.38,7.26c-2.25,5.54,0.25,12.06,5.62,14.68
			c5.17,2.52,11.45,0.77,14.51-4.05c-0.52,0.07-1.05,0.13-1.57,0.2c10.78,8.5,21.56,16.99,32.33,25.49
			c4.15,3.27,8.53,6.39,12.51,9.86c0.02,0.02,0.05,0.03,0.07,0.05c-0.4-0.56-0.38-0.32-0.78,0.45c-0.75,1.45-1.33,2.87-1.55,4.51
			c-0.37,2.87,0.27,5.85,1.88,8.27c3.06,4.62,9.06,6.66,14.29,4.74c5.01-1.84,7.95-6.61,8.02-11.84c0.07-5.48-3.65-9.78-8.01-12.64
			C262.54,556.88,261.53,558.61,262.6,559.32L262.6,559.32z"/>
	</g>
</g>
<g>
	<g>
		<path class="st8" d="M275.62,535.42c-14.58-9.84-29.16-19.67-43.74-29.51c-2.08-1.4-4.16-2.81-6.25-4.21c0,0.58,0,1.15,0,1.73
			c3.96-3,4.95-8.75,2.72-13.12c-2.48-4.88-8.45-7.24-13.56-5.22c-4.98,1.97-7.93,7.5-6.86,12.73c0.95,4.65,4.84,8.76,8.19,11.81
			c0.95,0.86,2.37-0.55,1.41-1.41c-5.32-4.84-12.01-13.61-4.36-19.87c3.65-2.99,9.09-2.48,12.18,1.08c2.96,3.4,3.04,9.43-0.74,12.29
			c-0.61,0.46-0.67,1.28,0,1.73c14.58,9.84,29.16,19.67,43.74,29.51c2.08,1.4,4.16,2.81,6.25,4.21
			C275.68,537.87,276.68,536.13,275.62,535.42L275.62,535.42z"/>
	</g>
</g>
<g>
	<g>
		<path class="st8" d="M197.36,510.75c-3.65-7.08,3.61-14.67,10.83-11.17c1.15,0.56,2.17-1.17,1.01-1.73
			c-9.02-4.37-18.17,4.98-13.57,13.91C196.23,512.9,197.95,511.89,197.36,510.75L197.36,510.75z"/>
	</g>
</g>
<g>
	<g>
		<path class="st8" d="M136.35,423.68c0.95-3.23,0.67-6.68-2.4-8.61c-1.19-0.75-2.67-1.26-4.09-1.28
			c-7.38-0.1-11.14,8.12-8.46,14.42c3.08,7.23,12.92,9.66,19.71,6.77c8.46-3.6,12.09-14.02,7.67-22.1
			c-2.39-4.37-6.84-7.4-11.78-8.05c-3.12-0.41-6.4-0.14-9.54-0.14c-1.29,0-1.29,2,0,2c4.91,0,10.24-0.66,14.62,1.99
			c7.29,4.42,8.82,14.76,3.05,21.06c-5.09,5.56-13.73,5.88-19.44,1.04c-4.87-4.13-4.12-13.5,2.77-14.83
			c1.07-0.21,1.79-0.19,2.72,0.08c3.44,1.01,4.17,3.87,3.22,7.12C134.05,424.38,135.98,424.91,136.35,423.68L136.35,423.68z"/>
	</g>
</g>
<g>
	<g>
		<path class="st8" d="M142.19,373.14c0.24,3.02-0.61,5.73-3.85,6.38c-0.59,0.12-1.19,0.15-1.78,0.13
			c-0.58-0.02,0.13,0.09-0.55-0.09c-6.41-1.63-7.45-9.75-3.04-14.18c5.02-5.04,14.1-4.16,18.96,0.57c6.31,6.14,5.3,16.93-2.09,21.75
			c-5.65,3.69-11.82,1.77-17.9,0.6c-1.26-0.24-1.8,1.69-0.53,1.93c7.05,1.36,14.03,3.31,20.35-1.44c7.82-5.88,8.5-17.79,1.34-24.49
			c-5.67-5.3-15.85-6.05-21.56-0.34c-5.16,5.17-4.21,14.7,3.04,17.25c1.5,0.53,3.04,0.56,4.59,0.16c3.91-0.99,5.31-4.47,5.01-8.24
			C144.09,371.87,142.09,371.86,142.19,373.14L142.19,373.14z"/>
	</g>
</g>
<g>
	<g>
		<path class="st8" d="M137.37,406.88c5.09,0.19,10.51,1.71,14.89,4.29c3.82,2.25,6.9,5.61,8.2,9.91c0.9,2.97,0.81,6.07,0.88,9.14
			c0.06,2.78,0.13,5.56,0.19,8.35c0.04,1.62,0.18,3.29,0.1,4.91c0.65-0.09,1.31-0.18,1.96-0.27c0.01,0.03,0.04,0.38,0.03,0.2
			c-0.04-1.28-2.04-1.29-2,0c0,0.11,0.01,0.24,0.04,0.34c0.35,1.08,1.91,0.88,1.96-0.27c0.07-1.49-0.06-3.01-0.09-4.49
			c-0.13-5.84,0.54-12.26-1-17.92c-2.3-8.49-10.23-13.22-18.31-15.15c-2.23-0.53-4.55-0.95-6.85-1.03
			C136.08,404.83,136.08,406.83,137.37,406.88L137.37,406.88z"/>
	</g>
</g>
<g>
	<g>
		<path class="st8" d="M141.53,391.73c-0.51-0.07,0.33,0.05,0.46,0.07c0.59,0.1,1.19,0.2,1.78,0.32c1.88,0.37,3.75,0.82,5.6,1.34
			c5.53,1.56,10.96,3.77,15.73,7.02c5.47,3.73,9.82,9.03,11.08,15.65c0.83,4.39,0.37,9.15,0.37,13.59c0,5.16,0,10.33,0,15.49
			c0,1.29,2,1.29,2,0c0-4.75,0-9.51,0-14.26c0-4.7,0.42-9.63-0.27-14.3c-1.94-13.23-14.47-20.74-26.18-24.46
			c-3.44-1.09-6.99-1.99-10.57-2.46C140.25,389.56,140.27,391.57,141.53,391.73L141.53,391.73z"/>
	</g>
</g>
<g>
	<g>
		<path class="st8" d="M129.33,373.6c-10.65-4.44-23.98-6.12-35.48-4.64c-11.6,1.5-22.48,6.68-31.47,14.07
			c-1.97,1.63-3.94,3.35-5.62,5.29c-0.21,0.25-0.4,0.64-0.26,0.97c2.38,5.73,6.6,10.95,11.04,15.19
			c8.48,8.1,19.78,13.58,31.48,14.76c8.25,0.83,16.79,0.92,24.91-0.91c1.26-0.28,0.72-2.21-0.53-1.93
			c-7.27,1.64-14.87,1.62-22.27,1.03c-5.2-0.41-9.96-1.47-15-3.43c-10.02-3.9-18.8-10.94-24.71-19.93
			c-0.83-1.27-1.62-2.57-2.31-3.92c-0.18-0.34-0.31-0.8-0.55-1.1c-0.09-0.11-0.31-0.72-0.13-0.29c-0.09,0.32-0.17,0.65-0.26,0.97
			c11.83-13.66,30.88-20.37,48.57-18.98c7.48,0.59,15.09,1.87,22.05,4.77C129.99,376.03,130.51,374.09,129.33,373.6L129.33,373.6z"
			/>
	</g>
</g>
<g>
	<g>
		<path class="st8" d="M87.9,371.83c6.13,4.05,7.9,13.68,7.78,20.47c-0.13,7.56-2.73,19.19-11.68,21.06
			c-1.26,0.26-0.73,2.19,0.53,1.93c5.57-1.16,9.6-6.73,11.37-11.73c3.22-9.09,2.65-21.3-3.06-29.36c-1.08-1.52-2.36-3.06-3.93-4.1
			C87.84,369.39,86.83,371.12,87.9,371.83L87.9,371.83z"/>
	</g>
</g>
<g>
	<g>
		<path class="st8" d="M70.47,354.26c-1.49,6.56,6.29,9.11,10.77,5.33c5.88-4.96,1.69-13.35-4.25-15.9
			c-7.52-3.23-16.43,0.52-19.47,8.09c-2.96,7.36,0.69,15.99,7.98,19.05c3.06,1.28,6.05,1.12,9.27,1.03
			c5.09-0.14,10.2-0.2,15.29,0.11c1.29,0.08,1.28-1.92,0-2c-5.77-0.36-11.58-0.26-17.36-0.05c-5.29,0.19-10.27-1.9-12.81-6.81
			c-3.12-6.06-0.82-13.73,5.16-17.02c5.31-2.92,13.13-1.78,16.08,3.89c1.88,3.61,0.56,8.3-3.65,9.36c-2.96,0.74-5.81-1.4-5.1-4.54
			C72.69,353.54,70.76,353,70.47,354.26L70.47,354.26z"/>
	</g>
</g>
<g>
	<g>
		<path class="st8" d="M80.88,359.01c0.62,0.63,1.8,0.7,2.61,0.79c4.02,0.45,8.2-0.11,12.19-0.54c12.45-1.36,24.69-1.07,35.81,5.37
			c1.12,0.65,2.12-1.08,1.01-1.73c-10.08-5.84-21.26-7.02-32.69-6.05c-4.8,0.41-9.59,1.19-14.42,1.07
			c-0.93-0.02-1.86-0.06-2.76-0.27c-0.38-0.09-0.51-0.24-0.32-0.05C81.39,356.68,79.98,358.09,80.88,359.01L80.88,359.01z"/>
	</g>
</g>
<g>
	<g>
		<path class="st8" d="M80.21,345.58c-2.63-1.99-5.71-3.01-9-3.08c-1.29-0.03-1.29,1.97,0,2c2.98,0.06,5.62,1.01,7.99,2.81
			C80.23,348.09,81.22,346.35,80.21,345.58L80.21,345.58z"/>
	</g>
</g>
<g>
	<g>
		<path class="st8" d="M80.88,359.01c0.62,0.63,1.8,0.7,2.61,0.79c4.02,0.45,8.2-0.11,12.19-0.54c12.45-1.36,24.69-1.07,35.81,5.37
			c1.12,0.65,2.12-1.08,1.01-1.73c-10.08-5.84-21.26-7.02-32.69-6.05c-4.8,0.41-9.59,1.19-14.42,1.07
			c-0.93-0.02-1.86-0.06-2.76-0.27c-0.38-0.09-0.51-0.24-0.32-0.05C81.39,356.68,79.98,358.09,80.88,359.01L80.88,359.01z"/>
	</g>
</g>
<g>
	<g>
		<path class="st8" d="M63.4,425.69c-0.75-3.28,2.35-5.39,5.37-4.48c4.35,1.31,5.21,6.24,3.07,9.82c-3.86,6.49-13.68,6.16-18.64,1.2
			c-5.63-5.63-4.63-15.3,2.03-19.66c2.44-1.6,5.18-2.14,8.05-2.03c4.13,0.16,8.27,0.22,12.4,0.17c1.29-0.02,1.29-2.02,0-2
			c-4.36,0.05-8.71-0.11-13.07-0.2c-3.18-0.06-6.31,0.84-8.91,2.69c-5.95,4.25-7.92,12.41-4.52,18.9
			c3.51,6.69,11.88,9.66,18.82,6.67c5.56-2.39,9.77-9.81,5.09-15.08c-4.16-4.68-13.24-2.68-11.61,4.52
			C61.76,427.47,63.69,426.94,63.4,425.69L63.4,425.69z"/>
	</g>
</g>
<g>
	<g>
		<path class="st8" d="M73.76,425.68c2.64,0.13,5.29,0.63,7.85,1.26c4.97,1.21,9.43,3.79,14.39,4.94
			c8.93,2.07,18.31,0.73,27.12-1.25c1.26-0.28,0.72-2.21-0.53-1.93c-9.2,2.07-19.24,3.5-28.43,0.61c-4.6-1.45-8.77-3.63-13.54-4.64
			c-2.25-0.48-4.57-0.87-6.87-0.98C72.48,423.62,72.48,425.62,73.76,425.68L73.76,425.68z"/>
	</g>
</g>
<g>
	<g>
		<path class="st8" d="M186.83,414.75c-3.81,1.47-4.75,5.51-3.54,9.12c1.07,3.21,2.75,6.25,4.54,9.11c0.73,1.16,1.41,2.56,2.53,3.38
			c2.71,1.99,9.41,1.56,9.61-2.68c0.17-3.67-3.21-7.68-5.26-10.41c-2.15-2.87-4.46-5.64-6.9-8.26c-0.88-0.94-2.29,0.47-1.41,1.41
			c1.89,2.03,3.68,4.15,5.4,6.32c1.45,1.83,2.85,3.72,4.07,5.72c0.82,1.35,2.05,3.17,2.09,4.81c0.07,2.71-4.63,2.65-6.33,1.52
			c-0.43-0.29-0.28-0.12-0.75-0.81c-0.69-1.01-1.35-2.04-1.97-3.09c-2.01-3.36-7.36-11.97-1.53-14.21
			C188.55,416.22,188.03,414.29,186.83,414.75z"/>
	</g>
</g>
<g>
	<g>
		<path class="st8" d="M211.76,488.34c-2.94-2.35-5.48-5.5-7.12-8.88c-2.86-5.91-1.86-13.18-0.91-19.46c0.42-2.76,1.2-5.5,1.39-8.29
			c0.41-6.07-0.97-11.71-3.96-16.99c-0.44-0.78-1.22-2.57-2.42-2.24c-0.75,0.21-0.86,0.99-0.75,1.64c0.22,1.27,2.15,0.73,1.93-0.53
			c0.07,0.41,0.04,0.06,0.02,0.05c-1.37,0.05-1.82,0.29-1.35,0.72c0.1,0.13,0.2,0.27,0.28,0.42c0.27,1.27,1.56,2.77,2.12,3.94
			c1.63,3.45,2.23,7.25,2.2,11.04c-0.02,3.59-0.98,6.84-1.53,10.68c-0.88,6.23-1.75,13.17,0.83,19.1c1.69,3.88,4.54,7.57,7.85,10.22
			C211.34,490.55,212.77,489.15,211.76,488.34L211.76,488.34z"/>
	</g>
</g>
<g>
	<g>
		<path class="st8" d="M183.43,421c-4.16,1.24-6.16,5.92-6.37,9.89c-0.35,6.59,2.93,11.72,5.77,17.36c0.58,1.15,2.31,0.14,1.73-1.01
			c-2.38-4.73-5.22-9.1-5.49-14.53c-0.18-3.58,1.02-8.62,4.9-9.78C185.19,422.56,184.67,420.63,183.43,421L183.43,421z"/>
	</g>
</g>
<g>
	<g>
		<path class="st8" d="M182.13,459.88c3.27-1.11,4.72-4.06,4.4-7.34c-0.56-5.78-5.92-7.17-10.78-8.13
			c-5.72-1.13-11.53-1.87-17.32-2.51c-4.22-0.46-9.25-0.85-12.91,1.69c-3.46,2.41-4.97,8.55-2.68,12.18c0.29-0.5,0.58-1,0.86-1.5
			c-3.95,0.07-6.5,3.93-7.31,7.38c-0.66,2.81-0.69,7.81,3.05,8.55c-0.08-0.61-0.16-1.22-0.24-1.83c-2.88,2.05-4.73,5.62-3.97,9.17
			c0.63,2.93,2.89,6.68,6.28,6.77c-0.29-0.5-0.58-1-0.86-1.5c-1.43,3.14-2.01,7.77,1.4,9.87c2.76,1.7,10.34,2.39,12.38-1.1
			c-0.38,0.15-0.75,0.31-1.13,0.46c3.49,0.84,7.02,1.56,10.57,2.06c1.53,0.22,3.45,0.09,4.68,0.61c2.03,0.86,3.75,2.13,5.95,2.65
			c3.82,0.89,7.86-0.52,9.16-4.43c1.37-4.1,0.65-8.34-3.89-9.58c-0.09,0.65-0.18,1.31-0.27,1.96c2.87,0.06,4.92-2.47,5.58-5.02
			c1.08-4.13,0.05-8.16-4.08-9.87c-3.09-1.28-6.68-1.7-9.95-2.24c-6.18-1.02-12.45-1.74-18.72-1.6c-1.29,0.03-1.29,2.03,0,2
			c8.29-0.18,16.7,0.99,24.78,2.78c3.03,0.67,6.08,1.64,6.33,5.2c0.17,2.44-0.71,6.83-3.95,6.75c-1.13-0.02-1.35,1.67-0.27,1.96
			c2.29,0.62,3.14,1.99,3.04,4.28c-0.1,2.24-0.84,4.7-3.08,5.6c-3.85,1.54-6.67-1.06-9.99-2.39c-0.94-0.38-1.98-0.28-3.01-0.38
			c-1.85-0.18-3.69-0.49-5.52-0.82c-2.3-0.42-4.58-0.9-6.85-1.45c-0.43-0.1-0.9,0.07-1.13,0.46c-1.28,2.19-7.81,1.58-9.64,0.38
			c-2.3-1.51-1.65-4.98-0.68-7.13c0.31-0.68-0.05-1.48-0.86-1.5c-2.42-0.06-3.99-3.35-4.36-5.3c-0.5-2.63,0.9-5.39,3.05-6.91
			c0.64-0.45,0.68-1.65-0.24-1.83c-2.78-0.55-1.98-5.09-1.45-6.85c0.68-2.28,2.47-5.1,5.18-5.15c0.73-0.01,1.28-0.85,0.86-1.5
			c-1.24-1.96-0.81-4.92,0.05-6.96c1-2.36,3.14-3.45,5.57-3.91c4.32-0.82,8.92,0.04,13.22,0.59c3.32,0.42,6.63,0.9,9.93,1.49
			c2.72,0.49,6.16,0.8,8.54,2.32c3.3,2.1,4.05,8.18-0.28,9.65C180.39,458.36,180.91,460.29,182.13,459.88L182.13,459.88z"/>
	</g>
</g>
<g>
	<g>
		<path class="st8" d="M152.69,456.27c6.98-0.16,14.16,0.19,21.01,1.55c3.3,0.66,8.39,1.57,10.2,4.81c2.24,4-1.06,6.74-4.76,7.3
			c-1.27,0.19-0.73,2.12,0.53,1.93c2.34-0.36,4.97-1.56,6.23-3.65c1.76-2.94,0.29-6.88-2.28-8.82c-2.99-2.25-7.02-3.1-10.62-3.73
			c-4.17-0.73-8.41-1.09-12.65-1.27c-2.55-0.11-5.11-0.17-7.66-0.12C151.4,454.3,151.4,456.3,152.69,456.27L152.69,456.27z"/>
	</g>
</g>
<g>
	<g>
		<path class="st8" d="M151.14,480.88c9.4-0.58,19.42,0.75,28.11,4.4c1.18,0.5,1.7-1.44,0.53-1.93c-8.82-3.71-19.1-5.06-28.64-4.47
			C149.86,478.96,149.85,480.96,151.14,480.88L151.14,480.88z"/>
	</g>
</g>
<g>
	<g>
		<path class="st8" d="M166.51,443.77c-0.84,3.98,1.23,6.64,5.1,7.29c4.58,0.77,9.13,1.68,13.68,2.64c1.26,0.26,1.79-1.66,0.53-1.93
			c-3.4-0.72-6.8-1.4-10.22-2.03c-1.74-0.32-5.1-0.3-6.39-1.62c-0.92-0.94-1.03-2.57-0.77-3.81
			C168.7,443.05,166.77,442.51,166.51,443.77L166.51,443.77z"/>
	</g>
</g>
<path class="st10" d="M167.63,455.92c0,0-2.31,6.17,3.67,7.16c0,0,10.93,2.41,14.35,3.65"/>
<path class="st10" d="M165.32,468.71c0,0-2.14,4.92,2.98,6.21c0,0,11.08,1.88,16.08,3.63"/>
<path class="st10" d="M164.88,480.5c0,0-1.01,5.95,3.83,6.83c0,0,9.38,1.51,14.34,3.96"/>
<path class="st10" d="M179.07,496.63c0,0,0.69,3.58,12.26,16.69"/>
<g>
	<g>
		<path class="st8" d="M176.1,552.31c-1.27,2.37-4.49,0.41-4.9-1.53c-0.15-0.73-0.19-1.56-0.11-2.31c0.07-0.64,0.59-2.02,1.22-2.77
			c1.95-2.35,5.54-2.21,8.22-1.49c2.85,0.76,4.7,2.75,5.37,5.6c0.81,3.43,0.38,7.73-1.57,10.74c-4.88,7.53-15.66,7.1-21.19,0.58
			c-4.48-5.28-2.2-12.78-1.51-18.97c1.07-9.67,2.13-19.35,3.2-29.02c0.73-6.59,1.45-13.18,2.18-19.78c0.14-1.28-1.86-1.27-2,0
			c-2.03,18.43-4.06,36.85-6.09,55.28c-0.3,2.73-0.87,5.43-0.21,8.15c1.86,7.69,10.45,12.6,18.04,11.14
			c5.83-1.12,10.33-5.86,11.21-11.67c0.75-4.97,0.02-10.95-5.06-13.33c-4.93-2.31-12.34-1.42-13.67,4.71
			c-0.37,1.69-0.22,3.75,0.6,5.27c1.51,2.81,6.4,3.4,8,0.41C178.43,552.19,176.71,551.18,176.1,552.31L176.1,552.31z"/>
	</g>
</g>
<g>
	<g>
		<path class="st8" d="M161.57,524.47c-0.49,10.72-11.14,16.98-20.74,17.95c-7.26,0.73-23.88-3.12-24.06,8.5
			c-0.07,4.44,2.28,8.79,7.07,9.05c4.8,0.26,9.69,0,14.5,0c3.64,0,7.3-0.09,10.95,0c3.33,0.08,6.66,0.79,9.82,1.82
			c4.16,1.35,9.44,3.45,12.44,6.77c2.73,3.02,4.65,7,5.99,10.8c0.86,2.45,3.43,8.99,0.36,10.98c-1.01,0.65-2.98,0.37-3.93-0.57
			c-1.43-1.41-1.67-4.47-2.66-6.31c-0.64-1.2-1.41-2.31-2.24-3.37c-7.38-9.47-21.94-10.63-33.02-8.99
			c-10.63,1.58-24.89,1.87-28.93-10.42c-2.38-7.24-1.04-14.87,1.66-21.79c2.48-6.37,10.64-7.25,16.6-7.3
			c5.21-0.04,9.68,1.17,14.81-0.54c4.44-1.48,8.16-5,9.4-9.58c0.75-2.78,0.99-5.76,1.45-8.59c0.96-5.94,1.93-11.89,2.89-17.83
			c0.2-1.24,0.4-2.47,0.6-3.71c0.2-1.26-1.72-1.8-1.93-0.53c-1.56,9.6-3.01,19.22-4.67,28.79c-0.54,3.11-2.2,5.89-4.79,7.75
			c-4.93,3.54-10.55,2.38-16.12,2.25c-5.74-0.14-12.74,0.34-17.25,4.33c-3.96,3.49-5.31,10.87-5.76,15.78
			c-0.76,8.34,1.64,17.96,9.8,21.74c5.73,2.66,12.51,2.81,18.7,2.16c9.63-1.02,19.76-2.2,28.8,2.57c3.18,1.68,5.76,4.15,7.65,7.21
			c1.82,2.95,1.81,7.96,5.7,9.06c3.39,0.96,6.39-1.06,6.53-5.18c0.17-4.8-2.01-9.99-4.22-14.16c-1.24-2.35-2.76-4.98-4.8-6.76
			c-5.88-5.15-15.1-8.18-22.88-8.37c-3.89-0.1-7.79,0-11.68,0c-4.54,0-9.3,0.41-13.83,0c-2.23-0.2-3.89-1.65-4.58-3.78
			c-1.39-4.26,0.25-8.18,4.64-9.26c4.21-1.04,9.19-0.35,13.45-0.35c11.5,0,23.36-5.67,25.94-17.73c0.17-0.78,0.31-1.59,0.35-2.39
			C163.63,523.18,161.63,523.19,161.57,524.47L161.57,524.47z"/>
	</g>
</g>
<g>
	<g>
		<path class="st8" d="M389.17,567.17c0,2.34,0,4.68,0,7.02c0,0.74,0.2,1.91-0.1,2.63c-0.87,2.09-4.74,1.91-6.57,1.91
			c-2.29,0-6.12,0.34-7.76-1.54c-0.88-1.01-0.82-2.3-0.82-3.55c0-2.44,0-4.88,0-7.33c0-1.29-2-1.29-2,0c0,2.81-0.13,5.65,0,8.45
			c0.26,5.8,6,5.97,10.59,5.97c3.43,0,8.41-0.33,8.67-4.68c0.17-2.94,0-5.93,0-8.87C391.17,565.88,389.17,565.88,389.17,567.17
			L389.17,567.17z"/>
	</g>
</g>
<g>
	<g>
		<path class="st8" d="M361.15,536.02c-1.71,8.51-3.41,17.01-5.12,25.52c-1.12,5.57-3.44,14.41,3.62,17.04
			c4.25,1.58,12.05,1.45,14.12-3.3c0.51-1.17-1.21-2.19-1.73-1.01c-1.18,2.69-4.26,3.11-6.9,3.05c-1.88-0.05-4.12-0.07-5.73-1.07
			c-3.02-1.86-3-6.19-2.44-9.28c1.26-7.02,2.81-13.99,4.21-20.98c0.63-3.14,1.26-6.29,1.89-9.43
			C363.33,535.29,361.4,534.75,361.15,536.02L361.15,536.02z"/>
	</g>
</g>
<g>
	<g>
		<path class="st8" d="M405.67,567.95c0,3.26-0.7,7.52,0.75,10.61c1.27,2.71,3.83,3.46,6.65,3.28c4.65-0.29,9.18-1.96,12.98-4.65
			c1.04-0.74,0.04-2.47-1.01-1.73c-3.74,2.64-16.11,8.47-17.3,0.58c-0.4-2.62-0.07-5.45-0.07-8.1
			C407.67,566.66,405.67,566.66,405.67,567.95L405.67,567.95z"/>
	</g>
</g>
<path class="st10" d="M390.17,576.17c0,0,1.53,4.3,7.86,4.22c0,0,7.28,0.49,8.88-3.49"/>
<line class="st10" x1="176.85" y1="496.62" x2="173.28" y2="543.64"/>
<g>
	<g>
		<path class="st8" d="M498.73,393.59c0.01-15.02-1.07-30.08-2.18-45.05c-0.59-8.06-1.09-16.18-2.04-24.21
			c-0.63-5.29-1.95-10.46-4.07-15.35c-3.71-8.57-9.83-15.82-17.25-21.43c-9.53-7.19-21.33-12.18-33.12-14.17
			c-10.13-1.71-20.32-3.12-30.47-4.68c-13.96-2.14-27.92-4.32-41.88-6.43c-0.26-0.04-0.52-0.08-0.78-0.12
			c-0.67-0.1-1.22,0.26-1.27,0.96c-0.96,14.36-1.92,28.71-2.88,43.07c-0.14,2.06-0.28,4.12-0.41,6.18c-0.09,1.28,1.91,1.28,2,0
			c0.96-14.36,1.92-28.71,2.88-43.07c0.14-2.06,0.28-4.12,0.41-6.18c-0.42,0.32-0.84,0.64-1.27,0.96
			c11.69,1.8,23.37,3.59,35.06,5.39c12.47,1.92,24.95,3.77,37.41,5.75c9.34,1.48,18.58,4.93,26.72,9.7
			c7.7,4.51,14.57,10.54,19.4,18.1c6.98,10.93,7.76,23.11,8.79,35.71c1.03,12.59,1.89,25.19,2.45,37.81
			c0.24,5.46,0.24,10.92,0.49,16.38c0.01,0.23,0,0.46,0,0.69C496.73,394.88,498.73,394.88,498.73,393.59L498.73,393.59z"/>
	</g>
</g>
<g>
	<g>
		<path class="st8" d="M420.1,271.48c-1.79,13.48-3.57,26.97-5.36,40.45c-0.17,1.27,1.83,1.26,2,0c1.79-13.48,3.57-26.97,5.36-40.45
			C422.27,270.21,420.27,270.22,420.1,271.48L420.1,271.48z"/>
	</g>
</g>
<g>
	<g>
		<path class="st8" d="M438.3,274c-2.14,13.34-4.28,26.67-6.42,40.01c-0.2,1.26,1.72,1.8,1.93,0.53
			c2.14-13.34,4.28-26.67,6.42-40.01C440.43,273.27,438.5,272.73,438.3,274L438.3,274z"/>
	</g>
</g>
<g>
	<g>
		<path class="st8" d="M461.07,281.56c-4.67,12.64-9.34,25.28-14.01,37.92c-0.45,1.21,1.49,1.73,1.93,0.53
			c4.67-12.64,9.34-25.28,14.01-37.92C463.45,280.89,461.51,280.37,461.07,281.56L461.07,281.56z"/>
	</g>
</g>
<g>
	<g>
		<path class="st8" d="M309.35,251.44c-0.34,5.56-0.5,11.14-0.53,16.72c-0.05,7.88-0.37,16.52,1.9,24.17
			c0.12,0.39,0.53,0.77,0.96,0.73c7.07-0.62,14.14-1.24,21.21-1.86c7.92-0.69,16.07-0.89,23.93-2.1c2.26-0.35,4.43-1.81,6.08-3.32
			c4.62-4.21,5.07-10.23,4.66-16.11c-0.32-4.53-1.69-8.42-5.97-10.54c-5.25-2.6-11.67-3.08-17.39-3.97
			c-11.26-1.75-22.55-3.27-33.85-4.71c-1.27-0.16-1.26,1.84,0,2c8.98,1.14,17.94,2.36,26.9,3.67c5.73,0.84,11.51,1.6,17.16,2.82
			c4.88,1.05,9.69,2.56,10.8,7.98c1.14,5.54,1.04,12.55-3.09,16.83c-1.3,1.35-2.83,2.29-4.51,3.08c-0.87,0.41-0.34,0.2-0.98,0.29
			c-7.36,0.97-14.86,1.3-22.25,1.95c-7.57,0.66-15.13,1.33-22.7,1.99c0.32,0.24,0.64,0.49,0.96,0.73
			c-2.26-7.64-1.89-16.32-1.82-24.21c0.05-5.38,0.2-10.77,0.53-16.14C311.43,250.15,309.43,250.16,309.35,251.44z"/>
	</g>
</g>
<path class="st10" d="M330.33,254.12c0,0-2.05,30.15,0,36.3"/>
<path class="st10" d="M339.92,255.5c0,0-2.02,27.35,0,34.08"/>
<path class="st10" d="M350.66,257.21c0,0-1.1,24.56,0,31.43"/>
<g>
	<g>
		<path class="st8" d="M309.81,254.5c-26.89-2.72-53.86-5.73-80.5-10.3c-6.67-1.15-13.56-2.22-19.98-4.44
			c-0.45-0.16-0.87,0.12-1.13,0.46c-1.21,1.6-1.61,4.14-1.99,6.03c-1.67,8.34-1.64,17.04-1.45,25.5c0.01,0.54,0.45,0.99,1,1
			c10.08,0.09,20.17,0.19,30.25,0.3c17.88,0.18,35.76,0.37,53.65,0.59c6.71,0.08,13.43,0.16,20.14,0.29c0-0.67,0-1.33,0-2
			c-11.74,1.32-23.48,2.64-35.22,3.95c-18.7,2.1-37.39,4.2-56.09,6.3c-4.27,0.48-8.53,0.96-12.8,1.44c-0.59,0.07-0.93,0.41-1,1
			c-0.4,3.59-0.46,7.26-0.29,10.87c0.26,5.47,0.98,11.59,4.27,16.16c0.28,0.38,0.66,0.56,1.13,0.46
			c10.19-2.19,20.38-4.35,30.57-6.49c17.62-3.71,35.24-7.41,52.91-10.89c6.05-1.19,12.12-2.49,18.23-3.33
			c1.27-0.17,0.73-2.1-0.53-1.93c-13.59,1.86-27.08,5.07-40.5,7.83c-16.73,3.44-33.44,6.97-50.14,10.52
			c-3.69,0.78-7.38,1.57-11.06,2.36c0.38,0.15,0.75,0.31,1.13,0.46c-3.31-4.59-3.88-10.8-4.05-16.3c-0.1-3.23-0.02-6.5,0.34-9.72
			c-0.33,0.33-0.67,0.67-1,1c11.74-1.32,23.48-2.64,35.22-3.95c18.7-2.1,37.39-4.2,56.09-6.3c4.27-0.48,8.53-0.96,12.8-1.44
			c1.25-0.14,1.32-1.97,0-2c-14.3-0.29-28.6-0.4-42.89-0.56c-16.72-0.18-33.44-0.35-50.15-0.51c-3.66-0.04-7.33-0.07-10.99-0.11
			c0.33,0.33,0.67,0.67,1,1c-0.18-8.27-0.26-16.81,1.38-24.96c0.35-1.74,0.67-4.08,1.79-5.55c-0.38,0.15-0.75,0.31-1.13,0.46
			c5.54,1.92,11.43,2.92,17.18,3.95c8.41,1.51,16.88,2.75,25.34,3.92c15.97,2.2,31.98,4.09,48.01,5.84
			c3.49,0.38,6.98,0.76,10.47,1.11C311.09,256.63,311.08,254.63,309.81,254.5L309.81,254.5z"/>
	</g>
</g>
<path class="st10" d="M244.57,280.24c0,0,2.76,12.69,3.29,22.76"/>
<path class="st10" d="M262.39,278.24c0,0,2.92,8.97,2.69,21.18"/>
<path class="st10" d="M280,276.27c0,0,3.12,5.28,2.28,19.63"/>
<path class="st10" d="M247.87,248.07c0,0-0.45,13.77-1.65,24.08"/>
<line class="st10" x1="265.09" y1="250.37" x2="263.74" y2="271.75"/>
<path class="st10" d="M282.42,252.48c0,0,1.08,10.9-1.21,19.79"/>
<path class="st10" d="M358.65,553.58c0,0,41.95,3.71,55.01,2.97"/>
<path class="st10" d="M439.77,426.43c-2.33-1.58-3.87-4.25-3.87-7.28c0-3.31,1.83-6.19,4.54-7.69"/>
</svg>
