<svg xmlns="http://www.w3.org/2000/svg" width="900" height="900" viewBox="0 0 900 900">
  <defs>
    <style>
      .cls-1, .cls-10, .cls-6, .cls-7 {
        fill: #fff;
      }

      .cls-1 {
        stroke: #fbfff2;
      }

      .cls-1, .cls-7 {
        stroke-miterlimit: 10;
      }

      .cls-2 {
        fill: #fff2d7;
      }

      .cls-2, .cls-4 {
        opacity: 0.8;
      }

      .cls-3 {
        fill: #ce2828;
      }

      .cls-4, .cls-8 {
        fill: #383838;
      }

      .cls-5 {
        fill: #366962;
        opacity: 0.68;
      }

      .cls-10, .cls-7, .cls-9 {
        stroke: #000;
      }

      .cls-7 {
        stroke-width: 2px;
      }

      .cls-9 {
        fill: none;
      }

      .cls-10, .cls-9 {
        stroke-linecap: round;
        stroke-linejoin: round;
        stroke-width: 5px;
      }
    </style>
  </defs>
  <title>mictlantecuhtli</title>
  <g id="Capa_3" data-name="Capa 3">
    <polygon class="cls-1" points="346.39 488.04 337.75 490.68 331.22 494.2 327 499.23 322.27 508.66 320.11 516.29 318.85 524.25 318.85 535.81 318.85 544.29 320.35 556.27 322.28 561.54 328.89 572.85 336.05 577.94 346.39 582.2 355.24 584.71 367.97 585.99 391.01 588.65 415.49 591.47 429.93 593.14 439.91 591.79 444.05 586.86 444.96 581.07 445.08 572.63 443.26 565.05 436.14 559.91 428.22 557.43 415.49 555.64 404.19 553.2 391.7 550.93 385.35 549.72 379.1 545.36 374.79 540.59 374.58 532.8 374.9 529.92 379.1 531.94 385.73 531.26 391.01 527.12 397.1 525.87 408.44 524.99 409.01 528.47 408.84 533.91 406.57 536.63 411.59 537.74 416.88 535.16 421.66 528.47 423 523.64 436.06 524.01 470.38 524.99 470.1 517.05 465.36 507.34 471.11 501.87 472.27 494.2 472.41 487.4 462.19 487.4 438.12 487.4 429.42 486.51 421.35 484.35 415.96 476.95 412.88 466.83 412.14 453.31 408.83 459.83 403.22 468.98 346.39 488.04"/>
    <circle class="cls-2" cx="214.35" cy="725.54" r="25.86"/>
    <circle class="cls-2" cx="308.36" cy="697.89" r="25.86"/>
    <circle class="cls-2" cx="385.78" cy="642.59" r="25.86"/>
    <polygon class="cls-3" points="158.23 543.38 171 546.77 184.1 547.47 187.05 553.38 191.39 558.91 189.7 565.1 187.05 569.05 183 579.77 181.54 588.71 182.33 592.57 172.03 593.14 153.57 595.7 152.89 566.45 158.23 543.38"/>
    <polygon class="cls-3" points="428.6 524.25 446.73 524.68 458.18 529.75 466.99 537.74 474.59 550.48 478.12 561.76 482.48 570.95 490.03 577.94 499.81 579.77 498.95 583.88 493.8 590 487.41 592.22 480.06 592.57 472.41 591.79 463.39 587.94 456.98 583.88 449.24 577.94 444.34 569.54 443.26 565.05 439.83 561.76 436.14 559.91 424.21 556.87 404.19 553.2 391.7 550.93 385.35 549.72 379.1 545.36 374.54 537.74 374.9 529.92 379.1 531.94 385.73 531.26 391.01 527.12 397.1 525.87 408.44 524.99 409.01 528.47 408.84 533.91 406.57 536.63 411.59 537.74 416.88 535.16 421.66 528.47 423 523.64 428.6 524.25"/>
    <polygon class="cls-4" points="415.49 430.62 418.77 436.08 422.79 438.43 430.32 439.35 439 439.35 445.75 439.28 452.3 439.35 455.67 440.41 461.35 442.94 466.14 447.58 468.67 454.74 468.62 459.41 467.4 465.57 464.09 470.63 459.31 473.92 464.73 473.86 470.46 475.11 471.68 479.94 472.41 487.4 462.19 487.4 452.3 487.53 438.12 487.4 429.42 486.51 421.35 484.35 417.85 479.94 415.96 476.95 412.88 466.83 412.29 459.07 412.14 453.31 414.42 445.41 415.4 438.43 415.49 430.62"/>
    <polygon class="cls-5" points="255.34 546.77 261.11 553.76 269.91 561.76 279.04 570.53 289.6 577.94 306.91 588.53 346.77 608.74 370.16 618.72 365.18 624.79 355.24 635.55 344.5 645.54 328.89 657.74 312.75 668.39 301.77 673.08 285.63 681.85 277.96 685.03 264.75 689.9 255.34 692.94 244.79 695.96 225.46 700.35 208.47 703.59 182.33 706.35 153.75 707.68 155.91 699.16 156.31 676.98 156.06 652.13 156.66 627.23 156.62 595.7 164.86 594.13 182.33 592.57 184.83 601.05 191.39 610.21 201.62 618.03 212.26 621.83 223.94 621.23 233.2 618.14 242 611.9 247.68 605.91 251.76 594.72 252.71 583.33 251.76 573.96 246.34 566.45 242.4 561.76 247.76 557.13 255.34 546.77"/>
    <polygon class="cls-5" points="176.63 707.74 124.89 793.57 221.82 793.57 285.63 681.85 271.04 687.58 255.34 692.94 240.21 697 225.46 700.35 229.65 705.18 235.15 710.18 239.33 721.98 240.21 725.54 237.16 737.71 231.9 743.92 223.94 749.29 214.35 751.39 208.47 750.86 202.61 748.89 196.2 744.54 191.39 740.38 188.5 731.2 188.12 721.98 191.39 712.51 198.51 704.64 176.63 707.74"/>
    <polygon class="cls-2" points="252.71 739.89 358.45 734.77 359.88 742.54 363.41 752.99 366.29 763.55 366.29 768.83 366.29 775.57 360.58 781.03 355.24 782.63 347.01 782.63 340.55 781.03 336.07 776.14 335.53 780.36 330.86 784.79 321.43 786.53 316.03 786.45 310.15 784.79 304.16 779.54 300.42 784.79 291.04 787.4 282.45 787.4 272.33 783.91 269.53 777.18 267.32 782.68 261.95 786.33 252.71 786.59 241.65 786.45 236.06 782.68 232.82 774.3 252.71 739.89"/>
    <polygon class="cls-1" points="421.35 653.06 449.24 666.2 445.83 674.91 452.3 678.18 463.39 683.79 474.25 689.28 478.17 684.55 483.42 681.01 489.49 679.16 498.79 679.79 506.15 683.63 511.12 689.28 513.82 695.98 513.82 705.05 512.01 710.18 507.64 716.08 502.15 719.9 492.7 722.1 497.29 725.54 499.81 731.87 499.39 739.89 497.89 744.54 493 751.39 483.42 756.67 475.29 757.32 473.7 763.55 471.11 771.61 466.65 777.18 460.52 781.03 452.3 782.63 444.05 781.03 437.86 777.18 433.15 771.14 430.9 764.22 431.38 755.4 432.88 751.26 405.79 734.77 396.25 742.72 379.94 730.02 372 721.83 382.67 708.7 395.9 691.62 421.35 653.06"/>
    <polygon class="cls-1" points="514.29 708.7 522.22 708.7 528.27 711.69 535.62 715.44 544.12 721.28 549.88 726.96 554 732.9 556.95 739.8 558.94 748.15 561.41 757.32 563.73 764.22 544.51 783.91 540.44 782.63 535.28 777.77 533.54 774.09 532.02 765.66 531.37 757.32 529.57 750.95 525.14 744.54 518.67 740.49 513.82 738.87 508.76 738.13 502.98 736.46 499.81 731.87 497.29 725.54 492.7 722.1 504.01 718.61 514.29 708.7"/>
    <polygon class="cls-1" points="596.51 645.55 587.75 650.04 583.58 651.82 577.27 654.28 571.95 659.03 569.52 664.19 568.96 672.03 572.92 678.97 576.18 681.85 582.74 684.55 588.64 684.55 596.51 680.42 603.88 674.35 612.87 663.78 627.31 679.27 621.16 681.85 614 685.82 608.25 690.13 603.24 695.96 601.23 703.74 602.57 710.18 605.86 715.06 611.4 718.74 618.79 719.84 627.31 716.08 633.5 707.68 641.07 695.96 655.89 679.49 677 659.03 670.49 649.1 662.18 638.44 648.9 623.75 638.91 613.96 632.69 619.46 615.76 633 596.51 645.55"/>
    <polygon class="cls-6" points="205.02 499.23 205.71 502.69 206.49 510.08 206.42 520.8 206.49 527.12 208.47 530.52 211.93 532.45 219.57 532.8 225.57 531.94 229.72 530.52 231.44 521.89 231.7 508.24 239.11 508.49 246.23 508.24 249.06 512.39 253.49 519.95 254.84 524.99 255.91 533.9 255.91 540.06 254.43 544.29 249.72 554.46 242.4 561.76 246.34 566.45 249.69 571.09 252.26 581.07 252.71 591.79 250.73 597.55 247.68 605.91 242 611.9 235.85 616.68 227.3 620.44 216.14 621.96 212.26 621.83 201.62 618.03 193.84 612.67 187.84 605.25 182.33 592.57 181.54 583.33 187.05 569.05 193.84 560.59 191.39 558.91 184.1 547.47 181.54 536.03 181.54 527.12 184.1 519.95 188.4 512.4 193.84 506.28 205.02 499.23"/>
    <polygon class="cls-6" points="654.6 382.69 738.83 381.14 736.32 384.79 734.99 387.66 735.9 390.59 739.36 394.15 739.36 398.02 737.81 401.99 739.36 405.51 741.19 408.1 741.19 411.49 738.83 416.54 737.95 420.85 741.19 424.88 743.09 428.02 742.04 432.52 739.61 434.87 738.83 439.55 740.95 442.15 741.46 447.18 739.36 451.08 737.16 454.08 738.81 456.99 739.92 461.2 738.07 465.24 736.44 468.98 738.71 474.87 714.08 474.87 700.39 475.85 685.7 476.95 665.27 479.69 664.37 475.85 666.88 471.63 666.68 467.95 663.88 464.9 662.24 460.17 664.29 453.88 661.4 451.35 658.5 447.52 659.98 442.15 659.05 438.43 656.48 435.09 657.48 429.13 657.89 424.22 654.6 418.33 654.21 413.39 657.48 408.08 655.48 405.13 652.46 401.95 652.46 397.05 656.83 393 657.07 390.71 653.37 386.54 654.6 382.69"/>
    <polygon class="cls-6" points="702.79 519.53 742.73 518.77 742.1 545.82 716.66 548.67 720.18 551.11 719.97 555.08 715.25 558.11 707.47 559.84 696.71 562.74 689.26 565.26 685.47 562.78 684.98 558.83 686.85 554.03 688.85 551.01 688.28 547.47 691.94 542.01 696.71 537.74 701.39 531.94 702.37 524.25 702.79 519.53"/>
    <polygon class="cls-6" points="667.75 518.7 675.73 508.24 680.87 502.12 686.85 495.19 691.94 492.06 694.58 493.4 696.22 495.29 697.04 500.05 695.31 505.38 690.8 510.83 683.46 520.9 679.26 524.99 674.93 526.97 670.87 526.97 667.91 524.25 667.75 518.7"/>
    <polygon class="cls-6" points="685.49 579.77 686.85 575.92 691.94 572.16 709.59 568.23 718.37 567.06 721.4 570.05 721.07 575.47 718.74 578.2 712.65 579.11 707.95 579.31 702.32 580.76 695.31 583.88 688.99 583.81 685.49 579.77"/>
    <polygon class="cls-6" points="684.31 603.39 685.47 599.36 691.18 596.71 698.18 593.64 707.61 591.97 720.03 590.57 722.76 590 722.37 593.64 721.59 598.26 718.77 601.24 713.86 603.39 709.59 603.39 702.73 604.15 695.31 606.52 691.94 608.71 687.8 608.71 684.95 607.02 684.31 603.39"/>
    <polygon class="cls-6" points="686.85 624.26 687.8 619.46 691.94 617.85 698.18 615.37 706.65 612.96 714.01 611.52 720.87 610.62 723.75 613.96 723.75 616.29 722.76 619.7 717.67 621.36 711.84 621.61 707.13 623.24 702.36 624.26 696.4 626.84 693.08 629.06 689.31 628.92 686.85 624.26"/>
    <polygon class="cls-6" points="697.04 635.18 705.3 633.4 717.56 630.81 727.42 629.91 732.46 630.05 737.21 631.45 743.18 635.54 745.93 639.4 748.74 645.55 751.09 652.87 754.31 661.04 758.71 668.39 765.35 679.24 771.03 687.71 782.16 703.04 778.93 706.5 771.84 712.23 762.8 717.5 747.8 724.71 737.17 728.66 726.46 731.96 722.46 723.78 715.65 708.7 709.84 694.07 704.24 677.34 699.7 659.4 697.04 635.18"/>
    <path class="cls-4" d="M452.3,304.09s-53.53,12-59.54,78c0,0,12,11.37,17.29,22.35,0,0-20.44-29.28-56.41-26.72,0,0-39.71,3.64-49.48,46,0,0-9.24,44.35,40.35,63.79,0,0-24.24,1.14-26.15,43,0,0-3,43.32,21.88,50.55L290.3,571s-30.17-7.54-34.39-30.89a39.39,39.39,0,0,0-9.68-31.82H231.7l-.3,15.86s.07,11.21-9.58,9.81c0,0-15.2,1.58-15.19-9.81L205,499.23l-7.82,4.36-7.5,6.49-5.09,9-3.07,11.4,2.56,17-13.1-.7-19.75-5.67s1.24-82.29,3.94-131c0,0-.72-80.6,122.77-120C278,290.15,355.2,273.25,452.3,304.09Z"/>
    <polygon class="cls-4" points="350.7 706.35 358.45 734.77 252.71 739.49 283.55 684.56 282.72 694.62 283.55 705.14 287.89 715.14 294.85 719.9 303.96 723.68 311.72 723.52 319.06 721.34 326.73 716.08 332.39 705.18 334.17 692.95 328.89 681.85 321.29 674.91 308.36 672.03 318.85 664.45 333.71 653.97 344.5 645.54 365.18 624.79 361.61 636.01 359.95 644.34 362.57 653.97 370.16 663.18 377.93 667.22 385.78 668.44 395.31 666.63 402.95 661.91 407.77 656.18 410.05 648 421.35 653.06 416.85 660.45 410.05 673.07 402.66 682.14 398.86 687.58 391.7 697.35 385.73 704.99 377.02 715.14 370.28 721.98 350.7 706.35"/>
    <polygon class="cls-4" points="499.81 731.87 503.45 736.46 510.82 737.35 519.84 741 526.48 746.25 529.61 751.26 531.78 758.72 531.78 768.83 533.54 774.3 523.91 780.76 516.67 785.52 510.82 785.52 502.98 784.5 496.88 782.63 487.41 778.33 472.41 768.83 473.78 762.54 473.78 756.88 480.06 756.94 487.41 754.47 493.17 751.26 497.49 744.54 498.79 737.71 499.81 731.87"/>
    <polygon class="cls-4" points="514.29 708.7 568.96 674.35 573.8 679.92 578.82 684.55 585.11 684.55 593.29 682.33 603.88 674.35 610.35 667.14 612.11 662.05 627.31 679.27 619.38 682.72 611.43 687.58 606.7 691.62 603.24 695.96 601.23 703.74 602.57 710.18 608.25 718.61 563.73 764.22 561.84 758.7 557.97 747.68 556 737.13 551.43 729.29 545.09 722.1 537.28 716.58 529.37 711.31 514.29 708.7"/>
    <polygon class="cls-7" points="140.81 271.09 130.19 233 123.82 203.75 120.93 180.52 121.75 172.97 126.37 164.02 130.87 159.01 139.3 154.27 150.31 151.64 155.43 151.64 155.03 139.87 153.98 130.18 150.76 122.38 145.92 114.08 140.93 109.01 134.53 105.56 129.59 103.48 124.78 99.44 123.92 95.03 126.48 90.53 130.95 87.75 138.18 86.82 144.2 87.69 150.16 89.33 158.34 92.19 167.4 97.87 174.16 104.98 177.4 109.97 180.87 117.58 182.9 124.59 184.01 131.64 185.81 123.81 189.18 112.79 193.63 103.73 197.53 98.17 205.14 90.83 214.08 85.93 222.75 83.7 231.25 83.7 237.43 85.6 239.11 89.08 239.11 93.36 237.51 96.19 234.38 99.32 229.16 101.86 223.05 105.29 218.73 109.46 215.6 114.83 214.25 119.72 212.71 127.64 212.23 135.55 212.76 146.29 213.23 150.25 219.15 149.63 227.47 148.81 233.28 150.28 240.35 152.66 245.66 157.32 248.79 163.58 251.26 169.25 251.26 175.05 250.48 184.11 248.95 192.93 233.28 272.08 234 277.49 234.79 284.78 234.59 290.52 233.88 296.63 232.16 301.85 227.87 310.95 224.71 315.53 217.69 322.8 210.8 327.61 205.8 330.1 200.64 331.96 194.08 333.29 186.1 333.93 175.43 332.5 169.17 330.46 162.3 327.02 156.51 322.89 151.02 317.51 146.22 310.95 142.45 302.81 139.68 292.21 139.68 282.51 140.81 271.09"/>
    <polygon class="cls-3" points="654.6 382.69 658.29 379.54 659.12 377.38 659.12 372.99 656.86 370.71 656.86 367.33 659.12 364.04 661.33 359.72 659.23 354.41 658.99 351.86 660.66 349.34 663.48 347.11 663.48 344.54 662.65 341.66 662.64 338.7 664.89 335.2 668.1 332.92 669.29 330.26 668.63 324.85 669.29 321.53 672.44 320.53 675.15 319.23 677.59 316.66 677.79 313.2 678.11 309.6 680.76 306.65 684.39 304.89 685.2 300.57 686.12 295.93 689.1 293.55 692.47 292.38 694.55 290.06 696.71 293.55 700.16 295.95 703.13 297.66 704.05 301.54 706.18 304.74 710.33 306.66 712.31 308.69 713.51 314.12 716.29 317.51 718.95 318.45 720.28 321.72 719.96 325.01 721.27 327.73 724.96 329.75 726.73 333.35 725.77 337.47 726.11 342.22 729.21 344.69 732.89 348.71 732.79 352.37 731.58 357.48 734.67 359.87 735.84 363.41 735.12 366.15 735.84 370.77 738.83 376.49 738.83 379.48 737.66 381.92 654.6 382.69"/>
    <polygon class="cls-3" points="655.48 482.61 669.79 478.85 687.8 475.85 717.44 475.85 747.3 476.62 745.65 488.9 743.18 508.24 742.73 518.77 702.79 519.53 702.83 513.92 701.16 508.24 696.71 502.12 697.04 497.69 694.58 493.4 690.81 492.81 686.18 495.8 668.38 517.83 668.29 523.22 665.6 524.25 662.82 505.35 658.73 493.73 655.48 482.61"/>
    <path class="cls-3" d="M726.46,732s38.25-9.83,55.7-28.92l14.29,18.23,10.14,12.26,9,10.51,20.18,22.57-8.08,7.33L811.55,785l-17,9.28-21.42,9.85-19.27,7.54L755,805.2l-1.86-9.06-2.06-10.62-5.84-14.47-8.13-17.65Z"/>
    <path class="cls-4" d="M638.91,614l8-8,5.6-9.59,3-8.19,2.33-12.67V562.29l-.7-15.52.7-9,3.63-9.27,6.85-5.25,3.14,3.33,7.83-1.56,5-4.92L690,512l6.7-9.88,4.45,6.12,1.67,5.68,0,5.62-1.4,9.66-1.4,3.6-3.28,7.26L690,544.17l-2.17,5.31L685,558.83l1.87,6.52,2.87,4.31,5.59,1.29-8.46,5-1.36,3.85,2,4.11-.64,4.88,4.45,3.81,5.74,1.07-5.1,2.75-6.47,3-1.16,4,2.54,5.32,5.09,5.25,8.89.55-8.89,3.34-4.14,2.82-.65,4.89,3.79,3.46,2.14,3.28,4,2.88v10.37h-5.1L677,659.4S669,641.89,638.91,614Z"/>
    <polygon class="cls-8" points="716.66 548.67 738.08 546.77 748.72 546.77 755.45 548.67 759.34 552.51 762.27 559.99 762.69 564.57 761.2 570.79 765.13 574.12 767.26 580.76 767.26 586.38 765.21 591.76 762.8 594.35 765.51 597.34 767.98 603.39 766.96 610.73 763.2 615.12 759.1 618.15 760.65 623.09 760.28 628.1 758.45 632.28 753.96 635.86 746.39 638.21 743.18 635.54 738.39 631.69 729.56 629.94 722.76 630.04 710.54 631.84 699.32 635.18 694.79 634.24 690.94 629.02 696.25 626.62 702.73 624.12 706.7 622.37 714.48 621.63 721.77 620.77 723.9 618.47 723.97 614.51 722.82 611.66 719.47 609.87 714.01 611.52 703.51 613.96 697.04 614.51 691.94 613.96 686.85 608.71 693.08 607.35 699.32 605.1 705.46 603.39 713.79 602.97 718.05 601.27 721.59 598.26 722.76 590 713.79 590 706.47 592.33 697.04 593.64 693.08 592.9 686.85 588.76 687.49 583.88 690.93 583.72 696.07 582.48 702.32 580.76 708.48 579.47 716.28 578.4 720.18 576.81 721.59 572.38 721.24 567.59 712.56 568.23 702.73 570 695.31 570.95 689.72 569.66 687.15 568.23 686.85 565.35 693.08 563.93 702.73 560.96 710.43 559.61 714.48 558.41 719.11 556.6 720.88 554.12 720.18 551.11 716.66 548.67"/>
  </g>
  <g id="Capa_2" data-name="Capa 2">
    <g>
      <circle class="cls-6" cx="359.57" cy="434.19" r="55.72"/>
      <path d="M412.79,434.19c-.14,22.14-14.15,42.57-35.14,50.07a53.81,53.81,0,0,1-59-16.06c-14.42-17.19-16.18-42.49-4.56-61.63a53.22,53.22,0,0,1,98.72,27.62c0,3.21,5,3.22,5,0a58.21,58.21,0,0,0-103.11-37.06C299.19,416,297,443.35,309.75,464.32a58.84,58.84,0,0,0,61.47,26.91c23.35-4.67,42.15-24.2,45.81-47.75a62.92,62.92,0,0,0,.76-9.29C417.81,431,412.81,431,412.79,434.19Z"/>
    </g>
    <path d="M326.08,426.84a33.56,33.56,0,0,0,67.12,0,2.53,2.53,0,0,0-2.5-2.5H328.58c-3.21,0-3.22,5,0,5H390.7l-2.5-2.5a28.56,28.56,0,1,1-57.12,0C331.05,423.63,326.05,423.62,326.08,426.84Z"/>
    <circle class="cls-9" cx="361.3" cy="433.2" r="6.36"/>
    <path class="cls-9" d="M312.54,465.78s-29.42,12.34-27,42.68,32.49,39.23,32.49,39.23"/>
    <path d="M346.09,485.76c-9.69.51-18.46,7.75-23.26,15.71-5.94,9.83-7.52,21.84-7.42,33.12a141.54,141.54,0,0,0,1.8,20.34,36.77,36.77,0,0,0,1.53,6.12,38.06,38.06,0,0,0,17.5,21.19c8.06,4.4,16.76,4.77,25.63,5.8l57.73,6.66,8.7,1,1.32.15c-1.39-.17-.3,0,0,0a22,22,0,0,0,2.43.24c4.42.17,9.11-1.12,12-4.65,4.17-5.08,3.23-12.73,3.2-18.88,0-1.17.12-2.57-.79-3.46a2.55,2.55,0,0,0-3-.4,3,3,0,0,0-1.31,2.59c-.24,2.77,4.5,3.46,4.91.66,1.42-9.71-9.05-14.44-16.88-15.84-12.85-2.3-25.65-4.88-38.44-7.45l-5.19-1c-.32-.07-.64-.12-1-.2s.55.26-.1,0c-4-1.79-7.79-5-8.72-9.44-.61-2.94.1-6.32.51-9.27a21.77,21.77,0,0,1,1.92-7.19c2.66-5,8.66-6,13.83-6.5,20.55-2.11,41.28-2.91,61.91-3.93.64,0,1.3,0,1.94-.1-1.1.11-.27,0,.42.05.5.05,1,.08,1.52.09,4.07.07,8.33-1,11.37-3.84,4.8-4.45,4.3-11.39,4.41-17.37.08-5,.31-11.14-3.25-15.09s-8.61-3.16-13.32-3.18c-2.4,0-4.8-.1-7.2-.14l-2.35-.05c-.58,0,.62.12-.08,0-3.21-.55-7.21-1.8-8.64-5.05a8.52,8.52,0,0,1,1.25-8.06,5.67,5.67,0,0,1,5.21-1.67,10.67,10.67,0,0,1,2.77.72c3,1.22,4.27-3.61,1.33-4.82a12.66,12.66,0,0,0-10.25.22c-5.15,2.68-7.06,10.18-5,15.35,3.27,8.06,12.54,8.3,19.81,8.44,2.07,0,4.06,0,6.12-.1s4.89-.09,6.52,1.6c1.46,1.51,1.77,3.92,1.93,5.92a89.7,89.7,0,0,1,0,9.42c-.15,5.36-.64,10.64-6.59,12.24a15,15,0,0,1-4.68.44c-.23,0-1.48-.12-.89-.06s-.34,0-.6,0c-7.82,0-15.71.79-23.51,1.23-11.94.67-23.88,1.35-35.79,2.38-5.48.47-11.3.71-16.29,3.27s-7.49,7.46-8.44,12.84c-1.07,6-2.25,12.75,1.13,18.22a20.66,20.66,0,0,0,9.84,8.12,49.25,49.25,0,0,0,7.62,1.65q9.78,2,19.57,3.88c6.6,1.28,13.24,2.39,19.83,3.73,4.69,1,10.24,3,11.38,8.2,0,0-.05,2.49.15,1.16l4.91.66a.76.76,0,0,0,0-.15A2.28,2.28,0,0,1,446,573l-3-.39c-.74-.72-.67-2.37-.67-.92,0,.84,0,1.69,0,2.53,0,3.51.36,7.38-.51,10.8-1.06,4.19-4.6,6-8.68,6.06a19.57,19.57,0,0,1-2-.07c-1-.07.09,0-.67-.09l-1.4-.18-7-.81-55.6-6.41c-6.54-.76-13.54-.85-19.87-2.57a33.09,33.09,0,0,1-21.42-17.59,34.54,34.54,0,0,1-2.7-7.91c-.08-.36-.15-.72-.22-1.08,0-.2-.18-1.15-.09-.54s-.05-.44-.07-.56c-.34-2.4-.68-4.81-.93-7.23-1.24-12.18-1.27-25.28,3.41-36.81,2.52-6.2,6.75-11.79,12.3-15.15a20.71,20.71,0,0,1,5.6-2.55,20.08,20.08,0,0,1,2.28-.59l.82-.16c.79-.16-.16,0,.07,0a4.93,4.93,0,0,1,.54-.05c3.2-.17,3.22-5.18,0-5Z"/>
    <path d="M266.41,450a70,70,0,0,1-3.11-21.83c0-15.07,4.64-30,15.36-40.89,8.68-8.82,20.07-14.19,31.85-17.51,3.09-.87,1.78-5.7-1.33-4.82-20.05,5.66-38.08,17.49-46.17,37.32-5.19,12.75-5.7,27.05-3.4,40.5a60,60,0,0,0,2,8.56c1,3,5.83,1.74,4.82-1.33Z"/>
    <path d="M318.57,367.73c.69-.11-.49.06-.05,0l1.6-.19q2.89-.3,5.8-.46a133.07,133.07,0,0,1,19.15.29c16.92,1.48,34.53,6.53,47.32,18.22,8.74,8,14.28,18.47,17,29.92.75,3.13,5.57,1.8,4.82-1.33a64.15,64.15,0,0,0-15.18-29,67.34,67.34,0,0,0-23.86-15.93c-14.79-6.05-31.28-7.88-47.16-7.25a100.38,100.38,0,0,0-10.81.92c-3.17.48-1.82,5.3,1.33,4.83Z"/>
    <path class="cls-9" d="M415.18,430.83s1.53,8.74,13.15,8.74c9.69,0,17.11-.07,17.11-.07s22.93-1.8,22.93,18.4c0,16.24-12.28,16.18-12.28,16.18"/>
    <path d="M253.11,540.28c.12,4.55,2.93,9.05,5.65,12.48,8.55,10.81,22.33,16.87,35.08,21,14.09,4.58,28.8,7,43.49,8.71,3.19.36,3.17-4.65,0-5-20.81-2.36-43.11-6.18-61.45-16.94a49.13,49.13,0,0,1-12.43-9.92,25.16,25.16,0,0,1-2.87-4c-.37-.61-.72-1.23-1-1.87-.14-.29-.27-.58-.4-.87-.23-.5.11.37-.19-.46a27.83,27.83,0,0,1-.8-2.8c-.24-1,0,.53-.05-.4-.09-3.21-5.09-3.23-5,0Z"/>
    <path d="M232,463.28c-6.41-.43-11.51,2.82-12.25,9.42a15.64,15.64,0,0,0,1.87,10,15,15,0,0,0,5.26,5.61c3.57,1.95,8.17,2.1,12.11,1.74s7.81-1.57,10.59-4.49c3-3.18,4.13-7.4,4.71-11.62a52.74,52.74,0,0,0-.78-20.22c-3.11-12.36-12.38-20.95-25-22.87-13.13-2-27,.94-35.07,12.23a37.4,37.4,0,0,0-6.51,19.46,46.76,46.76,0,0,0,9.19,29.3,73.05,73.05,0,0,0,5.48,6.11c.46.48-.09-.43.18.4.2.64.4,1.28.56,1.93a79.79,79.79,0,0,1,1.78,21.06c-.13,4-.28,8.12,2.74,11.29,2.3,2.41,5.5,3,8.71,2.83,2.31-.12,4.65,0,7,0a9.93,9.93,0,0,0,8.91-4.33c3.16-4.62,2.15-11.31,2.29-16.67l.15-6-2.5,2.5c5,0,10.12.28,15.14,0,7.84-.47,13.06-6.37,13.75-14.05.58-6.47-1.59-13.12-7.67-16.18-2.86-1.44-5.4,2.87-2.52,4.32,5.49,2.76,6.58,10.23,4.29,15.58a9.18,9.18,0,0,1-7.45,5.3c.36-.05-.73,0-1.09,0-1.43,0-2.86,0-4.28,0H231.39a2.55,2.55,0,0,0-2.5,2.5c-.1,4-.31,8.05-.31,12.06,0,2.52.3,5.12-1,7.41a5.71,5.71,0,0,1-3.23,2.54c-.67.26-.3,0-.11,0-.85,0-1.71,0-2.57,0-2,0-4.08-.13-6.11,0-2.35.14-4.67-.06-5.83-2.37a9.5,9.5,0,0,1-.82-4.59c0-.46.06-.92.09-1.38-.1,1.32,0-.28,0-.65.06-1.37,0-2.76,0-4.13-.09-3.87-.27-7.74-.71-11.59-.37-3.26-.67-7.06-2.22-10a12.43,12.43,0,0,0-2.44-2.74,40.42,40.42,0,0,1-7.3-10.37A43.24,43.24,0,0,1,192,466.16,29.27,29.27,0,0,1,193.26,455c2.38-8.24,7.91-15.27,16.21-18.1,11-3.74,26.19-2.22,34,7.16,5.37,6.45,6.75,15.47,6.45,23.62,0,1.3-.15,2.58-.28,3.87,0,.2-.05.41-.07.61-.06.45.09-.65,0-.08,0,.16-.05.31-.08.47-.51,3.5-1.11,7.36-3.87,9.87-3,2.74-7.56,2.88-11.4,2.64-2.59-.16-5.17-.77-6.88-2.85-.57-.7-1-1.51-1.48-2.24-.09-.12-.74-1.13-.48-.55-.05-.11-.06-.25-.1-.36-.89-2.49-1.23-6.67.49-9,1.42-1.95,4.07-2,6.25-1.81,3.21.22,3.2-4.78,0-5Z"/>
    <path class="cls-9" d="M245.92,508.46l2.84,4.15A37.19,37.19,0,1,1,201.46,501l3.25-1.57"/>
    <path class="cls-9" d="M242.09,562a35.19,35.19,0,1,1-49.76,0"/>
    <path class="cls-9" d="M210.17,571.31v17.14s-.35,7.3,4.29,7.36c2.75,0,7.19,1.33,7-6.13-.17-9.2,0-18.51,0-18.51"/>
    <path class="cls-9" d="M303.86,424s-42.34,8.89-52.4,57.69"/>
    <path class="cls-9" d="M412.82,450.64s-6.8,36.67,21.09,37,38.2,0,38.2,0"/>
    <path class="cls-9" d="M374.48,531.14A18.14,18.14,0,0,0,390.7,529a21.25,21.25,0,0,1,16.24-3.37"/>
    <path d="M395.53,514.29A21.49,21.49,0,0,1,404,522c1.51,2.45,1.93,4.92,2.37,7.7.26,1.7.49,3.94-1.64,4.55a2.53,2.53,0,0,0-.59,4.57c7.45,4.86,15.68-1.39,19-8.13a17.8,17.8,0,0,0-4.65-21.76c-2.49-2-6,1.52-3.53,3.53a12.91,12.91,0,0,1,4.22,14.93c-1.46,3.51-4.46,7.76-8.62,8.07a6.37,6.37,0,0,1-3.92-1l-.6,4.57c7.28-2.11,5.93-11.51,3.62-16.92A25.35,25.35,0,0,0,398.06,510c-2.87-1.43-5.41,2.88-2.53,4.32Z"/>
    <circle class="cls-10" cx="483.11" cy="437.7" r="20.03"/>
    <circle class="cls-10" cx="487.11" cy="470.85" r="18.74"/>
    <circle class="cls-10" cx="526.31" cy="481.88" r="20.46"/>
    <circle class="cls-10" cx="523.61" cy="430.83" r="20.46"/>
    <g>
      <path class="cls-6" d="M620.87,393.21s5.21,14.65,6.13,49.16l-65.59-2.8s-18.45,1.29-17.34-12.73,7.54-13.72,23.17-17.85S620.87,393.21,620.87,393.21Z"/>
      <path d="M618.46,393.88a71.91,71.91,0,0,1,2.68,11.41,247.63,247.63,0,0,1,3.36,37.08l2.5-2.5-62.57-2.67c-6.37-.28-17,.36-17.87-8.1-.35-3.29.36-7.71,2.34-10.45,1.7-2.36,4.59-3.39,7.26-4.2,7.69-2.34,15.59-4.05,23.32-6.28,14.06-4,28.07-8.26,42.06-12.55,3.07-.94,1.76-5.76-1.33-4.82q-19.29,5.91-38.66,11.57c-8.18,2.38-16.41,4.44-24.63,6.66-7.23,2-13,5.16-14.69,13-.87,4.09-1.25,8.64.84,12.43a14,14,0,0,0,7.45,6c3.56,1.39,7.3,1.58,11.07,1.61,10.45.11,20.93.9,31.37,1.35l34,1.45a2.51,2.51,0,0,0,2.5-2.5,261.15,261.15,0,0,0-3.45-38,74.25,74.25,0,0,0-2.77-11.86C622.22,389.53,617.39,390.83,618.46,393.88Z"/>
    </g>
    <g>
      <path class="cls-6" d="M627,502.37S623.43,517.5,605.48,547l-53.57-37.94s-15.63-6.71-7.67-20.11c7.18-12.08,13.78-7.43,29.15-2.42S627,502.37,627,502.37Z"/>
      <path d="M624.59,501.71a72.06,72.06,0,0,1-3.94,11,252.15,252.15,0,0,1-17.33,33l3.42-.9-50.22-35.57c-5.93-4.2-14.94-8.2-11.12-17.16,1.35-3.15,3.89-7,7.37-8,3.17-.92,6.78.4,9.78,1.38,7.59,2.48,15.11,5.08,22.76,7.39,13.64,4.11,27.33,8.06,41,11.94,3.1.88,4.42-3.94,1.33-4.82q-18.84-5.34-37.6-10.91c-8.19-2.45-16.3-5-24.39-7.82-7-2.41-14.61-4.27-20.3,1.91-5.82,6.33-8.19,15.27-2.34,22.32,2.27,2.72,5.2,4.21,8.09,6.09,9,5.82,17.56,12.43,26.3,18.63l26.79,19a2.53,2.53,0,0,0,3.42-.9,257.14,257.14,0,0,0,17.65-33.75A74,74,0,0,0,629.41,503C630.16,499.91,625.34,498.57,624.59,501.71Z"/>
    </g>
    <path d="M422.7,526.36l41.49,1.18,5.89.17a2.55,2.55,0,0,0,2.5-2.5c.45-6.17-.18-13.7-4.41-18.52-2.13-2.42-5.65,1.13-3.54,3.54,3.26,3.71,3.29,10.3,2.95,15l2.5-2.5-41.5-1.18-5.88-.17c-3.22-.09-3.22,4.91,0,5Z"/>
    <path d="M418.54,510.29v3.85a2.5,2.5,0,0,0,5,0v-3.85a2.5,2.5,0,0,0-5,0Z"/>
    <line class="cls-9" x1="435.75" y1="510.29" x2="435.75" y2="524.23"/>
    <line class="cls-9" x1="451.99" y1="508.7" x2="451.99" y2="524.32"/>
    <path d="M444,527c.62,0-.28-.05-.12,0,.47.08.95.16,1.42.26a30.78,30.78,0,0,1,4.79,1.46,36.46,36.46,0,0,1,13.07,9.08,50,50,0,0,1,11.83,23,31.62,31.62,0,0,0,3.71,9.75c4.56,7.45,12.18,11.35,20.77,11.94L497,580c0,.1,0,.36,0,.44s0,.34,0,.46.09-.38-.05.25a11,11,0,0,1-1.27,3.49c-2.27,3.88-7,5.39-11.37,5.61a40.23,40.23,0,0,1-35.71-18.72,35.87,35.87,0,0,1-4-8c-1-3-5.81-1.75-4.82,1.33,3,9.24,9.94,17.66,17.91,23a45.21,45.21,0,0,0,25.75,7.43c6-.13,12.14-1.93,15.8-6.93A14.5,14.5,0,0,0,502,580a2.55,2.55,0,0,0-2.5-2.5c-7.29-.5-13.52-4.06-17.06-10.51-1.84-3.37-2.36-7-3.46-10.61-4.2-13.83-13-26.51-26.66-32.16A28.39,28.39,0,0,0,444,522c-3.2-.29-3.18,4.71,0,5Z"/>
    <path d="M454.7,300.72c-7.18,1.51-14.25,4.83-20.57,8.44A85.67,85.67,0,0,0,400,344.81c-5.89,11.71-9,24.5-10.05,37.52-.27,3.2,4.73,3.18,5,0,1.7-20.26,9-39.9,23.29-54.64a83.85,83.85,0,0,1,30.84-20,51.1,51.1,0,0,1,6.95-2.12c3.15-.67,1.82-5.49-1.33-4.82Z"/>
    <path d="M435,293.75a54.79,54.79,0,0,0-12.29,5.85,87.38,87.38,0,0,0-24.29,22.25,102,102,0,0,0-12.54,22.32c-1.23,3,3.6,4.26,4.82,1.33,8.11-19.49,22.64-36.81,42.13-45.58.75-.34,1.31-.58,2.44-1,.35-.13.7-.26,1.06-.36,3.07-.93,1.76-5.75-1.33-4.83Z"/>
    <path d="M412,288.58a68.82,68.82,0,0,0-10.83,7.74,92.58,92.58,0,0,0-20,23.31,87.15,87.15,0,0,0-9,20.8c-.89,3.1,3.94,4.43,4.82,1.33a85.21,85.21,0,0,1,33.91-46.61,41.53,41.53,0,0,1,3.59-2.25c2.82-1.54.3-5.86-2.53-4.32Z"/>
    <path d="M394.51,285.29a109.65,109.65,0,0,0-15.09,15.45c-9.3,11.28-17,24.16-20.53,38.45-.78,3.12,4,4.45,4.82,1.33,3.44-13.81,10.91-26.33,20-37.16a108.86,108.86,0,0,1,14.34-14.54c2.5-2-1.06-5.55-3.54-3.53Z"/>
    <path d="M375.32,281.74A94.14,94.14,0,0,0,363.74,297a121.36,121.36,0,0,0-16.49,40.43c-.65,3.14,4.17,4.48,4.82,1.33a117.67,117.67,0,0,1,16-39.24,88.83,88.83,0,0,1,10.8-14.28c2.24-2.31-1.29-5.85-3.53-3.53Z"/>
    <path d="M354.48,280.75a94.19,94.19,0,0,0-9.38,16.82,112,112,0,0,0-10.16,41.18c-.14,3.22,4.86,3.22,5,0a106,106,0,0,1,10-39.75,92.23,92.23,0,0,1,8.88-15.73c1.9-2.6-2.44-5.1-4.32-2.52Z"/>
    <path d="M337.78,280.75A123.08,123.08,0,0,0,330.14,298a131.08,131.08,0,0,0-8.41,39.37c-.15,3.22,4.85,3.21,5,0a126.83,126.83,0,0,1,8.23-38,117.12,117.12,0,0,1,7.13-16c1.57-2.81-2.75-5.34-4.31-2.52Z"/>
    <path d="M318.83,283.74a73.79,73.79,0,0,0-5.46,14.91,135.2,135.2,0,0,0-4.36,40.1c.11,3.21,5.11,3.23,5,0A130.57,130.57,0,0,1,318.19,300a69.23,69.23,0,0,1,4.95-13.72c1.5-2.84-2.81-5.37-4.31-2.52Z"/>
    <path d="M299.33,286.39a102,102,0,0,0-2.1,12.88,389.73,389.73,0,0,0-2.43,41.83c0,3.22,5,3.22,5,0a392,392,0,0,1,2.38-41.39,91.92,91.92,0,0,1,2-12c.81-3.12-4-4.45-4.82-1.33Z"/>
    <path d="M283,288.23c-3.47,19.32-3,39.81-.1,59.13.48,3.17,5.3,1.82,4.83-1.33a193.41,193.41,0,0,1-1.65-39.88,142.22,142.22,0,0,1,1.74-16.59c.57-3.14-4.25-4.49-4.82-1.33Z"/>
    <path d="M265.38,292.48c-.66,7.26-.84,14.59-.78,21.87.12,12.52.81,25.75,5.11,37.63,1.08,3,5.92,1.71,4.82-1.33-4.23-11.68-4.85-24.6-4.93-36.92-.05-7.08.14-14.2.78-21.25.29-3.2-4.71-3.18-5,0Z"/>
    <path d="M247.93,300a196.71,196.71,0,0,0,1,21.43c1.22,12.65,3.25,25.61,8.54,37.27,1.33,2.92,5.64.38,4.32-2.53-5.07-11.16-6.88-23.87-8-36a194.14,194.14,0,0,1-.91-20.18c0-3.22-5-3.22-5,0Z"/>
    <path d="M230.47,308.19a93.81,93.81,0,0,0,2.15,19.62c2.62,13.11,7.7,25.73,16,36.25,2,2.52,5.51-1,3.53-3.54-7.91-10-12.46-22.22-14.87-34.62a87.15,87.15,0,0,1-1.85-17.71c.05-3.22-4.95-3.22-5,0Z"/>
    <path d="M214.52,321.9a82.93,82.93,0,0,0,4.13,20.43c4.5,14.14,12.13,27.24,23,37.39,2.35,2.19,5.89-1.34,3.53-3.53a81.87,81.87,0,0,1-21.91-35.72,78.49,78.49,0,0,1-3.78-18.57c-.18-3.2-5.18-3.22-5,0Z"/>
    <path d="M199.9,335.9a150.15,150.15,0,0,0,21,41.82A92.68,92.68,0,0,0,234.45,393c2.4,2.13,6-1.4,3.53-3.54-10.78-9.56-18.66-22-25-34.86a144.89,144.89,0,0,1-8.29-20c-1-3.05-5.8-1.75-4.82,1.33Z"/>
    <path d="M183.69,347.36a85.07,85.07,0,0,0,5.74,13.22,134.54,134.54,0,0,0,20.07,28.7A137.93,137.93,0,0,0,229,406.83c2.58,1.93,5.07-2.41,2.52-4.31-17.8-13.32-32.89-31.68-41.38-52.22-.58-1.4-1.14-2.82-1.6-4.27-1-3.06-5.79-1.75-4.82,1.33Z"/>
    <path d="M171,363.55a93.6,93.6,0,0,0,7.86,14,125.41,125.41,0,0,0,24.7,28,105.44,105.44,0,0,0,22.19,14.26c2.89,1.37,5.43-2.93,2.52-4.31C206.51,405.2,189,387,177.68,365.84c-.84-1.58-1.68-3.17-2.38-4.81-1.28-2.95-5.58-.4-4.32,2.52Z"/>
    <path d="M160.76,379.73a100,100,0,0,0,9,13.72,128.86,128.86,0,0,0,26.32,26.19A100.51,100.51,0,0,0,218.6,432c3,1.18,4.29-3.65,1.33-4.82-21.76-8.58-39.82-25.81-52.17-45.43-.94-1.49-1.87-3-2.69-4.56-1.49-2.85-5.81-.33-4.31,2.52Z"/>
    <path d="M156.16,402c13.47,13.74,28,27.07,43.89,37.91,2.66,1.82,5.17-2.51,2.52-4.31C187,425,172.86,411.84,159.7,398.42c-2.26-2.3-5.8,1.23-3.54,3.53Z"/>
    <path d="M153.18,421.1c13.08,9.51,26.21,19,39.09,28.74,2.57,2,5.06-2.39,2.53-4.31-12.89-9.77-26-19.23-39.1-28.74-2.61-1.9-5.1,2.44-2.52,4.31Z"/>
    <path d="M152.18,439.86c12,6.72,24,13.4,36,20.2,2.8,1.59,5.32-2.73,2.52-4.32-11.95-6.79-24-13.48-36-20.19-2.81-1.58-5.33,2.74-2.52,4.31Z"/>
    <path d="M152.18,456.26c11.34,7.11,24,14,37.16,17,3.13.72,4.47-4.1,1.33-4.82-12.73-2.91-25-9.6-36-16.5-2.73-1.72-5.24,2.61-2.52,4.32Z"/>
    <path d="M150.73,471.35a111.08,111.08,0,0,0,43.43,16.2c3.15.43,4.51-4.39,1.33-4.82A107.8,107.8,0,0,1,153.25,467c-2.72-1.73-5.24,2.59-2.52,4.31Z"/>
    <path d="M150.73,485a67,67,0,0,0,12.49,7,154.64,154.64,0,0,0,37.57,11.42c3.15.57,4.5-4.25,1.33-4.82a149.54,149.54,0,0,1-36.84-11.13,66.72,66.72,0,0,1-12-6.76c-2.57-1.94-5.07,2.4-2.52,4.31Z"/>
    <path d="M150.73,501.61a92.49,92.49,0,0,0,38.67,11.18c3.21.17,3.2-4.83,0-5a86.73,86.73,0,0,1-36.15-10.5c-2.83-1.54-5.35,2.77-2.52,4.32Z"/>
    <path d="M150.73,529.5c9.12,5,20.2,7.23,30.5,7.12,3.22,0,3.23-5,0-5-9.42.1-19.62-1.89-28-6.44-2.83-1.53-5.35,2.78-2.52,4.32Z"/>
    <path d="M183.79,545.19c-10.85.2-22-2.46-32.18-6.28-3-1.14-4.32,3.7-1.33,4.82,10.52,4,22.24,6.66,33.51,6.46,3.21-.06,3.23-5.06,0-5Z"/>
    <line class="cls-9" x1="152.59" y1="595.91" x2="182.02" y2="592.78"/>
    <circle class="cls-9" cx="213.42" cy="725.75" r="25.86"/>
    <circle class="cls-9" cx="308" cy="698.04" r="25.86"/>
    <circle class="cls-9" cx="385.43" cy="642.75" r="25.86"/>
    <polyline class="cls-9" points="176.72 707.29 124.58 793.78 221.51 793.78 285.32 682.07"/>
    <path d="M332.09,694.94l55.26,44.75L395,745.9c1,.79,2.6,1.13,3.53,0,5.83-7,11.45-14.18,17-21.41,9.8-12.79,19.49-25.84,27.63-39.76,3.3-5.63,6.91-11.79,8.15-18.28a2.55,2.55,0,0,0-1.15-2.82L415.9,648.25,411,646.06c-2.91-1.31-5.46,3-2.53,4.32l34.29,15.37,4.9,2.2-1.15-2.82c-1,5.33-3.8,10.31-6.44,15-3.82,6.76-8.12,13.24-12.54,19.62C419.16,711.81,410.22,723.5,401,735c-2,2.48-4,5-6,7.4h3.53L343.3,697.62l-7.67-6.22c-2.48-2-6,1.51-3.54,3.54Z"/>
    <path class="cls-9" d="M421,653.28s-27.69,47.11-51.19,69"/>
    <path d="M348,707.23l13.42,49.27c1.12,4.13,2.76,8.43,3.43,12.68a8.69,8.69,0,0,1-3.56,8.77c-3,1.91-6.79,2.36-10.24,2.48-3.19.12-6.7,0-9.64-1.38A6.42,6.42,0,0,1,338,775.5a3.48,3.48,0,0,1-.29-1.71c0-.34.11-1.74,0-.75.45-3.64.06-7.45,0-11.11,0-3.22-5-3.23-5,0l.1,6.5a23.64,23.64,0,0,0,0,3.15c.16,1.06.15-.76,0,.13a11.07,11.07,0,0,0,2.49,9c4.46,5,12.68,5.17,18.82,4.48s12.63-3.14,14.94-9.41c1.81-4.93,0-9.77-1.26-14.53l-8.28-30.4-6.8-25c-.85-3.1-5.67-1.79-4.82,1.33Z"/>
    <path d="M299.24,762.23l1.54,13.42c.27,2.43.33,4.72,1.63,6.86,3,5,9.31,6.49,14.71,6.76a36.57,36.57,0,0,0,12.07-1.1c6.6-2,10.21-7.18,8.59-14.07-.74-3.13-5.56-1.81-4.82,1.33,2.06,8.78-9.52,9.08-15.47,8.85-4.06-.15-9-1.18-11-4.68,0-.06-.52-1.8-.35-.67-.19-1.22-.28-2.46-.42-3.69l-1.49-13c-.36-3.16-5.37-3.19-5,0Z"/>
    <path d="M266.82,763.77v12.79c0,2.59.1,4.84,1.57,7.12,5,7.78,18.22,7.43,26.3,5.9,5.68-1.07,11.32-4.22,11.46-10.65.07-3.21-4.93-3.21-5,0-.16,7.24-13.51,6.58-18.36,6.24-3.69-.27-8.23-1-10.33-4.41a4.39,4.39,0,0,1-.52-1.25,3.18,3.18,0,0,1-.14-.61c.14.77,0,.33,0,.13,0-.88,0-1.77,0-2.65V763.77c0-3.22-5-3.22-5,0Z"/>
    <path d="M230,774.52c0,6.85,4.94,12.77,11.32,14.79,3.37,1.06,7.15,1.11,10.69,1.17a27.85,27.85,0,0,0,11.63-2.06,13.49,13.49,0,0,0,8.16-12.64c.06-3.22-4.94-3.22-5,0-.17,9.3-10.37,9.91-17.47,9.55-4.62-.24-9.44-.73-12.32-4.85a12,12,0,0,1-1.81-4.33,3.6,3.6,0,0,1-.2-1.63c0-3.21-5-3.22-5,0Z"/>
    <line class="cls-9" x1="252.4" y1="739.71" x2="358.14" y2="734.98"/>
    <path d="M466.47,712.49,479.81,721a23.71,23.71,0,0,0,23,1.41,24.09,24.09,0,1,0-31-34.21l3.42-.9L446.79,673c-2.87-1.45-5.4,2.86-2.53,4.32l28.42,14.37a2.56,2.56,0,0,0,3.42-.9,19.11,19.11,0,1,1,9.84,27.94,21.72,21.72,0,0,1-4.42-2.5l-12.53-8c-2.72-1.75-5.23,2.58-2.52,4.31Z"/>
    <path d="M445.84,737.43l11.45,5.47c1.71.82,3.52,1.53,5.16,2.47a17.93,17.93,0,0,1,7,8.24,19.11,19.11,0,1,1-34.61-.8,2.56,2.56,0,0,0-.89-3.42l-27.2-16.57c-2.76-1.67-5.27,2.65-2.53,4.32l27.2,16.56-.89-3.42c-4.68,9.7-2.92,21.55,5.24,28.87a24.11,24.11,0,0,0,40.28-17.77c0-8.1-4.45-17.17-12-20.76l-15.7-7.5c-2.89-1.38-5.43,2.93-2.53,4.31Z"/>
    <path class="cls-9" d="M494.64,722.2a21.67,21.67,0,0,1-21.16,34.89"/>
    <path d="M470.34,770.82a101.66,101.66,0,0,0,21.34,12.71c9.87,4.31,21.61,7.37,31.24.92l11.58-7.77c2.65-1.78.15-6.12-2.53-4.32l-9.79,6.58c-3.3,2.21-6.34,4.06-10.46,4.27-10.92.56-21.9-5.51-30.85-11.16-1.81-1.14-3.6-2.34-5.35-3.58-.5-.35-1-.71-1.47-1.06-.25-.19-1.22-.94-.18-.13-2.51-1.94-6.07,1.57-3.53,3.54Z"/>
    <path d="M606.18,717.06l-21.57,22.09-34.22,35.06-8,8.15,2.44-.64c-6.09-1.05-9-5.88-10.18-11.59-.94-4.71-.15-9.49-1.24-14.21A28.94,28.94,0,0,0,526.64,743c-3.45-3.6-9.23-6-14.13-6.71a32.59,32.59,0,0,1-4.82-.72,9.46,9.46,0,0,1-6.8-7c-.81-3.11-5.63-1.79-4.82,1.33,1.84,7.06,8.39,11.25,15.52,11.26.72,0-.83-.19-.22-.05l1.09.24a34.61,34.61,0,0,1,5.11,1.65,16.86,16.86,0,0,1,7.32,5.75,25.55,25.55,0,0,1,4,9.81c.51,2.92.16,5.83.4,8.77.54,6.73,3.05,14.21,9.41,17.55,2.19,1.16,5.42,2.54,7.5.71.81-.72,1.54-1.58,2.3-2.36l10.29-10.54,30.65-31.4,20.26-20.75c2.25-2.3-1.29-5.84-3.54-3.53Z"/>
    <path class="cls-9" d="M510.52,712.46s4.77-6.16,13.69-2.23,27.67,12,32.8,31.06c0,0,2.79,13.63,6.41,23.15"/>
    <path class="cls-9" d="M570.62,673.28S522.19,705,513,710.4"/>
    <path class="cls-9" d="M612.56,664C602.39,678.28,593,682.54,593,682.54a16.16,16.16,0,1,1-13.29-29.26s24.47-6.39,64.46-44.25c0,0,15-15,13.49-43.38L656.8,547s-1.58-13.29,6.28-20.43l4.36-4.11"/>
    <path class="cls-9" d="M640.77,696.18a664,664,0,0,0-44.57-50.41"/>
    <path class="cls-9" d="M627,679.49c-14.11,5.14-20.6,12.34-20.6,12.34a16.16,16.16,0,0,0,10.68,28.29c4.12,0,8.34-1.3,13.26-7.91,0,0,13.1-20.54,25.24-32.5s36.06-33.94,36.06-33.94h6.24"/>
    <path class="cls-9" d="M638.6,614.18s25.11,22.82,38.09,45.07"/>
    <path d="M716.14,551.64c1.16.2,2.22,1.12,1.37,2.41-.53.79-1.94,1.22-2.8,1.54a44.75,44.75,0,0,1-7.57,1.95,119.52,119.52,0,0,0-17.57,5.07c-1.6.56-2.14.12-2.39-1.79a6,6,0,0,1,1.46-5.15,11.7,11.7,0,0,1,5.68-2.76c.54-.12,1.51-.19.38-.11l.66,0c16.66-.8,33.28-2.65,49.95-3.26a15.5,15.5,0,0,1,9.88,2.85c4.43,3.42,6.45,13,3.54,17.39a2.53,2.53,0,0,0,.9,3.43,8.46,8.46,0,0,1,4.78,7.06c.45,4.59,0,9.45-3.68,12.57-1.36,1.16-.66,3,.51,3.93-1-.76.15.17.37.39a11.89,11.89,0,0,1,1.35,1.57,11.72,11.72,0,0,1,2.21,7c0,5.41-3.48,7.92-8,10-1.63.73-1.38,2.81-.5,3.93-.74-.93.06.17.22.47a9.13,9.13,0,0,1,.8,2.21,11.54,11.54,0,0,1-1.12,8.25c-2.22,3.63-7.19,4.89-11.11,5.55-3.17.53-1.83,5.35,1.33,4.82,5.63-.94,12.1-3.38,14.65-8.92,2.27-4.91,2.19-11.53-1.24-15.92l-.51,3.93c6.23-2.78,10.48-7.13,10.52-14.27a16.7,16.7,0,0,0-6.41-13.25l.51,3.93c4.8-4.11,5.76-10.8,5.07-16.83-.5-4.27-3.05-8.9-7.19-10.66l.9,3.42c3.55-5.4,1.94-14.72-1.19-19.83-3.27-5.32-9.7-7.93-15.78-8-8.2,0-16.54,1-24.73,1.57l-18.45,1.21c-2.94.19-6,.17-8.89.62-5.06.78-10.7,4-11.67,9.39-.89,5,1.57,12.34,8,10.35,4-1.24,7.9-2.7,11.93-3.82,3.13-.87,6.31-1.38,9.46-2.13s8-1.81,9.93-4.85a6.52,6.52,0,0,0-4.18-10c-3.15-.53-4.5,4.29-1.33,4.82Z"/>
    <path d="M741.79,607.78a119.25,119.25,0,0,0-17.73.23c-11.65.91-23.39,3.11-34,8.06-1.74.81-3.25,1.48-4.35,3.06a9.39,9.39,0,0,0-1.45,7c.84,5,5,6.57,9.47,4.9,1.93-.72,3.61-1.87,5.46-2.74a47,47,0,0,1,16-4c4.47-.37,10-1.24,11.05-6.46a10.38,10.38,0,0,0-1.54-7.18c-1.68-2.73-6-.23-4.31,2.52a5.1,5.1,0,0,1,1,3.38c-.35,3-5.75,2.66-8,2.91a49.1,49.1,0,0,0-18.86,5.67,14.19,14.19,0,0,1-3,1.42c-2,.58-2.58-.19-2.43-2.43a3.78,3.78,0,0,1,1.29-2.74,16.73,16.73,0,0,1,2.88-1.27c1.29-.58,2.6-1.1,3.93-1.59a103,103,0,0,1,28.45-5.59,116.65,116.65,0,0,1,16.19-.12c3.21.23,3.2-4.77,0-5Z"/>
    <path d="M743.4,588c-14.43-1-29.63-.11-43.66,3.42a61.15,61.15,0,0,0-13.43,4.94,8.92,8.92,0,0,0-4.78,8.46c.68,12.38,15.63,3.34,21.87,1.88,5.37-1.25,11.57.16,16.41-3.08,3.67-2.46,4.5-6.64,4.85-10.76.27-3.21-4.73-3.19-5,0-.21,2.43-.51,5.24-2.73,6.68-3.57,2.29-8.63,1.25-12.62,1.9-4.66.76-8.94,2.68-13.39,4.18-.73.24-3.19,1.36-3.94.83s-.5-3-.15-3.82a6.33,6.33,0,0,1,.83-1.21c.2-.27.74-.59.15-.19a28.64,28.64,0,0,1,5.67-2.63,76.5,76.5,0,0,1,12.06-3.36A141.54,141.54,0,0,1,730,592.77c4.45-.1,8.93-.1,13.38.19,3.21.22,3.2-4.79,0-5Z"/>
    <path class="cls-9" d="M686.55,608.93s3,7.93,15.88,5.25"/>
    <path d="M741.79,565.21a123.82,123.82,0,0,0-16.9-.32c-11.2.42-22.68,1.92-33.19,6-3.5,1.34-7.6,2.6-8.74,6.63-1.34,4.72,1.49,8.86,6.29,9.12a19.88,19.88,0,0,0,7.42-1.37A86.64,86.64,0,0,1,708.49,582c4.57-.85,11,.67,13.84-3.9,1.57-2.48,1.7-5.72,1.18-8.54-.58-3.16-5.4-1.82-4.82,1.33.1.55-.05-.61,0,0,0,.45.08.89.08,1.34a5.58,5.58,0,0,1-.65,3.17c-.79,1.15-2,1-3.31,1a38,38,0,0,0-7,.67c-5.35.93-10.3,3.06-15.56,4.2-1,.22-3.17.77-4.08.06s-.61-2.58.09-3.42a8.63,8.63,0,0,1,2.64-1.42,63.69,63.69,0,0,1,7.68-2.72,110.11,110.11,0,0,1,27.5-4,124.51,124.51,0,0,1,15.69.37c3.2.31,3.18-4.69,0-5Z"/>
    <path class="cls-9" d="M686.55,565.57s.28,7.15,12.46,5.51"/>
    <path class="cls-9" d="M687.18,584.1s-3.74,11.53,13.91,9.53"/>
    <path class="cls-9" d="M685.87,496,668.59,516.6s-3.44,7.37,2.54,10.17S684,520.29,684,520.29l10-14.11s4.58-6.62,1.94-10.68C692.1,489.66,685.87,496,685.87,496Z"/>
    <path class="cls-9" d="M695.77,502.77s9.67,3.06,5.86,24.52a29.44,29.44,0,0,1-11.31,17.19s-4.66,3.84-2,8.25"/>
    <path d="M694.23,635.4c-.38,5.28.43,10.76,1.18,16,2.29,15.67,6.94,31,12.52,45.76,4.25,11.24,9.11,22.24,14.42,33,5.71,11.59,11.76,23,17,34.77s10.82,24.62,12.58,37.65a39.8,39.8,0,0,1,.27,4.27c0,.58,0,1.15-.09,1.73-.06.73.14-.57,0,.17,0,.19-.06.38-.11.57s-.17.58-.25.88c-.17.63.41-.42,0,0s.21-.18.1-.07c-1.71,1.68,0,5,2.43,4.18,7.31-2.55,14.5-5.49,21.61-8.54,14.35-6.14,28.51-13,41.64-21.5a108.7,108.7,0,0,0,19.69-15.66,2.55,2.55,0,0,0,0-3.54c-16.38-17.53-32-35.88-46.78-54.76C779.58,696.49,769,682.24,760.34,667c-3.28-5.75-6.64-11.85-8.46-18.26-1.46-5.13-3.34-10-6.79-14.18a18.08,18.08,0,0,0-11.78-6.65,68.62,68.62,0,0,0-20.17,1,73.31,73.31,0,0,0-7.89,2c-2.3.71-4.94,2.15-7.36,2.15s-3.55-2.26-3.84-4.38c-.43-3.17-5.25-1.82-4.82,1.33a10.28,10.28,0,0,0,3.22,6.09c3.58,3.14,7.89,1.67,11.88.35a71.1,71.1,0,0,1,14.31-3.31,77.08,77.08,0,0,1,8.86-.44c2.78,0,5.7-.1,8.32,1,6.07,2.43,9.42,9.44,11,15.4a76.41,76.41,0,0,0,6.39,15.33c8,15.38,18.35,29.58,28.86,43.31s21.65,27.17,33.05,40.27c6.08,7,12.23,13.94,18.55,20.71v-3.54c-10.52,11-24.22,18.84-37.63,25.75a358.63,358.63,0,0,1-35.73,15.93c-2.44.94-4.89,1.88-7.37,2.74l2.43,4.17c2-2,1.94-5.83,1.82-8.37-.51-10.94-4.8-21.86-8.83-31.89-9.18-22.85-21.76-44.09-31.28-66.78-6.94-16.56-12.79-33.77-16-51.47-1.15-6.38-2.31-13.22-1.84-19.74.24-3.21-4.76-3.19-5,0Z"/>
    <path class="cls-9" d="M726.16,732.18s40.74-10.67,55.69-28.92"/>
    <path d="M736.1,669.87c6,11.49,12.19,22.87,18.48,34.2,11.44,20.61,23.14,41.17,36.28,60.75,5.28,7.87,10.75,16.19,17.74,22.69,2.36,2.19,5.9-1.34,3.54-3.54-5.87-5.45-10.54-12.27-15-18.85-6.5-9.49-12.55-19.29-18.45-29.16-11-18.51-21.53-37.37-31.72-56.36-2.19-4.08-4.36-8.15-6.5-12.25-1.49-2.86-5.8-.33-4.32,2.52Z"/>
    <path d="M720.78,674.55q9.48,19.38,18.63,38.94c10.38,22.1,20.76,44.27,29.8,67,1.78,4.46,3.51,9,5,13.53.53,1.65,1,3.31,1.45,5,.14.61.27,1.22.38,1.84s0-.41,0,.26c0,.25,0,.52,0,.78,0,3.21,5,3.22,5,0a28.12,28.12,0,0,0-1.55-7.52c-1.19-3.9-2.62-7.73-4.09-11.53-4.11-10.65-8.67-21.13-13.29-31.57-9.67-21.79-19.82-43.37-30.15-64.85q-3.45-7.2-6.94-14.37c-1.42-2.89-5.73-.36-4.32,2.53Z"/>
    <path d="M744.29,546c-.59-14.81.62-29.7,2.14-44.43.83-8.05,1.77-16.1,3-24.11a2.56,2.56,0,0,0-2.41-3.17c-21.33-1-42.83-1.39-64.12.55-8.53.78-17.42,1.72-25.6,4.44a18.43,18.43,0,0,0-3.36,1.35,2.52,2.52,0,0,0-1.15,2.82c1.72,5.27,3.3,10.59,4.79,15.93,2.26,8.1,4.83,16.6,5.24,25.05.15,3.2,5.16,3.22,5,0-.43-8.72-2.95-17.44-5.26-25.81-1.54-5.53-3.17-11-4.95-16.5L656.44,485c.11-.07.4-.27.51-.25.39.08-.65.23.16-.06l1-.38a61.78,61.78,0,0,1,7.94-2.08c13-2.65,26.47-3.26,39.71-3.55,13.74-.29,27.48,0,41.2.66l-2.41-3.16a502.52,502.52,0,0,0-5.1,50.18c-.32,6.56-.46,13.13-.2,19.69.13,3.2,5.13,3.22,5,0Z"/>
    <path class="cls-9" d="M702.48,519.75s26.48-1.13,39.94-.76"/>
    <path d="M740.56,473.83c-1.39-2.21-2.61-4.14-1-6.56,1.13-1.73,2.24-3.16,2.53-5.27a8.72,8.72,0,0,0-1-5.44c-.29-.51-1.65-1.73-1.66-2.27,0,0,1.35-1.15,1.66-1.45,2.92-2.88,3.16-7.14,2.07-10.9-.31-1.06-.73-2.1-1.14-3.13-.13-.34-.93-1.7-.81-2.08.2-.62,1.6-1.34,2-1.84a8.48,8.48,0,0,0,1.59-2.7c1.33-3.59,0-6.72-2.56-9.26-.76-.75-2.07-1.63-2.25-2.76-.27-1.81,1.93-4.16,2.61-5.8,1.52-3.67,1.27-7.28-1.55-10.19-1.48-1.51-.94-2.19-.12-4a8.69,8.69,0,0,0,1-4.86,7.07,7.07,0,0,0-2.23-4c-1.08-1.08-3-2-2.35-3.72s2.52-3.11,3.31-4.92a8.15,8.15,0,0,0,.08-5.95,28.08,28.08,0,0,0-1.93-5,20.69,20.69,0,0,1-1.45-2.49c-.53-1.37,0-2.28.31-3.64a7.65,7.65,0,0,0-.47-5.6,7.35,7.35,0,0,0-1.44-2c-.31-.29-2.32-1.42-2.32-1.43-.14-.5.85-1.93,1-2.34a8.35,8.35,0,0,0,.77-2.67,8,8,0,0,0-1.53-5.7,13.24,13.24,0,0,0-3.57-3.05c-2-1.31-3-1.87-2.29-4.4.91-3.46,2-7.19-1.1-9.9a17.74,17.74,0,0,0-3.42-1.94c-1.56-.86-1.23-1.75-1-3.45.25-2,.23-4-1.21-5.59a6.54,6.54,0,0,0-2.62-1.59,7.11,7.11,0,0,1-2.27-.78c-1.19-1-.93-3.86-1.28-5.28a7.85,7.85,0,0,0-2.77-4.47c-1.41-1.09-3.09-1.51-4.64-2.33-2-1.07-1-3.13-1.78-5-1.75-4.53-9.27-3.4-9-8.77h-5c.15,1.63-4.27,2.26-5.5,3a8.74,8.74,0,0,0-3.44,4.43c-.6,1.74-.37,3.36-.34,5.15,0,1.28-.16,1.57-1.34,2.1a13.86,13.86,0,0,0-3,1.54,7.91,7.91,0,0,0-2.84,4.19c-.54,2,.49,4.62-.3,6.4-.86,1.94-4.48,2.55-6.12,3.73a7,7,0,0,0-2.64,3.29c-.83,2.36.42,4.23.36,6.55s-2.48,2.92-4,4.25a7.92,7.92,0,0,0-2.65,4.73,11.46,11.46,0,0,0,.33,5c.28,1,1,2.07.28,2.94-.52.63-1.69,1-2.32,1.53-3,2.76-2,6.9-.49,10.18.29.62,1,1.45.93,2.15,0,1.09-1.05,1.63-1.79,2.24a8.24,8.24,0,0,0-3,4.89,7.93,7.93,0,0,0,1.16,5.57c.78,1.35,1.81,2.61,1.4,4.25-.36,1.45-1.58,1.4-2.7,2.15a7.77,7.77,0,0,0-3.13,4.46,5.94,5.94,0,0,0,1.16,5.11c.58.74,1.39,1.22,2,1.91,1,1.13.23,1.39-.68,2.31-2.7,2.74-4.29,6.81-2.57,10.5.76,1.63,1.94,2.3,3.21,3.45,1,.89.83,1-.05,2.15a15,15,0,0,0-1.83,2.89c-1.73,3.85,0,6.85,2.15,10a6.45,6.45,0,0,1,.85,6.1c-.59,2.18-1.39,4.4-1.09,6.7a6.21,6.21,0,0,0,1.11,2.84c.67,1,1.87,1.61,2.29,2.74.91,2.37-.59,5.46-.23,8a6.79,6.79,0,0,0,3,5,10.86,10.86,0,0,0,1.06.45l.47.15c.57.08.63.14.18.2a11.42,11.42,0,0,0-.83,1,12.67,12.67,0,0,0-.72,1.59c-1.53,4.38.28,8.31,3.41,11.35,1,1,1.56,1.45.83,2.81-.54,1-1.42,1.77-2,2.77a6.14,6.14,0,0,0-.21,6.26c1.57,2.81,5.89.29,4.32-2.53-.63-1.13,2.37-4.17,2.82-5.27a5.84,5.84,0,0,0-.2-5.11c-.88-1.58-2.42-2.48-3.49-3.86a5.22,5.22,0,0,1-.31-5.8c.85-1.67,1.68-3.31,1.09-5.24s-1.84-2.19-3.36-2.95c-1.95-1-1.16-3.51-.93-5.35a10,10,0,0,0-.89-6.5c-1.05-1.76-2.77-2.26-2.48-4.55s1.43-4.57,1.57-7a9.44,9.44,0,0,0-1.29-5.19c-.87-1.54-2.64-3.08-2.92-4.88-.34-2.17,1.87-3.8,2.79-5.55a5.07,5.07,0,0,0-.15-5.37c-.89-1.31-2.53-1.79-3.44-3-1.42-1.91.18-4.17,1.56-5.56,1.2-1.21,2.39-2.29,2.63-4.08a6,6,0,0,0-2.22-5c-.58-.56-1.81-1.19-1.86-2.12s1.13-1.66,1.78-2a6.8,6.8,0,0,0,3.43-3,8.73,8.73,0,0,0-.17-8c-1.12-2.08-2.69-3.71-.54-5.76,1.42-1.35,2.9-2.22,3.53-4.24a7.07,7.07,0,0,0-.62-5.1c-.55-1.22-2.22-3.79-1.46-5.2s2.87-1.7,3.76-3c1.2-1.75.94-3.73.36-5.64-.5-1.67-1.25-3.78-.07-5.36.66-.88,2-1.27,2.85-1.9a8,8,0,0,0,2.05-2.12,8,8,0,0,0,1.34-4.78c-.08-1.8-1.47-4,.07-5.37,2.26-2.05,5.58-2.07,7.37-4.88a8.71,8.71,0,0,0,1-5.45c-.17-3.14.62-4.06,3.44-5.21a5.92,5.92,0,0,0,3.85-4.21c.48-2-.48-4.28.37-6.17,1.08-2.37,4.07-2.25,6.08-3.43a5.67,5.67,0,0,0,3-5.36c-.29-3.17-4.85-3.26-5,0a8.87,8.87,0,0,0,5.82,8.79,12.27,12.27,0,0,1,2.59,1c1.22.86,1,1.7,1.11,3.08a6.15,6.15,0,0,0,2.36,4.38,17,17,0,0,0,3.84,2,4.09,4.09,0,0,1,2.84,3.65c.59,3.29,1,6.44,4.48,7.88.58.24,2,.35,2.39.77s.28,1.36.19,2.1c-.24,1.82-.42,3.68.53,5.35a7.11,7.11,0,0,0,2.94,2.68c.84.46,2.41.79,2.93,1.67.91,1.53-.84,4.53-1.11,6.12a6.7,6.7,0,0,0,1.19,5.36c1.86,2.45,7.43,3.81,6.31,7.62-.53,1.8-1.79,3.2-1.67,5.19.12,2.16,1.48,3.15,3.1,4.28,2.25,1.57,1,3.27.62,5.5a8.28,8.28,0,0,0,1.19,5.73,31.42,31.42,0,0,1,2.42,5.35c.84,2.49-.07,3.63-1.57,5.59-2.3,3-2.93,6.59-.22,9.57.82.89,2.82,1.94,3,3.21.23,1.47-1.38,3.41-1.78,4.78a6.11,6.11,0,0,0,.25,4.47c.83,1.64,3,2.63,3.08,4.54.23,4.16-4.36,7-3.5,11.37.62,3.2,3.62,4.2,5,6.82,1.21,2.37-1,3.73-2.41,5.19-1.57,1.66-1.65,3.71-.94,5.79.8,2.31,2.13,4.61,2.06,7.14s-2,3.37-3.35,5.26a4.82,4.82,0,0,0-.33,5.43c1.33,2.28,3,3.66,1.24,6.35-1.26,2-2.65,3.61-2.69,6.09s1.25,5,2.6,7.1c1.72,2.72,6,.21,4.32-2.52Z"/>
    <line class="cls-9" x1="654.3" y1="382.91" x2="738.52" y2="381.36"/>
    <path class="cls-9" d="M653.42,415.8l14-.95S679.5,414.08,681,424s-4.91,13.13-8.89,13.74a99.59,99.59,0,0,1-13.34.95"/>
    <path d="M195.61,335.86a50.38,50.38,0,1,0-12.37.66c7.09.51,14-.31,19.71-4.93,13-10.52,9.77-31.75-5.59-38.13-10.23-4.25-21.73.39-22.82,12.32-.38,4.06,1.27,8.7,4.77,11,4.82,3.16,13.88,1.54,15-4.85a8.35,8.35,0,0,0-.37-4.4c-1.16-3-6-1.67-4.82,1.33,1.29,3.3-2.13,5-5.57,4.35a5,5,0,0,1-3.6-3.52,7.78,7.78,0,0,1-.53-2.48c0-4.62,2.41-8.68,6.94-10a14.12,14.12,0,0,1,1.93-.42c-.6.08.19,0,.42,0a17.15,17.15,0,0,1,8.46,2.16c12.54,7,11.53,26-1.78,31.46-5.19,2.14-11.94,1.53-17.3.47a45.23,45.23,0,1,1,25.73-2.52,47.51,47.51,0,0,1-9.57,2.72c-3.16.58-1.83,5.39,1.33,4.83Z"/>
    <path d="M139.16,299l14.46,7.46c2.86,1.47,5.39-2.84,2.53-4.32l-14.46-7.46c-2.86-1.47-5.39,2.84-2.53,4.32Z"/>
    <path d="M154.17,290.32l-13-8.95c-2.66-1.84-5.16,2.5-2.53,4.31l13,9c2.66,1.83,5.16-2.5,2.53-4.32Z"/>
    <path d="M140.93,269.72l14.62,17c2.1,2.44,5.63-1.11,3.54-3.54l-14.63-17c-2.1-2.44-5.62,1.11-3.53,3.53Z"/>
    <path d="M150.34,254.87,162.92,277c1.59,2.8,5.92.28,4.32-2.52l-12.58-22.09c-1.59-2.8-5.92-.28-4.32,2.52Z"/>
    <path d="M165.81,243.05l6.91,27.83c.77,3.12,5.59,1.8,4.82-1.33l-6.91-27.83c-.77-3.12-5.59-1.8-4.82,1.33Z"/>
    <path d="M197.83,241.6l-3.44,28.62c-.38,3.19,4.62,3.16,5,0l3.44-28.62c.39-3.19-4.62-3.16-5,0Z"/>
    <path d="M212.25,247l-8.34,25.28c-1,3.07,3.82,4.38,4.83,1.33l8.33-25.28c1-3.06-3.81-4.37-4.82-1.33Z"/>
    <path d="M225,259.74l-12.5,17.59c-1.87,2.63,2.46,5.13,4.31,2.52l12.5-17.59c1.87-2.63-2.46-5.13-4.31-2.52Z"/>
    <path d="M231.21,272.67,218.1,285.29c-2.32,2.23,1.22,5.76,3.54,3.53l13.1-12.61c2.32-2.24-1.21-5.77-3.53-3.54Z"/>
    <path d="M222.18,299.92l12.66-7.28c2.78-1.6.27-5.93-2.53-4.32l-12.66,7.29c-2.79,1.6-.27,5.92,2.53,4.31Z"/>
    <path d="M188.6,268c.32-14.44.61-28.76.21-43.19l-2-73.37c-.36-13.2.06-25.81-5.42-38.2a46.54,46.54,0,0,0-11.16-15.71C164,91.87,156.86,89,148.92,86.76c-4.88-1.39-9.73-2.65-14.88-2.07-6.54.75-15,6.29-12.74,14,1.53,5.22,7.5,8,12.27,9.49l1.31.41c.49.17-.59-.27-.11,0,.17.08.35.15.52.24.55.28,1.09.56,1.63.89,9,5.46,13.4,17.06,14.94,27.4a88.52,88.52,0,0,1,.74,15.52l2.5-2.5c-8.8-1.05-18.83,1.28-25.74,6.87a31.52,31.52,0,0,0-10.61,16.68c-1.34,6.08-.15,12.31.59,18.38,2.62,21.58,8.18,42.72,13.62,63.72q2.5,9.69,5.14,19.35c.85,3.1,5.68,1.78,4.82-1.33q-6.18-22.5-11.58-45.21c-2.34-9.9-4.67-19.86-6.19-29.92-.81-5.38-1.54-10.85-1.91-16.27a23.64,23.64,0,0,1,4.45-16.13c6.16-8.76,16.94-12.39,27.41-11.14,1.37.17,2.46-1.28,2.5-2.5.42-14.45-1.62-30.69-11.72-41.87-3.61-4-7.6-6.07-12.47-7.89-4.57-1.7-10.25-5.43-5.43-10.37,4.36-4.47,12.25-3.12,17.6-1.55,6,1.75,11.85,3.41,17.12,7a39.83,39.83,0,0,1,12.71,14.42,50.86,50.86,0,0,1,5.9,21.2c.19,4.79.26,9.58.39,14.38l2,71.54c.18,6.59.46,13.19.54,19.78.1,8.38-.35,16.81-.53,25.19L183.6,268c-.07,3.22,4.93,3.21,5,0Z"/>
    <path d="M154.27,175.06c-6.28-7.73-16-14-25.88-15.36-3.15-.44-4.51,4.38-1.33,4.83,9.17,1.29,17.86,6.9,23.67,14.06,2,2.5,5.55-1.05,3.54-3.53Z"/>
    <path d="M149.41,183.5c-6.5-8.18-17.6-12.64-27.69-13.7-3.2-.33-3.18,4.67,0,5,8.85.93,18.48,5.1,24.16,12.23,2,2.52,5.52-1,3.53-3.53Z"/>
    <path d="M237.41,151.68c-9.45,5.42-19.1,12-26.25,20.31-2.09,2.43,1.43,6,3.54,3.54,6.89-8,16.11-14.3,25.24-19.53,2.79-1.6.27-5.92-2.53-4.32Z"/>
    <path d="M247.22,161.64c-10.11,5.25-20.34,11.38-28.7,19.18-2.36,2.19,1.18,5.72,3.54,3.53,8-7.5,17.95-13.34,27.68-18.39,2.86-1.48.34-5.8-2.52-4.32Z"/>
    <path d="M124.5,214.81l32.15,10c3.08,1,4.4-3.86,1.33-4.82l-32.15-10c-3.08-1-4.4,3.87-1.33,4.82Z"/>
    <path d="M127.06,227.88l29.59,7.75c3.12.82,4.45-4,1.33-4.82l-29.59-7.75c-3.12-.82-4.45,4-1.33,4.82Z"/>
    <path d="M244.77,206.85l-31.37,15c-2.9,1.39-.37,5.7,2.53,4.32l31.36-15c2.9-1.39.37-5.7-2.52-4.32Z"/>
    <path d="M242.78,221.62l-26.43,9.19c-3,1.05-1.72,5.88,1.33,4.82l26.43-9.19c3-1.05,1.72-5.88-1.33-4.82Z"/>
    <path d="M186.31,133.61c2.44-18.43,11.38-40.9,30.86-45.92.56-.14,1.12-.25,1.68-.36s-.45.06-.4,0l1.46-.23c4.15-.67,8.73-1.23,12.89-.39,2.1.43,3.47.93,3.55,3.18.11,3.21-1.61,5.84-4.08,7.75a30.41,30.41,0,0,1-7.29,3.67A19,19,0,0,0,216.7,108c-8.55,11.86-8.07,28.7-6.27,42.44a2.56,2.56,0,0,0,3.16,2.41l.65-.1c.24,0,1.61-.19,2.27-.25a70.9,70.9,0,0,1,8-.34c5.74.09,12.89.67,17.19,4.95,6.38,6.35,7.31,15,6.46,23.48-.07.69-.15,1.38-.23,2.07,0,.27.1-.66,0,.07-.08.5-.15,1-.24,1.52-.23,1.45-.48,2.9-.74,4.35-3.71,21-7.91,42-12,63q-1.86,9.51-3.74,19c-.62,3.14,4.2,4.49,4.82,1.33q5.09-25.71,10-51.46c2-10.27,4-20.55,5.78-30.86,2-11.42,3.3-23.64-4.32-33.43-8-10.29-23.43-10.1-35.22-8.16l3.17,2.41c-1.68-12.83-2.56-29,5.67-40,4-5.36,12-5.83,16.64-11,3.75-4.22,5.91-12.75,0-16.17-4.48-2.6-10.75-2-15.67-1.41-1,.13-2,.26-3.05.42-.32,0-2.09.38-.59.13-.52.09-1,.14-1.55.24-6.27,1.28-12.14,4.88-16.82,9.12-11.77,10.65-16.74,26.59-18.76,41.87-.42,3.18,4.58,3.15,5,0Z"/>
    <path class="cls-9" d="M158.79,545.58s-9.88,21.69-5.53,50.33l2.21-.3"/>
    <path d="M153,595.61c.41,10.21.67,20.42.86,30.64.35,19.1.51,38.25-.39,57.34-.37,7.87-.73,15.92-2.41,23.65a2.54,2.54,0,0,0,2.41,3.16c4.92.19,9.88,0,14.8-.16a357.26,357.26,0,0,0,38.49-3.7,337.91,337.91,0,0,0,51.8-11.85,268.63,268.63,0,0,0,56.18-24.75,207.38,207.38,0,0,0,51.37-42.51q2.85-3.3,5.54-6.72a2.55,2.55,0,0,0-1.1-4.18c-10.95-4.24-21.67-9.09-32.27-14.15-20.57-9.81-41-20.69-59.2-34.5-8.69-6.59-17.35-14.16-23.09-23.56-1.67-2.74-6-.23-4.31,2.52,5.2,8.54,12.63,15.59,20.36,21.83a240.68,240.68,0,0,0,29.12,19.8,490.2,490.2,0,0,0,55.67,27.76c4.11,1.76,8.22,3.51,12.39,5.12l-1.1-4.18c-26.72,33.89-64.25,56.94-104.79,70.7a339.1,339.1,0,0,1-91.71,17.22c-6,.3-12.11.54-18.15.31l2.41,3.17a136.18,136.18,0,0,0,2.38-20.93c.54-9.4.74-18.83.81-28.24.14-17.56-.16-35.12-.69-52.67-.11-3.71-.23-7.42-.38-11.12-.13-3.21-5.13-3.23-5,0Z"/>
  </g>
</svg>
